<?xml version="1.0" encoding="us-ascii" standalone="no"?><svg xmlns="http://www.w3.org/2000/svg" xmlns:xlink="http://www.w3.org/1999/xlink" contentStyleType="text/css" height="142px" preserveAspectRatio="none" style="width:356px;height:142px;background:#FFFFFF;" version="1.1" viewBox="0 0 356 142" width="356px" zoomAndPan="magnify"><defs/><g><!--class FileOperations--><g id="elem_FileOperations"><rect codeLine="1" fill="#F1F1F1" height="121.4531" id="FileOperations" rx="2.5" ry="2.5" style="stroke:#181818;stroke-width:0.5;" width="335" x="7" y="7"/><ellipse cx="120.75" cy="27.1328" fill="#ADD1B2" rx="11" ry="11" style="stroke:#181818;stroke-width:1.0;"/><path d="M123.7188,32.7734 Q123.1406,33.0703 122.5,33.2109 Q121.8594,33.3672 121.1563,33.3672 Q118.6563,33.3672 117.3281,31.7266 Q116.0156,30.0703 116.0156,26.9453 Q116.0156,23.8203 117.3281,22.1641 Q118.6563,20.5078 121.1563,20.5078 Q121.8594,20.5078 122.5,20.6641 Q123.1563,20.8203 123.7188,21.1172 L123.7188,23.8359 Q123.0938,23.2578 122.5,22.9922 Q121.9063,22.7109 121.2813,22.7109 Q119.9375,22.7109 119.25,23.7891 Q118.5625,24.8516 118.5625,26.9453 Q118.5625,29.0391 119.25,30.1172 Q119.9375,31.1797 121.2813,31.1797 Q121.9063,31.1797 122.5,30.9141 Q123.0938,30.6328 123.7188,30.0547 L123.7188,32.7734 Z " fill="#000000"/><text fill="#000000" font-family="sans-serif" font-size="12" font-style="italic" lengthAdjust="spacing" textLength="48" x="166.75" y="23.1387">&#171;static&#187;</text><text fill="#000000" font-family="sans-serif" font-size="14" lengthAdjust="spacing" textLength="99" x="141.25" y="38.9639">FileOperations</text><line style="stroke:#181818;stroke-width:0.5;" x1="8" x2="341" y1="47.2656" y2="47.2656"/><ellipse cx="18" cy="60.9141" fill="none" rx="3" ry="3" style="stroke:#038048;stroke-width:1.0;"/><text fill="#000000" font-family="sans-serif" font-size="14" lengthAdjust="spacing" text-decoration="underline" textLength="309" x="27" y="64.2607">BestandProducten : string = "productlijst.txt"</text><ellipse cx="18" cy="77.2109" fill="none" rx="3" ry="3" style="stroke:#038048;stroke-width:1.0;"/><text fill="#000000" font-family="sans-serif" font-size="14" lengthAdjust="spacing" text-decoration="underline" textLength="255" x="27" y="80.5576">BestandFouten : string = "fouten.txt"</text><line style="stroke:#181818;stroke-width:0.5;" x1="8" x2="341" y1="87.8594" y2="87.8594"/><ellipse cx="18" cy="101.5078" fill="#84BE84" rx="3" ry="3" style="stroke:#038048;stroke-width:1.0;"/><text fill="#000000" font-family="sans-serif" font-size="14" lengthAdjust="spacing" text-decoration="underline" textLength="229" x="27" y="104.8545">LeesProducten() : List&lt;Product&gt;</text><ellipse cx="18" cy="117.8047" fill="#84BE84" rx="3" ry="3" style="stroke:#038048;stroke-width:1.0;"/><text fill="#000000" font-family="sans-serif" font-size="14" lengthAdjust="spacing" text-decoration="underline" textLength="234" x="27" y="121.1514">FoutLoggen(fout:Exception) : void</text></g><!--SRC=[TOz12i8m44NtFSNGbI9uW1Ap4Emge5SeoHWY8GcPgHHAxsvYnKNHMNqUy_umsWz4q3kFruHvO1S3WH349MefOMwWp07cbInmnfA2kULeHiqOe0FYx8A54xHffTuzY8yySVl7xkEuLUzlz5DIYFIzjziNJJbYyK5okrxBLRIsxDRIxZ9fJFMnQZwZCyto0W00]--></g></svg>