<?xml version="1.0" encoding="us-ascii" standalone="no"?><svg xmlns="http://www.w3.org/2000/svg" xmlns:xlink="http://www.w3.org/1999/xlink" contentStyleType="text/css" height="186px" preserveAspectRatio="none" style="width:375px;height:186px;background:#FFFFFF;" version="1.1" viewBox="0 0 375 186" width="375px" zoomAndPan="magnify"><defs/><g><!--class LegeTekstueleWaardeException--><g id="elem_LegeTekstueleWaardeException"><rect codeLine="1" fill="#F1F1F1" height="64.2969" id="LegeTekstueleWaardeException" rx="2.5" ry="2.5" style="stroke:#181818;stroke-width:0.5;" width="361" x="7" y="115"/><ellipse cx="71.75" cy="131" fill="#ADD1B2" rx="11" ry="11" style="stroke:#181818;stroke-width:1.0;"/><path d="M74.7188,136.6406 Q74.1406,136.9375 73.5,137.0781 Q72.8594,137.2344 72.1563,137.2344 Q69.6563,137.2344 68.3281,135.5938 Q67.0156,133.9375 67.0156,130.8125 Q67.0156,127.6875 68.3281,126.0313 Q69.6563,124.375 72.1563,124.375 Q72.8594,124.375 73.5,124.5313 Q74.1563,124.6875 74.7188,124.9844 L74.7188,127.7031 Q74.0938,127.125 73.5,126.8594 Q72.9063,126.5781 72.2813,126.5781 Q70.9375,126.5781 70.25,127.6563 Q69.5625,128.7188 69.5625,130.8125 Q69.5625,132.9063 70.25,133.9844 Q70.9375,135.0469 72.2813,135.0469 Q72.9063,135.0469 73.5,134.7813 Q74.0938,134.5 74.7188,133.9219 L74.7188,136.6406 Z " fill="#000000"/><text fill="#000000" font-family="sans-serif" font-size="14" lengthAdjust="spacing" textLength="223" x="92.25" y="135.8467">LegeTekstueleWaardeException</text><line style="stroke:#181818;stroke-width:0.5;" x1="8" x2="367" y1="147" y2="147"/><line style="stroke:#181818;stroke-width:0.5;" x1="8" x2="367" y1="155" y2="155"/><ellipse cx="18" cy="168.6484" fill="#84BE84" rx="3" ry="3" style="stroke:#038048;stroke-width:1.0;"/><text fill="#000000" font-family="sans-serif" font-size="14" lengthAdjust="spacing" textLength="335" x="27" y="171.9951">LegeTekstueleWaardeException(attribuut:string)</text></g><!--class Exception--><g id="elem_Exception"><rect fill="#F1F1F1" height="48" id="Exception" rx="2.5" ry="2.5" style="stroke:#181818;stroke-width:0.5;" width="100" x="137.5" y="7"/><ellipse cx="152.5" cy="23" fill="#ADD1B2" rx="11" ry="11" style="stroke:#181818;stroke-width:1.0;"/><path d="M155.4688,28.6406 Q154.8906,28.9375 154.25,29.0781 Q153.6094,29.2344 152.9063,29.2344 Q150.4063,29.2344 149.0781,27.5938 Q147.7656,25.9375 147.7656,22.8125 Q147.7656,19.6875 149.0781,18.0313 Q150.4063,16.375 152.9063,16.375 Q153.6094,16.375 154.25,16.5313 Q154.9063,16.6875 155.4688,16.9844 L155.4688,19.7031 Q154.8438,19.125 154.25,18.8594 Q153.6563,18.5781 153.0313,18.5781 Q151.6875,18.5781 151,19.6563 Q150.3125,20.7188 150.3125,22.8125 Q150.3125,24.9063 151,25.9844 Q151.6875,27.0469 153.0313,27.0469 Q153.6563,27.0469 154.25,26.7813 Q154.8438,26.5 155.4688,25.9219 L155.4688,28.6406 Z " fill="#000000"/><text fill="#000000" font-family="sans-serif" font-size="14" lengthAdjust="spacing" textLength="68" x="166.5" y="27.8467">Exception</text><line style="stroke:#181818;stroke-width:0.5;" x1="138.5" x2="236.5" y1="39" y2="39"/><line style="stroke:#181818;stroke-width:0.5;" x1="138.5" x2="236.5" y1="47" y2="47"/></g><!--reverse link Exception to LegeTekstueleWaardeException--><g id="link_Exception_LegeTekstueleWaardeException"><path codeLine="4" d="M187.5,73.07 C187.5,90.25 187.5,95.88 187.5,114.75 " fill="none" id="Exception-backto-LegeTekstueleWaardeException" style="stroke:#181818;stroke-width:1.0;"/><polygon fill="none" points="187.5,55.07,181.5,73.07,193.5,73.07,187.5,55.07" style="stroke:#181818;stroke-width:1.0;"/></g><!--SRC=[Iyv9B2vMy4bDJmr9pIukAKtDIGrFJ2nAINMjI4ujACdCprEevb800csyYZGIIqgACfDAIqkiYe6Cl7HDhbekX14sDRgwUFK30000]--></g></svg>