<?xml version="1.0" encoding="us-ascii" standalone="no"?><svg xmlns="http://www.w3.org/2000/svg" xmlns:xlink="http://www.w3.org/1999/xlink" contentStyleType="text/css" height="186px" preserveAspectRatio="none" style="width:412px;height:186px;background:#FFFFFF;" version="1.1" viewBox="0 0 412 186" width="412px" zoomAndPan="magnify"><defs/><g><!--class NumeriekeWaardeOnderNulException--><g id="elem_NumeriekeWaardeOnderNulException"><rect codeLine="1" fill="#F1F1F1" height="64.2969" id="NumeriekeWaardeOnderNulException" rx="2.5" ry="2.5" style="stroke:#181818;stroke-width:0.5;" width="398" x="7" y="115"/><ellipse cx="71.75" cy="131" fill="#ADD1B2" rx="11" ry="11" style="stroke:#181818;stroke-width:1.0;"/><path d="M74.7188,136.6406 Q74.1406,136.9375 73.5,137.0781 Q72.8594,137.2344 72.1563,137.2344 Q69.6563,137.2344 68.3281,135.5938 Q67.0156,133.9375 67.0156,130.8125 Q67.0156,127.6875 68.3281,126.0313 Q69.6563,124.375 72.1563,124.375 Q72.8594,124.375 73.5,124.5313 Q74.1563,124.6875 74.7188,124.9844 L74.7188,127.7031 Q74.0938,127.125 73.5,126.8594 Q72.9063,126.5781 72.2813,126.5781 Q70.9375,126.5781 70.25,127.6563 Q69.5625,128.7188 69.5625,130.8125 Q69.5625,132.9063 70.25,133.9844 Q70.9375,135.0469 72.2813,135.0469 Q72.9063,135.0469 73.5,134.7813 Q74.0938,134.5 74.7188,133.9219 L74.7188,136.6406 Z " fill="#000000"/><text fill="#000000" font-family="sans-serif" font-size="14" lengthAdjust="spacing" textLength="260" x="92.25" y="135.8467">NumeriekeWaardeOnderNulException</text><line style="stroke:#181818;stroke-width:0.5;" x1="8" x2="404" y1="147" y2="147"/><line style="stroke:#181818;stroke-width:0.5;" x1="8" x2="404" y1="155" y2="155"/><ellipse cx="18" cy="168.6484" fill="#84BE84" rx="3" ry="3" style="stroke:#038048;stroke-width:1.0;"/><text fill="#000000" font-family="sans-serif" font-size="14" lengthAdjust="spacing" textLength="372" x="27" y="171.9951">NumeriekeWaardeOnderNulException(attribuut:string)</text></g><!--class Exception--><g id="elem_Exception"><rect fill="#F1F1F1" height="48" id="Exception" rx="2.5" ry="2.5" style="stroke:#181818;stroke-width:0.5;" width="100" x="156" y="7"/><ellipse cx="171" cy="23" fill="#ADD1B2" rx="11" ry="11" style="stroke:#181818;stroke-width:1.0;"/><path d="M173.9688,28.6406 Q173.3906,28.9375 172.75,29.0781 Q172.1094,29.2344 171.4063,29.2344 Q168.9063,29.2344 167.5781,27.5938 Q166.2656,25.9375 166.2656,22.8125 Q166.2656,19.6875 167.5781,18.0313 Q168.9063,16.375 171.4063,16.375 Q172.1094,16.375 172.75,16.5313 Q173.4063,16.6875 173.9688,16.9844 L173.9688,19.7031 Q173.3438,19.125 172.75,18.8594 Q172.1563,18.5781 171.5313,18.5781 Q170.1875,18.5781 169.5,19.6563 Q168.8125,20.7188 168.8125,22.8125 Q168.8125,24.9063 169.5,25.9844 Q170.1875,27.0469 171.5313,27.0469 Q172.1563,27.0469 172.75,26.7813 Q173.3438,26.5 173.9688,25.9219 L173.9688,28.6406 Z " fill="#000000"/><text fill="#000000" font-family="sans-serif" font-size="14" lengthAdjust="spacing" textLength="68" x="185" y="27.8467">Exception</text><line style="stroke:#181818;stroke-width:0.5;" x1="157" x2="255" y1="39" y2="39"/><line style="stroke:#181818;stroke-width:0.5;" x1="157" x2="255" y1="47" y2="47"/></g><!--reverse link Exception to NumeriekeWaardeOnderNulException--><g id="link_Exception_NumeriekeWaardeOnderNulException"><path codeLine="4" d="M206,73.07 C206,90.25 206,95.88 206,114.75 " fill="none" id="Exception-backto-NumeriekeWaardeOnderNulException" style="stroke:#181818;stroke-width:1.0;"/><polygon fill="none" points="206,55.07,200,73.07,212,73.07,206,55.07" style="stroke:#181818;stroke-width:1.0;"/></g><!--SRC=[Iyv9B2vMy2lDJItAJCrE3KzCB4f9zSzBIItoAyrnhKXEBIZ9pCzJgEPI009jWWer4ajAYZAJIajBh8g1ZBnqJQvQBeGnDZMwkWJD0000]--></g></svg>