<?xml version="1.0" encoding="us-ascii" standalone="no"?><svg xmlns="http://www.w3.org/2000/svg" xmlns:xlink="http://www.w3.org/1999/xlink" contentStyleType="text/css" height="398px" preserveAspectRatio="none" style="width:2251px;height:398px;background:#FFFFFF;" version="1.1" viewBox="0 0 2251 398" width="2251px" zoomAndPan="magnify"><defs/><g><!--class LegeTekstueleWaardeException--><g id="elem_LegeTekstueleWaardeException"><rect codeLine="1" fill="#F1F1F1" height="64.2969" id="LegeTekstueleWaardeException" rx="2.5" ry="2.5" style="stroke:#181818;stroke-width:0.5;" width="361" x="7" y="278"/><ellipse cx="71.75" cy="294" fill="#ADD1B2" rx="11" ry="11" style="stroke:#181818;stroke-width:1.0;"/><path d="M74.7188,299.6406 Q74.1406,299.9375 73.5,300.0781 Q72.8594,300.2344 72.1563,300.2344 Q69.6563,300.2344 68.3281,298.5938 Q67.0156,296.9375 67.0156,293.8125 Q67.0156,290.6875 68.3281,289.0313 Q69.6563,287.375 72.1563,287.375 Q72.8594,287.375 73.5,287.5313 Q74.1563,287.6875 74.7188,287.9844 L74.7188,290.7031 Q74.0938,290.125 73.5,289.8594 Q72.9063,289.5781 72.2813,289.5781 Q70.9375,289.5781 70.25,290.6563 Q69.5625,291.7188 69.5625,293.8125 Q69.5625,295.9063 70.25,296.9844 Q70.9375,298.0469 72.2813,298.0469 Q72.9063,298.0469 73.5,297.7813 Q74.0938,297.5 74.7188,296.9219 L74.7188,299.6406 Z " fill="#000000"/><text fill="#000000" font-family="sans-serif" font-size="14" lengthAdjust="spacing" textLength="223" x="92.25" y="298.8467">LegeTekstueleWaardeException</text><line style="stroke:#181818;stroke-width:0.5;" x1="8" x2="367" y1="310" y2="310"/><line style="stroke:#181818;stroke-width:0.5;" x1="8" x2="367" y1="318" y2="318"/><ellipse cx="18" cy="331.6484" fill="#84BE84" rx="3" ry="3" style="stroke:#038048;stroke-width:1.0;"/><text fill="#000000" font-family="sans-serif" font-size="14" lengthAdjust="spacing" textLength="335" x="27" y="334.9951">LegeTekstueleWaardeException(attribuut:string)</text></g><!--class Exception--><g id="elem_Exception"><rect fill="#F1F1F1" height="48" id="Exception" rx="2.5" ry="2.5" style="stroke:#181818;stroke-width:0.5;" width="100" x="481.5" y="64"/><ellipse cx="496.5" cy="80" fill="#ADD1B2" rx="11" ry="11" style="stroke:#181818;stroke-width:1.0;"/><path d="M499.4688,85.6406 Q498.8906,85.9375 498.25,86.0781 Q497.6094,86.2344 496.9063,86.2344 Q494.4063,86.2344 493.0781,84.5938 Q491.7656,82.9375 491.7656,79.8125 Q491.7656,76.6875 493.0781,75.0313 Q494.4063,73.375 496.9063,73.375 Q497.6094,73.375 498.25,73.5313 Q498.9063,73.6875 499.4688,73.9844 L499.4688,76.7031 Q498.8438,76.125 498.25,75.8594 Q497.6563,75.5781 497.0313,75.5781 Q495.6875,75.5781 495,76.6563 Q494.3125,77.7188 494.3125,79.8125 Q494.3125,81.9063 495,82.9844 Q495.6875,84.0469 497.0313,84.0469 Q497.6563,84.0469 498.25,83.7813 Q498.8438,83.5 499.4688,82.9219 L499.4688,85.6406 Z " fill="#000000"/><text fill="#000000" font-family="sans-serif" font-size="14" lengthAdjust="spacing" textLength="68" x="510.5" y="84.8467">Exception</text><line style="stroke:#181818;stroke-width:0.5;" x1="482.5" x2="580.5" y1="96" y2="96"/><line style="stroke:#181818;stroke-width:0.5;" x1="482.5" x2="580.5" y1="104" y2="104"/></g><!--class Knuffel--><g id="elem_Knuffel"><rect codeLine="1" fill="#F1F1F1" height="162.0781" id="Knuffel" rx="2.5" ry="2.5" style="stroke:#181818;stroke-width:0.5;" width="586" x="1127.5" y="229"/><ellipse cx="1392.75" cy="245" fill="#ADD1B2" rx="11" ry="11" style="stroke:#181818;stroke-width:1.0;"/><path d="M1395.7188,250.6406 Q1395.1406,250.9375 1394.5,251.0781 Q1393.8594,251.2344 1393.1563,251.2344 Q1390.6563,251.2344 1389.3281,249.5938 Q1388.0156,247.9375 1388.0156,244.8125 Q1388.0156,241.6875 1389.3281,240.0313 Q1390.6563,238.375 1393.1563,238.375 Q1393.8594,238.375 1394.5,238.5313 Q1395.1563,238.6875 1395.7188,238.9844 L1395.7188,241.7031 Q1395.0938,241.125 1394.5,240.8594 Q1393.9063,240.5781 1393.2813,240.5781 Q1391.9375,240.5781 1391.25,241.6563 Q1390.5625,242.7188 1390.5625,244.8125 Q1390.5625,246.9063 1391.25,247.9844 Q1391.9375,249.0469 1393.2813,249.0469 Q1393.9063,249.0469 1394.5,248.7813 Q1395.0938,248.5 1395.7188,247.9219 L1395.7188,250.6406 Z " fill="#000000"/><text fill="#000000" font-family="sans-serif" font-size="14" lengthAdjust="spacing" textLength="47" x="1413.25" y="249.8467">Knuffel</text><line style="stroke:#181818;stroke-width:0.5;" x1="1128.5" x2="1712.5" y1="261" y2="261"/><ellipse cx="1138.5" cy="274.6484" fill="none" rx="3" ry="3" style="stroke:#038048;stroke-width:1.0;"/><text fill="#000000" font-family="sans-serif" font-size="14" lengthAdjust="spacing" textLength="198" x="1147.5" y="277.9951">Lengte : double &#171;get&#187; &#171;set&#187;</text><ellipse cx="1138.5" cy="290.9453" fill="none" rx="3" ry="3" style="stroke:#038048;stroke-width:1.0;"/><text fill="#000000" font-family="sans-serif" font-size="14" lengthAdjust="spacing" textLength="206" x="1147.5" y="294.292">Breedte : double &#171;get&#187; &#171;set&#187;</text><ellipse cx="1138.5" cy="307.2422" fill="none" rx="3" ry="3" style="stroke:#038048;stroke-width:1.0;"/><text fill="#000000" font-family="sans-serif" font-size="14" lengthAdjust="spacing" textLength="201" x="1147.5" y="310.5889">Hoogte : double &#171;get&#187; &#171;set&#187;</text><line style="stroke:#181818;stroke-width:0.5;" x1="1128.5" x2="1712.5" y1="317.8906" y2="317.8906"/><ellipse cx="1138.5" cy="331.5391" fill="#84BE84" rx="3" ry="3" style="stroke:#038048;stroke-width:1.0;"/><text fill="#000000" font-family="sans-serif" font-size="14" lengthAdjust="spacing" textLength="560" x="1147.5" y="334.8857">Knuffel(naam:string, prijs:double, lengte:double, breedte:double, hoogte:double)</text><ellipse cx="1138.5" cy="347.8359" fill="#84BE84" rx="3" ry="3" style="stroke:#038048;stroke-width:1.0;"/><text fill="#000000" font-family="sans-serif" font-size="14" lengthAdjust="spacing" textLength="246" x="1147.5" y="351.1826">&#171;override&#187; Equals(obj:object) : bool</text><ellipse cx="1138.5" cy="364.1328" fill="#84BE84" rx="3" ry="3" style="stroke:#038048;stroke-width:1.0;"/><text fill="#000000" font-family="sans-serif" font-size="14" lengthAdjust="spacing" textLength="215" x="1147.5" y="367.4795">&#171;override&#187; GetHashCode() : int</text><ellipse cx="1138.5" cy="380.4297" fill="#84BE84" rx="3" ry="3" style="stroke:#038048;stroke-width:1.0;"/><text fill="#000000" font-family="sans-serif" font-size="14" lengthAdjust="spacing" textLength="247" x="1147.5" y="383.7764">&#171;override&#187; ToonGegevens() : string</text></g><!--class Product--><g id="elem_Product"><rect codeLine="1" fill="#F1F1F1" height="162.0781" id="Product" rx="2.5" ry="2.5" style="stroke:#181818;stroke-width:0.5;" width="272" x="1572.5" y="7"/><ellipse cx="1677.25" cy="23" fill="#ADD1B2" rx="11" ry="11" style="stroke:#181818;stroke-width:1.0;"/><path d="M1680.2188,28.6406 Q1679.6406,28.9375 1679,29.0781 Q1678.3594,29.2344 1677.6563,29.2344 Q1675.1563,29.2344 1673.8281,27.5938 Q1672.5156,25.9375 1672.5156,22.8125 Q1672.5156,19.6875 1673.8281,18.0313 Q1675.1563,16.375 1677.6563,16.375 Q1678.3594,16.375 1679,16.5313 Q1679.6563,16.6875 1680.2188,16.9844 L1680.2188,19.7031 Q1679.5938,19.125 1679,18.8594 Q1678.4063,18.5781 1677.7813,18.5781 Q1676.4375,18.5781 1675.75,19.6563 Q1675.0625,20.7188 1675.0625,22.8125 Q1675.0625,24.9063 1675.75,25.9844 Q1676.4375,27.0469 1677.7813,27.0469 Q1678.4063,27.0469 1679,26.7813 Q1679.5938,26.5 1680.2188,25.9219 L1680.2188,28.6406 Z " fill="#000000"/><text fill="#000000" font-family="sans-serif" font-size="14" lengthAdjust="spacing" textLength="54" x="1697.75" y="27.8467">Product</text><line style="stroke:#181818;stroke-width:0.5;" x1="1573.5" x2="1843.5" y1="39" y2="39"/><ellipse cx="1583.5" cy="52.6484" fill="none" rx="3" ry="3" style="stroke:#038048;stroke-width:1.0;"/><text fill="#000000" font-family="sans-serif" font-size="14" lengthAdjust="spacing" textLength="180" x="1592.5" y="55.9951">Naam : string &#171;get&#187; &#171;set&#187;</text><ellipse cx="1583.5" cy="68.9453" fill="none" rx="3" ry="3" style="stroke:#038048;stroke-width:1.0;"/><text fill="#000000" font-family="sans-serif" font-size="14" lengthAdjust="spacing" textLength="178" x="1592.5" y="72.292">Prijs : double &#171;get&#187; &#171;set&#187;</text><line style="stroke:#181818;stroke-width:0.5;" x1="1573.5" x2="1843.5" y1="79.5938" y2="79.5938"/><ellipse cx="1583.5" cy="93.2422" fill="#84BE84" rx="3" ry="3" style="stroke:#038048;stroke-width:1.0;"/><text fill="#000000" font-family="sans-serif" font-size="14" lengthAdjust="spacing" textLength="235" x="1592.5" y="96.5889">Product(naam:string, prijs:double)</text><ellipse cx="1583.5" cy="109.5391" fill="#84BE84" rx="3" ry="3" style="stroke:#038048;stroke-width:1.0;"/><text fill="#000000" font-family="sans-serif" font-size="14" lengthAdjust="spacing" textLength="246" x="1592.5" y="112.8857">&#171;override&#187; Equals(obj:object) : bool</text><ellipse cx="1583.5" cy="125.8359" fill="#84BE84" rx="3" ry="3" style="stroke:#038048;stroke-width:1.0;"/><text fill="#000000" font-family="sans-serif" font-size="14" lengthAdjust="spacing" textLength="215" x="1592.5" y="129.1826">&#171;override&#187; GetHashCode() : int</text><ellipse cx="1583.5" cy="142.1328" fill="#84BE84" rx="3" ry="3" style="stroke:#038048;stroke-width:1.0;"/><text fill="#000000" font-family="sans-serif" font-size="14" lengthAdjust="spacing" textLength="198" x="1592.5" y="145.4795">&#171;override&#187; ToString() : string</text><ellipse cx="1583.5" cy="158.4297" fill="#84BE84" rx="3" ry="3" style="stroke:#038048;stroke-width:1.0;"/><text fill="#000000" font-family="sans-serif" font-size="14" lengthAdjust="spacing" textLength="231" x="1592.5" y="161.7764">&#171;virtual&#187; ToonGegevens() : string</text></g><!--class ProductBestaatReedsException--><g id="elem_ProductBestaatReedsException"><rect codeLine="1" fill="#F1F1F1" height="64.2969" id="ProductBestaatReedsException" rx="2.5" ry="2.5" style="stroke:#181818;stroke-width:0.5;" width="256" x="403.5" y="278"/><ellipse cx="420.3" cy="294" fill="#ADD1B2" rx="11" ry="11" style="stroke:#181818;stroke-width:1.0;"/><path d="M423.2688,299.6406 Q422.6906,299.9375 422.05,300.0781 Q421.4094,300.2344 420.7063,300.2344 Q418.2063,300.2344 416.8781,298.5938 Q415.5656,296.9375 415.5656,293.8125 Q415.5656,290.6875 416.8781,289.0313 Q418.2063,287.375 420.7063,287.375 Q421.4094,287.375 422.05,287.5313 Q422.7063,287.6875 423.2688,287.9844 L423.2688,290.7031 Q422.6438,290.125 422.05,289.8594 Q421.4563,289.5781 420.8313,289.5781 Q419.4875,289.5781 418.8,290.6563 Q418.1125,291.7188 418.1125,293.8125 Q418.1125,295.9063 418.8,296.9844 Q419.4875,298.0469 420.8313,298.0469 Q421.4563,298.0469 422.05,297.7813 Q422.6438,297.5 423.2688,296.9219 L423.2688,299.6406 Z " fill="#000000"/><text fill="#000000" font-family="sans-serif" font-size="14" lengthAdjust="spacing" textLength="220" x="434.7" y="298.8467">ProductBestaatReedsException</text><line style="stroke:#181818;stroke-width:0.5;" x1="404.5" x2="658.5" y1="310" y2="310"/><line style="stroke:#181818;stroke-width:0.5;" x1="404.5" x2="658.5" y1="318" y2="318"/><ellipse cx="414.5" cy="331.6484" fill="#84BE84" rx="3" ry="3" style="stroke:#038048;stroke-width:1.0;"/><text fill="#000000" font-family="sans-serif" font-size="14" lengthAdjust="spacing" textLength="230" x="423.5" y="334.9951">ProductBestaatReedsException()</text></g><!--class Stripboek--><g id="elem_Stripboek"><rect codeLine="1" fill="#F1F1F1" height="145.7813" id="Stripboek" rx="2.5" ry="2.5" style="stroke:#181818;stroke-width:0.5;" width="495" x="1749" y="237"/><ellipse cx="1959.25" cy="253" fill="#ADD1B2" rx="11" ry="11" style="stroke:#181818;stroke-width:1.0;"/><path d="M1962.2188,258.6406 Q1961.6406,258.9375 1961,259.0781 Q1960.3594,259.2344 1959.6563,259.2344 Q1957.1563,259.2344 1955.8281,257.5938 Q1954.5156,255.9375 1954.5156,252.8125 Q1954.5156,249.6875 1955.8281,248.0313 Q1957.1563,246.375 1959.6563,246.375 Q1960.3594,246.375 1961,246.5313 Q1961.6563,246.6875 1962.2188,246.9844 L1962.2188,249.7031 Q1961.5938,249.125 1961,248.8594 Q1960.4063,248.5781 1959.7813,248.5781 Q1958.4375,248.5781 1957.75,249.6563 Q1957.0625,250.7188 1957.0625,252.8125 Q1957.0625,254.9063 1957.75,255.9844 Q1958.4375,257.0469 1959.7813,257.0469 Q1960.4063,257.0469 1961,256.7813 Q1961.5938,256.5 1962.2188,255.9219 L1962.2188,258.6406 Z " fill="#000000"/><text fill="#000000" font-family="sans-serif" font-size="14" lengthAdjust="spacing" textLength="66" x="1979.75" y="257.8467">Stripboek</text><line style="stroke:#181818;stroke-width:0.5;" x1="1750" x2="2243" y1="269" y2="269"/><ellipse cx="1760" cy="282.6484" fill="none" rx="3" ry="3" style="stroke:#038048;stroke-width:1.0;"/><text fill="#000000" font-family="sans-serif" font-size="14" lengthAdjust="spacing" textLength="187" x="1769" y="285.9951">Auteur : string &#171;get&#187; &#171;set&#187;</text><ellipse cx="1760" cy="298.9453" fill="none" rx="3" ry="3" style="stroke:#038048;stroke-width:1.0;"/><text fill="#000000" font-family="sans-serif" font-size="14" lengthAdjust="spacing" textLength="215" x="1769" y="302.292">AantalPaginas : int &#171;get&#187; &#171;set&#187;</text><line style="stroke:#181818;stroke-width:0.5;" x1="1750" x2="2243" y1="309.5938" y2="309.5938"/><ellipse cx="1760" cy="323.2422" fill="#84BE84" rx="3" ry="3" style="stroke:#038048;stroke-width:1.0;"/><text fill="#000000" font-family="sans-serif" font-size="14" lengthAdjust="spacing" textLength="469" x="1769" y="326.5889">Stripboek(naam:string, prijs:double, auteur:string, aantalPaginas:int)</text><ellipse cx="1760" cy="339.5391" fill="#84BE84" rx="3" ry="3" style="stroke:#038048;stroke-width:1.0;"/><text fill="#000000" font-family="sans-serif" font-size="14" lengthAdjust="spacing" textLength="246" x="1769" y="342.8857">&#171;override&#187; Equals(obj:object) : bool</text><ellipse cx="1760" cy="355.8359" fill="#84BE84" rx="3" ry="3" style="stroke:#038048;stroke-width:1.0;"/><text fill="#000000" font-family="sans-serif" font-size="14" lengthAdjust="spacing" textLength="215" x="1769" y="359.1826">&#171;override&#187; GetHashCode() : int</text><ellipse cx="1760" cy="372.1328" fill="#84BE84" rx="3" ry="3" style="stroke:#038048;stroke-width:1.0;"/><text fill="#000000" font-family="sans-serif" font-size="14" lengthAdjust="spacing" textLength="247" x="1769" y="375.4795">&#171;override&#187; ToonGegevens() : string</text></g><!--class FileOperations--><g id="elem_FileOperations"><rect codeLine="1" fill="#F1F1F1" height="121.4531" id="FileOperations" rx="2.5" ry="2.5" style="stroke:#181818;stroke-width:0.5;" width="335" x="1880" y="27.5"/><ellipse cx="1993.75" cy="47.6328" fill="#ADD1B2" rx="11" ry="11" style="stroke:#181818;stroke-width:1.0;"/><path d="M1996.7188,53.2734 Q1996.1406,53.5703 1995.5,53.7109 Q1994.8594,53.8672 1994.1563,53.8672 Q1991.6563,53.8672 1990.3281,52.2266 Q1989.0156,50.5703 1989.0156,47.4453 Q1989.0156,44.3203 1990.3281,42.6641 Q1991.6563,41.0078 1994.1563,41.0078 Q1994.8594,41.0078 1995.5,41.1641 Q1996.1563,41.3203 1996.7188,41.6172 L1996.7188,44.3359 Q1996.0938,43.7578 1995.5,43.4922 Q1994.9063,43.2109 1994.2813,43.2109 Q1992.9375,43.2109 1992.25,44.2891 Q1991.5625,45.3516 1991.5625,47.4453 Q1991.5625,49.5391 1992.25,50.6172 Q1992.9375,51.6797 1994.2813,51.6797 Q1994.9063,51.6797 1995.5,51.4141 Q1996.0938,51.1328 1996.7188,50.5547 L1996.7188,53.2734 Z " fill="#000000"/><text fill="#000000" font-family="sans-serif" font-size="12" font-style="italic" lengthAdjust="spacing" textLength="48" x="2039.75" y="43.6387">&#171;static&#187;</text><text fill="#000000" font-family="sans-serif" font-size="14" lengthAdjust="spacing" textLength="99" x="2014.25" y="59.4639">FileOperations</text><line style="stroke:#181818;stroke-width:0.5;" x1="1881" x2="2214" y1="67.7656" y2="67.7656"/><ellipse cx="1891" cy="81.4141" fill="none" rx="3" ry="3" style="stroke:#038048;stroke-width:1.0;"/><text fill="#000000" font-family="sans-serif" font-size="14" lengthAdjust="spacing" text-decoration="underline" textLength="309" x="1900" y="84.7607">BestandProducten : string = "productlijst.txt"</text><ellipse cx="1891" cy="97.7109" fill="none" rx="3" ry="3" style="stroke:#038048;stroke-width:1.0;"/><text fill="#000000" font-family="sans-serif" font-size="14" lengthAdjust="spacing" text-decoration="underline" textLength="255" x="1900" y="101.0576">BestandFouten : string = "fouten.txt"</text><line style="stroke:#181818;stroke-width:0.5;" x1="1881" x2="2214" y1="108.3594" y2="108.3594"/><ellipse cx="1891" cy="122.0078" fill="#84BE84" rx="3" ry="3" style="stroke:#038048;stroke-width:1.0;"/><text fill="#000000" font-family="sans-serif" font-size="14" lengthAdjust="spacing" text-decoration="underline" textLength="229" x="1900" y="125.3545">LeesProducten() : List&lt;Product&gt;</text><ellipse cx="1891" cy="138.3047" fill="#84BE84" rx="3" ry="3" style="stroke:#038048;stroke-width:1.0;"/><text fill="#000000" font-family="sans-serif" font-size="14" lengthAdjust="spacing" text-decoration="underline" textLength="234" x="1900" y="141.6514">FoutLoggen(fout:Exception) : void</text></g><!--class NumeriekeWaardeOnderNulException--><g id="elem_NumeriekeWaardeOnderNulException"><rect codeLine="1" fill="#F1F1F1" height="64.2969" id="NumeriekeWaardeOnderNulException" rx="2.5" ry="2.5" style="stroke:#181818;stroke-width:0.5;" width="398" x="694.5" y="278"/><ellipse cx="759.25" cy="294" fill="#ADD1B2" rx="11" ry="11" style="stroke:#181818;stroke-width:1.0;"/><path d="M762.2188,299.6406 Q761.6406,299.9375 761,300.0781 Q760.3594,300.2344 759.6563,300.2344 Q757.1563,300.2344 755.8281,298.5938 Q754.5156,296.9375 754.5156,293.8125 Q754.5156,290.6875 755.8281,289.0313 Q757.1563,287.375 759.6563,287.375 Q760.3594,287.375 761,287.5313 Q761.6563,287.6875 762.2188,287.9844 L762.2188,290.7031 Q761.5938,290.125 761,289.8594 Q760.4063,289.5781 759.7813,289.5781 Q758.4375,289.5781 757.75,290.6563 Q757.0625,291.7188 757.0625,293.8125 Q757.0625,295.9063 757.75,296.9844 Q758.4375,298.0469 759.7813,298.0469 Q760.4063,298.0469 761,297.7813 Q761.5938,297.5 762.2188,296.9219 L762.2188,299.6406 Z " fill="#000000"/><text fill="#000000" font-family="sans-serif" font-size="14" lengthAdjust="spacing" textLength="260" x="779.75" y="298.8467">NumeriekeWaardeOnderNulException</text><line style="stroke:#181818;stroke-width:0.5;" x1="695.5" x2="1091.5" y1="310" y2="310"/><line style="stroke:#181818;stroke-width:0.5;" x1="695.5" x2="1091.5" y1="318" y2="318"/><ellipse cx="705.5" cy="331.6484" fill="#84BE84" rx="3" ry="3" style="stroke:#038048;stroke-width:1.0;"/><text fill="#000000" font-family="sans-serif" font-size="14" lengthAdjust="spacing" textLength="372" x="714.5" y="334.9951">NumeriekeWaardeOnderNulException(attribuut:string)</text></g><!--reverse link Exception to LegeTekstueleWaardeException--><g id="link_Exception_LegeTekstueleWaardeException"><path codeLine="4" d="M480.1756,121.8275 C417.9856,161.5975 305.92,233.27 236.07,277.94 " fill="none" id="Exception-backto-LegeTekstueleWaardeException" style="stroke:#181818;stroke-width:1.0;"/><polygon fill="none" points="495.34,112.13,476.9431,116.7727,483.4081,126.8823,495.34,112.13" style="stroke:#181818;stroke-width:1.0;"/></g><!--reverse link Product to Knuffel--><g id="link_Product_Knuffel"><path codeLine="10" d="M1589.4058,179.9766 C1563.9958,199.3866 1551.12,209.22 1525.69,228.64 " fill="none" id="Product-backto-Knuffel" style="stroke:#181818;stroke-width:1.0;"/><polygon fill="none" points="1603.71,169.05,1585.7636,175.2085,1593.048,184.7446,1603.71,169.05" style="stroke:#181818;stroke-width:1.0;"/></g><!--reverse link Exception to ProductBestaatReedsException--><g id="link_Exception_ProductBestaatReedsException"><path codeLine="4" d="M531.5,130.13 C531.5,169.84 531.5,233.04 531.5,277.75 " fill="none" id="Exception-backto-ProductBestaatReedsException" style="stroke:#181818;stroke-width:1.0;"/><polygon fill="none" points="531.5,112.13,525.5,130.13,537.5,130.13,531.5,112.13" style="stroke:#181818;stroke-width:1.0;"/></g><!--reverse link Product to Stripboek--><g id="link_Product_Stripboek"><path codeLine="9" d="M1827.5952,179.9753 C1856.5452,202.0853 1873.48,215.02 1901.82,236.67 " fill="none" id="Product-backto-Stripboek" style="stroke:#181818;stroke-width:1.0;"/><polygon fill="none" points="1813.29,169.05,1823.9534,184.7437,1831.2369,175.2069,1813.29,169.05" style="stroke:#181818;stroke-width:1.0;"/></g><!--reverse link Exception to NumeriekeWaardeOnderNulException--><g id="link_Exception_NumeriekeWaardeOnderNulException"><path codeLine="4" d="M584.9422,121.4782 C650.3822,161.2482 768.88,233.27 842.38,277.94 " fill="none" id="Exception-backto-NumeriekeWaardeOnderNulException" style="stroke:#181818;stroke-width:1.0;"/><polygon fill="none" points="569.56,112.13,581.8261,126.6056,588.0582,116.3508,569.56,112.13" style="stroke:#181818;stroke-width:1.0;"/></g><!--SRC=[TOvD2i8m48Ntdi9Um4C8kb5QKS7rD7cLa6aI9ZFWySLIDu5kl_VRXUJOFFPNlF54h6fWl8Z4u_HnA1foEXIRUTVzhPTaqmHkw4soDwT7L2NIE-3hLi539PGn8pRy71X3WT0lKnknjnaI4DTpG_AGtdXhOxspq2y0]--></g></svg>