<?xml version="1.0" encoding="us-ascii" standalone="no"?><svg xmlns="http://www.w3.org/2000/svg" xmlns:xlink="http://www.w3.org/1999/xlink" contentStyleType="text/css" height="186px" preserveAspectRatio="none" style="width:270px;height:186px;background:#FFFFFF;" version="1.1" viewBox="0 0 270 186" width="270px" zoomAndPan="magnify"><defs/><g><!--class ProductBestaatReedsException--><g id="elem_ProductBestaatReedsException"><rect codeLine="1" fill="#F1F1F1" height="64.2969" id="ProductBestaatReedsException" rx="2.5" ry="2.5" style="stroke:#181818;stroke-width:0.5;" width="256" x="7" y="115"/><ellipse cx="23.8" cy="131" fill="#ADD1B2" rx="11" ry="11" style="stroke:#181818;stroke-width:1.0;"/><path d="M26.7688,136.6406 Q26.1906,136.9375 25.55,137.0781 Q24.9094,137.2344 24.2063,137.2344 Q21.7063,137.2344 20.3781,135.5938 Q19.0656,133.9375 19.0656,130.8125 Q19.0656,127.6875 20.3781,126.0313 Q21.7063,124.375 24.2063,124.375 Q24.9094,124.375 25.55,124.5313 Q26.2063,124.6875 26.7688,124.9844 L26.7688,127.7031 Q26.1438,127.125 25.55,126.8594 Q24.9563,126.5781 24.3313,126.5781 Q22.9875,126.5781 22.3,127.6563 Q21.6125,128.7188 21.6125,130.8125 Q21.6125,132.9063 22.3,133.9844 Q22.9875,135.0469 24.3313,135.0469 Q24.9563,135.0469 25.55,134.7813 Q26.1438,134.5 26.7688,133.9219 L26.7688,136.6406 Z " fill="#000000"/><text fill="#000000" font-family="sans-serif" font-size="14" lengthAdjust="spacing" textLength="220" x="38.2" y="135.8467">ProductBestaatReedsException</text><line style="stroke:#181818;stroke-width:0.5;" x1="8" x2="262" y1="147" y2="147"/><line style="stroke:#181818;stroke-width:0.5;" x1="8" x2="262" y1="155" y2="155"/><ellipse cx="18" cy="168.6484" fill="#84BE84" rx="3" ry="3" style="stroke:#038048;stroke-width:1.0;"/><text fill="#000000" font-family="sans-serif" font-size="14" lengthAdjust="spacing" textLength="230" x="27" y="171.9951">ProductBestaatReedsException()</text></g><!--class Exception--><g id="elem_Exception"><rect fill="#F1F1F1" height="48" id="Exception" rx="2.5" ry="2.5" style="stroke:#181818;stroke-width:0.5;" width="100" x="85" y="7"/><ellipse cx="100" cy="23" fill="#ADD1B2" rx="11" ry="11" style="stroke:#181818;stroke-width:1.0;"/><path d="M102.9688,28.6406 Q102.3906,28.9375 101.75,29.0781 Q101.1094,29.2344 100.4063,29.2344 Q97.9063,29.2344 96.5781,27.5938 Q95.2656,25.9375 95.2656,22.8125 Q95.2656,19.6875 96.5781,18.0313 Q97.9063,16.375 100.4063,16.375 Q101.1094,16.375 101.75,16.5313 Q102.4063,16.6875 102.9688,16.9844 L102.9688,19.7031 Q102.3438,19.125 101.75,18.8594 Q101.1563,18.5781 100.5313,18.5781 Q99.1875,18.5781 98.5,19.6563 Q97.8125,20.7188 97.8125,22.8125 Q97.8125,24.9063 98.5,25.9844 Q99.1875,27.0469 100.5313,27.0469 Q101.1563,27.0469 101.75,26.7813 Q102.3438,26.5 102.9688,25.9219 L102.9688,28.6406 Z " fill="#000000"/><text fill="#000000" font-family="sans-serif" font-size="14" lengthAdjust="spacing" textLength="68" x="114" y="27.8467">Exception</text><line style="stroke:#181818;stroke-width:0.5;" x1="86" x2="184" y1="39" y2="39"/><line style="stroke:#181818;stroke-width:0.5;" x1="86" x2="184" y1="47" y2="47"/></g><!--reverse link Exception to ProductBestaatReedsException--><g id="link_Exception_ProductBestaatReedsException"><path codeLine="4" d="M135,73.07 C135,90.25 135,95.88 135,114.75 " fill="none" id="Exception-backto-ProductBestaatReedsException" style="stroke:#181818;stroke-width:1.0;"/><polygon fill="none" points="135,55.07,129,73.07,141,73.07,135,55.07" style="stroke:#181818;stroke-width:1.0;"/></g><!--SRC=[Iyv9B2vM22ZAJobDBd5ABIv9J2m9IarDANQjI4ujACdCprEevb800csyYZGqkMgv45fiQdHryQe70000]--></g></svg>