<?xml version="1.0" encoding="us-ascii" standalone="no"?><svg xmlns="http://www.w3.org/2000/svg" xmlns:xlink="http://www.w3.org/1999/xlink" contentStyleType="text/css" height="117px" preserveAspectRatio="none" style="width:573px;height:117px;background:#FFFFFF;" version="1.1" viewBox="0 0 573 117" width="573px" zoomAndPan="magnify"><defs/><g><!--class IGps--><g id="elem_IGps"><rect codeLine="1" fill="#F1F1F1" height="96.8906" id="IGps" rx="2.5" ry="2.5" style="stroke:#181818;stroke-width:0.5;" width="552" x="7" y="7"/><ellipse cx="263.25" cy="23" fill="#B4A7E5" rx="11" ry="11" style="stroke:#181818;stroke-width:1.0;"/><path d="M259.1719,18.7656 L259.1719,16.6094 L266.5625,16.6094 L266.5625,18.7656 L264.0938,18.7656 L264.0938,26.8438 L266.5625,26.8438 L266.5625,29 L259.1719,29 L259.1719,26.8438 L261.6406,26.8438 L261.6406,18.7656 L259.1719,18.7656 Z " fill="#000000"/><text fill="#000000" font-family="sans-serif" font-size="14" font-style="italic" lengthAdjust="spacing" textLength="31" x="283.75" y="27.8467">IGps</text><line style="stroke:#181818;stroke-width:0.5;" x1="8" x2="558" y1="39" y2="39"/><line style="stroke:#181818;stroke-width:0.5;" x1="8" x2="558" y1="47" y2="47"/><ellipse cx="18" cy="60.6484" fill="#84BE84" rx="3" ry="3" style="stroke:#038048;stroke-width:1.0;"/><text fill="#000000" font-family="sans-serif" font-size="14" lengthAdjust="spacing" textLength="490" x="27" y="63.9951">BepaalHuidigeLocatie(lengtegraad:double, breedtegraad:double) : void</text><ellipse cx="18" cy="76.9453" fill="#84BE84" rx="3" ry="3" style="stroke:#038048;stroke-width:1.0;"/><text fill="#000000" font-family="sans-serif" font-size="14" lengthAdjust="spacing" textLength="526" x="27" y="80.292">BepaalLocatieBestemming(lengtegraad:double, breedtegraad:double) : void</text><ellipse cx="18" cy="93.2422" fill="#84BE84" rx="3" ry="3" style="stroke:#038048;stroke-width:1.0;"/><text fill="#000000" font-family="sans-serif" font-size="14" lengthAdjust="spacing" textLength="154" x="27" y="96.5889">BerekenRoute() : bool</text></g><!--SRC=[dSmn3e9048NXdbDCYS4JKD8e2PKtc6MUcudB3bbcROntLnCQMb_vl-JJx2Xtda7ZPTterT1t7GrOcTErgcZ4P3Exeat8qH4Bi_HYDIISAHH0Zl54FJrDvK3jne3DiIoQuzzQmGFvPjNH_hvWbfht1m00]--></g></svg>