<?xml version="1.0" encoding="us-ascii" standalone="no"?><svg xmlns="http://www.w3.org/2000/svg" xmlns:xlink="http://www.w3.org/1999/xlink" contentStyleType="text/css" height="101px" preserveAspectRatio="none" style="width:211px;height:101px;background:#FFFFFF;" version="1.1" viewBox="0 0 211 101" width="211px" zoomAndPan="magnify"><defs/><g><!--class IMuziekspeler--><g id="elem_IMuziekspeler"><rect codeLine="1" fill="#F1F1F1" height="80.5938" id="IMuziekspeler" rx="2.5" ry="2.5" style="stroke:#181818;stroke-width:0.5;" width="190" x="7" y="7"/><ellipse cx="50.8" cy="23" fill="#B4A7E5" rx="11" ry="11" style="stroke:#181818;stroke-width:1.0;"/><path d="M46.7219,18.7656 L46.7219,16.6094 L54.1125,16.6094 L54.1125,18.7656 L51.6438,18.7656 L51.6438,26.8438 L54.1125,26.8438 L54.1125,29 L46.7219,29 L46.7219,26.8438 L49.1906,26.8438 L49.1906,18.7656 L46.7219,18.7656 Z " fill="#000000"/><text fill="#000000" font-family="sans-serif" font-size="14" font-style="italic" lengthAdjust="spacing" textLength="94" x="71.2" y="27.8467">IMuziekspeler</text><line style="stroke:#181818;stroke-width:0.5;" x1="8" x2="196" y1="39" y2="39"/><line style="stroke:#181818;stroke-width:0.5;" x1="8" x2="196" y1="47" y2="47"/><ellipse cx="18" cy="60.6484" fill="#84BE84" rx="3" ry="3" style="stroke:#038048;stroke-width:1.0;"/><text fill="#000000" font-family="sans-serif" font-size="14" lengthAdjust="spacing" textLength="164" x="27" y="63.9951">VerhoogVolume() : bool</text><ellipse cx="18" cy="76.9453" fill="#84BE84" rx="3" ry="3" style="stroke:#038048;stroke-width:1.0;"/><text fill="#000000" font-family="sans-serif" font-size="14" lengthAdjust="spacing" textLength="156" x="27" y="80.292">VerlaagVolume() : bool</text></g><!--SRC=[oymhIIrAIqnELV3qBQtAJCqkBaZDIIrIgEPI009jXR3Keepy_FIm_9pIt5GDJGKhXQJy_1o4P4vY8ePaBG00]--></g></svg>