<?xml version="1.0" encoding="us-ascii" standalone="no"?><svg xmlns="http://www.w3.org/2000/svg" xmlns:xlink="http://www.w3.org/1999/xlink" contentStyleType="text/css" height="300px" preserveAspectRatio="none" style="width:566px;height:300px;background:#FFFFFF;" version="1.1" viewBox="0 0 566 300" width="566px" zoomAndPan="magnify"><defs/><g><!--class IMuziekspeler--><g id="elem_IMuziekspeler"><rect codeLine="1" fill="#F1F1F1" height="48" id="IMuziekspeler" rx="2.5" ry="2.5" style="stroke:#181818;stroke-width:0.5;" width="126" x="155" y="7"/><ellipse cx="170" cy="23" fill="#B4A7E5" rx="11" ry="11" style="stroke:#181818;stroke-width:1.0;"/><path d="M165.9219,18.7656 L165.9219,16.6094 L173.3125,16.6094 L173.3125,18.7656 L170.8438,18.7656 L170.8438,26.8438 L173.3125,26.8438 L173.3125,29 L165.9219,29 L165.9219,26.8438 L168.3906,26.8438 L168.3906,18.7656 L165.9219,18.7656 Z " fill="#000000"/><text fill="#000000" font-family="sans-serif" font-size="14" font-style="italic" lengthAdjust="spacing" textLength="94" x="184" y="27.8467">IMuziekspeler</text><line style="stroke:#181818;stroke-width:0.5;" x1="156" x2="280" y1="39" y2="39"/><line style="stroke:#181818;stroke-width:0.5;" x1="156" x2="280" y1="47" y2="47"/></g><!--class IGps--><g id="elem_IGps"><rect codeLine="1" fill="#F1F1F1" height="48" id="IGps" rx="2.5" ry="2.5" style="stroke:#181818;stroke-width:0.5;" width="63" x="316.5" y="7"/><ellipse cx="331.5" cy="23" fill="#B4A7E5" rx="11" ry="11" style="stroke:#181818;stroke-width:1.0;"/><path d="M327.4219,18.7656 L327.4219,16.6094 L334.8125,16.6094 L334.8125,18.7656 L332.3438,18.7656 L332.3438,26.8438 L334.8125,26.8438 L334.8125,29 L327.4219,29 L327.4219,26.8438 L329.8906,26.8438 L329.8906,18.7656 L327.4219,18.7656 Z " fill="#000000"/><text fill="#000000" font-family="sans-serif" font-size="14" font-style="italic" lengthAdjust="spacing" textLength="31" x="345.5" y="27.8467">IGps</text><line style="stroke:#181818;stroke-width:0.5;" x1="317.5" x2="378.5" y1="39" y2="39"/><line style="stroke:#181818;stroke-width:0.5;" x1="317.5" x2="378.5" y1="47" y2="47"/></g><!--class Smartphone--><g id="elem_Smartphone"><rect codeLine="1" fill="#F1F1F1" height="178.375" id="Smartphone" rx="2.5" ry="2.5" style="stroke:#181818;stroke-width:0.5;" width="552" x="7" y="115"/><ellipse cx="236.25" cy="131" fill="#ADD1B2" rx="11" ry="11" style="stroke:#181818;stroke-width:1.0;"/><path d="M239.2188,136.6406 Q238.6406,136.9375 238,137.0781 Q237.3594,137.2344 236.6563,137.2344 Q234.1563,137.2344 232.8281,135.5938 Q231.5156,133.9375 231.5156,130.8125 Q231.5156,127.6875 232.8281,126.0313 Q234.1563,124.375 236.6563,124.375 Q237.3594,124.375 238,124.5313 Q238.6563,124.6875 239.2188,124.9844 L239.2188,127.7031 Q238.5938,127.125 238,126.8594 Q237.4063,126.5781 236.7813,126.5781 Q235.4375,126.5781 234.75,127.6563 Q234.0625,128.7188 234.0625,130.8125 Q234.0625,132.9063 234.75,133.9844 Q235.4375,135.0469 236.7813,135.0469 Q237.4063,135.0469 238,134.7813 Q238.5938,134.5 239.2188,133.9219 L239.2188,136.6406 Z " fill="#000000"/><text fill="#000000" font-family="sans-serif" font-size="14" lengthAdjust="spacing" textLength="85" x="256.75" y="135.8467">Smartphone</text><line style="stroke:#181818;stroke-width:0.5;" x1="8" x2="558" y1="147" y2="147"/><line style="stroke:#181818;stroke-width:0.5;" x1="8" x2="558" y1="155" y2="155"/><ellipse cx="18" cy="168.6484" fill="#84BE84" rx="3" ry="3" style="stroke:#038048;stroke-width:1.0;"/><text fill="#000000" font-family="sans-serif" font-size="14" lengthAdjust="spacing" textLength="466" x="27" y="171.9951">Smartphone(lengtegraad:double, breedtegraad:double, volume:int)</text><ellipse cx="18" cy="184.9453" fill="#84BE84" rx="3" ry="3" style="stroke:#038048;stroke-width:1.0;"/><text fill="#000000" font-family="sans-serif" font-size="14" lengthAdjust="spacing" textLength="386" x="27" y="188.292">Smartphone(lengtegraad:double, breedtegraad:double)</text><ellipse cx="18" cy="201.2422" fill="#84BE84" rx="3" ry="3" style="stroke:#038048;stroke-width:1.0;"/><text fill="#000000" font-family="sans-serif" font-size="14" lengthAdjust="spacing" textLength="95" x="27" y="204.5889">Smartphone()</text><ellipse cx="18" cy="217.5391" fill="#84BE84" rx="3" ry="3" style="stroke:#038048;stroke-width:1.0;"/><text fill="#000000" font-family="sans-serif" font-size="14" lengthAdjust="spacing" textLength="490" x="27" y="220.8857">BepaalHuidigeLocatie(lengtegraad:double, breedtegraad:double) : void</text><ellipse cx="18" cy="233.8359" fill="#84BE84" rx="3" ry="3" style="stroke:#038048;stroke-width:1.0;"/><text fill="#000000" font-family="sans-serif" font-size="14" lengthAdjust="spacing" textLength="526" x="27" y="237.1826">BepaalLocatieBestemming(lengtegraad:double, breedtegraad:double) : void</text><ellipse cx="18" cy="250.1328" fill="#84BE84" rx="3" ry="3" style="stroke:#038048;stroke-width:1.0;"/><text fill="#000000" font-family="sans-serif" font-size="14" lengthAdjust="spacing" textLength="154" x="27" y="253.4795">BerekenRoute() : bool</text><ellipse cx="18" cy="266.4297" fill="#84BE84" rx="3" ry="3" style="stroke:#038048;stroke-width:1.0;"/><text fill="#000000" font-family="sans-serif" font-size="14" lengthAdjust="spacing" textLength="164" x="27" y="269.7764">VerhoogVolume() : bool</text><ellipse cx="18" cy="282.7266" fill="#84BE84" rx="3" ry="3" style="stroke:#038048;stroke-width:1.0;"/><text fill="#000000" font-family="sans-serif" font-size="14" lengthAdjust="spacing" textLength="156" x="27" y="286.0732">VerlaagVolume() : bool</text></g><!--reverse link IMuziekspeler to Smartphone--><g id="link_IMuziekspeler_Smartphone"><path codeLine="11" d="M233.1654,71.8855 C239.1254,87.5655 241.03,92.58 249.43,114.67 " fill="none" id="IMuziekspeler-backto-Smartphone" style="stroke:#181818;stroke-width:1.0;"/><polygon fill="none" points="226.77,55.06,227.5569,74.0173,238.7739,69.7537,226.77,55.06" style="stroke:#181818;stroke-width:1.0;"/></g><!--reverse link IGps to Smartphone--><g id="link_IGps_Smartphone"><path codeLine="12" d="M332.8346,71.8855 C326.8746,87.5655 324.97,92.58 316.57,114.67 " fill="none" id="IGps-backto-Smartphone" style="stroke:#181818;stroke-width:1.0;"/><polygon fill="none" points="339.23,55.06,327.2261,69.7537,338.4431,74.0173,339.23,55.06" style="stroke:#181818;stroke-width:1.0;"/></g><!--SRC=[KypCIyufJKbLyFGjhSfCpIukICr9BT8hACtDuLA4oxaN5AC91USc5fKKPEJdfO8b0000]--></g></svg>