<?xml version="1.0" encoding="us-ascii" standalone="no"?><svg xmlns="http://www.w3.org/2000/svg" xmlns:xlink="http://www.w3.org/1999/xlink" contentStyleType="text/css" height="349px" preserveAspectRatio="none" style="width:791px;height:349px;background:#FFFFFF;" version="1.1" viewBox="0 0 791 349" width="791px" zoomAndPan="magnify"><defs/><g><!--class IMuziekspeler--><g id="elem_IMuziekspeler"><rect codeLine="1" fill="#F1F1F1" height="80.5938" id="IMuziekspeler" rx="2.5" ry="2.5" style="stroke:#181818;stroke-width:0.5;" width="190" x="7" y="15"/><ellipse cx="50.8" cy="31" fill="#B4A7E5" rx="11" ry="11" style="stroke:#181818;stroke-width:1.0;"/><path d="M46.7219,26.7656 L46.7219,24.6094 L54.1125,24.6094 L54.1125,26.7656 L51.6438,26.7656 L51.6438,34.8438 L54.1125,34.8438 L54.1125,37 L46.7219,37 L46.7219,34.8438 L49.1906,34.8438 L49.1906,26.7656 L46.7219,26.7656 Z " fill="#000000"/><text fill="#000000" font-family="sans-serif" font-size="14" font-style="italic" lengthAdjust="spacing" textLength="94" x="71.2" y="35.8467">IMuziekspeler</text><line style="stroke:#181818;stroke-width:0.5;" x1="8" x2="196" y1="47" y2="47"/><line style="stroke:#181818;stroke-width:0.5;" x1="8" x2="196" y1="55" y2="55"/><ellipse cx="18" cy="68.6484" fill="#84BE84" rx="3" ry="3" style="stroke:#038048;stroke-width:1.0;"/><text fill="#000000" font-family="sans-serif" font-size="14" lengthAdjust="spacing" textLength="164" x="27" y="71.9951">VerhoogVolume() : bool</text><ellipse cx="18" cy="84.9453" fill="#84BE84" rx="3" ry="3" style="stroke:#038048;stroke-width:1.0;"/><text fill="#000000" font-family="sans-serif" font-size="14" lengthAdjust="spacing" textLength="156" x="27" y="88.292">VerlaagVolume() : bool</text></g><!--class IGps--><g id="elem_IGps"><rect codeLine="1" fill="#F1F1F1" height="96.8906" id="IGps" rx="2.5" ry="2.5" style="stroke:#181818;stroke-width:0.5;" width="552" x="232" y="7"/><ellipse cx="488.25" cy="23" fill="#B4A7E5" rx="11" ry="11" style="stroke:#181818;stroke-width:1.0;"/><path d="M484.1719,18.7656 L484.1719,16.6094 L491.5625,16.6094 L491.5625,18.7656 L489.0938,18.7656 L489.0938,26.8438 L491.5625,26.8438 L491.5625,29 L484.1719,29 L484.1719,26.8438 L486.6406,26.8438 L486.6406,18.7656 L484.1719,18.7656 Z " fill="#000000"/><text fill="#000000" font-family="sans-serif" font-size="14" font-style="italic" lengthAdjust="spacing" textLength="31" x="508.75" y="27.8467">IGps</text><line style="stroke:#181818;stroke-width:0.5;" x1="233" x2="783" y1="39" y2="39"/><line style="stroke:#181818;stroke-width:0.5;" x1="233" x2="783" y1="47" y2="47"/><ellipse cx="243" cy="60.6484" fill="#84BE84" rx="3" ry="3" style="stroke:#038048;stroke-width:1.0;"/><text fill="#000000" font-family="sans-serif" font-size="14" lengthAdjust="spacing" textLength="490" x="252" y="63.9951">BepaalHuidigeLocatie(lengtegraad:double, breedtegraad:double) : void</text><ellipse cx="243" cy="76.9453" fill="#84BE84" rx="3" ry="3" style="stroke:#038048;stroke-width:1.0;"/><text fill="#000000" font-family="sans-serif" font-size="14" lengthAdjust="spacing" textLength="526" x="252" y="80.292">BepaalLocatieBestemming(lengtegraad:double, breedtegraad:double) : void</text><ellipse cx="243" cy="93.2422" fill="#84BE84" rx="3" ry="3" style="stroke:#038048;stroke-width:1.0;"/><text fill="#000000" font-family="sans-serif" font-size="14" lengthAdjust="spacing" textLength="154" x="252" y="96.5889">BerekenRoute() : bool</text></g><!--class Smartphone--><g id="elem_Smartphone"><rect codeLine="1" fill="#F1F1F1" height="178.375" id="Smartphone" rx="2.5" ry="2.5" style="stroke:#181818;stroke-width:0.5;" width="552" x="29" y="164"/><ellipse cx="258.25" cy="180" fill="#ADD1B2" rx="11" ry="11" style="stroke:#181818;stroke-width:1.0;"/><path d="M261.2188,185.6406 Q260.6406,185.9375 260,186.0781 Q259.3594,186.2344 258.6563,186.2344 Q256.1563,186.2344 254.8281,184.5938 Q253.5156,182.9375 253.5156,179.8125 Q253.5156,176.6875 254.8281,175.0313 Q256.1563,173.375 258.6563,173.375 Q259.3594,173.375 260,173.5313 Q260.6563,173.6875 261.2188,173.9844 L261.2188,176.7031 Q260.5938,176.125 260,175.8594 Q259.4063,175.5781 258.7813,175.5781 Q257.4375,175.5781 256.75,176.6563 Q256.0625,177.7188 256.0625,179.8125 Q256.0625,181.9063 256.75,182.9844 Q257.4375,184.0469 258.7813,184.0469 Q259.4063,184.0469 260,183.7813 Q260.5938,183.5 261.2188,182.9219 L261.2188,185.6406 Z " fill="#000000"/><text fill="#000000" font-family="sans-serif" font-size="14" lengthAdjust="spacing" textLength="85" x="278.75" y="184.8467">Smartphone</text><line style="stroke:#181818;stroke-width:0.5;" x1="30" x2="580" y1="196" y2="196"/><line style="stroke:#181818;stroke-width:0.5;" x1="30" x2="580" y1="204" y2="204"/><ellipse cx="40" cy="217.6484" fill="#84BE84" rx="3" ry="3" style="stroke:#038048;stroke-width:1.0;"/><text fill="#000000" font-family="sans-serif" font-size="14" lengthAdjust="spacing" textLength="466" x="49" y="220.9951">Smartphone(lengtegraad:double, breedtegraad:double, volume:int)</text><ellipse cx="40" cy="233.9453" fill="#84BE84" rx="3" ry="3" style="stroke:#038048;stroke-width:1.0;"/><text fill="#000000" font-family="sans-serif" font-size="14" lengthAdjust="spacing" textLength="386" x="49" y="237.292">Smartphone(lengtegraad:double, breedtegraad:double)</text><ellipse cx="40" cy="250.2422" fill="#84BE84" rx="3" ry="3" style="stroke:#038048;stroke-width:1.0;"/><text fill="#000000" font-family="sans-serif" font-size="14" lengthAdjust="spacing" textLength="95" x="49" y="253.5889">Smartphone()</text><ellipse cx="40" cy="266.5391" fill="#84BE84" rx="3" ry="3" style="stroke:#038048;stroke-width:1.0;"/><text fill="#000000" font-family="sans-serif" font-size="14" lengthAdjust="spacing" textLength="490" x="49" y="269.8857">BepaalHuidigeLocatie(lengtegraad:double, breedtegraad:double) : void</text><ellipse cx="40" cy="282.8359" fill="#84BE84" rx="3" ry="3" style="stroke:#038048;stroke-width:1.0;"/><text fill="#000000" font-family="sans-serif" font-size="14" lengthAdjust="spacing" textLength="526" x="49" y="286.1826">BepaalLocatieBestemming(lengtegraad:double, breedtegraad:double) : void</text><ellipse cx="40" cy="299.1328" fill="#84BE84" rx="3" ry="3" style="stroke:#038048;stroke-width:1.0;"/><text fill="#000000" font-family="sans-serif" font-size="14" lengthAdjust="spacing" textLength="154" x="49" y="302.4795">BerekenRoute() : bool</text><ellipse cx="40" cy="315.4297" fill="#84BE84" rx="3" ry="3" style="stroke:#038048;stroke-width:1.0;"/><text fill="#000000" font-family="sans-serif" font-size="14" lengthAdjust="spacing" textLength="164" x="49" y="318.7764">VerhoogVolume() : bool</text><ellipse cx="40" cy="331.7266" fill="#84BE84" rx="3" ry="3" style="stroke:#038048;stroke-width:1.0;"/><text fill="#000000" font-family="sans-serif" font-size="14" lengthAdjust="spacing" textLength="156" x="49" y="335.0732">VerlaagVolume() : bool</text></g><!--reverse link IMuziekspeler to Smartphone--><g id="link_IMuziekspeler_Smartphone"><path codeLine="11" d="M156.0423,108.5491 C176.3123,128.0791 188.69,139.98 213.25,163.64 " fill="none" id="IMuziekspeler-backto-Smartphone" style="stroke:#181818;stroke-width:1.0;"/><polygon fill="none" points="143.08,96.06,151.8793,112.8699,160.2054,104.2283,143.08,96.06" style="stroke:#181818;stroke-width:1.0;"/></g><!--reverse link IGps to Smartphone--><g id="link_IGps_Smartphone"><path codeLine="12" d="M445.6381,116.5596 C426.9781,134.5396 418.06,143.12 396.75,163.64 " fill="none" id="IGps-backto-Smartphone" style="stroke:#181818;stroke-width:1.0;"/><polygon fill="none" points="458.6,104.07,441.4749,112.2389,449.8013,120.8802,458.6,104.07" style="stroke:#181818;stroke-width:1.0;"/></g><!--SRC=[KypCIyufJKbLyFGjhSfCpIukICr9BT8hACtDuLA4oxaN5AC91USc5fKKPEJdfO8b0000]--></g></svg>