<?xml version="1.0" encoding="us-ascii" standalone="no"?><svg xmlns="http://www.w3.org/2000/svg" xmlns:xlink="http://www.w3.org/1999/xlink" contentStyleType="text/css" height="300px" preserveAspectRatio="none" style="width:566px;height:300px;background:#FFFFFF;" version="1.1" viewBox="0 0 566 300" width="566px" zoomAndPan="magnify"><defs/><g><!--class Smartphone--><g id="elem_Smartphone"><rect codeLine="1" fill="#F1F1F1" height="178.375" id="Smartphone" rx="2.5" ry="2.5" style="stroke:#181818;stroke-width:0.5;" width="552" x="7" y="115"/><ellipse cx="236.25" cy="131" fill="#ADD1B2" rx="11" ry="11" style="stroke:#181818;stroke-width:1.0;"/><path d="M239.2188,136.6406 Q238.6406,136.9375 238,137.0781 Q237.3594,137.2344 236.6563,137.2344 Q234.1563,137.2344 232.8281,135.5938 Q231.5156,133.9375 231.5156,130.8125 Q231.5156,127.6875 232.8281,126.0313 Q234.1563,124.375 236.6563,124.375 Q237.3594,124.375 238,124.5313 Q238.6563,124.6875 239.2188,124.9844 L239.2188,127.7031 Q238.5938,127.125 238,126.8594 Q237.4063,126.5781 236.7813,126.5781 Q235.4375,126.5781 234.75,127.6563 Q234.0625,128.7188 234.0625,130.8125 Q234.0625,132.9063 234.75,133.9844 Q235.4375,135.0469 236.7813,135.0469 Q237.4063,135.0469 238,134.7813 Q238.5938,134.5 239.2188,133.9219 L239.2188,136.6406 Z " fill="#000000"/><text fill="#000000" font-family="sans-serif" font-size="14" lengthAdjust="spacing" textLength="85" x="256.75" y="135.8467">Smartphone</text><line style="stroke:#181818;stroke-width:0.5;" x1="8" x2="558" y1="147" y2="147"/><line style="stroke:#181818;stroke-width:0.5;" x1="8" x2="558" y1="155" y2="155"/><ellipse cx="18" cy="168.6484" fill="#84BE84" rx="3" ry="3" style="stroke:#038048;stroke-width:1.0;"/><text fill="#000000" font-family="sans-serif" font-size="14" lengthAdjust="spacing" textLength="466" x="27" y="171.9951">Smartphone(lengtegraad:double, breedtegraad:double, volume:int)</text><ellipse cx="18" cy="184.9453" fill="#84BE84" rx="3" ry="3" style="stroke:#038048;stroke-width:1.0;"/><text fill="#000000" font-family="sans-serif" font-size="14" lengthAdjust="spacing" textLength="386" x="27" y="188.292">Smartphone(lengtegraad:double, breedtegraad:double)</text><ellipse cx="18" cy="201.2422" fill="#84BE84" rx="3" ry="3" style="stroke:#038048;stroke-width:1.0;"/><text fill="#000000" font-family="sans-serif" font-size="14" lengthAdjust="spacing" textLength="95" x="27" y="204.5889">Smartphone()</text><ellipse cx="18" cy="217.5391" fill="#84BE84" rx="3" ry="3" style="stroke:#038048;stroke-width:1.0;"/><text fill="#000000" font-family="sans-serif" font-size="14" lengthAdjust="spacing" textLength="490" x="27" y="220.8857">BepaalHuidigeLocatie(lengtegraad:double, breedtegraad:double) : void</text><ellipse cx="18" cy="233.8359" fill="#84BE84" rx="3" ry="3" style="stroke:#038048;stroke-width:1.0;"/><text fill="#000000" font-family="sans-serif" font-size="14" lengthAdjust="spacing" textLength="526" x="27" y="237.1826">BepaalLocatieBestemming(lengtegraad:double, breedtegraad:double) : void</text><ellipse cx="18" cy="250.1328" fill="#84BE84" rx="3" ry="3" style="stroke:#038048;stroke-width:1.0;"/><text fill="#000000" font-family="sans-serif" font-size="14" lengthAdjust="spacing" textLength="154" x="27" y="253.4795">BerekenRoute() : bool</text><ellipse cx="18" cy="266.4297" fill="#84BE84" rx="3" ry="3" style="stroke:#038048;stroke-width:1.0;"/><text fill="#000000" font-family="sans-serif" font-size="14" lengthAdjust="spacing" textLength="164" x="27" y="269.7764">VerhoogVolume() : bool</text><ellipse cx="18" cy="282.7266" fill="#84BE84" rx="3" ry="3" style="stroke:#038048;stroke-width:1.0;"/><text fill="#000000" font-family="sans-serif" font-size="14" lengthAdjust="spacing" textLength="156" x="27" y="286.0732">VerlaagVolume() : bool</text></g><!--class IMuziekspeler--><g id="elem_IMuziekspeler"><rect fill="#F1F1F1" height="48" id="IMuziekspeler" rx="2.5" ry="2.5" style="stroke:#181818;stroke-width:0.5;" width="127" x="154.5" y="7"/><ellipse cx="169.5" cy="23" fill="#ADD1B2" rx="11" ry="11" style="stroke:#181818;stroke-width:1.0;"/><path d="M172.4688,28.6406 Q171.8906,28.9375 171.25,29.0781 Q170.6094,29.2344 169.9063,29.2344 Q167.4063,29.2344 166.0781,27.5938 Q164.7656,25.9375 164.7656,22.8125 Q164.7656,19.6875 166.0781,18.0313 Q167.4063,16.375 169.9063,16.375 Q170.6094,16.375 171.25,16.5313 Q171.9063,16.6875 172.4688,16.9844 L172.4688,19.7031 Q171.8438,19.125 171.25,18.8594 Q170.6563,18.5781 170.0313,18.5781 Q168.6875,18.5781 168,19.6563 Q167.3125,20.7188 167.3125,22.8125 Q167.3125,24.9063 168,25.9844 Q168.6875,27.0469 170.0313,27.0469 Q170.6563,27.0469 171.25,26.7813 Q171.8438,26.5 172.4688,25.9219 L172.4688,28.6406 Z " fill="#000000"/><text fill="#000000" font-family="sans-serif" font-size="14" lengthAdjust="spacing" textLength="95" x="183.5" y="27.8467">IMuziekspeler</text><line style="stroke:#181818;stroke-width:0.5;" x1="155.5" x2="280.5" y1="39" y2="39"/><line style="stroke:#181818;stroke-width:0.5;" x1="155.5" x2="280.5" y1="47" y2="47"/></g><!--class IGps--><g id="elem_IGps"><rect fill="#F1F1F1" height="48" id="IGps" rx="2.5" ry="2.5" style="stroke:#181818;stroke-width:0.5;" width="63" x="316.5" y="7"/><ellipse cx="331.5" cy="23" fill="#ADD1B2" rx="11" ry="11" style="stroke:#181818;stroke-width:1.0;"/><path d="M334.4688,28.6406 Q333.8906,28.9375 333.25,29.0781 Q332.6094,29.2344 331.9063,29.2344 Q329.4063,29.2344 328.0781,27.5938 Q326.7656,25.9375 326.7656,22.8125 Q326.7656,19.6875 328.0781,18.0313 Q329.4063,16.375 331.9063,16.375 Q332.6094,16.375 333.25,16.5313 Q333.9063,16.6875 334.4688,16.9844 L334.4688,19.7031 Q333.8438,19.125 333.25,18.8594 Q332.6563,18.5781 332.0313,18.5781 Q330.6875,18.5781 330,19.6563 Q329.3125,20.7188 329.3125,22.8125 Q329.3125,24.9063 330,25.9844 Q330.6875,27.0469 332.0313,27.0469 Q332.6563,27.0469 333.25,26.7813 Q333.8438,26.5 334.4688,25.9219 L334.4688,28.6406 Z " fill="#000000"/><text fill="#000000" font-family="sans-serif" font-size="14" lengthAdjust="spacing" textLength="31" x="345.5" y="27.8467">IGps</text><line style="stroke:#181818;stroke-width:0.5;" x1="317.5" x2="378.5" y1="39" y2="39"/><line style="stroke:#181818;stroke-width:0.5;" x1="317.5" x2="378.5" y1="47" y2="47"/></g><!--reverse link IMuziekspeler to Smartphone--><g id="link_IMuziekspeler_Smartphone"><path codeLine="11" d="M233.1654,71.8855 C239.1254,87.5655 241.03,92.58 249.43,114.67 " fill="none" id="IMuziekspeler-backto-Smartphone" style="stroke:#181818;stroke-width:1.0;"/><polygon fill="none" points="226.77,55.06,227.5569,74.0173,238.7739,69.7537,226.77,55.06" style="stroke:#181818;stroke-width:1.0;"/></g><!--reverse link IGps to Smartphone--><g id="link_IGps_Smartphone"><path codeLine="12" d="M332.8346,71.8855 C326.8746,87.5655 324.97,92.58 316.57,114.67 " fill="none" id="IGps-backto-Smartphone" style="stroke:#181818;stroke-width:1.0;"/><polygon fill="none" points="339.23,55.06,327.2261,69.7537,338.4431,74.0173,339.23,55.06" style="stroke:#181818;stroke-width:1.0;"/></g><!--SRC=[dP2x2W8n44Nx_OgKYle3YzKsAcYZO3zhBjbWaWbvMFZuTuEiu6CBSSfpcSFb7Wp5A7QMGl8TEuXB9SfDNj38mAa45OXaBJct1bFH1a1-mXERR55hbyP_MmO-dwY19pBBhALMMFE1alvTA-fIJyitLUze41EirKxzRGiumcqvfzAsP2spwRCzGiUizezf1a93z1NUgjKcdpMEqSCWYFbrDdiPf5ejVFo4Tm00]--></g></svg>