<?xml version="1.0" encoding="us-ascii" standalone="no"?><svg xmlns="http://www.w3.org/2000/svg" xmlns:xlink="http://www.w3.org/1999/xlink" contentStyleType="text/css" height="142px" preserveAspectRatio="none" style="width:353px;height:142px;background:#FFFFFF;" version="1.1" viewBox="0 0 353 142" width="353px" zoomAndPan="magnify"><defs/><g><!--class FileOperations--><g id="elem_FileOperations"><rect codeLine="1" fill="#F1F1F1" height="121.4531" id="FileOperations" rx="2.5" ry="2.5" style="stroke:#181818;stroke-width:0.5;" width="332" x="7" y="7"/><ellipse cx="119.25" cy="27.1328" fill="#ADD1B2" rx="11" ry="11" style="stroke:#181818;stroke-width:1.0;"/><path d="M122.2188,32.7734 Q121.6406,33.0703 121,33.2109 Q120.3594,33.3672 119.6563,33.3672 Q117.1563,33.3672 115.8281,31.7266 Q114.5156,30.0703 114.5156,26.9453 Q114.5156,23.8203 115.8281,22.1641 Q117.1563,20.5078 119.6563,20.5078 Q120.3594,20.5078 121,20.6641 Q121.6563,20.8203 122.2188,21.1172 L122.2188,23.8359 Q121.5938,23.2578 121,22.9922 Q120.4063,22.7109 119.7813,22.7109 Q118.4375,22.7109 117.75,23.7891 Q117.0625,24.8516 117.0625,26.9453 Q117.0625,29.0391 117.75,30.1172 Q118.4375,31.1797 119.7813,31.1797 Q120.4063,31.1797 121,30.9141 Q121.5938,30.6328 122.2188,30.0547 L122.2188,32.7734 Z " fill="#000000"/><text fill="#000000" font-family="sans-serif" font-size="12" font-style="italic" lengthAdjust="spacing" textLength="48" x="165.25" y="23.1387">&#171;static&#187;</text><text fill="#000000" font-family="sans-serif" font-size="14" lengthAdjust="spacing" textLength="99" x="139.75" y="38.9639">FileOperations</text><line style="stroke:#181818;stroke-width:0.5;" x1="8" x2="338" y1="47.2656" y2="47.2656"/><ellipse cx="18" cy="60.9141" fill="none" rx="3" ry="3" style="stroke:#038048;stroke-width:1.0;"/><text fill="#000000" font-family="sans-serif" font-size="14" lengthAdjust="spacing" text-decoration="underline" textLength="306" x="27" y="64.2607">BestandStudenten : string = "studenten.txt"</text><ellipse cx="18" cy="77.2109" fill="none" rx="3" ry="3" style="stroke:#038048;stroke-width:1.0;"/><text fill="#000000" font-family="sans-serif" font-size="14" lengthAdjust="spacing" text-decoration="underline" textLength="256" x="27" y="80.5576">BestandScores : string = "scores.txt"</text><line style="stroke:#181818;stroke-width:0.5;" x1="8" x2="338" y1="87.8594" y2="87.8594"/><ellipse cx="18" cy="101.5078" fill="#84BE84" rx="3" ry="3" style="stroke:#038048;stroke-width:1.0;"/><text fill="#000000" font-family="sans-serif" font-size="14" lengthAdjust="spacing" text-decoration="underline" textLength="224" x="27" y="104.8545">StudentenLezen() : List&lt;string&gt;</text><ellipse cx="18" cy="117.8047" fill="#84BE84" rx="3" ry="3" style="stroke:#038048;stroke-width:1.0;"/><text fill="#000000" font-family="sans-serif" font-size="14" lengthAdjust="spacing" text-decoration="underline" textLength="177" x="27" y="121.1514">ScoresLezen() : List&lt;int&gt;</text></g><!--SRC=[Iyv9B2vMSClCIVKlI2rABCdCpojMiB4fBW4oa-ti5Agv5810Mw4Q8bAhu9GAPEMb19UKfgJcbQJcALWf59SKPUQbAzWgA1N3HFLAAagKS6bDpYzABKRL1nR2gWbkaKzgLMgUXYPGdqzcSOaDHBCTXdAmIMXgC_DAxBXg0G00]--></g></svg>