<?xml version="1.0" encoding="us-ascii" standalone="no"?><svg xmlns="http://www.w3.org/2000/svg" xmlns:xlink="http://www.w3.org/1999/xlink" contentStyleType="text/css" height="150px" preserveAspectRatio="none" style="width:300px;height:150px;background:#FFFFFF;" version="1.1" viewBox="0 0 300 150" width="300px" zoomAndPan="magnify"><defs/><g><!--class Optreden--><g id="elem_Optreden"><rect codeLine="1" fill="#F1F1F1" height="129.4844" id="Optreden" rx="2.5" ry="2.5" style="stroke:#181818;stroke-width:0.5;" width="279" x="7" y="7"/><ellipse cx="109.25" cy="23" fill="#ADD1B2" rx="11" ry="11" style="stroke:#181818;stroke-width:1.0;"/><path d="M112.2188,28.6406 Q111.6406,28.9375 111,29.0781 Q110.3594,29.2344 109.6563,29.2344 Q107.1563,29.2344 105.8281,27.5938 Q104.5156,25.9375 104.5156,22.8125 Q104.5156,19.6875 105.8281,18.0313 Q107.1563,16.375 109.6563,16.375 Q110.3594,16.375 111,16.5313 Q111.6563,16.6875 112.2188,16.9844 L112.2188,19.7031 Q111.5938,19.125 111,18.8594 Q110.4063,18.5781 109.7813,18.5781 Q108.4375,18.5781 107.75,19.6563 Q107.0625,20.7188 107.0625,22.8125 Q107.0625,24.9063 107.75,25.9844 Q108.4375,27.0469 109.7813,27.0469 Q110.4063,27.0469 111,26.7813 Q111.5938,26.5 112.2188,25.9219 L112.2188,28.6406 Z " fill="#000000"/><text fill="#000000" font-family="sans-serif" font-size="14" lengthAdjust="spacing" textLength="66" x="129.75" y="27.8467">Optreden</text><line style="stroke:#181818;stroke-width:0.5;" x1="8" x2="285" y1="39" y2="39"/><ellipse cx="18" cy="52.6484" fill="none" rx="3" ry="3" style="stroke:#038048;stroke-width:1.0;"/><text fill="#000000" font-family="sans-serif" font-size="14" lengthAdjust="spacing" textLength="190" x="27" y="55.9951">Artiest : Artiest &#171;get&#187; &#171;set&#187;</text><ellipse cx="18" cy="68.9453" fill="none" rx="3" ry="3" style="stroke:#038048;stroke-width:1.0;"/><text fill="#000000" font-family="sans-serif" font-size="14" lengthAdjust="spacing" textLength="169" x="27" y="72.292">Dag : string &#171;get&#187; &#171;set&#187;</text><line style="stroke:#181818;stroke-width:0.5;" x1="8" x2="285" y1="79.5938" y2="79.5938"/><ellipse cx="18" cy="93.2422" fill="#84BE84" rx="3" ry="3" style="stroke:#038048;stroke-width:1.0;"/><text fill="#000000" font-family="sans-serif" font-size="14" lengthAdjust="spacing" textLength="246" x="27" y="96.5889">Optreden(artiest:Artiest, dag:string)</text><ellipse cx="18" cy="109.5391" fill="#84BE84" rx="3" ry="3" style="stroke:#038048;stroke-width:1.0;"/><text fill="#000000" font-family="sans-serif" font-size="14" lengthAdjust="spacing" textLength="253" x="27" y="112.8857">&#171;override&#187; Equals(obj:object?) : bool</text><ellipse cx="18" cy="125.8359" fill="#84BE84" rx="3" ry="3" style="stroke:#038048;stroke-width:1.0;"/><text fill="#000000" font-family="sans-serif" font-size="14" lengthAdjust="spacing" textLength="215" x="27" y="129.1826">&#171;override&#187; GetHashCode() : int</text></g><!--SRC=[TOqn3i8m34Ntdi9ZAZX151KXG7JZ36vZXQ0eWTYm8EwEgnOci6JzFpm_ZmcPuNILIfuoF1lGMS6sIYGMiD_cN23fEasUSk7s69HXgJ67FyZ7RN0ssSMu1e_1pgVjmZfN7bHhzAIQm-sEYKqPBbQNHjcq-cie9VsYZoGzydbNF9c9YrcQrni0]--></g></svg>