<?xml version="1.0" encoding="us-ascii" standalone="no"?><svg xmlns="http://www.w3.org/2000/svg" xmlns:xlink="http://www.w3.org/1999/xlink" contentStyleType="text/css" height="430px" preserveAspectRatio="none" style="width:827px;height:430px;background:#FFFFFF;" version="1.1" viewBox="0 0 827 430" width="827px" zoomAndPan="magnify"><defs/><g><!--class Artiest--><g id="elem_Artiest"><rect codeLine="1" fill="#F1F1F1" height="162.0781" id="Artiest" rx="2.5" ry="2.5" style="stroke:#181818;stroke-width:0.5;" width="344" x="7" y="7"/><ellipse cx="152.75" cy="23" fill="#ADD1B2" rx="11" ry="11" style="stroke:#181818;stroke-width:1.0;"/><path d="M155.7188,28.6406 Q155.1406,28.9375 154.5,29.0781 Q153.8594,29.2344 153.1563,29.2344 Q150.6563,29.2344 149.3281,27.5938 Q148.0156,25.9375 148.0156,22.8125 Q148.0156,19.6875 149.3281,18.0313 Q150.6563,16.375 153.1563,16.375 Q153.8594,16.375 154.5,16.5313 Q155.1563,16.6875 155.7188,16.9844 L155.7188,19.7031 Q155.0938,19.125 154.5,18.8594 Q153.9063,18.5781 153.2813,18.5781 Q151.9375,18.5781 151.25,19.6563 Q150.5625,20.7188 150.5625,22.8125 Q150.5625,24.9063 151.25,25.9844 Q151.9375,27.0469 153.2813,27.0469 Q153.9063,27.0469 154.5,26.7813 Q155.0938,26.5 155.7188,25.9219 L155.7188,28.6406 Z " fill="#000000"/><text fill="#000000" font-family="sans-serif" font-size="14" lengthAdjust="spacing" textLength="44" x="173.25" y="27.8467">Artiest</text><line style="stroke:#181818;stroke-width:0.5;" x1="8" x2="350" y1="39" y2="39"/><ellipse cx="18" cy="52.6484" fill="none" rx="3" ry="3" style="stroke:#038048;stroke-width:1.0;"/><text fill="#000000" font-family="sans-serif" font-size="14" lengthAdjust="spacing" textLength="180" x="27" y="55.9951">Naam : string &#171;get&#187; &#171;set&#187;</text><ellipse cx="18" cy="68.9453" fill="none" rx="3" ry="3" style="stroke:#038048;stroke-width:1.0;"/><text fill="#000000" font-family="sans-serif" font-size="14" lengthAdjust="spacing" textLength="184" x="27" y="72.292">Genre : string &#171;get&#187; &#171;set&#187;</text><ellipse cx="18" cy="85.2422" fill="none" rx="3" ry="3" style="stroke:#038048;stroke-width:1.0;"/><text fill="#000000" font-family="sans-serif" font-size="14" lengthAdjust="spacing" textLength="178" x="27" y="88.5889">Prijs : double &#171;get&#187; &#171;set&#187;</text><line style="stroke:#181818;stroke-width:0.5;" x1="8" x2="350" y1="95.8906" y2="95.8906"/><ellipse cx="18" cy="109.5391" fill="#84BE84" rx="3" ry="3" style="stroke:#038048;stroke-width:1.0;"/><text fill="#000000" font-family="sans-serif" font-size="14" lengthAdjust="spacing" textLength="318" x="27" y="112.8857">Artiest(naam:string, genre:string, prijs:double)</text><ellipse cx="18" cy="125.8359" fill="#84BE84" rx="3" ry="3" style="stroke:#038048;stroke-width:1.0;"/><text fill="#000000" font-family="sans-serif" font-size="14" lengthAdjust="spacing" textLength="198" x="27" y="129.1826">&#171;override&#187; ToString() : string</text><ellipse cx="18" cy="142.1328" fill="#84BE84" rx="3" ry="3" style="stroke:#038048;stroke-width:1.0;"/><text fill="#000000" font-family="sans-serif" font-size="14" lengthAdjust="spacing" textLength="253" x="27" y="145.4795">&#171;override&#187; Equals(obj:object?) : bool</text><ellipse cx="18" cy="158.4297" fill="#84BE84" rx="3" ry="3" style="stroke:#038048;stroke-width:1.0;"/><text fill="#000000" font-family="sans-serif" font-size="14" lengthAdjust="spacing" textLength="215" x="27" y="161.7764">&#171;override&#187; GetHashCode() : int</text></g><!--class FileOperations--><g id="elem_FileOperations"><rect codeLine="1" fill="#F1F1F1" height="105.1563" id="FileOperations" rx="2.5" ry="2.5" style="stroke:#181818;stroke-width:0.5;" width="434" x="386" y="35.5"/><ellipse cx="549.25" cy="55.6328" fill="#ADD1B2" rx="11" ry="11" style="stroke:#181818;stroke-width:1.0;"/><path d="M552.2188,61.2734 Q551.6406,61.5703 551,61.7109 Q550.3594,61.8672 549.6563,61.8672 Q547.1563,61.8672 545.8281,60.2266 Q544.5156,58.5703 544.5156,55.4453 Q544.5156,52.3203 545.8281,50.6641 Q547.1563,49.0078 549.6563,49.0078 Q550.3594,49.0078 551,49.1641 Q551.6563,49.3203 552.2188,49.6172 L552.2188,52.3359 Q551.5938,51.7578 551,51.4922 Q550.4063,51.2109 549.7813,51.2109 Q548.4375,51.2109 547.75,52.2891 Q547.0625,53.3516 547.0625,55.4453 Q547.0625,57.5391 547.75,58.6172 Q548.4375,59.6797 549.7813,59.6797 Q550.4063,59.6797 551,59.4141 Q551.5938,59.1328 552.2188,58.5547 L552.2188,61.2734 Z " fill="#000000"/><text fill="#000000" font-family="sans-serif" font-size="12" font-style="italic" lengthAdjust="spacing" textLength="48" x="595.25" y="51.6387">&#171;static&#187;</text><text fill="#000000" font-family="sans-serif" font-size="14" lengthAdjust="spacing" textLength="99" x="569.75" y="67.4639">FileOperations</text><line style="stroke:#181818;stroke-width:0.5;" x1="387" x2="819" y1="75.7656" y2="75.7656"/><ellipse cx="397" cy="89.4141" fill="none" rx="3" ry="3" style="stroke:#038048;stroke-width:1.0;"/><text fill="#000000" font-family="sans-serif" font-size="14" lengthAdjust="spacing" text-decoration="underline" textLength="275" x="406" y="92.7607">BestandFestivals : string = "festivals.txt"</text><line style="stroke:#181818;stroke-width:0.5;" x1="387" x2="819" y1="100.0625" y2="100.0625"/><ellipse cx="397" cy="113.7109" fill="#84BE84" rx="3" ry="3" style="stroke:#038048;stroke-width:1.0;"/><text fill="#000000" font-family="sans-serif" font-size="14" lengthAdjust="spacing" text-decoration="underline" textLength="213" x="406" y="117.0576">LeesFestivals() : List&lt;Festival&gt;</text><ellipse cx="397" cy="130.0078" fill="#84BE84" rx="3" ry="3" style="stroke:#038048;stroke-width:1.0;"/><text fill="#000000" font-family="sans-serif" font-size="14" lengthAdjust="spacing" text-decoration="underline" textLength="408" x="406" y="133.3545">LeesOptredensPerFestival(festival:string) : List&lt;Optreden&gt;</text></g><!--class Festival--><g id="elem_Festival"><rect codeLine="1" fill="#F1F1F1" height="194.6719" id="Festival" rx="2.5" ry="2.5" style="stroke:#181818;stroke-width:0.5;" width="341" x="8.5" y="229"/><ellipse cx="149.25" cy="245" fill="#ADD1B2" rx="11" ry="11" style="stroke:#181818;stroke-width:1.0;"/><path d="M152.2188,250.6406 Q151.6406,250.9375 151,251.0781 Q150.3594,251.2344 149.6563,251.2344 Q147.1563,251.2344 145.8281,249.5938 Q144.5156,247.9375 144.5156,244.8125 Q144.5156,241.6875 145.8281,240.0313 Q147.1563,238.375 149.6563,238.375 Q150.3594,238.375 151,238.5313 Q151.6563,238.6875 152.2188,238.9844 L152.2188,241.7031 Q151.5938,241.125 151,240.8594 Q150.4063,240.5781 149.7813,240.5781 Q148.4375,240.5781 147.75,241.6563 Q147.0625,242.7188 147.0625,244.8125 Q147.0625,246.9063 147.75,247.9844 Q148.4375,249.0469 149.7813,249.0469 Q150.4063,249.0469 151,248.7813 Q151.5938,248.5 152.2188,247.9219 L152.2188,250.6406 Z " fill="#000000"/><text fill="#000000" font-family="sans-serif" font-size="14" lengthAdjust="spacing" textLength="51" x="169.75" y="249.8467">Festival</text><line style="stroke:#181818;stroke-width:0.5;" x1="9.5" x2="348.5" y1="261" y2="261"/><ellipse cx="19.5" cy="274.6484" fill="none" rx="3" ry="3" style="stroke:#038048;stroke-width:1.0;"/><text fill="#000000" font-family="sans-serif" font-size="14" lengthAdjust="spacing" textLength="180" x="28.5" y="277.9951">Naam : string &#171;get&#187; &#171;set&#187;</text><ellipse cx="19.5" cy="290.9453" fill="none" rx="3" ry="3" style="stroke:#038048;stroke-width:1.0;"/><text fill="#000000" font-family="sans-serif" font-size="14" lengthAdjust="spacing" textLength="245" x="28.5" y="294.292">Optredens : List&lt;Optreden&gt; &#171;get&#187;</text><ellipse cx="19.5" cy="307.2422" fill="none" rx="3" ry="3" style="stroke:#038048;stroke-width:1.0;"/><text fill="#000000" font-family="sans-serif" font-size="14" lengthAdjust="spacing" textLength="201" x="28.5" y="310.5889">Budget : double &#171;get&#187; &#171;set&#187;</text><line style="stroke:#181818;stroke-width:0.5;" x1="9.5" x2="348.5" y1="317.8906" y2="317.8906"/><ellipse cx="19.5" cy="331.5391" fill="#84BE84" rx="3" ry="3" style="stroke:#038048;stroke-width:1.0;"/><text fill="#000000" font-family="sans-serif" font-size="14" lengthAdjust="spacing" textLength="254" x="28.5" y="334.8857">Festival(naam:string, budget:double)</text><ellipse cx="19.5" cy="347.8359" fill="#84BE84" rx="3" ry="3" style="stroke:#038048;stroke-width:1.0;"/><text fill="#000000" font-family="sans-serif" font-size="14" lengthAdjust="spacing" textLength="315" x="28.5" y="351.1826">VoegOptredenToe(optreden:Optreden) : void</text><ellipse cx="19.5" cy="364.1328" fill="#84BE84" rx="3" ry="3" style="stroke:#038048;stroke-width:1.0;"/><text fill="#000000" font-family="sans-serif" font-size="14" lengthAdjust="spacing" textLength="315" x="28.5" y="367.4795">VerwijderOptreden(optreden:Optreden) : void</text><ellipse cx="19.5" cy="380.4297" fill="#84BE84" rx="3" ry="3" style="stroke:#038048;stroke-width:1.0;"/><text fill="#000000" font-family="sans-serif" font-size="14" lengthAdjust="spacing" textLength="204" x="28.5" y="383.7764">BerekenTotaleKost() : double</text><ellipse cx="19.5" cy="396.7266" fill="#84BE84" rx="3" ry="3" style="stroke:#038048;stroke-width:1.0;"/><text fill="#000000" font-family="sans-serif" font-size="14" lengthAdjust="spacing" textLength="288" x="28.5" y="400.0732">ToonOptredenVanDag(dag:string) : string</text><ellipse cx="19.5" cy="413.0234" fill="#84BE84" rx="3" ry="3" style="stroke:#038048;stroke-width:1.0;"/><text fill="#000000" font-family="sans-serif" font-size="14" lengthAdjust="spacing" textLength="198" x="28.5" y="416.3701">&#171;override&#187; ToString() : string</text></g><!--class Optreden--><g id="elem_Optreden"><rect codeLine="1" fill="#F1F1F1" height="129.4844" id="Optreden" rx="2.5" ry="2.5" style="stroke:#181818;stroke-width:0.5;" width="279" x="384.5" y="262"/><ellipse cx="486.75" cy="278" fill="#ADD1B2" rx="11" ry="11" style="stroke:#181818;stroke-width:1.0;"/><path d="M489.7188,283.6406 Q489.1406,283.9375 488.5,284.0781 Q487.8594,284.2344 487.1563,284.2344 Q484.6563,284.2344 483.3281,282.5938 Q482.0156,280.9375 482.0156,277.8125 Q482.0156,274.6875 483.3281,273.0313 Q484.6563,271.375 487.1563,271.375 Q487.8594,271.375 488.5,271.5313 Q489.1563,271.6875 489.7188,271.9844 L489.7188,274.7031 Q489.0938,274.125 488.5,273.8594 Q487.9063,273.5781 487.2813,273.5781 Q485.9375,273.5781 485.25,274.6563 Q484.5625,275.7188 484.5625,277.8125 Q484.5625,279.9063 485.25,280.9844 Q485.9375,282.0469 487.2813,282.0469 Q487.9063,282.0469 488.5,281.7813 Q489.0938,281.5 489.7188,280.9219 L489.7188,283.6406 Z " fill="#000000"/><text fill="#000000" font-family="sans-serif" font-size="14" lengthAdjust="spacing" textLength="66" x="507.25" y="282.8467">Optreden</text><line style="stroke:#181818;stroke-width:0.5;" x1="385.5" x2="662.5" y1="294" y2="294"/><ellipse cx="395.5" cy="307.6484" fill="none" rx="3" ry="3" style="stroke:#038048;stroke-width:1.0;"/><text fill="#000000" font-family="sans-serif" font-size="14" lengthAdjust="spacing" textLength="190" x="404.5" y="310.9951">Artiest : Artiest &#171;get&#187; &#171;set&#187;</text><ellipse cx="395.5" cy="323.9453" fill="none" rx="3" ry="3" style="stroke:#038048;stroke-width:1.0;"/><text fill="#000000" font-family="sans-serif" font-size="14" lengthAdjust="spacing" textLength="169" x="404.5" y="327.292">Dag : string &#171;get&#187; &#171;set&#187;</text><line style="stroke:#181818;stroke-width:0.5;" x1="385.5" x2="662.5" y1="334.5938" y2="334.5938"/><ellipse cx="395.5" cy="348.2422" fill="#84BE84" rx="3" ry="3" style="stroke:#038048;stroke-width:1.0;"/><text fill="#000000" font-family="sans-serif" font-size="14" lengthAdjust="spacing" textLength="246" x="404.5" y="351.5889">Optreden(artiest:Artiest, dag:string)</text><ellipse cx="395.5" cy="364.5391" fill="#84BE84" rx="3" ry="3" style="stroke:#038048;stroke-width:1.0;"/><text fill="#000000" font-family="sans-serif" font-size="14" lengthAdjust="spacing" textLength="253" x="404.5" y="367.8857">&#171;override&#187; Equals(obj:object?) : bool</text><ellipse cx="395.5" cy="380.8359" fill="#84BE84" rx="3" ry="3" style="stroke:#038048;stroke-width:1.0;"/><text fill="#000000" font-family="sans-serif" font-size="14" lengthAdjust="spacing" textLength="215" x="404.5" y="384.1826">&#171;override&#187; GetHashCode() : int</text></g><!--SRC=[KypCIyufJKbLS2mgoKmjBj4hACtDuLA4YRfbvgJw5wGM9PPavkSLeqi2rMUM9UQW2ViNb1IbfgJcWOK1]--></g></svg>