<?xml version="1.0" encoding="us-ascii" standalone="no"?><svg xmlns="http://www.w3.org/2000/svg" xmlns:xlink="http://www.w3.org/1999/xlink" contentStyleType="text/css" height="183px" preserveAspectRatio="none" style="width:293px;height:183px;background:#FFFFFF;" version="1.1" viewBox="0 0 293 183" width="293px" zoomAndPan="magnify"><defs/><g><!--class Dier--><g id="elem_Dier"><rect codeLine="1" fill="#F1F1F1" height="162.0781" id="Dier" rx="2.5" ry="2.5" style="stroke:#181818;stroke-width:0.5;" width="272" x="7" y="7"/><ellipse cx="124.75" cy="23" fill="#ADD1B2" rx="11" ry="11" style="stroke:#181818;stroke-width:1.0;"/><path d="M127.7188,28.6406 Q127.1406,28.9375 126.5,29.0781 Q125.8594,29.2344 125.1563,29.2344 Q122.6563,29.2344 121.3281,27.5938 Q120.0156,25.9375 120.0156,22.8125 Q120.0156,19.6875 121.3281,18.0313 Q122.6563,16.375 125.1563,16.375 Q125.8594,16.375 126.5,16.5313 Q127.1563,16.6875 127.7188,16.9844 L127.7188,19.7031 Q127.0938,19.125 126.5,18.8594 Q125.9063,18.5781 125.2813,18.5781 Q123.9375,18.5781 123.25,19.6563 Q122.5625,20.7188 122.5625,22.8125 Q122.5625,24.9063 123.25,25.9844 Q123.9375,27.0469 125.2813,27.0469 Q125.9063,27.0469 126.5,26.7813 Q127.0938,26.5 127.7188,25.9219 L127.7188,28.6406 Z " fill="#000000"/><text fill="#000000" font-family="sans-serif" font-size="14" lengthAdjust="spacing" textLength="28" x="145.25" y="27.8467">Dier</text><line style="stroke:#181818;stroke-width:0.5;" x1="8" x2="278" y1="39" y2="39"/><ellipse cx="18" cy="52.6484" fill="none" rx="3" ry="3" style="stroke:#038048;stroke-width:1.0;"/><text fill="#000000" font-family="sans-serif" font-size="14" lengthAdjust="spacing" textLength="180" x="27" y="55.9951">Naam : string &#171;get&#187; &#171;set&#187;</text><ellipse cx="18" cy="68.9453" fill="none" rx="3" ry="3" style="stroke:#038048;stroke-width:1.0;"/><text fill="#000000" font-family="sans-serif" font-size="14" lengthAdjust="spacing" textLength="230" x="27" y="72.292">&#171;virtual&#187; Gegevens : string &#171;get&#187;</text><line style="stroke:#181818;stroke-width:0.5;" x1="8" x2="278" y1="79.5938" y2="79.5938"/><polygon fill="#FFFF44" points="18,88.2422,22,92.2422,18,96.2422,14,92.2422" style="stroke:#B38D22;stroke-width:1.0;"/><text fill="#000000" font-family="sans-serif" font-size="14" lengthAdjust="spacing" textLength="120" x="27" y="96.5889">Dier(naam:string)</text><ellipse cx="18" cy="109.5391" fill="#84BE84" rx="3" ry="3" style="stroke:#038048;stroke-width:1.0;"/><text fill="#000000" font-family="sans-serif" font-size="14" lengthAdjust="spacing" textLength="233" x="27" y="112.8857">&#171;virtual&#187; Praten(zin:string) : string</text><ellipse cx="18" cy="125.8359" fill="#84BE84" rx="3" ry="3" style="stroke:#038048;stroke-width:1.0;"/><text fill="#000000" font-family="sans-serif" font-size="14" lengthAdjust="spacing" textLength="173" x="27" y="129.1826">&#171;virtual&#187; Strelen() : string</text><ellipse cx="18" cy="142.1328" fill="#84BE84" rx="3" ry="3" style="stroke:#038048;stroke-width:1.0;"/><text fill="#000000" font-family="sans-serif" font-size="14" lengthAdjust="spacing" textLength="198" x="27" y="145.4795">&#171;override&#187; ToString() : string</text><ellipse cx="18" cy="158.4297" fill="#84BE84" rx="3" ry="3" style="stroke:#038048;stroke-width:1.0;"/><text fill="#000000" font-family="sans-serif" font-size="14" lengthAdjust="spacing" textLength="246" x="27" y="161.7764">&#171;override&#187; Equals(obj:object) : bool</text></g><!--SRC=[XSnD2W8n30NW_PmYuARY3KgPbU9EXF42dJ6KIcqnZLqetjrC_TbOC12oU5_U56pEiFP8SEz0PWKxQy-W8JFvwC0OXzptSlDytyQOueclDaYoHOS5O_xvgNPHorMKKlsAbusEFLd6g6u-Vj2thQ479Wp26oWL9F9757L8Gyt-iCr5IhDAuqdBuiGp7rCAtUC9]--></g></svg>