<?xml version="1.0" encoding="us-ascii" standalone="no"?><svg xmlns="http://www.w3.org/2000/svg" xmlns:xlink="http://www.w3.org/1999/xlink" contentStyleType="text/css" height="349px" preserveAspectRatio="none" style="width:909px;height:349px;background:#FFFFFF;" version="1.1" viewBox="0 0 909 349" width="909px" zoomAndPan="magnify"><defs/><g><!--class Kat--><g id="elem_Kat"><rect codeLine="1" fill="#F1F1F1" height="113.1875" id="Kat" rx="2.5" ry="2.5" style="stroke:#181818;stroke-width:0.5;" width="275" x="7" y="229"/><ellipse cx="129.25" cy="245" fill="#ADD1B2" rx="11" ry="11" style="stroke:#181818;stroke-width:1.0;"/><path d="M132.2188,250.6406 Q131.6406,250.9375 131,251.0781 Q130.3594,251.2344 129.6563,251.2344 Q127.1563,251.2344 125.8281,249.5938 Q124.5156,247.9375 124.5156,244.8125 Q124.5156,241.6875 125.8281,240.0313 Q127.1563,238.375 129.6563,238.375 Q130.3594,238.375 131,238.5313 Q131.6563,238.6875 132.2188,238.9844 L132.2188,241.7031 Q131.5938,241.125 131,240.8594 Q130.4063,240.5781 129.7813,240.5781 Q128.4375,240.5781 127.75,241.6563 Q127.0625,242.7188 127.0625,244.8125 Q127.0625,246.9063 127.75,247.9844 Q128.4375,249.0469 129.7813,249.0469 Q130.4063,249.0469 131,248.7813 Q131.5938,248.5 132.2188,247.9219 L132.2188,250.6406 Z " fill="#000000"/><text fill="#000000" font-family="sans-serif" font-size="14" lengthAdjust="spacing" textLength="22" x="149.75" y="249.8467">Kat</text><line style="stroke:#181818;stroke-width:0.5;" x1="8" x2="281" y1="261" y2="261"/><ellipse cx="18" cy="274.6484" fill="none" rx="3" ry="3" style="stroke:#038048;stroke-width:1.0;"/><text fill="#000000" font-family="sans-serif" font-size="14" lengthAdjust="spacing" textLength="246" x="27" y="277.9951">&#171;override&#187; Gegevens : string &#171;get&#187;</text><line style="stroke:#181818;stroke-width:0.5;" x1="8" x2="281" y1="285.2969" y2="285.2969"/><ellipse cx="18" cy="298.9453" fill="#84BE84" rx="3" ry="3" style="stroke:#038048;stroke-width:1.0;"/><text fill="#000000" font-family="sans-serif" font-size="14" lengthAdjust="spacing" textLength="114" x="27" y="302.292">Kat(naam:string)</text><ellipse cx="18" cy="315.2422" fill="#84BE84" rx="3" ry="3" style="stroke:#038048;stroke-width:1.0;"/><text fill="#000000" font-family="sans-serif" font-size="14" lengthAdjust="spacing" textLength="249" x="27" y="318.5889">&#171;override&#187; Praten(zin:string) : string</text><ellipse cx="18" cy="331.5391" fill="#84BE84" rx="3" ry="3" style="stroke:#038048;stroke-width:1.0;"/><text fill="#000000" font-family="sans-serif" font-size="14" lengthAdjust="spacing" textLength="189" x="27" y="334.8857">&#171;override&#187; Strelen() : string</text></g><!--class Dier--><g id="elem_Dier"><rect codeLine="1" fill="#F1F1F1" height="162.0781" id="Dier" rx="2.5" ry="2.5" style="stroke:#181818;stroke-width:0.5;" width="272" x="318.5" y="7"/><ellipse cx="436.25" cy="23" fill="#ADD1B2" rx="11" ry="11" style="stroke:#181818;stroke-width:1.0;"/><path d="M439.2188,28.6406 Q438.6406,28.9375 438,29.0781 Q437.3594,29.2344 436.6563,29.2344 Q434.1563,29.2344 432.8281,27.5938 Q431.5156,25.9375 431.5156,22.8125 Q431.5156,19.6875 432.8281,18.0313 Q434.1563,16.375 436.6563,16.375 Q437.3594,16.375 438,16.5313 Q438.6563,16.6875 439.2188,16.9844 L439.2188,19.7031 Q438.5938,19.125 438,18.8594 Q437.4063,18.5781 436.7813,18.5781 Q435.4375,18.5781 434.75,19.6563 Q434.0625,20.7188 434.0625,22.8125 Q434.0625,24.9063 434.75,25.9844 Q435.4375,27.0469 436.7813,27.0469 Q437.4063,27.0469 438,26.7813 Q438.5938,26.5 439.2188,25.9219 L439.2188,28.6406 Z " fill="#000000"/><text fill="#000000" font-family="sans-serif" font-size="14" lengthAdjust="spacing" textLength="28" x="456.75" y="27.8467">Dier</text><line style="stroke:#181818;stroke-width:0.5;" x1="319.5" x2="589.5" y1="39" y2="39"/><ellipse cx="329.5" cy="52.6484" fill="none" rx="3" ry="3" style="stroke:#038048;stroke-width:1.0;"/><text fill="#000000" font-family="sans-serif" font-size="14" lengthAdjust="spacing" textLength="180" x="338.5" y="55.9951">Naam : string &#171;get&#187; &#171;set&#187;</text><ellipse cx="329.5" cy="68.9453" fill="none" rx="3" ry="3" style="stroke:#038048;stroke-width:1.0;"/><text fill="#000000" font-family="sans-serif" font-size="14" lengthAdjust="spacing" textLength="230" x="338.5" y="72.292">&#171;virtual&#187; Gegevens : string &#171;get&#187;</text><line style="stroke:#181818;stroke-width:0.5;" x1="319.5" x2="589.5" y1="79.5938" y2="79.5938"/><polygon fill="#FFFF44" points="329.5,88.2422,333.5,92.2422,329.5,96.2422,325.5,92.2422" style="stroke:#B38D22;stroke-width:1.0;"/><text fill="#000000" font-family="sans-serif" font-size="14" lengthAdjust="spacing" textLength="120" x="338.5" y="96.5889">Dier(naam:string)</text><ellipse cx="329.5" cy="109.5391" fill="#84BE84" rx="3" ry="3" style="stroke:#038048;stroke-width:1.0;"/><text fill="#000000" font-family="sans-serif" font-size="14" lengthAdjust="spacing" textLength="233" x="338.5" y="112.8857">&#171;virtual&#187; Praten(zin:string) : string</text><ellipse cx="329.5" cy="125.8359" fill="#84BE84" rx="3" ry="3" style="stroke:#038048;stroke-width:1.0;"/><text fill="#000000" font-family="sans-serif" font-size="14" lengthAdjust="spacing" textLength="173" x="338.5" y="129.1826">&#171;virtual&#187; Strelen() : string</text><ellipse cx="329.5" cy="142.1328" fill="#84BE84" rx="3" ry="3" style="stroke:#038048;stroke-width:1.0;"/><text fill="#000000" font-family="sans-serif" font-size="14" lengthAdjust="spacing" textLength="198" x="338.5" y="145.4795">&#171;override&#187; ToString() : string</text><ellipse cx="329.5" cy="158.4297" fill="#84BE84" rx="3" ry="3" style="stroke:#038048;stroke-width:1.0;"/><text fill="#000000" font-family="sans-serif" font-size="14" lengthAdjust="spacing" textLength="246" x="338.5" y="161.7764">&#171;override&#187; Equals(obj:object) : bool</text></g><!--class Olifant--><g id="elem_Olifant"><rect codeLine="1" fill="#F1F1F1" height="113.1875" id="Olifant" rx="2.5" ry="2.5" style="stroke:#181818;stroke-width:0.5;" width="275" x="317" y="229"/><ellipse cx="428.75" cy="245" fill="#ADD1B2" rx="11" ry="11" style="stroke:#181818;stroke-width:1.0;"/><path d="M431.7188,250.6406 Q431.1406,250.9375 430.5,251.0781 Q429.8594,251.2344 429.1563,251.2344 Q426.6563,251.2344 425.3281,249.5938 Q424.0156,247.9375 424.0156,244.8125 Q424.0156,241.6875 425.3281,240.0313 Q426.6563,238.375 429.1563,238.375 Q429.8594,238.375 430.5,238.5313 Q431.1563,238.6875 431.7188,238.9844 L431.7188,241.7031 Q431.0938,241.125 430.5,240.8594 Q429.9063,240.5781 429.2813,240.5781 Q427.9375,240.5781 427.25,241.6563 Q426.5625,242.7188 426.5625,244.8125 Q426.5625,246.9063 427.25,247.9844 Q427.9375,249.0469 429.2813,249.0469 Q429.9063,249.0469 430.5,248.7813 Q431.0938,248.5 431.7188,247.9219 L431.7188,250.6406 Z " fill="#000000"/><text fill="#000000" font-family="sans-serif" font-size="14" lengthAdjust="spacing" textLength="43" x="449.25" y="249.8467">Olifant</text><line style="stroke:#181818;stroke-width:0.5;" x1="318" x2="591" y1="261" y2="261"/><ellipse cx="328" cy="274.6484" fill="none" rx="3" ry="3" style="stroke:#038048;stroke-width:1.0;"/><text fill="#000000" font-family="sans-serif" font-size="14" lengthAdjust="spacing" textLength="246" x="337" y="277.9951">&#171;override&#187; Gegevens : string &#171;get&#187;</text><line style="stroke:#181818;stroke-width:0.5;" x1="318" x2="591" y1="285.2969" y2="285.2969"/><ellipse cx="328" cy="298.9453" fill="#84BE84" rx="3" ry="3" style="stroke:#038048;stroke-width:1.0;"/><text fill="#000000" font-family="sans-serif" font-size="14" lengthAdjust="spacing" textLength="135" x="337" y="302.292">Olifant(naam:string)</text><ellipse cx="328" cy="315.2422" fill="#84BE84" rx="3" ry="3" style="stroke:#038048;stroke-width:1.0;"/><text fill="#000000" font-family="sans-serif" font-size="14" lengthAdjust="spacing" textLength="249" x="337" y="318.5889">&#171;override&#187; Praten(zin:string) : string</text><ellipse cx="328" cy="331.5391" fill="#84BE84" rx="3" ry="3" style="stroke:#038048;stroke-width:1.0;"/><text fill="#000000" font-family="sans-serif" font-size="14" lengthAdjust="spacing" textLength="189" x="337" y="334.8857">&#171;override&#187; Strelen() : string</text></g><!--class Papegaai--><g id="elem_Papegaai"><rect codeLine="1" fill="#F1F1F1" height="113.1875" id="Papegaai" rx="2.5" ry="2.5" style="stroke:#181818;stroke-width:0.5;" width="275" x="627" y="229"/><ellipse cx="728.75" cy="245" fill="#ADD1B2" rx="11" ry="11" style="stroke:#181818;stroke-width:1.0;"/><path d="M731.7188,250.6406 Q731.1406,250.9375 730.5,251.0781 Q729.8594,251.2344 729.1563,251.2344 Q726.6563,251.2344 725.3281,249.5938 Q724.0156,247.9375 724.0156,244.8125 Q724.0156,241.6875 725.3281,240.0313 Q726.6563,238.375 729.1563,238.375 Q729.8594,238.375 730.5,238.5313 Q731.1563,238.6875 731.7188,238.9844 L731.7188,241.7031 Q731.0938,241.125 730.5,240.8594 Q729.9063,240.5781 729.2813,240.5781 Q727.9375,240.5781 727.25,241.6563 Q726.5625,242.7188 726.5625,244.8125 Q726.5625,246.9063 727.25,247.9844 Q727.9375,249.0469 729.2813,249.0469 Q729.9063,249.0469 730.5,248.7813 Q731.0938,248.5 731.7188,247.9219 L731.7188,250.6406 Z " fill="#000000"/><text fill="#000000" font-family="sans-serif" font-size="14" lengthAdjust="spacing" textLength="63" x="749.25" y="249.8467">Papegaai</text><line style="stroke:#181818;stroke-width:0.5;" x1="628" x2="901" y1="261" y2="261"/><ellipse cx="638" cy="274.6484" fill="none" rx="3" ry="3" style="stroke:#038048;stroke-width:1.0;"/><text fill="#000000" font-family="sans-serif" font-size="14" lengthAdjust="spacing" textLength="246" x="647" y="277.9951">&#171;override&#187; Gegevens : string &#171;get&#187;</text><line style="stroke:#181818;stroke-width:0.5;" x1="628" x2="901" y1="285.2969" y2="285.2969"/><ellipse cx="638" cy="298.9453" fill="#84BE84" rx="3" ry="3" style="stroke:#038048;stroke-width:1.0;"/><text fill="#000000" font-family="sans-serif" font-size="14" lengthAdjust="spacing" textLength="155" x="647" y="302.292">Papegaai(naam:string)</text><ellipse cx="638" cy="315.2422" fill="#84BE84" rx="3" ry="3" style="stroke:#038048;stroke-width:1.0;"/><text fill="#000000" font-family="sans-serif" font-size="14" lengthAdjust="spacing" textLength="249" x="647" y="318.5889">&#171;override&#187; Praten(zin:string) : string</text><ellipse cx="638" cy="331.5391" fill="#84BE84" rx="3" ry="3" style="stroke:#038048;stroke-width:1.0;"/><text fill="#000000" font-family="sans-serif" font-size="14" lengthAdjust="spacing" textLength="189" x="647" y="334.8857">&#171;override&#187; Strelen() : string</text></g><!--reverse link Dier to Kat--><g id="link_Dier_Kat"><path codeLine="7" d="M312.2957,178.6832 C280.5257,198.7232 262.35,210.18 232.92,228.74 " fill="none" id="Dier-backto-Kat" style="stroke:#181818;stroke-width:1.0;"/><polygon fill="none" points="327.52,169.08,309.0947,173.6085,315.4968,183.758,327.52,169.08" style="stroke:#181818;stroke-width:1.0;"/></g><!--reverse link Dier to Olifant--><g id="link_Dier_Olifant"><path codeLine="7" d="M454.5,187.08 C454.5,207.12 454.5,210.18 454.5,228.74 " fill="none" id="Dier-backto-Olifant" style="stroke:#181818;stroke-width:1.0;"/><polygon fill="none" points="454.5,169.08,448.5,187.08,460.5,187.08,454.5,169.08" style="stroke:#181818;stroke-width:1.0;"/></g><!--reverse link Dier to Papegaai--><g id="link_Dier_Papegaai"><path codeLine="7" d="M596.7043,178.6832 C628.4743,198.7232 646.65,210.18 676.08,228.74 " fill="none" id="Dier-backto-Papegaai" style="stroke:#181818;stroke-width:1.0;"/><polygon fill="none" points="581.48,169.08,593.5032,183.758,599.9053,173.6085,581.48,169.08" style="stroke:#181818;stroke-width:1.0;"/></g><!--SRC=[KypCIyufJKbLy4uiqIiepStXKeI9-ETafYNceOi691QafYScPg89ksIc5e650000]--></g></svg>