<?xml version="1.0" encoding="us-ascii" standalone="no"?><svg xmlns="http://www.w3.org/2000/svg" xmlns:xlink="http://www.w3.org/1999/xlink" contentStyleType="text/css" height="235px" preserveAspectRatio="none" style="width:289px;height:235px;background:#FFFFFF;" version="1.1" viewBox="0 0 289 235" width="289px" zoomAndPan="magnify"><defs/><g><!--class Papegaai--><g id="elem_Papegaai"><rect codeLine="1" fill="#F1F1F1" height="113.1875" id="Papegaai" rx="2.5" ry="2.5" style="stroke:#181818;stroke-width:0.5;" width="275" x="7" y="115"/><ellipse cx="108.75" cy="131" fill="#ADD1B2" rx="11" ry="11" style="stroke:#181818;stroke-width:1.0;"/><path d="M111.7188,136.6406 Q111.1406,136.9375 110.5,137.0781 Q109.8594,137.2344 109.1563,137.2344 Q106.6563,137.2344 105.3281,135.5938 Q104.0156,133.9375 104.0156,130.8125 Q104.0156,127.6875 105.3281,126.0313 Q106.6563,124.375 109.1563,124.375 Q109.8594,124.375 110.5,124.5313 Q111.1563,124.6875 111.7188,124.9844 L111.7188,127.7031 Q111.0938,127.125 110.5,126.8594 Q109.9063,126.5781 109.2813,126.5781 Q107.9375,126.5781 107.25,127.6563 Q106.5625,128.7188 106.5625,130.8125 Q106.5625,132.9063 107.25,133.9844 Q107.9375,135.0469 109.2813,135.0469 Q109.9063,135.0469 110.5,134.7813 Q111.0938,134.5 111.7188,133.9219 L111.7188,136.6406 Z " fill="#000000"/><text fill="#000000" font-family="sans-serif" font-size="14" lengthAdjust="spacing" textLength="63" x="129.25" y="135.8467">Papegaai</text><line style="stroke:#181818;stroke-width:0.5;" x1="8" x2="281" y1="147" y2="147"/><ellipse cx="18" cy="160.6484" fill="none" rx="3" ry="3" style="stroke:#038048;stroke-width:1.0;"/><text fill="#000000" font-family="sans-serif" font-size="14" lengthAdjust="spacing" textLength="246" x="27" y="163.9951">&#171;override&#187; Gegevens : string &#171;get&#187;</text><line style="stroke:#181818;stroke-width:0.5;" x1="8" x2="281" y1="171.2969" y2="171.2969"/><ellipse cx="18" cy="184.9453" fill="#84BE84" rx="3" ry="3" style="stroke:#038048;stroke-width:1.0;"/><text fill="#000000" font-family="sans-serif" font-size="14" lengthAdjust="spacing" textLength="155" x="27" y="188.292">Papegaai(naam:string)</text><ellipse cx="18" cy="201.2422" fill="#84BE84" rx="3" ry="3" style="stroke:#038048;stroke-width:1.0;"/><text fill="#000000" font-family="sans-serif" font-size="14" lengthAdjust="spacing" textLength="249" x="27" y="204.5889">&#171;override&#187; Praten(zin:string) : string</text><ellipse cx="18" cy="217.5391" fill="#84BE84" rx="3" ry="3" style="stroke:#038048;stroke-width:1.0;"/><text fill="#000000" font-family="sans-serif" font-size="14" lengthAdjust="spacing" textLength="189" x="27" y="220.8857">&#171;override&#187; Strelen() : string</text></g><!--class Dier--><g id="elem_Dier"><rect fill="#F1F1F1" height="48" id="Dier" rx="2.5" ry="2.5" style="stroke:#181818;stroke-width:0.5;" width="60" x="114.5" y="7"/><ellipse cx="129.5" cy="23" fill="#ADD1B2" rx="11" ry="11" style="stroke:#181818;stroke-width:1.0;"/><path d="M132.4688,28.6406 Q131.8906,28.9375 131.25,29.0781 Q130.6094,29.2344 129.9063,29.2344 Q127.4063,29.2344 126.0781,27.5938 Q124.7656,25.9375 124.7656,22.8125 Q124.7656,19.6875 126.0781,18.0313 Q127.4063,16.375 129.9063,16.375 Q130.6094,16.375 131.25,16.5313 Q131.9063,16.6875 132.4688,16.9844 L132.4688,19.7031 Q131.8438,19.125 131.25,18.8594 Q130.6563,18.5781 130.0313,18.5781 Q128.6875,18.5781 128,19.6563 Q127.3125,20.7188 127.3125,22.8125 Q127.3125,24.9063 128,25.9844 Q128.6875,27.0469 130.0313,27.0469 Q130.6563,27.0469 131.25,26.7813 Q131.8438,26.5 132.4688,25.9219 L132.4688,28.6406 Z " fill="#000000"/><text fill="#000000" font-family="sans-serif" font-size="14" lengthAdjust="spacing" textLength="28" x="143.5" y="27.8467">Dier</text><line style="stroke:#181818;stroke-width:0.5;" x1="115.5" x2="173.5" y1="39" y2="39"/><line style="stroke:#181818;stroke-width:0.5;" x1="115.5" x2="173.5" y1="47" y2="47"/></g><!--reverse link Dier to Papegaai--><g id="link_Dier_Papegaai"><path codeLine="7" d="M144.5,73.18 C144.5,89.51 144.5,94.08 144.5,114.94 " fill="none" id="Dier-backto-Papegaai" style="stroke:#181818;stroke-width:1.0;"/><polygon fill="none" points="144.5,55.18,138.5,73.18,150.5,73.18,144.5,55.18" style="stroke:#181818;stroke-width:1.0;"/></g><!--SRC=[Iyv9B2vM24WiI4rFJCnKgEPI009jk816Nc9YhbLnIL5cNhecLCx69hyijQWeCoNLpax1FJKzjImrhrZ1IW6Y2YYTdbfYPuTDSK1HOabgdaPLPXxCIBWsRCg3IufISu3gaLJLShbafXOfsDJewiBT2000]--></g></svg>