<?xml version="1.0" encoding="us-ascii" standalone="no"?><svg xmlns="http://www.w3.org/2000/svg" xmlns:xlink="http://www.w3.org/1999/xlink" contentStyleType="text/css" height="166px" preserveAspectRatio="none" style="width:423px;height:166px;background:#FFFFFF;" version="1.1" viewBox="0 0 423 166" width="423px" zoomAndPan="magnify"><defs/><g><!--class Boek--><g id="elem_Boek"><rect codeLine="1" fill="#F1F1F1" height="145.7813" id="Boek" rx="2.5" ry="2.5" style="stroke:#181818;stroke-width:0.5;" width="402" x="7" y="7"/><ellipse cx="185.75" cy="23" fill="#ADD1B2" rx="11" ry="11" style="stroke:#181818;stroke-width:1.0;"/><path d="M188.7188,28.6406 Q188.1406,28.9375 187.5,29.0781 Q186.8594,29.2344 186.1563,29.2344 Q183.6563,29.2344 182.3281,27.5938 Q181.0156,25.9375 181.0156,22.8125 Q181.0156,19.6875 182.3281,18.0313 Q183.6563,16.375 186.1563,16.375 Q186.8594,16.375 187.5,16.5313 Q188.1563,16.6875 188.7188,16.9844 L188.7188,19.7031 Q188.0938,19.125 187.5,18.8594 Q186.9063,18.5781 186.2813,18.5781 Q184.9375,18.5781 184.25,19.6563 Q183.5625,20.7188 183.5625,22.8125 Q183.5625,24.9063 184.25,25.9844 Q184.9375,27.0469 186.2813,27.0469 Q186.9063,27.0469 187.5,26.7813 Q188.0938,26.5 188.7188,25.9219 L188.7188,28.6406 Z " fill="#000000"/><text fill="#000000" font-family="sans-serif" font-size="14" lengthAdjust="spacing" textLength="36" x="206.25" y="27.8467">Boek</text><line style="stroke:#181818;stroke-width:0.5;" x1="8" x2="408" y1="39" y2="39"/><ellipse cx="18" cy="52.6484" fill="none" rx="3" ry="3" style="stroke:#038048;stroke-width:1.0;"/><text fill="#000000" font-family="sans-serif" font-size="14" lengthAdjust="spacing" textLength="170" x="27" y="55.9951">Titel : string &#171;get&#187; &#171;set&#187;</text><ellipse cx="18" cy="68.9453" fill="none" rx="3" ry="3" style="stroke:#038048;stroke-width:1.0;"/><text fill="#000000" font-family="sans-serif" font-size="14" lengthAdjust="spacing" textLength="187" x="27" y="72.292">Auteur : string &#171;get&#187; &#171;set&#187;</text><ellipse cx="18" cy="85.2422" fill="none" rx="3" ry="3" style="stroke:#038048;stroke-width:1.0;"/><text fill="#000000" font-family="sans-serif" font-size="14" lengthAdjust="spacing" textLength="232" x="27" y="88.5889">AantalBladzijden : int &#171;get&#187; &#171;set&#187;</text><line style="stroke:#181818;stroke-width:0.5;" x1="8" x2="408" y1="95.8906" y2="95.8906"/><ellipse cx="18" cy="109.5391" fill="#84BE84" rx="3" ry="3" style="stroke:#038048;stroke-width:1.0;"/><text fill="#000000" font-family="sans-serif" font-size="14" lengthAdjust="spacing" textLength="46" x="27" y="112.8857">Boek()</text><ellipse cx="18" cy="125.8359" fill="#84BE84" rx="3" ry="3" style="stroke:#038048;stroke-width:1.0;"/><text fill="#000000" font-family="sans-serif" font-size="14" lengthAdjust="spacing" textLength="285" x="27" y="129.1826">PrintOverzicht(paginasPerDag:int) : string</text><ellipse cx="18" cy="142.1328" fill="#84BE84" rx="3" ry="3" style="stroke:#038048;stroke-width:1.0;"/><text fill="#000000" font-family="sans-serif" font-size="14" lengthAdjust="spacing" textLength="376" x="27" y="145.4795">BerekenAantalLeesdagen(paginasPerDag:int) : double</text></g><!--SRC=[XOx12i9034Jl_OeSM_o3KWeMZu8z-0EnEwnhbrHsinug_hjRh9uKSnb2tcHcy1mZTHD6kXUKPqD7f_1KKzJWn5BJM6ZRPesBhj0sALBuIx4e-ywpcTt5G3BlH7_0IucoMfS-VzN33M5smrdBArid77k47TiwdwfFzDkDW17oIjm3qR25V3UQAPqyYiSJ]--></g></svg>