<?xml version="1.0" encoding="us-ascii" standalone="no"?><svg xmlns="http://www.w3.org/2000/svg" xmlns:xlink="http://www.w3.org/1999/xlink" contentStyleType="text/css" height="93px" preserveAspectRatio="none" style="width:441px;height:93px;background:#FFFFFF;" version="1.1" viewBox="0 0 441 93" width="441px" zoomAndPan="magnify"><defs/><g><!--class FileOperations--><g id="elem_FileOperations"><rect codeLine="1" fill="#F1F1F1" height="72.5625" id="FileOperations" rx="2.5" ry="2.5" style="stroke:#181818;stroke-width:0.5;" width="420" x="7" y="7"/><ellipse cx="163.25" cy="27.1328" fill="#ADD1B2" rx="11" ry="11" style="stroke:#181818;stroke-width:1.0;"/><path d="M166.2188,32.7734 Q165.6406,33.0703 165,33.2109 Q164.3594,33.3672 163.6563,33.3672 Q161.1563,33.3672 159.8281,31.7266 Q158.5156,30.0703 158.5156,26.9453 Q158.5156,23.8203 159.8281,22.1641 Q161.1563,20.5078 163.6563,20.5078 Q164.3594,20.5078 165,20.6641 Q165.6563,20.8203 166.2188,21.1172 L166.2188,23.8359 Q165.5938,23.2578 165,22.9922 Q164.4063,22.7109 163.7813,22.7109 Q162.4375,22.7109 161.75,23.7891 Q161.0625,24.8516 161.0625,26.9453 Q161.0625,29.0391 161.75,30.1172 Q162.4375,31.1797 163.7813,31.1797 Q164.4063,31.1797 165,30.9141 Q165.5938,30.6328 166.2188,30.0547 L166.2188,32.7734 Z " fill="#000000"/><text fill="#000000" font-family="sans-serif" font-size="12" font-style="italic" lengthAdjust="spacing" textLength="48" x="209.25" y="23.1387">&#171;static&#187;</text><text fill="#000000" font-family="sans-serif" font-size="14" lengthAdjust="spacing" textLength="99" x="183.75" y="38.9639">FileOperations</text><line style="stroke:#181818;stroke-width:0.5;" x1="8" x2="426" y1="47.2656" y2="47.2656"/><line style="stroke:#181818;stroke-width:0.5;" x1="8" x2="426" y1="55.2656" y2="55.2656"/><ellipse cx="18" cy="68.9141" fill="#84BE84" rx="3" ry="3" style="stroke:#038048;stroke-width:1.0;"/><text fill="#000000" font-family="sans-serif" font-size="14" lengthAdjust="spacing" text-decoration="underline" textLength="394" x="27" y="72.2607">LeesKaartenVanSpel(bestandsnaam:string) : List&lt;Kaart&gt;</text></g><!--SRC=[9Oen2e0m34NtdYAZuWsaT7Inu22uHmqIg56QRDAxM_HFZ_V-bb0L1auqtPJH-185xzKgRY70uw2kW-St1IAHZeZPI1QK-QRKh5IZx2g8Pw-MMOuMUeYivhzhSEK5]--></g></svg>