<?xml version="1.0" encoding="us-ascii" standalone="no"?><svg xmlns="http://www.w3.org/2000/svg" xmlns:xlink="http://www.w3.org/1999/xlink" contentStyleType="text/css" height="109px" preserveAspectRatio="none" style="width:338px;height:109px;background:#FFFFFF;" version="1.1" viewBox="0 0 338 109" width="338px" zoomAndPan="magnify"><defs/><g><!--class FileOperations--><g id="elem_FileOperations"><rect codeLine="1" fill="#F1F1F1" height="88.8594" id="FileOperations" rx="2.5" ry="2.5" style="stroke:#181818;stroke-width:0.5;" width="317" x="7" y="7"/><ellipse cx="111.75" cy="27.1328" fill="#ADD1B2" rx="11" ry="11" style="stroke:#181818;stroke-width:1.0;"/><path d="M114.7188,32.7734 Q114.1406,33.0703 113.5,33.2109 Q112.8594,33.3672 112.1563,33.3672 Q109.6563,33.3672 108.3281,31.7266 Q107.0156,30.0703 107.0156,26.9453 Q107.0156,23.8203 108.3281,22.1641 Q109.6563,20.5078 112.1563,20.5078 Q112.8594,20.5078 113.5,20.6641 Q114.1563,20.8203 114.7188,21.1172 L114.7188,23.8359 Q114.0938,23.2578 113.5,22.9922 Q112.9063,22.7109 112.2813,22.7109 Q110.9375,22.7109 110.25,23.7891 Q109.5625,24.8516 109.5625,26.9453 Q109.5625,29.0391 110.25,30.1172 Q110.9375,31.1797 112.2813,31.1797 Q112.9063,31.1797 113.5,30.9141 Q114.0938,30.6328 114.7188,30.0547 L114.7188,32.7734 Z " fill="#000000"/><text fill="#000000" font-family="sans-serif" font-size="12" font-style="italic" lengthAdjust="spacing" textLength="48" x="157.75" y="23.1387">&#171;static&#187;</text><text fill="#000000" font-family="sans-serif" font-size="14" lengthAdjust="spacing" textLength="99" x="132.25" y="38.9639">FileOperations</text><line style="stroke:#181818;stroke-width:0.5;" x1="8" x2="323" y1="47.2656" y2="47.2656"/><ellipse cx="18" cy="60.9141" fill="none" rx="3" ry="3" style="stroke:#038048;stroke-width:1.0;"/><text fill="#000000" font-family="sans-serif" font-size="14" lengthAdjust="spacing" text-decoration="underline" textLength="291" x="27" y="64.2607">CursistenBestand : string = "cursisten.txt"</text><line style="stroke:#181818;stroke-width:0.5;" x1="8" x2="323" y1="71.5625" y2="71.5625"/><ellipse cx="18" cy="85.2109" fill="#84BE84" rx="3" ry="3" style="stroke:#038048;stroke-width:1.0;"/><text fill="#000000" font-family="sans-serif" font-size="14" lengthAdjust="spacing" text-decoration="underline" textLength="217" x="27" y="88.5576">LeesCursisten() : List&lt;Cursist&gt;</text></g><!--SRC=[Iyv9B2vMSClCIVKlI2rABCdCpojMiB4fBW4oa-ti5Agv5810Mw4Q8bAhu5nQL9nPN9AQvvGA5CfBKR1IA2ufoinBLx1LK4g6IUgLL9GeeMlrIKqjXclNq0Jgz04oRQ12Tbor0000]--></g></svg>