<?xml version="1.0" encoding="us-ascii" standalone="no"?><svg xmlns="http://www.w3.org/2000/svg" xmlns:xlink="http://www.w3.org/1999/xlink" contentStyleType="text/css" height="176px" preserveAspectRatio="none" style="width:783px;height:176px;background:#FFFFFF;" version="1.1" viewBox="0 0 783 176" width="783px" zoomAndPan="magnify"><defs/><g><!--class Cursist--><g id="elem_Cursist"><rect codeLine="1" fill="#F1F1F1" height="162.0781" id="Cursist" rx="2.5" ry="2.5" style="stroke:#181818;stroke-width:0.5;" width="417" x="7" y="7"/><ellipse cx="187.25" cy="23" fill="#ADD1B2" rx="11" ry="11" style="stroke:#181818;stroke-width:1.0;"/><path d="M190.2188,28.6406 Q189.6406,28.9375 189,29.0781 Q188.3594,29.2344 187.6563,29.2344 Q185.1563,29.2344 183.8281,27.5938 Q182.5156,25.9375 182.5156,22.8125 Q182.5156,19.6875 183.8281,18.0313 Q185.1563,16.375 187.6563,16.375 Q188.3594,16.375 189,16.5313 Q189.6563,16.6875 190.2188,16.9844 L190.2188,19.7031 Q189.5938,19.125 189,18.8594 Q188.4063,18.5781 187.7813,18.5781 Q186.4375,18.5781 185.75,19.6563 Q185.0625,20.7188 185.0625,22.8125 Q185.0625,24.9063 185.75,25.9844 Q186.4375,27.0469 187.7813,27.0469 Q188.4063,27.0469 189,26.7813 Q189.5938,26.5 190.2188,25.9219 L190.2188,28.6406 Z " fill="#000000"/><text fill="#000000" font-family="sans-serif" font-size="14" lengthAdjust="spacing" textLength="48" x="207.75" y="27.8467">Cursist</text><line style="stroke:#181818;stroke-width:0.5;" x1="8" x2="423" y1="39" y2="39"/><ellipse cx="18" cy="52.6484" fill="none" rx="3" ry="3" style="stroke:#038048;stroke-width:1.0;"/><text fill="#000000" font-family="sans-serif" font-size="14" lengthAdjust="spacing" textLength="181" x="27" y="55.9951">CursistID : int &#171;get&#187; &#171;set&#187;</text><ellipse cx="18" cy="68.9453" fill="none" rx="3" ry="3" style="stroke:#038048;stroke-width:1.0;"/><text fill="#000000" font-family="sans-serif" font-size="14" lengthAdjust="spacing" textLength="211" x="27" y="72.292">Voornaam : string &#171;get&#187; &#171;set&#187;</text><ellipse cx="18" cy="85.2422" fill="none" rx="3" ry="3" style="stroke:#038048;stroke-width:1.0;"/><text fill="#000000" font-family="sans-serif" font-size="14" lengthAdjust="spacing" textLength="226" x="27" y="88.5889">Familienaam : string &#171;get&#187; &#171;set&#187;</text><ellipse cx="18" cy="101.5391" fill="none" rx="3" ry="3" style="stroke:#038048;stroke-width:1.0;"/><text fill="#000000" font-family="sans-serif" font-size="14" lengthAdjust="spacing" textLength="136" x="27" y="104.8857">Naam : string &#171;get&#187;</text><line style="stroke:#181818;stroke-width:0.5;" x1="8" x2="423" y1="112.1875" y2="112.1875"/><ellipse cx="18" cy="125.8359" fill="#84BE84" rx="3" ry="3" style="stroke:#038048;stroke-width:1.0;"/><text fill="#000000" font-family="sans-serif" font-size="14" lengthAdjust="spacing" textLength="391" x="27" y="129.1826">Cursist(cursistId:int, voornaam:string, familienaam:string)</text><ellipse cx="18" cy="142.1328" fill="#84BE84" rx="3" ry="3" style="stroke:#038048;stroke-width:1.0;"/><text fill="#000000" font-family="sans-serif" font-size="14" lengthAdjust="spacing" textLength="198" x="27" y="145.4795">&#171;override&#187; ToString() : string</text><ellipse cx="18" cy="158.4297" fill="#84BE84" rx="3" ry="3" style="stroke:#038048;stroke-width:1.0;"/><text fill="#000000" font-family="sans-serif" font-size="14" lengthAdjust="spacing" textLength="246" x="27" y="161.7764">&#171;override&#187; Equals(obj:object) : bool</text></g><!--class FileOperations--><g id="elem_FileOperations"><rect codeLine="1" fill="#F1F1F1" height="88.8594" id="FileOperations" rx="2.5" ry="2.5" style="stroke:#181818;stroke-width:0.5;" width="317" x="459" y="43.5"/><ellipse cx="563.75" cy="63.6328" fill="#ADD1B2" rx="11" ry="11" style="stroke:#181818;stroke-width:1.0;"/><path d="M566.7188,69.2734 Q566.1406,69.5703 565.5,69.7109 Q564.8594,69.8672 564.1563,69.8672 Q561.6563,69.8672 560.3281,68.2266 Q559.0156,66.5703 559.0156,63.4453 Q559.0156,60.3203 560.3281,58.6641 Q561.6563,57.0078 564.1563,57.0078 Q564.8594,57.0078 565.5,57.1641 Q566.1563,57.3203 566.7188,57.6172 L566.7188,60.3359 Q566.0938,59.7578 565.5,59.4922 Q564.9063,59.2109 564.2813,59.2109 Q562.9375,59.2109 562.25,60.2891 Q561.5625,61.3516 561.5625,63.4453 Q561.5625,65.5391 562.25,66.6172 Q562.9375,67.6797 564.2813,67.6797 Q564.9063,67.6797 565.5,67.4141 Q566.0938,67.1328 566.7188,66.5547 L566.7188,69.2734 Z " fill="#000000"/><text fill="#000000" font-family="sans-serif" font-size="12" font-style="italic" lengthAdjust="spacing" textLength="48" x="609.75" y="59.6387">&#171;static&#187;</text><text fill="#000000" font-family="sans-serif" font-size="14" lengthAdjust="spacing" textLength="99" x="584.25" y="75.4639">FileOperations</text><line style="stroke:#181818;stroke-width:0.5;" x1="460" x2="775" y1="83.7656" y2="83.7656"/><ellipse cx="470" cy="97.4141" fill="none" rx="3" ry="3" style="stroke:#038048;stroke-width:1.0;"/><text fill="#000000" font-family="sans-serif" font-size="14" lengthAdjust="spacing" text-decoration="underline" textLength="291" x="479" y="100.7607">CursistenBestand : string = "cursisten.txt"</text><line style="stroke:#181818;stroke-width:0.5;" x1="460" x2="775" y1="108.0625" y2="108.0625"/><ellipse cx="470" cy="121.7109" fill="#84BE84" rx="3" ry="3" style="stroke:#038048;stroke-width:1.0;"/><text fill="#000000" font-family="sans-serif" font-size="14" lengthAdjust="spacing" text-decoration="underline" textLength="217" x="479" y="125.0576">LeesCursisten() : List&lt;Cursist&gt;</text></g><!--SRC=[KypCIyufJKbLS2ujAiuiBj4hACtDuLA4YRfbvgJw5wGM9PPavkSLWoK1]--></g></svg>