<?xml version="1.0" encoding="us-ascii" standalone="no"?><svg xmlns="http://www.w3.org/2000/svg" xmlns:xlink="http://www.w3.org/1999/xlink" contentStyleType="text/css" height="93px" preserveAspectRatio="none" style="width:425px;height:93px;background:#FFFFFF;" version="1.1" viewBox="0 0 425 93" width="425px" zoomAndPan="magnify"><defs/><g><!--class FileOperations--><g id="elem_FileOperations"><rect codeLine="1" fill="#F1F1F1" height="72.5625" id="FileOperations" rx="2.5" ry="2.5" style="stroke:#181818;stroke-width:0.5;" width="404" x="7" y="7"/><ellipse cx="155.25" cy="27.1328" fill="#ADD1B2" rx="11" ry="11" style="stroke:#181818;stroke-width:1.0;"/><path d="M158.2188,32.7734 Q157.6406,33.0703 157,33.2109 Q156.3594,33.3672 155.6563,33.3672 Q153.1563,33.3672 151.8281,31.7266 Q150.5156,30.0703 150.5156,26.9453 Q150.5156,23.8203 151.8281,22.1641 Q153.1563,20.5078 155.6563,20.5078 Q156.3594,20.5078 157,20.6641 Q157.6563,20.8203 158.2188,21.1172 L158.2188,23.8359 Q157.5938,23.2578 157,22.9922 Q156.4063,22.7109 155.7813,22.7109 Q154.4375,22.7109 153.75,23.7891 Q153.0625,24.8516 153.0625,26.9453 Q153.0625,29.0391 153.75,30.1172 Q154.4375,31.1797 155.7813,31.1797 Q156.4063,31.1797 157,30.9141 Q157.5938,30.6328 158.2188,30.0547 L158.2188,32.7734 Z " fill="#000000"/><text fill="#000000" font-family="sans-serif" font-size="12" font-style="italic" lengthAdjust="spacing" textLength="48" x="201.25" y="23.1387">&#171;static&#187;</text><text fill="#000000" font-family="sans-serif" font-size="14" lengthAdjust="spacing" textLength="99" x="175.75" y="38.9639">FileOperations</text><line style="stroke:#181818;stroke-width:0.5;" x1="8" x2="410" y1="47.2656" y2="47.2656"/><line style="stroke:#181818;stroke-width:0.5;" x1="8" x2="410" y1="55.2656" y2="55.2656"/><ellipse cx="18" cy="68.9141" fill="#84BE84" rx="3" ry="3" style="stroke:#038048;stroke-width:1.0;"/><text fill="#000000" font-family="sans-serif" font-size="14" lengthAdjust="spacing" text-decoration="underline" textLength="378" x="27" y="72.2607">LeesStudenten(bestandsnaam:string) : List&lt;Student&gt;</text></g><!--SRC=[BOen2e0m303tlYAZuWzAwUXKSF05rGO9r2XDd4h_Ra5lEexRSnI1cJ8kDvQeTB60Sw9TT- -X6kXCKB_I823Agaz2LkHXmzuv2STuMj52V8nW8P2e-ozlsWi0]--></g></svg>