<?xml version="1.0" encoding="us-ascii" standalone="no"?><svg xmlns="http://www.w3.org/2000/svg" xmlns:xlink="http://www.w3.org/1999/xlink" contentStyleType="text/css" height="430px" preserveAspectRatio="none" style="width:944px;height:430px;background:#FFFFFF;" version="1.1" viewBox="0 0 944 430" width="944px" zoomAndPan="magnify"><defs/><g><!--class Klas--><g id="elem_Klas"><rect codeLine="1" fill="#F1F1F1" height="162.0781" id="Klas" rx="2.5" ry="2.5" style="stroke:#181818;stroke-width:0.5;" width="375" x="122.5" y="7"/><ellipse cx="291.75" cy="23" fill="#ADD1B2" rx="11" ry="11" style="stroke:#181818;stroke-width:1.0;"/><path d="M294.7188,28.6406 Q294.1406,28.9375 293.5,29.0781 Q292.8594,29.2344 292.1563,29.2344 Q289.6563,29.2344 288.3281,27.5938 Q287.0156,25.9375 287.0156,22.8125 Q287.0156,19.6875 288.3281,18.0313 Q289.6563,16.375 292.1563,16.375 Q292.8594,16.375 293.5,16.5313 Q294.1563,16.6875 294.7188,16.9844 L294.7188,19.7031 Q294.0938,19.125 293.5,18.8594 Q292.9063,18.5781 292.2813,18.5781 Q290.9375,18.5781 290.25,19.6563 Q289.5625,20.7188 289.5625,22.8125 Q289.5625,24.9063 290.25,25.9844 Q290.9375,27.0469 292.2813,27.0469 Q292.9063,27.0469 293.5,26.7813 Q294.0938,26.5 294.7188,25.9219 L294.7188,28.6406 Z " fill="#000000"/><text fill="#000000" font-family="sans-serif" font-size="14" lengthAdjust="spacing" textLength="28" x="312.25" y="27.8467">Klas</text><line style="stroke:#181818;stroke-width:0.5;" x1="123.5" x2="496.5" y1="39" y2="39"/><ellipse cx="133.5" cy="52.6484" fill="none" rx="3" ry="3" style="stroke:#038048;stroke-width:1.0;"/><text fill="#000000" font-family="sans-serif" font-size="14" lengthAdjust="spacing" textLength="131" x="142.5" y="55.9951">Id : int &#171;get&#187; &#171;set&#187;</text><ellipse cx="133.5" cy="68.9453" fill="none" rx="3" ry="3" style="stroke:#038048;stroke-width:1.0;"/><text fill="#000000" font-family="sans-serif" font-size="14" lengthAdjust="spacing" textLength="180" x="142.5" y="72.292">Naam : string &#171;get&#187; &#171;set&#187;</text><ellipse cx="133.5" cy="85.2422" fill="none" rx="3" ry="3" style="stroke:#038048;stroke-width:1.0;"/><text fill="#000000" font-family="sans-serif" font-size="14" lengthAdjust="spacing" textLength="277" x="142.5" y="88.5889">Studenten : List&lt;Student&gt; &#171;get&#187; &#171;set&#187;</text><line style="stroke:#181818;stroke-width:0.5;" x1="123.5" x2="496.5" y1="95.8906" y2="95.8906"/><ellipse cx="133.5" cy="109.5391" fill="#84BE84" rx="3" ry="3" style="stroke:#038048;stroke-width:1.0;"/><text fill="#000000" font-family="sans-serif" font-size="14" lengthAdjust="spacing" textLength="349" x="142.5" y="112.8857">Klas(id:int, naam:string, studenten:List&lt;Student&gt;)</text><ellipse cx="133.5" cy="125.8359" fill="#84BE84" rx="3" ry="3" style="stroke:#038048;stroke-width:1.0;"/><text fill="#000000" font-family="sans-serif" font-size="14" lengthAdjust="spacing" textLength="282" x="142.5" y="129.1826">BerekenGemiddeldeWiskunde() : double</text><ellipse cx="133.5" cy="142.1328" fill="#84BE84" rx="3" ry="3" style="stroke:#038048;stroke-width:1.0;"/><text fill="#000000" font-family="sans-serif" font-size="14" lengthAdjust="spacing" textLength="293" x="142.5" y="145.4795">BerekenGemiddeldeNederlands() : double</text><ellipse cx="133.5" cy="158.4297" fill="#84BE84" rx="3" ry="3" style="stroke:#038048;stroke-width:1.0;"/><text fill="#000000" font-family="sans-serif" font-size="14" lengthAdjust="spacing" textLength="198" x="142.5" y="161.7764">&#171;override&#187; ToString() : string</text></g><!--class FileOperations--><g id="elem_FileOperations"><rect codeLine="1" fill="#F1F1F1" height="72.5625" id="FileOperations" rx="2.5" ry="2.5" style="stroke:#181818;stroke-width:0.5;" width="404" x="533" y="51.5"/><ellipse cx="681.25" cy="71.6328" fill="#ADD1B2" rx="11" ry="11" style="stroke:#181818;stroke-width:1.0;"/><path d="M684.2188,77.2734 Q683.6406,77.5703 683,77.7109 Q682.3594,77.8672 681.6563,77.8672 Q679.1563,77.8672 677.8281,76.2266 Q676.5156,74.5703 676.5156,71.4453 Q676.5156,68.3203 677.8281,66.6641 Q679.1563,65.0078 681.6563,65.0078 Q682.3594,65.0078 683,65.1641 Q683.6563,65.3203 684.2188,65.6172 L684.2188,68.3359 Q683.5938,67.7578 683,67.4922 Q682.4063,67.2109 681.7813,67.2109 Q680.4375,67.2109 679.75,68.2891 Q679.0625,69.3516 679.0625,71.4453 Q679.0625,73.5391 679.75,74.6172 Q680.4375,75.6797 681.7813,75.6797 Q682.4063,75.6797 683,75.4141 Q683.5938,75.1328 684.2188,74.5547 L684.2188,77.2734 Z " fill="#000000"/><text fill="#000000" font-family="sans-serif" font-size="12" font-style="italic" lengthAdjust="spacing" textLength="48" x="727.25" y="67.6387">&#171;static&#187;</text><text fill="#000000" font-family="sans-serif" font-size="14" lengthAdjust="spacing" textLength="99" x="701.75" y="83.4639">FileOperations</text><line style="stroke:#181818;stroke-width:0.5;" x1="534" x2="936" y1="91.7656" y2="91.7656"/><line style="stroke:#181818;stroke-width:0.5;" x1="534" x2="936" y1="99.7656" y2="99.7656"/><ellipse cx="544" cy="113.4141" fill="#84BE84" rx="3" ry="3" style="stroke:#038048;stroke-width:1.0;"/><text fill="#000000" font-family="sans-serif" font-size="14" lengthAdjust="spacing" text-decoration="underline" textLength="378" x="553" y="116.7607">LeesStudenten(bestandsnaam:string) : List&lt;Student&gt;</text></g><!--class Student--><g id="elem_Student"><rect codeLine="1" fill="#F1F1F1" height="194.6719" id="Student" rx="2.5" ry="2.5" style="stroke:#181818;stroke-width:0.5;" width="606" x="7" y="229"/><ellipse cx="278.25" cy="245" fill="#ADD1B2" rx="11" ry="11" style="stroke:#181818;stroke-width:1.0;"/><path d="M281.2188,250.6406 Q280.6406,250.9375 280,251.0781 Q279.3594,251.2344 278.6563,251.2344 Q276.1563,251.2344 274.8281,249.5938 Q273.5156,247.9375 273.5156,244.8125 Q273.5156,241.6875 274.8281,240.0313 Q276.1563,238.375 278.6563,238.375 Q279.3594,238.375 280,238.5313 Q280.6563,238.6875 281.2188,238.9844 L281.2188,241.7031 Q280.5938,241.125 280,240.8594 Q279.4063,240.5781 278.7813,240.5781 Q277.4375,240.5781 276.75,241.6563 Q276.0625,242.7188 276.0625,244.8125 Q276.0625,246.9063 276.75,247.9844 Q277.4375,249.0469 278.7813,249.0469 Q279.4063,249.0469 280,248.7813 Q280.5938,248.5 281.2188,247.9219 L281.2188,250.6406 Z " fill="#000000"/><text fill="#000000" font-family="sans-serif" font-size="14" lengthAdjust="spacing" textLength="55" x="298.75" y="249.8467">Student</text><line style="stroke:#181818;stroke-width:0.5;" x1="8" x2="612" y1="261" y2="261"/><ellipse cx="18" cy="274.6484" fill="none" rx="3" ry="3" style="stroke:#038048;stroke-width:1.0;"/><text fill="#000000" font-family="sans-serif" font-size="14" lengthAdjust="spacing" textLength="131" x="27" y="277.9951">Id : int &#171;get&#187; &#171;set&#187;</text><ellipse cx="18" cy="290.9453" fill="none" rx="3" ry="3" style="stroke:#038048;stroke-width:1.0;"/><text fill="#000000" font-family="sans-serif" font-size="14" lengthAdjust="spacing" textLength="180" x="27" y="294.292">Naam : string &#171;get&#187; &#171;set&#187;</text><ellipse cx="18" cy="307.2422" fill="none" rx="3" ry="3" style="stroke:#038048;stroke-width:1.0;"/><text fill="#000000" font-family="sans-serif" font-size="14" lengthAdjust="spacing" textLength="211" x="27" y="310.5889">Voornaam : string &#171;get&#187; &#171;set&#187;</text><ellipse cx="18" cy="323.5391" fill="none" rx="3" ry="3" style="stroke:#038048;stroke-width:1.0;"/><text fill="#000000" font-family="sans-serif" font-size="14" lengthAdjust="spacing" textLength="219" x="27" y="326.8857">PuntWiskunde : int &#171;get&#187; &#171;set&#187;</text><ellipse cx="18" cy="339.8359" fill="none" rx="3" ry="3" style="stroke:#038048;stroke-width:1.0;"/><text fill="#000000" font-family="sans-serif" font-size="14" lengthAdjust="spacing" textLength="230" x="27" y="343.1826">PuntNederlands : int &#171;get&#187; &#171;set&#187;</text><line style="stroke:#181818;stroke-width:0.5;" x1="8" x2="612" y1="350.4844" y2="350.4844"/><ellipse cx="18" cy="364.1328" fill="#84BE84" rx="3" ry="3" style="stroke:#038048;stroke-width:1.0;"/><text fill="#000000" font-family="sans-serif" font-size="14" lengthAdjust="spacing" textLength="580" x="27" y="367.4795">Student(id:int, naam:string, voornaam:string, puntWiskunde:int, puntNederlands:int)</text><ellipse cx="18" cy="380.4297" fill="#84BE84" rx="3" ry="3" style="stroke:#038048;stroke-width:1.0;"/><text fill="#000000" font-family="sans-serif" font-size="14" lengthAdjust="spacing" textLength="253" x="27" y="383.7764">&#171;override&#187; Equals(obj:object?) : bool</text><ellipse cx="18" cy="396.7266" fill="#84BE84" rx="3" ry="3" style="stroke:#038048;stroke-width:1.0;"/><text fill="#000000" font-family="sans-serif" font-size="14" lengthAdjust="spacing" textLength="215" x="27" y="400.0732">&#171;override&#187; GetHashCode() : int</text><ellipse cx="18" cy="413.0234" fill="#84BE84" rx="3" ry="3" style="stroke:#038048;stroke-width:1.0;"/><text fill="#000000" font-family="sans-serif" font-size="14" lengthAdjust="spacing" textLength="198" x="27" y="416.3701">&#171;override&#187; ToString() : string</text></g><!--SRC=[KypCIyufJKbLyCv9BDOhACtDuLA42RbbvgJw5wGM9PPavkUXImQN0Ccy4h0e0000]--></g></svg>