<?xml version="1.0" encoding="us-ascii" standalone="no"?><svg xmlns="http://www.w3.org/2000/svg" xmlns:xlink="http://www.w3.org/1999/xlink" contentStyleType="text/css" height="218px" preserveAspectRatio="none" style="width:280px;height:218px;background:#FFFFFF;" version="1.1" viewBox="0 0 280 218" width="280px" zoomAndPan="magnify"><defs/><g><!--class Beer--><g id="elem_Beer"><rect codeLine="1" fill="#F1F1F1" height="96.8906" id="Beer" rx="2.5" ry="2.5" style="stroke:#181818;stroke-width:0.5;" width="266" x="7" y="115"/><ellipse cx="119.25" cy="131" fill="#ADD1B2" rx="11" ry="11" style="stroke:#181818;stroke-width:1.0;"/><path d="M122.2188,136.6406 Q121.6406,136.9375 121,137.0781 Q120.3594,137.2344 119.6563,137.2344 Q117.1563,137.2344 115.8281,135.5938 Q114.5156,133.9375 114.5156,130.8125 Q114.5156,127.6875 115.8281,126.0313 Q117.1563,124.375 119.6563,124.375 Q120.3594,124.375 121,124.5313 Q121.6563,124.6875 122.2188,124.9844 L122.2188,127.7031 Q121.5938,127.125 121,126.8594 Q120.4063,126.5781 119.7813,126.5781 Q118.4375,126.5781 117.75,127.6563 Q117.0625,128.7188 117.0625,130.8125 Q117.0625,132.9063 117.75,133.9844 Q118.4375,135.0469 119.7813,135.0469 Q120.4063,135.0469 121,134.7813 Q121.5938,134.5 122.2188,133.9219 L122.2188,136.6406 Z " fill="#000000"/><text fill="#000000" font-family="sans-serif" font-size="14" lengthAdjust="spacing" textLength="33" x="139.75" y="135.8467">Beer</text><line style="stroke:#181818;stroke-width:0.5;" x1="8" x2="272" y1="147" y2="147"/><ellipse cx="18" cy="160.6484" fill="none" rx="3" ry="3" style="stroke:#038048;stroke-width:1.0;"/><text fill="#000000" font-family="sans-serif" font-size="14" lengthAdjust="spacing" textLength="240" x="27" y="163.9951">&#171;override&#187; IsZoogdier : bool &#171;get&#187;</text><line style="stroke:#181818;stroke-width:0.5;" x1="8" x2="272" y1="171.2969" y2="171.2969"/><ellipse cx="18" cy="184.9453" fill="#84BE84" rx="3" ry="3" style="stroke:#038048;stroke-width:1.0;"/><text fill="#000000" font-family="sans-serif" font-size="14" lengthAdjust="spacing" textLength="190" x="27" y="188.292">&#171;override&#187; Voeren() : string</text><ellipse cx="18" cy="201.2422" fill="#84BE84" rx="3" ry="3" style="stroke:#038048;stroke-width:1.0;"/><text fill="#000000" font-family="sans-serif" font-size="14" lengthAdjust="spacing" textLength="220" x="27" y="204.5889">&#171;override&#187; MaakGeluid() : string</text></g><!--class Dier--><g id="elem_Dier"><rect fill="#F1F1F1" height="48" id="Dier" rx="2.5" ry="2.5" style="stroke:#181818;stroke-width:0.5;" width="60" x="110" y="7"/><ellipse cx="125" cy="23" fill="#ADD1B2" rx="11" ry="11" style="stroke:#181818;stroke-width:1.0;"/><path d="M127.9688,28.6406 Q127.3906,28.9375 126.75,29.0781 Q126.1094,29.2344 125.4063,29.2344 Q122.9063,29.2344 121.5781,27.5938 Q120.2656,25.9375 120.2656,22.8125 Q120.2656,19.6875 121.5781,18.0313 Q122.9063,16.375 125.4063,16.375 Q126.1094,16.375 126.75,16.5313 Q127.4063,16.6875 127.9688,16.9844 L127.9688,19.7031 Q127.3438,19.125 126.75,18.8594 Q126.1563,18.5781 125.5313,18.5781 Q124.1875,18.5781 123.5,19.6563 Q122.8125,20.7188 122.8125,22.8125 Q122.8125,24.9063 123.5,25.9844 Q124.1875,27.0469 125.5313,27.0469 Q126.1563,27.0469 126.75,26.7813 Q127.3438,26.5 127.9688,25.9219 L127.9688,28.6406 Z " fill="#000000"/><text fill="#000000" font-family="sans-serif" font-size="14" lengthAdjust="spacing" textLength="28" x="139" y="27.8467">Dier</text><line style="stroke:#181818;stroke-width:0.5;" x1="111" x2="169" y1="39" y2="39"/><line style="stroke:#181818;stroke-width:0.5;" x1="111" x2="169" y1="47" y2="47"/></g><!--reverse link Dier to Beer--><g id="link_Dier_Beer"><path codeLine="6" d="M140,73.03 C140,89.57 140,94.44 140,114.84 " fill="none" id="Dier-backto-Beer" style="stroke:#181818;stroke-width:1.0;"/><polygon fill="none" points="140,55.03,134,73.03,146,73.03,140,55.03" style="stroke:#181818;stroke-width:1.0;"/></g><!--SRC=[Iyv9B2vMS4fDBLAevb800cq56vlyijIYeioKL3ix1S_YgFpyz9HCeBoLGb9-VWvGEZsrnCuEc-Am_DIYr3mDJQ3IufAYpBnqR8fy4nEptLDpIZDJa1NMShc0xB2fqTK5kmO0]--></g></svg>