<?xml version="1.0" encoding="us-ascii" standalone="no"?><svg xmlns="http://www.w3.org/2000/svg" xmlns:xlink="http://www.w3.org/1999/xlink" contentStyleType="text/css" height="134px" preserveAspectRatio="none" style="width:209px;height:134px;background:#FFFFFF;" version="1.1" viewBox="0 0 209 134" width="209px" zoomAndPan="magnify"><defs/><g><!--class Dier--><g id="elem_Dier"><rect codeLine="1" fill="#F1F1F1" height="113.1875" id="Dier" rx="2.5" ry="2.5" style="stroke:#181818;stroke-width:0.5;" width="188" x="7" y="7"/><ellipse cx="82.75" cy="23" fill="#A9DCDF" rx="11" ry="11" style="stroke:#181818;stroke-width:1.0;"/><path d="M82.8594,18.3438 L81.7031,23.4219 L84.0313,23.4219 L82.8594,18.3438 Z M81.375,16.1094 L84.3594,16.1094 L87.7188,28.5 L85.2656,28.5 L84.5,25.4375 L81.2188,25.4375 L80.4688,28.5 L78.0313,28.5 L81.375,16.1094 Z " fill="#000000"/><text fill="#000000" font-family="sans-serif" font-size="14" font-style="italic" lengthAdjust="spacing" textLength="28" x="103.25" y="27.8467">Dier</text><line style="stroke:#181818;stroke-width:0.5;" x1="8" x2="194" y1="39" y2="39"/><ellipse cx="18" cy="52.6484" fill="none" rx="3" ry="3" style="stroke:#038048;stroke-width:1.0;"/><text fill="#000000" font-family="sans-serif" font-size="14" font-style="italic" lengthAdjust="spacing" textLength="162" x="27" y="55.9951">IsZoogdier : bool &#171;get&#187;</text><line style="stroke:#181818;stroke-width:0.5;" x1="8" x2="194" y1="63.2969" y2="63.2969"/><ellipse cx="18" cy="76.9453" fill="#84BE84" rx="3" ry="3" style="stroke:#038048;stroke-width:1.0;"/><text fill="#000000" font-family="sans-serif" font-size="14" font-style="italic" lengthAdjust="spacing" textLength="112" x="27" y="80.292">Voeren() : string</text><ellipse cx="18" cy="93.2422" fill="#84BE84" rx="3" ry="3" style="stroke:#038048;stroke-width:1.0;"/><text fill="#000000" font-family="sans-serif" font-size="14" font-style="italic" lengthAdjust="spacing" textLength="141" x="27" y="96.5889">MaakGeluid() : string</text><ellipse cx="18" cy="109.5391" fill="#84BE84" rx="3" ry="3" style="stroke:#038048;stroke-width:1.0;"/><text fill="#000000" font-family="sans-serif" font-size="14" lengthAdjust="spacing" textLength="99" x="27" y="112.8857">Slaap() : string</text></g><!--SRC=[IqmgBYbAJ2vHICv9B2vMSCbCBLAevb800cs5waIePAs2Pt5KVdvw2aZMIY4fFpz7mSOcFRN4pWvJQLX-Qb5gdeOcK25GA3Cl7LE9Rs9YjdjgJcbc2gQou9p4n09auLe0]--></g></svg>