<?xml version="1.0" encoding="us-ascii" standalone="no"?><svg xmlns="http://www.w3.org/2000/svg" xmlns:xlink="http://www.w3.org/1999/xlink" contentStyleType="text/css" height="283px" preserveAspectRatio="none" style="width:581px;height:283px;background:#FFFFFF;" version="1.1" viewBox="0 0 581 283" width="581px" zoomAndPan="magnify"><defs/><g><!--class Kikker--><g id="elem_Kikker"><rect codeLine="1" fill="#F1F1F1" height="96.8906" id="Kikker" rx="2.5" ry="2.5" style="stroke:#181818;stroke-width:0.5;" width="266" x="7" y="180"/><ellipse cx="114.75" cy="196" fill="#ADD1B2" rx="11" ry="11" style="stroke:#181818;stroke-width:1.0;"/><path d="M117.7188,201.6406 Q117.1406,201.9375 116.5,202.0781 Q115.8594,202.2344 115.1563,202.2344 Q112.6563,202.2344 111.3281,200.5938 Q110.0156,198.9375 110.0156,195.8125 Q110.0156,192.6875 111.3281,191.0313 Q112.6563,189.375 115.1563,189.375 Q115.8594,189.375 116.5,189.5313 Q117.1563,189.6875 117.7188,189.9844 L117.7188,192.7031 Q117.0938,192.125 116.5,191.8594 Q115.9063,191.5781 115.2813,191.5781 Q113.9375,191.5781 113.25,192.6563 Q112.5625,193.7188 112.5625,195.8125 Q112.5625,197.9063 113.25,198.9844 Q113.9375,200.0469 115.2813,200.0469 Q115.9063,200.0469 116.5,199.7813 Q117.0938,199.5 117.7188,198.9219 L117.7188,201.6406 Z " fill="#000000"/><text fill="#000000" font-family="sans-serif" font-size="14" lengthAdjust="spacing" textLength="42" x="135.25" y="200.8467">Kikker</text><line style="stroke:#181818;stroke-width:0.5;" x1="8" x2="272" y1="212" y2="212"/><ellipse cx="18" cy="225.6484" fill="none" rx="3" ry="3" style="stroke:#038048;stroke-width:1.0;"/><text fill="#000000" font-family="sans-serif" font-size="14" lengthAdjust="spacing" textLength="240" x="27" y="228.9951">&#171;override&#187; IsZoogdier : bool &#171;get&#187;</text><line style="stroke:#181818;stroke-width:0.5;" x1="8" x2="272" y1="236.2969" y2="236.2969"/><ellipse cx="18" cy="249.9453" fill="#84BE84" rx="3" ry="3" style="stroke:#038048;stroke-width:1.0;"/><text fill="#000000" font-family="sans-serif" font-size="14" lengthAdjust="spacing" textLength="190" x="27" y="253.292">&#171;override&#187; Voeren() : string</text><ellipse cx="18" cy="266.2422" fill="#84BE84" rx="3" ry="3" style="stroke:#038048;stroke-width:1.0;"/><text fill="#000000" font-family="sans-serif" font-size="14" lengthAdjust="spacing" textLength="220" x="27" y="269.5889">&#171;override&#187; MaakGeluid() : string</text></g><!--class Dier--><g id="elem_Dier"><rect codeLine="1" fill="#F1F1F1" height="113.1875" id="Dier" rx="2.5" ry="2.5" style="stroke:#181818;stroke-width:0.5;" width="188" x="196" y="7"/><ellipse cx="271.75" cy="23" fill="#A9DCDF" rx="11" ry="11" style="stroke:#181818;stroke-width:1.0;"/><path d="M271.8594,18.3438 L270.7031,23.4219 L273.0313,23.4219 L271.8594,18.3438 Z M270.375,16.1094 L273.3594,16.1094 L276.7188,28.5 L274.2656,28.5 L273.5,25.4375 L270.2188,25.4375 L269.4688,28.5 L267.0313,28.5 L270.375,16.1094 Z " fill="#000000"/><text fill="#000000" font-family="sans-serif" font-size="14" font-style="italic" lengthAdjust="spacing" textLength="28" x="292.25" y="27.8467">Dier</text><line style="stroke:#181818;stroke-width:0.5;" x1="197" x2="383" y1="39" y2="39"/><ellipse cx="207" cy="52.6484" fill="none" rx="3" ry="3" style="stroke:#038048;stroke-width:1.0;"/><text fill="#000000" font-family="sans-serif" font-size="14" font-style="italic" lengthAdjust="spacing" textLength="162" x="216" y="55.9951">IsZoogdier : bool &#171;get&#187;</text><line style="stroke:#181818;stroke-width:0.5;" x1="197" x2="383" y1="63.2969" y2="63.2969"/><ellipse cx="207" cy="76.9453" fill="#84BE84" rx="3" ry="3" style="stroke:#038048;stroke-width:1.0;"/><text fill="#000000" font-family="sans-serif" font-size="14" font-style="italic" lengthAdjust="spacing" textLength="112" x="216" y="80.292">Voeren() : string</text><ellipse cx="207" cy="93.2422" fill="#84BE84" rx="3" ry="3" style="stroke:#038048;stroke-width:1.0;"/><text fill="#000000" font-family="sans-serif" font-size="14" font-style="italic" lengthAdjust="spacing" textLength="141" x="216" y="96.5889">MaakGeluid() : string</text><ellipse cx="207" cy="109.5391" fill="#84BE84" rx="3" ry="3" style="stroke:#038048;stroke-width:1.0;"/><text fill="#000000" font-family="sans-serif" font-size="14" lengthAdjust="spacing" textLength="99" x="216" y="112.8857">Slaap() : string</text></g><!--class Beer--><g id="elem_Beer"><rect codeLine="1" fill="#F1F1F1" height="96.8906" id="Beer" rx="2.5" ry="2.5" style="stroke:#181818;stroke-width:0.5;" width="266" x="308" y="180"/><ellipse cx="420.25" cy="196" fill="#ADD1B2" rx="11" ry="11" style="stroke:#181818;stroke-width:1.0;"/><path d="M423.2188,201.6406 Q422.6406,201.9375 422,202.0781 Q421.3594,202.2344 420.6563,202.2344 Q418.1563,202.2344 416.8281,200.5938 Q415.5156,198.9375 415.5156,195.8125 Q415.5156,192.6875 416.8281,191.0313 Q418.1563,189.375 420.6563,189.375 Q421.3594,189.375 422,189.5313 Q422.6563,189.6875 423.2188,189.9844 L423.2188,192.7031 Q422.5938,192.125 422,191.8594 Q421.4063,191.5781 420.7813,191.5781 Q419.4375,191.5781 418.75,192.6563 Q418.0625,193.7188 418.0625,195.8125 Q418.0625,197.9063 418.75,198.9844 Q419.4375,200.0469 420.7813,200.0469 Q421.4063,200.0469 422,199.7813 Q422.5938,199.5 423.2188,198.9219 L423.2188,201.6406 Z " fill="#000000"/><text fill="#000000" font-family="sans-serif" font-size="14" lengthAdjust="spacing" textLength="33" x="440.75" y="200.8467">Beer</text><line style="stroke:#181818;stroke-width:0.5;" x1="309" x2="573" y1="212" y2="212"/><ellipse cx="319" cy="225.6484" fill="none" rx="3" ry="3" style="stroke:#038048;stroke-width:1.0;"/><text fill="#000000" font-family="sans-serif" font-size="14" lengthAdjust="spacing" textLength="240" x="328" y="228.9951">&#171;override&#187; IsZoogdier : bool &#171;get&#187;</text><line style="stroke:#181818;stroke-width:0.5;" x1="309" x2="573" y1="236.2969" y2="236.2969"/><ellipse cx="319" cy="249.9453" fill="#84BE84" rx="3" ry="3" style="stroke:#038048;stroke-width:1.0;"/><text fill="#000000" font-family="sans-serif" font-size="14" lengthAdjust="spacing" textLength="190" x="328" y="253.292">&#171;override&#187; Voeren() : string</text><ellipse cx="319" cy="266.2422" fill="#84BE84" rx="3" ry="3" style="stroke:#038048;stroke-width:1.0;"/><text fill="#000000" font-family="sans-serif" font-size="14" lengthAdjust="spacing" textLength="220" x="328" y="269.5889">&#171;override&#187; MaakGeluid() : string</text></g><!--reverse link Dier to Kikker--><g id="link_Dier_Kikker"><path codeLine="6" d="M226.6105,133.3845 C208.7005,152.8445 200.96,161.25 183.72,179.99 " fill="none" id="Dier-backto-Kikker" style="stroke:#181818;stroke-width:1.0;"/><polygon fill="none" points="238.8,120.14,222.1957,129.3213,231.0253,137.4476,238.8,120.14" style="stroke:#181818;stroke-width:1.0;"/></g><!--reverse link Dier to Beer--><g id="link_Dier_Beer"><path codeLine="6" d="M353.7735,133.3438 C371.8035,152.8038 379.63,161.25 396.99,179.99 " fill="none" id="Dier-backto-Beer" style="stroke:#181818;stroke-width:1.0;"/><polygon fill="none" points="341.54,120.14,349.3723,137.4217,358.1748,129.266,341.54,120.14" style="stroke:#181818;stroke-width:1.0;"/></g><!--SRC=[KypCIyufJKbLyCxCpaujqYiepStXKeG9EgLY2BbaGeK0]--></g></svg>