<?xml version="1.0" encoding="us-ascii" standalone="no"?><svg xmlns="http://www.w3.org/2000/svg" xmlns:xlink="http://www.w3.org/1999/xlink" contentStyleType="text/css" height="150px" preserveAspectRatio="none" style="width:324px;height:150px;background:#FFFFFF;" version="1.1" viewBox="0 0 324 150" width="324px" zoomAndPan="magnify"><defs/><g><!--class Zoetigheid--><g id="elem_Zoetigheid"><rect codeLine="1" fill="#F1F1F1" height="129.4844" id="Zoetigheid" rx="2.5" ry="2.5" style="stroke:#181818;stroke-width:0.5;" width="303" x="7" y="7"/><ellipse cx="116.75" cy="23" fill="#ADD1B2" rx="11" ry="11" style="stroke:#181818;stroke-width:1.0;"/><path d="M119.7188,28.6406 Q119.1406,28.9375 118.5,29.0781 Q117.8594,29.2344 117.1563,29.2344 Q114.6563,29.2344 113.3281,27.5938 Q112.0156,25.9375 112.0156,22.8125 Q112.0156,19.6875 113.3281,18.0313 Q114.6563,16.375 117.1563,16.375 Q117.8594,16.375 118.5,16.5313 Q119.1563,16.6875 119.7188,16.9844 L119.7188,19.7031 Q119.0938,19.125 118.5,18.8594 Q117.9063,18.5781 117.2813,18.5781 Q115.9375,18.5781 115.25,19.6563 Q114.5625,20.7188 114.5625,22.8125 Q114.5625,24.9063 115.25,25.9844 Q115.9375,27.0469 117.2813,27.0469 Q117.9063,27.0469 118.5,26.7813 Q119.0938,26.5 119.7188,25.9219 L119.7188,28.6406 Z " fill="#000000"/><text fill="#000000" font-family="sans-serif" font-size="14" lengthAdjust="spacing" textLength="75" x="137.25" y="27.8467">Zoetigheid</text><line style="stroke:#181818;stroke-width:0.5;" x1="8" x2="309" y1="39" y2="39"/><ellipse cx="18" cy="52.6484" fill="none" rx="3" ry="3" style="stroke:#038048;stroke-width:1.0;"/><text fill="#000000" font-family="sans-serif" font-size="14" lengthAdjust="spacing" textLength="185" x="27" y="55.9951">Siroop : string &#171;get&#187; &#171;set&#187;</text><ellipse cx="18" cy="68.9453" fill="none" rx="3" ry="3" style="stroke:#038048;stroke-width:1.0;"/><text fill="#000000" font-family="sans-serif" font-size="14" lengthAdjust="spacing" textLength="198" x="27" y="72.292">Topping : string &#171;get&#187; &#171;set&#187;</text><line style="stroke:#181818;stroke-width:0.5;" x1="8" x2="309" y1="79.5938" y2="79.5938"/><polygon fill="#FFFF44" points="18,88.2422,22,92.2422,18,96.2422,14,92.2422" style="stroke:#B38D22;stroke-width:1.0;"/><text fill="#000000" font-family="sans-serif" font-size="14" lengthAdjust="spacing" textLength="277" x="27" y="96.5889">Zoetigheid(siroop:string, topping:string)</text><ellipse cx="18" cy="109.5391" fill="#84BE84" rx="3" ry="3" style="stroke:#038048;stroke-width:1.0;"/><text fill="#000000" font-family="sans-serif" font-size="14" lengthAdjust="spacing" textLength="220" x="27" y="112.8857">&#171;virtual&#187; BerekenPrijs() : double</text><ellipse cx="18" cy="125.8359" fill="#84BE84" rx="3" ry="3" style="stroke:#038048;stroke-width:1.0;"/><text fill="#000000" font-family="sans-serif" font-size="14" lengthAdjust="spacing" textLength="225" x="27" y="129.1826">&#171;virtual&#187; ToonOverzicht() : string</text></g><!--SRC=[VOqn3i8m34Ntdi8IIoiuGHLru08WqOcjj5PgYE8gTZk0k3jfau41uUNhwpyzzwuJWIkZaXsH1dWL46yF5mhC4zGW6iXRCCQYDarCMJDJBK_Jklx5Tb_-KZPldV03Q1BaNcMjCGi5dJiNJKSC-41_3dINiegV1fvl3d-GBRC_BHYUr8-weSbQl3y0]--></g></svg>