<?xml version="1.0" encoding="us-ascii" standalone="no"?><svg xmlns="http://www.w3.org/2000/svg" xmlns:xlink="http://www.w3.org/1999/xlink" contentStyleType="text/css" height="150px" preserveAspectRatio="none" style="width:273px;height:150px;background:#FFFFFF;" version="1.1" viewBox="0 0 273 150" width="273px" zoomAndPan="magnify"><defs/><g><!--class Student--><g id="elem_Student"><rect codeLine="1" fill="#F1F1F1" height="129.4844" id="Student" rx="2.5" ry="2.5" style="stroke:#181818;stroke-width:0.5;" width="252" x="7" y="7"/><ellipse cx="101.25" cy="23" fill="#ADD1B2" rx="11" ry="11" style="stroke:#181818;stroke-width:1.0;"/><path d="M104.2188,28.6406 Q103.6406,28.9375 103,29.0781 Q102.3594,29.2344 101.6563,29.2344 Q99.1563,29.2344 97.8281,27.5938 Q96.5156,25.9375 96.5156,22.8125 Q96.5156,19.6875 97.8281,18.0313 Q99.1563,16.375 101.6563,16.375 Q102.3594,16.375 103,16.5313 Q103.6563,16.6875 104.2188,16.9844 L104.2188,19.7031 Q103.5938,19.125 103,18.8594 Q102.4063,18.5781 101.7813,18.5781 Q100.4375,18.5781 99.75,19.6563 Q99.0625,20.7188 99.0625,22.8125 Q99.0625,24.9063 99.75,25.9844 Q100.4375,27.0469 101.7813,27.0469 Q102.4063,27.0469 103,26.7813 Q103.5938,26.5 104.2188,25.9219 L104.2188,28.6406 Z " fill="#000000"/><text fill="#000000" font-family="sans-serif" font-size="14" lengthAdjust="spacing" textLength="55" x="121.75" y="27.8467">Student</text><line style="stroke:#181818;stroke-width:0.5;" x1="8" x2="258" y1="39" y2="39"/><ellipse cx="18" cy="52.6484" fill="none" rx="3" ry="3" style="stroke:#038048;stroke-width:1.0;"/><text fill="#000000" font-family="sans-serif" font-size="14" lengthAdjust="spacing" textLength="219" x="27" y="55.9951">PuntWiskunde : int &#171;get&#187; &#171;set&#187;</text><ellipse cx="18" cy="68.9453" fill="none" rx="3" ry="3" style="stroke:#038048;stroke-width:1.0;"/><text fill="#000000" font-family="sans-serif" font-size="14" lengthAdjust="spacing" textLength="226" x="27" y="72.292">PuntInformatica : int &#171;get&#187; &#171;set&#187;</text><ellipse cx="18" cy="85.2422" fill="none" rx="3" ry="3" style="stroke:#038048;stroke-width:1.0;"/><text fill="#000000" font-family="sans-serif" font-size="14" lengthAdjust="spacing" textLength="211" x="27" y="88.5889">Voornaam : string &#171;get&#187; &#171;set&#187;</text><ellipse cx="18" cy="101.5391" fill="none" rx="3" ry="3" style="stroke:#038048;stroke-width:1.0;"/><text fill="#000000" font-family="sans-serif" font-size="14" lengthAdjust="spacing" textLength="226" x="27" y="104.8857">Familienaam : string &#171;get&#187; &#171;set&#187;</text><line style="stroke:#181818;stroke-width:0.5;" x1="8" x2="258" y1="112.1875" y2="112.1875"/><ellipse cx="18" cy="125.8359" fill="#84BE84" rx="3" ry="3" style="stroke:#038048;stroke-width:1.0;"/><text fill="#000000" font-family="sans-serif" font-size="14" lengthAdjust="spacing" textLength="163" x="27" y="129.1826">ToonOverzicht() : string</text></g><!--SRC=[Iyv9B2vM22ufJKdDAr6evb800cs5WDAyal3CukpIl9HK1Ik5JA2KZKrwQecT7P0k1j582ZtpqlABSXDBCfCJyQeDoyyloajCp0KgAYufoinBnw7EBJ4tCoSpbHYb8VdvUVvbgKLLcSaP9HgQSELSjG00]--></g></svg>