<?xml version="1.0" encoding="us-ascii" standalone="no"?><svg xmlns="http://www.w3.org/2000/svg" xmlns:xlink="http://www.w3.org/1999/xlink" contentStyleType="text/css" height="109px" preserveAspectRatio="none" style="width:439px;height:109px;background:#FFFFFF;" version="1.1" viewBox="0 0 439 109" width="439px" zoomAndPan="magnify"><defs/><g><!--class Calculations--><g id="elem_Calculations"><rect codeLine="1" fill="#F1F1F1" height="88.8594" id="Calculations" rx="2.5" ry="2.5" style="stroke:#181818;stroke-width:0.5;" width="418" x="7" y="7"/><ellipse cx="170.25" cy="27.1328" fill="#ADD1B2" rx="11" ry="11" style="stroke:#181818;stroke-width:1.0;"/><path d="M173.2188,32.7734 Q172.6406,33.0703 172,33.2109 Q171.3594,33.3672 170.6563,33.3672 Q168.1563,33.3672 166.8281,31.7266 Q165.5156,30.0703 165.5156,26.9453 Q165.5156,23.8203 166.8281,22.1641 Q168.1563,20.5078 170.6563,20.5078 Q171.3594,20.5078 172,20.6641 Q172.6563,20.8203 173.2188,21.1172 L173.2188,23.8359 Q172.5938,23.2578 172,22.9922 Q171.4063,22.7109 170.7813,22.7109 Q169.4375,22.7109 168.75,23.7891 Q168.0625,24.8516 168.0625,26.9453 Q168.0625,29.0391 168.75,30.1172 Q169.4375,31.1797 170.7813,31.1797 Q171.4063,31.1797 172,30.9141 Q172.5938,30.6328 173.2188,30.0547 L173.2188,32.7734 Z " fill="#000000"/><text fill="#000000" font-family="sans-serif" font-size="12" font-style="italic" lengthAdjust="spacing" textLength="48" x="208.25" y="23.1387">&#171;static&#187;</text><text fill="#000000" font-family="sans-serif" font-size="14" lengthAdjust="spacing" textLength="83" x="190.75" y="38.9639">Calculations</text><line style="stroke:#181818;stroke-width:0.5;" x1="8" x2="424" y1="47.2656" y2="47.2656"/><line style="stroke:#181818;stroke-width:0.5;" x1="8" x2="424" y1="55.2656" y2="55.2656"/><ellipse cx="18" cy="68.9141" fill="#84BE84" rx="3" ry="3" style="stroke:#038048;stroke-width:1.0;"/><text fill="#000000" font-family="sans-serif" font-size="14" lengthAdjust="spacing" text-decoration="underline" textLength="392" x="27" y="72.2607">DivideNumbers(dividend:double, divisor:double) : double</text><ellipse cx="18" cy="85.2109" fill="#84BE84" rx="3" ry="3" style="stroke:#038048;stroke-width:1.0;"/><text fill="#000000" font-family="sans-serif" font-size="14" lengthAdjust="spacing" text-decoration="underline" textLength="323" x="27" y="88.5576">CalculateSquareRoot(number:double) : double</text></g><!--SRC=[Iyv9B2vMS4xCIIxDIIp9pCyhLh2nAIu1CfFjx1IgkHI0G5kX6Y9Ig-2IMPQPakfNcfkKMbIiaGBcvQLOfUIN9kMawYY018hpYw1yJGKh1GWBtHYOVQd1XQM9HQb1-Vab6dbWGp6rrW80]--></g></svg>