<?xml version="1.0" encoding="us-ascii" standalone="no"?><svg xmlns="http://www.w3.org/2000/svg" xmlns:xlink="http://www.w3.org/1999/xlink" contentStyleType="text/css" height="134px" preserveAspectRatio="none" style="width:325px;height:134px;background:#FFFFFF;" version="1.1" viewBox="0 0 325 134" width="325px" zoomAndPan="magnify"><defs/><g><!--class FileOperations--><g id="elem_FileOperations"><rect codeLine="1" fill="#F1F1F1" height="113.1875" id="FileOperations" rx="2.5" ry="2.5" style="stroke:#181818;stroke-width:0.5;" width="304" x="7" y="7"/><ellipse cx="105.25" cy="23" fill="#ADD1B2" rx="11" ry="11" style="stroke:#181818;stroke-width:1.0;"/><path d="M108.2188,28.6406 Q107.6406,28.9375 107,29.0781 Q106.3594,29.2344 105.6563,29.2344 Q103.1563,29.2344 101.8281,27.5938 Q100.5156,25.9375 100.5156,22.8125 Q100.5156,19.6875 101.8281,18.0313 Q103.1563,16.375 105.6563,16.375 Q106.3594,16.375 107,16.5313 Q107.6563,16.6875 108.2188,16.9844 L108.2188,19.7031 Q107.5938,19.125 107,18.8594 Q106.4063,18.5781 105.7813,18.5781 Q104.4375,18.5781 103.75,19.6563 Q103.0625,20.7188 103.0625,22.8125 Q103.0625,24.9063 103.75,25.9844 Q104.4375,27.0469 105.7813,27.0469 Q106.4063,27.0469 107,26.7813 Q107.5938,26.5 108.2188,25.9219 L108.2188,28.6406 Z " fill="#000000"/><text fill="#000000" font-family="sans-serif" font-size="14" lengthAdjust="spacing" textLength="99" x="125.75" y="27.8467">FileOperations</text><line style="stroke:#181818;stroke-width:0.5;" x1="8" x2="310" y1="39" y2="39"/><ellipse cx="18" cy="52.6484" fill="none" rx="3" ry="3" style="stroke:#038048;stroke-width:1.0;"/><text fill="#000000" font-family="sans-serif" font-size="14" lengthAdjust="spacing" text-decoration="underline" textLength="278" x="27" y="55.9951">BestandPersonen : string = "voetbal.txt"</text><line style="stroke:#181818;stroke-width:0.5;" x1="8" x2="310" y1="63.2969" y2="63.2969"/><ellipse cx="18" cy="76.9453" fill="#84BE84" rx="3" ry="3" style="stroke:#038048;stroke-width:1.0;"/><text fill="#000000" font-family="sans-serif" font-size="14" lengthAdjust="spacing" text-decoration="underline" textLength="228" x="27" y="80.292">LeesPersonen() : List&lt;Persoon&gt;</text><ellipse cx="18" cy="93.2422" fill="#84BE84" rx="3" ry="3" style="stroke:#038048;stroke-width:1.0;"/><text fill="#000000" font-family="sans-serif" font-size="14" lengthAdjust="spacing" text-decoration="underline" textLength="207" x="27" y="96.5889">LeesTrainers() : List&lt;Trainer&gt;</text><ellipse cx="18" cy="109.5391" fill="#84BE84" rx="3" ry="3" style="stroke:#038048;stroke-width:1.0;"/><text fill="#000000" font-family="sans-serif" font-size="14" lengthAdjust="spacing" text-decoration="underline" textLength="250" x="27" y="112.8857">LeesSpelers() : List&lt;Voetbalspeler&gt;</text></g><!--SRC=[Iyv9B2vMSClCIVKlI2rABCdCpojMgEPI009jXUhY4g18Sgs2KogGbPSIa5fKd9-NcgTWfL1SKfIPbwvWgw1KbfzQafIOerTIKQA4hiydDRKOfab34wZD9xEun0OiafzdXqrrI55YPXvG7g4QAe9LTN11QWwAuZ28Ouh1udPSjG00]--></g></svg>