<?xml version="1.0" encoding="us-ascii" standalone="no"?><svg xmlns="http://www.w3.org/2000/svg" xmlns:xlink="http://www.w3.org/1999/xlink" contentStyleType="text/css" height="414px" preserveAspectRatio="none" style="width:1398px;height:414px;background:#FFFFFF;" version="1.1" viewBox="0 0 1398 414" width="1398px" zoomAndPan="magnify"><defs/><g><!--class Trainer--><g id="elem_Trainer"><rect codeLine="1" fill="#F1F1F1" height="96.8906" id="Trainer" rx="2.5" ry="2.5" style="stroke:#181818;stroke-width:0.5;" width="434" x="7" y="294"/><ellipse cx="195.75" cy="310" fill="#ADD1B2" rx="11" ry="11" style="stroke:#181818;stroke-width:1.0;"/><path d="M198.7188,315.6406 Q198.1406,315.9375 197.5,316.0781 Q196.8594,316.2344 196.1563,316.2344 Q193.6563,316.2344 192.3281,314.5938 Q191.0156,312.9375 191.0156,309.8125 Q191.0156,306.6875 192.3281,305.0313 Q193.6563,303.375 196.1563,303.375 Q196.8594,303.375 197.5,303.5313 Q198.1563,303.6875 198.7188,303.9844 L198.7188,306.7031 Q198.0938,306.125 197.5,305.8594 Q196.9063,305.5781 196.2813,305.5781 Q194.9375,305.5781 194.25,306.6563 Q193.5625,307.7188 193.5625,309.8125 Q193.5625,311.9063 194.25,312.9844 Q194.9375,314.0469 196.2813,314.0469 Q196.9063,314.0469 197.5,313.7813 Q198.0938,313.5 198.7188,312.9219 L198.7188,315.6406 Z " fill="#000000"/><text fill="#000000" font-family="sans-serif" font-size="14" lengthAdjust="spacing" textLength="48" x="216.25" y="314.8467">Trainer</text><line style="stroke:#181818;stroke-width:0.5;" x1="8" x2="440" y1="326" y2="326"/><ellipse cx="18" cy="339.6484" fill="none" rx="3" ry="3" style="stroke:#038048;stroke-width:1.0;"/><text fill="#000000" font-family="sans-serif" font-size="14" lengthAdjust="spacing" textLength="194" x="27" y="342.9951">Salaris : double &#171;get&#187; &#171;set&#187;</text><line style="stroke:#181818;stroke-width:0.5;" x1="8" x2="440" y1="350.2969" y2="350.2969"/><ellipse cx="18" cy="363.9453" fill="#84BE84" rx="3" ry="3" style="stroke:#038048;stroke-width:1.0;"/><text fill="#000000" font-family="sans-serif" font-size="14" lengthAdjust="spacing" textLength="408" x="27" y="367.292">Trainer(voornaam:string, achternaam:string, salaris:double)</text><ellipse cx="18" cy="380.2422" fill="#84BE84" rx="3" ry="3" style="stroke:#038048;stroke-width:1.0;"/><text fill="#000000" font-family="sans-serif" font-size="14" lengthAdjust="spacing" textLength="198" x="27" y="383.5889">&#171;override&#187; ToString() : string</text></g><!--class Persoon--><g id="elem_Persoon"><rect codeLine="1" fill="#F1F1F1" height="113.1875" id="Persoon" rx="2.5" ry="2.5" style="stroke:#181818;stroke-width:0.5;" width="340" x="299" y="56"/><ellipse cx="435.75" cy="72" fill="#ADD1B2" rx="11" ry="11" style="stroke:#181818;stroke-width:1.0;"/><path d="M438.7188,77.6406 Q438.1406,77.9375 437.5,78.0781 Q436.8594,78.2344 436.1563,78.2344 Q433.6563,78.2344 432.3281,76.5938 Q431.0156,74.9375 431.0156,71.8125 Q431.0156,68.6875 432.3281,67.0313 Q433.6563,65.375 436.1563,65.375 Q436.8594,65.375 437.5,65.5313 Q438.1563,65.6875 438.7188,65.9844 L438.7188,68.7031 Q438.0938,68.125 437.5,67.8594 Q436.9063,67.5781 436.2813,67.5781 Q434.9375,67.5781 434.25,68.6563 Q433.5625,69.7188 433.5625,71.8125 Q433.5625,73.9063 434.25,74.9844 Q434.9375,76.0469 436.2813,76.0469 Q436.9063,76.0469 437.5,75.7813 Q438.0938,75.5 438.7188,74.9219 L438.7188,77.6406 Z " fill="#000000"/><text fill="#000000" font-family="sans-serif" font-size="14" lengthAdjust="spacing" textLength="58" x="456.25" y="76.8467">Persoon</text><line style="stroke:#181818;stroke-width:0.5;" x1="300" x2="638" y1="88" y2="88"/><ellipse cx="310" cy="101.6484" fill="none" rx="3" ry="3" style="stroke:#038048;stroke-width:1.0;"/><text fill="#000000" font-family="sans-serif" font-size="14" lengthAdjust="spacing" textLength="211" x="319" y="104.9951">Voornaam : string &#171;get&#187; &#171;set&#187;</text><ellipse cx="310" cy="117.9453" fill="none" rx="3" ry="3" style="stroke:#038048;stroke-width:1.0;"/><text fill="#000000" font-family="sans-serif" font-size="14" lengthAdjust="spacing" textLength="224" x="319" y="121.292">Achternaam : string &#171;get&#187; &#171;set&#187;</text><line style="stroke:#181818;stroke-width:0.5;" x1="300" x2="638" y1="128.5938" y2="128.5938"/><ellipse cx="310" cy="142.2422" fill="#84BE84" rx="3" ry="3" style="stroke:#038048;stroke-width:1.0;"/><text fill="#000000" font-family="sans-serif" font-size="14" lengthAdjust="spacing" textLength="314" x="319" y="145.5889">Persoon(voornaam:string, achternaam:string)</text><ellipse cx="310" cy="158.5391" fill="#84BE84" rx="3" ry="3" style="stroke:#038048;stroke-width:1.0;"/><text fill="#000000" font-family="sans-serif" font-size="14" lengthAdjust="spacing" textLength="198" x="319" y="161.8857">&#171;override&#187; ToString() : string</text></g><!--class Team--><g id="elem_Team"><rect codeLine="1" fill="#F1F1F1" height="210.9688" id="Team" rx="2.5" ry="2.5" style="stroke:#181818;stroke-width:0.5;" width="378" x="674" y="7"/><ellipse cx="839.25" cy="23" fill="#ADD1B2" rx="11" ry="11" style="stroke:#181818;stroke-width:1.0;"/><path d="M842.2188,28.6406 Q841.6406,28.9375 841,29.0781 Q840.3594,29.2344 839.6563,29.2344 Q837.1563,29.2344 835.8281,27.5938 Q834.5156,25.9375 834.5156,22.8125 Q834.5156,19.6875 835.8281,18.0313 Q837.1563,16.375 839.6563,16.375 Q840.3594,16.375 841,16.5313 Q841.6563,16.6875 842.2188,16.9844 L842.2188,19.7031 Q841.5938,19.125 841,18.8594 Q840.4063,18.5781 839.7813,18.5781 Q838.4375,18.5781 837.75,19.6563 Q837.0625,20.7188 837.0625,22.8125 Q837.0625,24.9063 837.75,25.9844 Q838.4375,27.0469 839.7813,27.0469 Q840.4063,27.0469 841,26.7813 Q841.5938,26.5 842.2188,25.9219 L842.2188,28.6406 Z " fill="#000000"/><text fill="#000000" font-family="sans-serif" font-size="14" lengthAdjust="spacing" textLength="39" x="859.75" y="27.8467">Team</text><line style="stroke:#181818;stroke-width:0.5;" x1="675" x2="1051" y1="39" y2="39"/><ellipse cx="685" cy="52.6484" fill="none" rx="3" ry="3" style="stroke:#038048;stroke-width:1.0;"/><text fill="#000000" font-family="sans-serif" font-size="14" lengthAdjust="spacing" textLength="198" x="694" y="55.9951">Trainer : Trainer &#171;get&#187; &#171;set&#187;</text><ellipse cx="685" cy="68.9453" fill="none" rx="3" ry="3" style="stroke:#038048;stroke-width:1.0;"/><text fill="#000000" font-family="sans-serif" font-size="14" lengthAdjust="spacing" textLength="296" x="694" y="72.292">Spelers : List&lt;Voetbalspeler&gt; &#171;get&#187; &#171;set&#187;</text><ellipse cx="685" cy="85.2422" fill="none" rx="3" ry="3" style="stroke:#038048;stroke-width:1.0;"/><text fill="#000000" font-family="sans-serif" font-size="14" lengthAdjust="spacing" textLength="169" x="694" y="88.5889">AantalSpelers : int &#171;get&#187;</text><ellipse cx="685" cy="101.5391" fill="none" rx="3" ry="3" style="stroke:#038048;stroke-width:1.0;"/><text fill="#000000" font-family="sans-serif" font-size="14" lengthAdjust="spacing" textLength="201" x="694" y="104.8857">AantalVerdedigers : int &#171;get&#187;</text><ellipse cx="685" cy="117.8359" fill="none" rx="3" ry="3" style="stroke:#038048;stroke-width:1.0;"/><text fill="#000000" font-family="sans-serif" font-size="14" lengthAdjust="spacing" textLength="186" x="694" y="121.1826">AantalAanvallers : int &#171;get&#187;</text><ellipse cx="685" cy="134.1328" fill="none" rx="3" ry="3" style="stroke:#038048;stroke-width:1.0;"/><text fill="#000000" font-family="sans-serif" font-size="14" lengthAdjust="spacing" textLength="175" x="694" y="137.4795">AantalKeepers : int &#171;get&#187;</text><ellipse cx="685" cy="150.4297" fill="none" rx="3" ry="3" style="stroke:#038048;stroke-width:1.0;"/><text fill="#000000" font-family="sans-serif" font-size="14" lengthAdjust="spacing" textLength="218" x="694" y="153.7764">AantalMiddenvelders : int &#171;get&#187;</text><line style="stroke:#181818;stroke-width:0.5;" x1="675" x2="1051" y1="161.0781" y2="161.0781"/><ellipse cx="685" cy="174.7266" fill="#84BE84" rx="3" ry="3" style="stroke:#038048;stroke-width:1.0;"/><text fill="#000000" font-family="sans-serif" font-size="14" lengthAdjust="spacing" textLength="352" x="694" y="178.0732">Team(trainer:Trainer, spelers:List&lt;Voetbalspeler&gt;)</text><ellipse cx="685" cy="191.0234" fill="#84BE84" rx="3" ry="3" style="stroke:#038048;stroke-width:1.0;"/><text fill="#000000" font-family="sans-serif" font-size="14" lengthAdjust="spacing" textLength="301" x="694" y="194.3701">VoegSpelerToe(speler:Voetbalspeler) : void</text><ellipse cx="685" cy="207.3203" fill="#84BE84" rx="3" ry="3" style="stroke:#038048;stroke-width:1.0;"/><text fill="#000000" font-family="sans-serif" font-size="14" lengthAdjust="spacing" textLength="198" x="694" y="210.667">&#171;override&#187; ToString() : string</text></g><!--class Voetbalspeler--><g id="elem_Voetbalspeler"><rect codeLine="1" fill="#F1F1F1" height="129.4844" id="Voetbalspeler" rx="2.5" ry="2.5" style="stroke:#181818;stroke-width:0.5;" width="475" x="476.5" y="278"/><ellipse cx="662.25" cy="294" fill="#ADD1B2" rx="11" ry="11" style="stroke:#181818;stroke-width:1.0;"/><path d="M665.2188,299.6406 Q664.6406,299.9375 664,300.0781 Q663.3594,300.2344 662.6563,300.2344 Q660.1563,300.2344 658.8281,298.5938 Q657.5156,296.9375 657.5156,293.8125 Q657.5156,290.6875 658.8281,289.0313 Q660.1563,287.375 662.6563,287.375 Q663.3594,287.375 664,287.5313 Q664.6563,287.6875 665.2188,287.9844 L665.2188,290.7031 Q664.5938,290.125 664,289.8594 Q663.4063,289.5781 662.7813,289.5781 Q661.4375,289.5781 660.75,290.6563 Q660.0625,291.7188 660.0625,293.8125 Q660.0625,295.9063 660.75,296.9844 Q661.4375,298.0469 662.7813,298.0469 Q663.4063,298.0469 664,297.7813 Q664.5938,297.5 665.2188,296.9219 L665.2188,299.6406 Z " fill="#000000"/><text fill="#000000" font-family="sans-serif" font-size="14" lengthAdjust="spacing" textLength="95" x="682.75" y="298.8467">Voetbalspeler</text><line style="stroke:#181818;stroke-width:0.5;" x1="477.5" x2="950.5" y1="310" y2="310"/><ellipse cx="487.5" cy="323.6484" fill="none" rx="3" ry="3" style="stroke:#038048;stroke-width:1.0;"/><text fill="#000000" font-family="sans-serif" font-size="14" lengthAdjust="spacing" textLength="187" x="496.5" y="326.9951">Positie : string &#171;get&#187; &#171;set&#187;</text><line style="stroke:#181818;stroke-width:0.5;" x1="477.5" x2="950.5" y1="334.2969" y2="334.2969"/><ellipse cx="487.5" cy="347.9453" fill="#84BE84" rx="3" ry="3" style="stroke:#038048;stroke-width:1.0;"/><text fill="#000000" font-family="sans-serif" font-size="14" lengthAdjust="spacing" textLength="449" x="496.5" y="351.292">Voetbalspeler(voornaam:string, achternaam:string, positie:string)</text><ellipse cx="487.5" cy="364.2422" fill="#84BE84" rx="3" ry="3" style="stroke:#038048;stroke-width:1.0;"/><text fill="#000000" font-family="sans-serif" font-size="14" lengthAdjust="spacing" textLength="198" x="496.5" y="367.5889">&#171;override&#187; ToString() : string</text><ellipse cx="487.5" cy="380.5391" fill="#84BE84" rx="3" ry="3" style="stroke:#038048;stroke-width:1.0;"/><text fill="#000000" font-family="sans-serif" font-size="14" lengthAdjust="spacing" textLength="253" x="496.5" y="383.8857">&#171;override&#187; Equals(obj:object?) : bool</text><ellipse cx="487.5" cy="396.8359" fill="#84BE84" rx="3" ry="3" style="stroke:#038048;stroke-width:1.0;"/><text fill="#000000" font-family="sans-serif" font-size="14" lengthAdjust="spacing" textLength="215" x="496.5" y="400.1826">&#171;override&#187; GetHashCode() : int</text></g><!--class FileOperations--><g id="elem_FileOperations"><rect codeLine="1" fill="#F1F1F1" height="113.1875" id="FileOperations" rx="2.5" ry="2.5" style="stroke:#181818;stroke-width:0.5;" width="304" x="1087" y="56"/><ellipse cx="1185.25" cy="72" fill="#ADD1B2" rx="11" ry="11" style="stroke:#181818;stroke-width:1.0;"/><path d="M1188.2188,77.6406 Q1187.6406,77.9375 1187,78.0781 Q1186.3594,78.2344 1185.6563,78.2344 Q1183.1563,78.2344 1181.8281,76.5938 Q1180.5156,74.9375 1180.5156,71.8125 Q1180.5156,68.6875 1181.8281,67.0313 Q1183.1563,65.375 1185.6563,65.375 Q1186.3594,65.375 1187,65.5313 Q1187.6563,65.6875 1188.2188,65.9844 L1188.2188,68.7031 Q1187.5938,68.125 1187,67.8594 Q1186.4063,67.5781 1185.7813,67.5781 Q1184.4375,67.5781 1183.75,68.6563 Q1183.0625,69.7188 1183.0625,71.8125 Q1183.0625,73.9063 1183.75,74.9844 Q1184.4375,76.0469 1185.7813,76.0469 Q1186.4063,76.0469 1187,75.7813 Q1187.5938,75.5 1188.2188,74.9219 L1188.2188,77.6406 Z " fill="#000000"/><text fill="#000000" font-family="sans-serif" font-size="14" lengthAdjust="spacing" textLength="99" x="1205.75" y="76.8467">FileOperations</text><line style="stroke:#181818;stroke-width:0.5;" x1="1088" x2="1390" y1="88" y2="88"/><ellipse cx="1098" cy="101.6484" fill="none" rx="3" ry="3" style="stroke:#038048;stroke-width:1.0;"/><text fill="#000000" font-family="sans-serif" font-size="14" lengthAdjust="spacing" text-decoration="underline" textLength="278" x="1107" y="104.9951">BestandPersonen : string = "voetbal.txt"</text><line style="stroke:#181818;stroke-width:0.5;" x1="1088" x2="1390" y1="112.2969" y2="112.2969"/><ellipse cx="1098" cy="125.9453" fill="#84BE84" rx="3" ry="3" style="stroke:#038048;stroke-width:1.0;"/><text fill="#000000" font-family="sans-serif" font-size="14" lengthAdjust="spacing" text-decoration="underline" textLength="228" x="1107" y="129.292">LeesPersonen() : List&lt;Persoon&gt;</text><ellipse cx="1098" cy="142.2422" fill="#84BE84" rx="3" ry="3" style="stroke:#038048;stroke-width:1.0;"/><text fill="#000000" font-family="sans-serif" font-size="14" lengthAdjust="spacing" text-decoration="underline" textLength="207" x="1107" y="145.5889">LeesTrainers() : List&lt;Trainer&gt;</text><ellipse cx="1098" cy="158.5391" fill="#84BE84" rx="3" ry="3" style="stroke:#038048;stroke-width:1.0;"/><text fill="#000000" font-family="sans-serif" font-size="14" lengthAdjust="spacing" text-decoration="underline" textLength="250" x="1107" y="161.8857">LeesSpelers() : List&lt;Voetbalspeler&gt;</text></g><!--reverse link Persoon to Trainer--><g id="link_Persoon_Trainer"><path codeLine="6" d="M395.8933,181.5427 C354.9533,219.6427 314.44,257.34 275.44,293.63 " fill="none" id="Persoon-backto-Trainer" style="stroke:#181818;stroke-width:1.0;"/><polygon fill="none" points="409.07,169.28,391.8057,177.1504,399.9808,185.9349,409.07,169.28" style="stroke:#181818;stroke-width:1.0;"/></g><!--reverse link Persoon to Voetbalspeler--><g id="link_Persoon_Voetbalspeler"><path codeLine="8" d="M542.1091,181.5402 C577.3891,214.3602 608.94,243.73 645.59,277.84 " fill="none" id="Persoon-backto-Voetbalspeler" style="stroke:#181818;stroke-width:1.0;"/><polygon fill="none" points="528.93,169.28,538.0224,185.9332,546.1958,177.1471,528.93,169.28" style="stroke:#181818;stroke-width:1.0;"/></g><!--SRC=[KypCIyufJKbL22bApCnBBT8hACtDuLA4YGQa5XNdv-UXYOQa9kQY2ONbfvOa9UOK5wJcO1ZYbfcJwb-GMfHOafcVLmoM1000]--></g></svg>