<?xml version="1.0" encoding="us-ascii" standalone="no"?><svg xmlns="http://www.w3.org/2000/svg" xmlns:xlink="http://www.w3.org/1999/xlink" contentStyleType="text/css" height="134px" preserveAspectRatio="none" style="width:361px;height:134px;background:#FFFFFF;" version="1.1" viewBox="0 0 361 134" width="361px" zoomAndPan="magnify"><defs/><g><!--class Persoon--><g id="elem_Persoon"><rect codeLine="1" fill="#F1F1F1" height="113.1875" id="Persoon" rx="2.5" ry="2.5" style="stroke:#181818;stroke-width:0.5;" width="340" x="7" y="7"/><ellipse cx="143.75" cy="23" fill="#ADD1B2" rx="11" ry="11" style="stroke:#181818;stroke-width:1.0;"/><path d="M146.7188,28.6406 Q146.1406,28.9375 145.5,29.0781 Q144.8594,29.2344 144.1563,29.2344 Q141.6563,29.2344 140.3281,27.5938 Q139.0156,25.9375 139.0156,22.8125 Q139.0156,19.6875 140.3281,18.0313 Q141.6563,16.375 144.1563,16.375 Q144.8594,16.375 145.5,16.5313 Q146.1563,16.6875 146.7188,16.9844 L146.7188,19.7031 Q146.0938,19.125 145.5,18.8594 Q144.9063,18.5781 144.2813,18.5781 Q142.9375,18.5781 142.25,19.6563 Q141.5625,20.7188 141.5625,22.8125 Q141.5625,24.9063 142.25,25.9844 Q142.9375,27.0469 144.2813,27.0469 Q144.9063,27.0469 145.5,26.7813 Q146.0938,26.5 146.7188,25.9219 L146.7188,28.6406 Z " fill="#000000"/><text fill="#000000" font-family="sans-serif" font-size="14" lengthAdjust="spacing" textLength="58" x="164.25" y="27.8467">Persoon</text><line style="stroke:#181818;stroke-width:0.5;" x1="8" x2="346" y1="39" y2="39"/><ellipse cx="18" cy="52.6484" fill="none" rx="3" ry="3" style="stroke:#038048;stroke-width:1.0;"/><text fill="#000000" font-family="sans-serif" font-size="14" lengthAdjust="spacing" textLength="211" x="27" y="55.9951">Voornaam : string &#171;get&#187; &#171;set&#187;</text><ellipse cx="18" cy="68.9453" fill="none" rx="3" ry="3" style="stroke:#038048;stroke-width:1.0;"/><text fill="#000000" font-family="sans-serif" font-size="14" lengthAdjust="spacing" textLength="224" x="27" y="72.292">Achternaam : string &#171;get&#187; &#171;set&#187;</text><line style="stroke:#181818;stroke-width:0.5;" x1="8" x2="346" y1="79.5938" y2="79.5938"/><ellipse cx="18" cy="93.2422" fill="#84BE84" rx="3" ry="3" style="stroke:#038048;stroke-width:1.0;"/><text fill="#000000" font-family="sans-serif" font-size="14" lengthAdjust="spacing" textLength="314" x="27" y="96.5889">Persoon(voornaam:string, achternaam:string)</text><ellipse cx="18" cy="109.5391" fill="#84BE84" rx="3" ry="3" style="stroke:#038048;stroke-width:1.0;"/><text fill="#000000" font-family="sans-serif" font-size="14" lengthAdjust="spacing" textLength="198" x="27" y="112.8857">&#171;override&#187; ToString() : string</text></g><!--SRC=[Iyv9B2vM24WjAixFprEevb800cs5iFpyehp4n5m5AuNYagBCl7G56vlqr18xEo1T3AAXwXoJCqfIYL89jK6Z36go5KIrZa8Yt0Yea2PKXurDVbbgKL5cIYhGi93yOB2aXYRS8gvQ0000]--></g></svg>