<?xml version="1.0" encoding="us-ascii" standalone="no"?><svg xmlns="http://www.w3.org/2000/svg" xmlns:xlink="http://www.w3.org/1999/xlink" contentStyleType="text/css" height="218px" preserveAspectRatio="none" style="width:448px;height:218px;background:#FFFFFF;" version="1.1" viewBox="0 0 448 218" width="448px" zoomAndPan="magnify"><defs/><g><!--class Trainer--><g id="elem_Trainer"><rect codeLine="1" fill="#F1F1F1" height="96.8906" id="Trainer" rx="2.5" ry="2.5" style="stroke:#181818;stroke-width:0.5;" width="434" x="7" y="115"/><ellipse cx="195.75" cy="131" fill="#ADD1B2" rx="11" ry="11" style="stroke:#181818;stroke-width:1.0;"/><path d="M198.7188,136.6406 Q198.1406,136.9375 197.5,137.0781 Q196.8594,137.2344 196.1563,137.2344 Q193.6563,137.2344 192.3281,135.5938 Q191.0156,133.9375 191.0156,130.8125 Q191.0156,127.6875 192.3281,126.0313 Q193.6563,124.375 196.1563,124.375 Q196.8594,124.375 197.5,124.5313 Q198.1563,124.6875 198.7188,124.9844 L198.7188,127.7031 Q198.0938,127.125 197.5,126.8594 Q196.9063,126.5781 196.2813,126.5781 Q194.9375,126.5781 194.25,127.6563 Q193.5625,128.7188 193.5625,130.8125 Q193.5625,132.9063 194.25,133.9844 Q194.9375,135.0469 196.2813,135.0469 Q196.9063,135.0469 197.5,134.7813 Q198.0938,134.5 198.7188,133.9219 L198.7188,136.6406 Z " fill="#000000"/><text fill="#000000" font-family="sans-serif" font-size="14" lengthAdjust="spacing" textLength="48" x="216.25" y="135.8467">Trainer</text><line style="stroke:#181818;stroke-width:0.5;" x1="8" x2="440" y1="147" y2="147"/><ellipse cx="18" cy="160.6484" fill="none" rx="3" ry="3" style="stroke:#038048;stroke-width:1.0;"/><text fill="#000000" font-family="sans-serif" font-size="14" lengthAdjust="spacing" textLength="194" x="27" y="163.9951">Salaris : double &#171;get&#187; &#171;set&#187;</text><line style="stroke:#181818;stroke-width:0.5;" x1="8" x2="440" y1="171.2969" y2="171.2969"/><ellipse cx="18" cy="184.9453" fill="#84BE84" rx="3" ry="3" style="stroke:#038048;stroke-width:1.0;"/><text fill="#000000" font-family="sans-serif" font-size="14" lengthAdjust="spacing" textLength="408" x="27" y="188.292">Trainer(voornaam:string, achternaam:string, salaris:double)</text><ellipse cx="18" cy="201.2422" fill="#84BE84" rx="3" ry="3" style="stroke:#038048;stroke-width:1.0;"/><text fill="#000000" font-family="sans-serif" font-size="14" lengthAdjust="spacing" textLength="198" x="27" y="204.5889">&#171;override&#187; ToString() : string</text></g><!--class Persoon--><g id="elem_Persoon"><rect fill="#F1F1F1" height="48" id="Persoon" rx="2.5" ry="2.5" style="stroke:#181818;stroke-width:0.5;" width="90" x="179" y="7"/><ellipse cx="194" cy="23" fill="#ADD1B2" rx="11" ry="11" style="stroke:#181818;stroke-width:1.0;"/><path d="M196.9688,28.6406 Q196.3906,28.9375 195.75,29.0781 Q195.1094,29.2344 194.4063,29.2344 Q191.9063,29.2344 190.5781,27.5938 Q189.2656,25.9375 189.2656,22.8125 Q189.2656,19.6875 190.5781,18.0313 Q191.9063,16.375 194.4063,16.375 Q195.1094,16.375 195.75,16.5313 Q196.4063,16.6875 196.9688,16.9844 L196.9688,19.7031 Q196.3438,19.125 195.75,18.8594 Q195.1563,18.5781 194.5313,18.5781 Q193.1875,18.5781 192.5,19.6563 Q191.8125,20.7188 191.8125,22.8125 Q191.8125,24.9063 192.5,25.9844 Q193.1875,27.0469 194.5313,27.0469 Q195.1563,27.0469 195.75,26.7813 Q196.3438,26.5 196.9688,25.9219 L196.9688,28.6406 Z " fill="#000000"/><text fill="#000000" font-family="sans-serif" font-size="14" lengthAdjust="spacing" textLength="58" x="208" y="27.8467">Persoon</text><line style="stroke:#181818;stroke-width:0.5;" x1="180" x2="268" y1="39" y2="39"/><line style="stroke:#181818;stroke-width:0.5;" x1="180" x2="268" y1="47" y2="47"/></g><!--reverse link Persoon to Trainer--><g id="link_Persoon_Trainer"><path codeLine="6" d="M224,73.03 C224,89.57 224,94.44 224,114.84 " fill="none" id="Persoon-backto-Trainer" style="stroke:#181818;stroke-width:1.0;"/><polygon fill="none" points="224,55.03,218,73.03,230,73.03,224,55.03" style="stroke:#181818;stroke-width:1.0;"/></g><!--SRC=[LOr13i8m30JlUOMFhQ0VYAo-0QdzW6cj4Yd4aXrweVoTGCA1lQoqsfrT8fd1h1GIApmT59rWeaWQ33oiyhX61iIDypWMju-tMfjrkuWcehkth25jPw3bbla_iehq5TWt0gBih1fMBl1Pfc-vwyjntRcNkx2QI08yXk7t-0O0]--></g></svg>