<?xml version="1.0" encoding="us-ascii" standalone="no"?><svg xmlns="http://www.w3.org/2000/svg" xmlns:xlink="http://www.w3.org/1999/xlink" contentStyleType="text/css" height="235px" preserveAspectRatio="none" style="width:330px;height:235px;background:#FFFFFF;" version="1.1" viewBox="0 0 330 235" width="330px" zoomAndPan="magnify"><defs/><g><!--class Klant--><g id="elem_Klant"><rect codeLine="1" fill="#F1F1F1" height="113.1875" id="Klant" rx="2.5" ry="2.5" style="stroke:#181818;stroke-width:0.5;" width="316" x="7" y="115"/><ellipse cx="143.75" cy="131" fill="#ADD1B2" rx="11" ry="11" style="stroke:#181818;stroke-width:1.0;"/><path d="M146.7188,136.6406 Q146.1406,136.9375 145.5,137.0781 Q144.8594,137.2344 144.1563,137.2344 Q141.6563,137.2344 140.3281,135.5938 Q139.0156,133.9375 139.0156,130.8125 Q139.0156,127.6875 140.3281,126.0313 Q141.6563,124.375 144.1563,124.375 Q144.8594,124.375 145.5,124.5313 Q146.1563,124.6875 146.7188,124.9844 L146.7188,127.7031 Q146.0938,127.125 145.5,126.8594 Q144.9063,126.5781 144.2813,126.5781 Q142.9375,126.5781 142.25,127.6563 Q141.5625,128.7188 141.5625,130.8125 Q141.5625,132.9063 142.25,133.9844 Q142.9375,135.0469 144.2813,135.0469 Q144.9063,135.0469 145.5,134.7813 Q146.0938,134.5 146.7188,133.9219 L146.7188,136.6406 Z " fill="#000000"/><text fill="#000000" font-family="sans-serif" font-size="14" lengthAdjust="spacing" textLength="34" x="164.25" y="135.8467">Klant</text><line style="stroke:#181818;stroke-width:0.5;" x1="8" x2="322" y1="147" y2="147"/><ellipse cx="18" cy="160.6484" fill="none" rx="3" ry="3" style="stroke:#038048;stroke-width:1.0;"/><text fill="#000000" font-family="sans-serif" font-size="14" lengthAdjust="spacing" textLength="230" x="27" y="163.9951">KlantenCode : string &#171;get&#187; &#171;set&#187;</text><line style="stroke:#181818;stroke-width:0.5;" x1="8" x2="322" y1="171.2969" y2="171.2969"/><ellipse cx="18" cy="184.9453" fill="#84BE84" rx="3" ry="3" style="stroke:#038048;stroke-width:1.0;"/><text fill="#000000" font-family="sans-serif" font-size="14" lengthAdjust="spacing" textLength="290" x="27" y="188.292">Klant(voornaam:string, achternaam:string)</text><ellipse cx="18" cy="201.2422" fill="#84BE84" rx="3" ry="3" style="stroke:#038048;stroke-width:1.0;"/><text fill="#000000" font-family="sans-serif" font-size="14" lengthAdjust="spacing" textLength="245" x="27" y="204.5889">MaakRandomKlantenCode() : string</text><ellipse cx="18" cy="217.5391" fill="#84BE84" rx="3" ry="3" style="stroke:#038048;stroke-width:1.0;"/><text fill="#000000" font-family="sans-serif" font-size="14" lengthAdjust="spacing" textLength="247" x="27" y="220.8857">&#171;override&#187; ToonGegevens() : string</text></g><!--class Persoon--><g id="elem_Persoon"><rect fill="#F1F1F1" height="48" id="Persoon" rx="2.5" ry="2.5" style="stroke:#181818;stroke-width:0.5;" width="90" x="120" y="7"/><ellipse cx="135" cy="23" fill="#ADD1B2" rx="11" ry="11" style="stroke:#181818;stroke-width:1.0;"/><path d="M137.9688,28.6406 Q137.3906,28.9375 136.75,29.0781 Q136.1094,29.2344 135.4063,29.2344 Q132.9063,29.2344 131.5781,27.5938 Q130.2656,25.9375 130.2656,22.8125 Q130.2656,19.6875 131.5781,18.0313 Q132.9063,16.375 135.4063,16.375 Q136.1094,16.375 136.75,16.5313 Q137.4063,16.6875 137.9688,16.9844 L137.9688,19.7031 Q137.3438,19.125 136.75,18.8594 Q136.1563,18.5781 135.5313,18.5781 Q134.1875,18.5781 133.5,19.6563 Q132.8125,20.7188 132.8125,22.8125 Q132.8125,24.9063 133.5,25.9844 Q134.1875,27.0469 135.5313,27.0469 Q136.1563,27.0469 136.75,26.7813 Q137.3438,26.5 137.9688,25.9219 L137.9688,28.6406 Z " fill="#000000"/><text fill="#000000" font-family="sans-serif" font-size="14" lengthAdjust="spacing" textLength="58" x="149" y="27.8467">Persoon</text><line style="stroke:#181818;stroke-width:0.5;" x1="121" x2="209" y1="39" y2="39"/><line style="stroke:#181818;stroke-width:0.5;" x1="121" x2="209" y1="47" y2="47"/></g><!--reverse link Persoon to Klant--><g id="link_Persoon_Klant"><path codeLine="7" d="M165,73.18 C165,89.51 165,94.08 165,114.94 " fill="none" id="Persoon-backto-Klant" style="stroke:#181818;stroke-width:1.0;"/><polygon fill="none" points="165,55.18,159,73.18,171,73.18,165,55.18" style="stroke:#181818;stroke-width:1.0;"/></g><!--SRC=[JOv12i9034NtFKMMBTeBbD2D2nSYIF42eHF6Ofl0P9YDUdT7fiXayydFWvTv9JEuh2GHNWtaEPIDvQIEOG2BOH4FY9xZEEQqNzPecrI346r3OOz0yoDoNNKxVoLwJYHEjqhITd_DZY5guX0MnzbuLvKpUquiLgEVviR1yX7mtVVbbIy0]--></g></svg>