<?xml version="1.0" encoding="us-ascii" standalone="no"?><svg xmlns="http://www.w3.org/2000/svg" xmlns:xlink="http://www.w3.org/1999/xlink" contentStyleType="text/css" height="300px" preserveAspectRatio="none" style="width:725px;height:300px;background:#FFFFFF;" version="1.1" viewBox="0 0 725 300" width="725px" zoomAndPan="magnify"><defs/><g><!--class Klant--><g id="elem_Klant"><rect codeLine="1" fill="#F1F1F1" height="113.1875" id="Klant" rx="2.5" ry="2.5" style="stroke:#181818;stroke-width:0.5;" width="316" x="7" y="180"/><ellipse cx="143.75" cy="196" fill="#ADD1B2" rx="11" ry="11" style="stroke:#181818;stroke-width:1.0;"/><path d="M146.7188,201.6406 Q146.1406,201.9375 145.5,202.0781 Q144.8594,202.2344 144.1563,202.2344 Q141.6563,202.2344 140.3281,200.5938 Q139.0156,198.9375 139.0156,195.8125 Q139.0156,192.6875 140.3281,191.0313 Q141.6563,189.375 144.1563,189.375 Q144.8594,189.375 145.5,189.5313 Q146.1563,189.6875 146.7188,189.9844 L146.7188,192.7031 Q146.0938,192.125 145.5,191.8594 Q144.9063,191.5781 144.2813,191.5781 Q142.9375,191.5781 142.25,192.6563 Q141.5625,193.7188 141.5625,195.8125 Q141.5625,197.9063 142.25,198.9844 Q142.9375,200.0469 144.2813,200.0469 Q144.9063,200.0469 145.5,199.7813 Q146.0938,199.5 146.7188,198.9219 L146.7188,201.6406 Z " fill="#000000"/><text fill="#000000" font-family="sans-serif" font-size="14" lengthAdjust="spacing" textLength="34" x="164.25" y="200.8467">Klant</text><line style="stroke:#181818;stroke-width:0.5;" x1="8" x2="322" y1="212" y2="212"/><ellipse cx="18" cy="225.6484" fill="none" rx="3" ry="3" style="stroke:#038048;stroke-width:1.0;"/><text fill="#000000" font-family="sans-serif" font-size="14" lengthAdjust="spacing" textLength="230" x="27" y="228.9951">KlantenCode : string &#171;get&#187; &#171;set&#187;</text><line style="stroke:#181818;stroke-width:0.5;" x1="8" x2="322" y1="236.2969" y2="236.2969"/><ellipse cx="18" cy="249.9453" fill="#84BE84" rx="3" ry="3" style="stroke:#038048;stroke-width:1.0;"/><text fill="#000000" font-family="sans-serif" font-size="14" lengthAdjust="spacing" textLength="290" x="27" y="253.292">Klant(voornaam:string, achternaam:string)</text><ellipse cx="18" cy="266.2422" fill="#84BE84" rx="3" ry="3" style="stroke:#038048;stroke-width:1.0;"/><text fill="#000000" font-family="sans-serif" font-size="14" lengthAdjust="spacing" textLength="245" x="27" y="269.5889">MaakRandomKlantenCode() : string</text><ellipse cx="18" cy="282.5391" fill="#84BE84" rx="3" ry="3" style="stroke:#038048;stroke-width:1.0;"/><text fill="#000000" font-family="sans-serif" font-size="14" lengthAdjust="spacing" textLength="247" x="27" y="285.8857">&#171;override&#187; ToonGegevens() : string</text></g><!--class Persoon--><g id="elem_Persoon"><rect codeLine="1" fill="#F1F1F1" height="113.1875" id="Persoon" rx="2.5" ry="2.5" style="stroke:#181818;stroke-width:0.5;" width="340" x="181" y="7"/><ellipse cx="317.75" cy="23" fill="#ADD1B2" rx="11" ry="11" style="stroke:#181818;stroke-width:1.0;"/><path d="M320.7188,28.6406 Q320.1406,28.9375 319.5,29.0781 Q318.8594,29.2344 318.1563,29.2344 Q315.6563,29.2344 314.3281,27.5938 Q313.0156,25.9375 313.0156,22.8125 Q313.0156,19.6875 314.3281,18.0313 Q315.6563,16.375 318.1563,16.375 Q318.8594,16.375 319.5,16.5313 Q320.1563,16.6875 320.7188,16.9844 L320.7188,19.7031 Q320.0938,19.125 319.5,18.8594 Q318.9063,18.5781 318.2813,18.5781 Q316.9375,18.5781 316.25,19.6563 Q315.5625,20.7188 315.5625,22.8125 Q315.5625,24.9063 316.25,25.9844 Q316.9375,27.0469 318.2813,27.0469 Q318.9063,27.0469 319.5,26.7813 Q320.0938,26.5 320.7188,25.9219 L320.7188,28.6406 Z " fill="#000000"/><text fill="#000000" font-family="sans-serif" font-size="14" lengthAdjust="spacing" textLength="58" x="338.25" y="27.8467">Persoon</text><line style="stroke:#181818;stroke-width:0.5;" x1="182" x2="520" y1="39" y2="39"/><ellipse cx="192" cy="52.6484" fill="none" rx="3" ry="3" style="stroke:#038048;stroke-width:1.0;"/><text fill="#000000" font-family="sans-serif" font-size="14" lengthAdjust="spacing" textLength="211" x="201" y="55.9951">Voornaam : string &#171;get&#187; &#171;set&#187;</text><ellipse cx="192" cy="68.9453" fill="none" rx="3" ry="3" style="stroke:#038048;stroke-width:1.0;"/><text fill="#000000" font-family="sans-serif" font-size="14" lengthAdjust="spacing" textLength="224" x="201" y="72.292">Achternaam : string &#171;get&#187; &#171;set&#187;</text><line style="stroke:#181818;stroke-width:0.5;" x1="182" x2="520" y1="79.5938" y2="79.5938"/><polygon fill="#FFFF44" points="192,88.2422,196,92.2422,192,96.2422,188,92.2422" style="stroke:#B38D22;stroke-width:1.0;"/><text fill="#000000" font-family="sans-serif" font-size="14" lengthAdjust="spacing" textLength="314" x="201" y="96.5889">Persoon(voornaam:string, achternaam:string)</text><ellipse cx="192" cy="109.5391" fill="#84BE84" rx="3" ry="3" style="stroke:#038048;stroke-width:1.0;"/><text fill="#000000" font-family="sans-serif" font-size="14" lengthAdjust="spacing" textLength="231" x="201" y="112.8857">&#171;virtual&#187; ToonGegevens() : string</text></g><!--class Werknemer--><g id="elem_Werknemer"><rect codeLine="1" fill="#F1F1F1" height="96.8906" id="Werknemer" rx="2.5" ry="2.5" style="stroke:#181818;stroke-width:0.5;" width="361" x="357.5" y="188"/><ellipse cx="493.75" cy="204" fill="#ADD1B2" rx="11" ry="11" style="stroke:#181818;stroke-width:1.0;"/><path d="M496.7188,209.6406 Q496.1406,209.9375 495.5,210.0781 Q494.8594,210.2344 494.1563,210.2344 Q491.6563,210.2344 490.3281,208.5938 Q489.0156,206.9375 489.0156,203.8125 Q489.0156,200.6875 490.3281,199.0313 Q491.6563,197.375 494.1563,197.375 Q494.8594,197.375 495.5,197.5313 Q496.1563,197.6875 496.7188,197.9844 L496.7188,200.7031 Q496.0938,200.125 495.5,199.8594 Q494.9063,199.5781 494.2813,199.5781 Q492.9375,199.5781 492.25,200.6563 Q491.5625,201.7188 491.5625,203.8125 Q491.5625,205.9063 492.25,206.9844 Q492.9375,208.0469 494.2813,208.0469 Q494.9063,208.0469 495.5,207.7813 Q496.0938,207.5 496.7188,206.9219 L496.7188,209.6406 Z " fill="#000000"/><text fill="#000000" font-family="sans-serif" font-size="14" lengthAdjust="spacing" textLength="80" x="514.25" y="208.8467">Werknemer</text><line style="stroke:#181818;stroke-width:0.5;" x1="358.5" x2="717.5" y1="220" y2="220"/><ellipse cx="368.5" cy="233.6484" fill="none" rx="3" ry="3" style="stroke:#038048;stroke-width:1.0;"/><text fill="#000000" font-family="sans-serif" font-size="14" lengthAdjust="spacing" textLength="184" x="377.5" y="236.9951">Loon : double &#171;get&#187; &#171;set&#187;</text><line style="stroke:#181818;stroke-width:0.5;" x1="358.5" x2="717.5" y1="244.2969" y2="244.2969"/><ellipse cx="368.5" cy="257.9453" fill="#84BE84" rx="3" ry="3" style="stroke:#038048;stroke-width:1.0;"/><text fill="#000000" font-family="sans-serif" font-size="14" lengthAdjust="spacing" textLength="335" x="377.5" y="261.292">Werknemer(voornaam:string, familienaam:string)</text><ellipse cx="368.5" cy="274.2422" fill="#84BE84" rx="3" ry="3" style="stroke:#038048;stroke-width:1.0;"/><text fill="#000000" font-family="sans-serif" font-size="14" lengthAdjust="spacing" textLength="247" x="377.5" y="277.5889">&#171;override&#187; ToonGegevens() : string</text></g><!--reverse link Persoon to Klant--><g id="link_Persoon_Klant"><path codeLine="7" d="M277.3576,132.2008 C256.4576,151.4108 246.3,160.75 225.4,179.97 " fill="none" id="Persoon-backto-Klant" style="stroke:#181818;stroke-width:1.0;"/><polygon fill="none" points="290.61,120.02,273.2973,127.7834,281.4178,136.6183,290.61,120.02" style="stroke:#181818;stroke-width:1.0;"/></g><!--reverse link Persoon to Werknemer--><g id="link_Persoon_Werknemer"><path codeLine="6" d="M424.9952,132.1652 C448.8852,154.0052 462.76,166.7 485.75,187.72 " fill="none" id="Persoon-backto-Werknemer" style="stroke:#181818;stroke-width:1.0;"/><polygon fill="none" points="411.71,120.02,420.9468,136.5935,429.0435,127.7368,411.71,120.02" style="stroke:#181818;stroke-width:1.0;"/></g><!--SRC=[KypCIyufJKbLyCv9p2lHAoZDpU5IX8a5f1OLv-VdeOc6fnPbvwNcfXQ1nG40]--></g></svg>