<?xml version="1.0" encoding="us-ascii" standalone="no"?><svg xmlns="http://www.w3.org/2000/svg" xmlns:xlink="http://www.w3.org/1999/xlink" contentStyleType="text/css" height="218px" preserveAspectRatio="none" style="width:375px;height:218px;background:#FFFFFF;" version="1.1" viewBox="0 0 375 218" width="375px" zoomAndPan="magnify"><defs/><g><!--class Werknemer--><g id="elem_Werknemer"><rect codeLine="1" fill="#F1F1F1" height="96.8906" id="Werknemer" rx="2.5" ry="2.5" style="stroke:#181818;stroke-width:0.5;" width="361" x="7" y="115"/><ellipse cx="143.25" cy="131" fill="#ADD1B2" rx="11" ry="11" style="stroke:#181818;stroke-width:1.0;"/><path d="M146.2188,136.6406 Q145.6406,136.9375 145,137.0781 Q144.3594,137.2344 143.6563,137.2344 Q141.1563,137.2344 139.8281,135.5938 Q138.5156,133.9375 138.5156,130.8125 Q138.5156,127.6875 139.8281,126.0313 Q141.1563,124.375 143.6563,124.375 Q144.3594,124.375 145,124.5313 Q145.6563,124.6875 146.2188,124.9844 L146.2188,127.7031 Q145.5938,127.125 145,126.8594 Q144.4063,126.5781 143.7813,126.5781 Q142.4375,126.5781 141.75,127.6563 Q141.0625,128.7188 141.0625,130.8125 Q141.0625,132.9063 141.75,133.9844 Q142.4375,135.0469 143.7813,135.0469 Q144.4063,135.0469 145,134.7813 Q145.5938,134.5 146.2188,133.9219 L146.2188,136.6406 Z " fill="#000000"/><text fill="#000000" font-family="sans-serif" font-size="14" lengthAdjust="spacing" textLength="80" x="163.75" y="135.8467">Werknemer</text><line style="stroke:#181818;stroke-width:0.5;" x1="8" x2="367" y1="147" y2="147"/><ellipse cx="18" cy="160.6484" fill="none" rx="3" ry="3" style="stroke:#038048;stroke-width:1.0;"/><text fill="#000000" font-family="sans-serif" font-size="14" lengthAdjust="spacing" textLength="184" x="27" y="163.9951">Loon : double &#171;get&#187; &#171;set&#187;</text><line style="stroke:#181818;stroke-width:0.5;" x1="8" x2="367" y1="171.2969" y2="171.2969"/><ellipse cx="18" cy="184.9453" fill="#84BE84" rx="3" ry="3" style="stroke:#038048;stroke-width:1.0;"/><text fill="#000000" font-family="sans-serif" font-size="14" lengthAdjust="spacing" textLength="335" x="27" y="188.292">Werknemer(voornaam:string, familienaam:string)</text><ellipse cx="18" cy="201.2422" fill="#84BE84" rx="3" ry="3" style="stroke:#038048;stroke-width:1.0;"/><text fill="#000000" font-family="sans-serif" font-size="14" lengthAdjust="spacing" textLength="247" x="27" y="204.5889">&#171;override&#187; ToonGegevens() : string</text></g><!--class Persoon--><g id="elem_Persoon"><rect fill="#F1F1F1" height="48" id="Persoon" rx="2.5" ry="2.5" style="stroke:#181818;stroke-width:0.5;" width="90" x="142.5" y="7"/><ellipse cx="157.5" cy="23" fill="#ADD1B2" rx="11" ry="11" style="stroke:#181818;stroke-width:1.0;"/><path d="M160.4688,28.6406 Q159.8906,28.9375 159.25,29.0781 Q158.6094,29.2344 157.9063,29.2344 Q155.4063,29.2344 154.0781,27.5938 Q152.7656,25.9375 152.7656,22.8125 Q152.7656,19.6875 154.0781,18.0313 Q155.4063,16.375 157.9063,16.375 Q158.6094,16.375 159.25,16.5313 Q159.9063,16.6875 160.4688,16.9844 L160.4688,19.7031 Q159.8438,19.125 159.25,18.8594 Q158.6563,18.5781 158.0313,18.5781 Q156.6875,18.5781 156,19.6563 Q155.3125,20.7188 155.3125,22.8125 Q155.3125,24.9063 156,25.9844 Q156.6875,27.0469 158.0313,27.0469 Q158.6563,27.0469 159.25,26.7813 Q159.8438,26.5 160.4688,25.9219 L160.4688,28.6406 Z " fill="#000000"/><text fill="#000000" font-family="sans-serif" font-size="14" lengthAdjust="spacing" textLength="58" x="171.5" y="27.8467">Persoon</text><line style="stroke:#181818;stroke-width:0.5;" x1="143.5" x2="231.5" y1="39" y2="39"/><line style="stroke:#181818;stroke-width:0.5;" x1="143.5" x2="231.5" y1="47" y2="47"/></g><!--reverse link Persoon to Werknemer--><g id="link_Persoon_Werknemer"><path codeLine="6" d="M187.5,73.03 C187.5,89.57 187.5,94.44 187.5,114.84 " fill="none" id="Persoon-backto-Werknemer" style="stroke:#181818;stroke-width:1.0;"/><polygon fill="none" points="187.5,55.03,181.5,73.03,193.5,73.03,187.5,55.03" style="stroke:#181818;stroke-width:1.0;"/></g><!--SRC=[JOwn3i8m34JtV8N7Lj0VgAAkB0mCICo17b544ajsoGBzzwQY0cuvwNJdvrjqgdI1F38IX5w6gdPqPCxKqyZFQmHPwp4DGtLTVUjyLqrXbknSwdMIaFsUxYw56F2NjTl8MYuG2IFglNEb7E1HaBLfA-_JDRCvGNHzmRwxxWTQ0000]--></g></svg>