<?xml version="1.0" encoding="us-ascii" standalone="no"?><svg xmlns="http://www.w3.org/2000/svg" xmlns:xlink="http://www.w3.org/1999/xlink" contentStyleType="text/css" height="109px" preserveAspectRatio="none" style="width:318px;height:109px;background:#FFFFFF;" version="1.1" viewBox="0 0 318 109" width="318px" zoomAndPan="magnify"><defs/><g><!--class FileOperations--><g id="elem_FileOperations"><rect codeLine="1" fill="#F1F1F1" height="88.8594" id="FileOperations" rx="2.5" ry="2.5" style="stroke:#181818;stroke-width:0.5;" width="297" x="7" y="7"/><ellipse cx="101.75" cy="27.1328" fill="#ADD1B2" rx="11" ry="11" style="stroke:#181818;stroke-width:1.0;"/><path d="M104.7188,32.7734 Q104.1406,33.0703 103.5,33.2109 Q102.8594,33.3672 102.1563,33.3672 Q99.6563,33.3672 98.3281,31.7266 Q97.0156,30.0703 97.0156,26.9453 Q97.0156,23.8203 98.3281,22.1641 Q99.6563,20.5078 102.1563,20.5078 Q102.8594,20.5078 103.5,20.6641 Q104.1563,20.8203 104.7188,21.1172 L104.7188,23.8359 Q104.0938,23.2578 103.5,22.9922 Q102.9063,22.7109 102.2813,22.7109 Q100.9375,22.7109 100.25,23.7891 Q99.5625,24.8516 99.5625,26.9453 Q99.5625,29.0391 100.25,30.1172 Q100.9375,31.1797 102.2813,31.1797 Q102.9063,31.1797 103.5,30.9141 Q104.0938,30.6328 104.7188,30.0547 L104.7188,32.7734 Z " fill="#000000"/><text fill="#000000" font-family="sans-serif" font-size="12" font-style="italic" lengthAdjust="spacing" textLength="48" x="147.75" y="23.1387">&#171;static&#187;</text><text fill="#000000" font-family="sans-serif" font-size="14" lengthAdjust="spacing" textLength="99" x="122.25" y="38.9639">FileOperations</text><line style="stroke:#181818;stroke-width:0.5;" x1="8" x2="303" y1="47.2656" y2="47.2656"/><line style="stroke:#181818;stroke-width:0.5;" x1="8" x2="303" y1="55.2656" y2="55.2656"/><ellipse cx="18" cy="68.9141" fill="#84BE84" rx="3" ry="3" style="stroke:#038048;stroke-width:1.0;"/><text fill="#000000" font-family="sans-serif" font-size="14" lengthAdjust="spacing" text-decoration="underline" textLength="239" x="27" y="72.2607">LeesVliegtuigen() : List&lt;Vliegtuig&gt;</text><ellipse cx="18" cy="85.2109" fill="#84BE84" rx="3" ry="3" style="stroke:#038048;stroke-width:1.0;"/><text fill="#000000" font-family="sans-serif" font-size="14" lengthAdjust="spacing" text-decoration="underline" textLength="271" x="27" y="88.5576">LeesLuchthavens() : List&lt;Luchthaven&gt;</text></g><!--SRC=[Iyv9B2vMSClCIVKlI2rABCdCpojMiB4fBW4oa-ti5Agv5810Mw4Q8bAhu9EQMXoMavcQNbAQcPwQfw6fOANWarbSOWCNjCEcnQSqEQCa8x4iDQyOeGKXQCTL2m00]--></g></svg>