<?xml version="1.0" encoding="us-ascii" standalone="no"?><svg xmlns="http://www.w3.org/2000/svg" xmlns:xlink="http://www.w3.org/1999/xlink" contentStyleType="text/css" height="134px" preserveAspectRatio="none" style="width:332px;height:134px;background:#FFFFFF;" version="1.1" viewBox="0 0 332 134" width="332px" zoomAndPan="magnify"><defs/><g><!--class Luchthaven--><g id="elem_Luchthaven"><rect codeLine="1" fill="#F1F1F1" height="113.1875" id="Luchthaven" rx="2.5" ry="2.5" style="stroke:#181818;stroke-width:0.5;" width="311" x="7" y="7"/><ellipse cx="118.25" cy="23" fill="#ADD1B2" rx="11" ry="11" style="stroke:#181818;stroke-width:1.0;"/><path d="M121.2188,28.6406 Q120.6406,28.9375 120,29.0781 Q119.3594,29.2344 118.6563,29.2344 Q116.1563,29.2344 114.8281,27.5938 Q113.5156,25.9375 113.5156,22.8125 Q113.5156,19.6875 114.8281,18.0313 Q116.1563,16.375 118.6563,16.375 Q119.3594,16.375 120,16.5313 Q120.6563,16.6875 121.2188,16.9844 L121.2188,19.7031 Q120.5938,19.125 120,18.8594 Q119.4063,18.5781 118.7813,18.5781 Q117.4375,18.5781 116.75,19.6563 Q116.0625,20.7188 116.0625,22.8125 Q116.0625,24.9063 116.75,25.9844 Q117.4375,27.0469 118.7813,27.0469 Q119.4063,27.0469 120,26.7813 Q120.5938,26.5 121.2188,25.9219 L121.2188,28.6406 Z " fill="#000000"/><text fill="#000000" font-family="sans-serif" font-size="14" lengthAdjust="spacing" textLength="80" x="138.75" y="27.8467">Luchthaven</text><line style="stroke:#181818;stroke-width:0.5;" x1="8" x2="317" y1="39" y2="39"/><ellipse cx="18" cy="52.6484" fill="none" rx="3" ry="3" style="stroke:#038048;stroke-width:1.0;"/><text fill="#000000" font-family="sans-serif" font-size="14" lengthAdjust="spacing" textLength="180" x="27" y="55.9951">Naam : string &#171;get&#187; &#171;set&#187;</text><ellipse cx="18" cy="68.9453" fill="none" rx="3" ry="3" style="stroke:#038048;stroke-width:1.0;"/><text fill="#000000" font-family="sans-serif" font-size="14" lengthAdjust="spacing" textLength="285" x="27" y="72.292">Vliegtuigen : List&lt;Vliegtuig&gt; &#171;get&#187; &#171;set&#187;</text><line style="stroke:#181818;stroke-width:0.5;" x1="8" x2="317" y1="79.5938" y2="79.5938"/><ellipse cx="18" cy="93.2422" fill="#84BE84" rx="3" ry="3" style="stroke:#038048;stroke-width:1.0;"/><text fill="#000000" font-family="sans-serif" font-size="14" lengthAdjust="spacing" textLength="172" x="27" y="96.5889">Luchthaven(naam:string)</text><ellipse cx="18" cy="109.5391" fill="#84BE84" rx="3" ry="3" style="stroke:#038048;stroke-width:1.0;"/><text fill="#000000" font-family="sans-serif" font-size="14" lengthAdjust="spacing" textLength="198" x="27" y="112.8857">&#171;override&#187; ToString() : string</text></g><!--SRC=[Iyv9B2vMy2bDpYZ9I2nBpLEevb800cq5lyJ4N0KhXUAIeioyT0KRc_JK4Zix85qCeg5gmd8oKzDBIZFJWVgi57moYqjiu49sEFGWhDB80rfX1R504ofhOvDVbbfKb9cI2jGOaXyCbjJGX3k4gnO0]--></g></svg>