<?xml version="1.0" encoding="us-ascii" standalone="no"?><svg xmlns="http://www.w3.org/2000/svg" xmlns:xlink="http://www.w3.org/1999/xlink" contentStyleType="text/css" height="291px" preserveAspectRatio="none" style="width:884px;height:291px;background:#FFFFFF;" version="1.1" viewBox="0 0 884 291" width="884px" zoomAndPan="magnify"><defs/><g><!--class Luchthaven--><g id="elem_Luchthaven"><rect codeLine="1" fill="#F1F1F1" height="113.1875" id="Luchthaven" rx="2.5" ry="2.5" style="stroke:#181818;stroke-width:0.5;" width="311" x="7" y="15"/><ellipse cx="118.25" cy="31" fill="#ADD1B2" rx="11" ry="11" style="stroke:#181818;stroke-width:1.0;"/><path d="M121.2188,36.6406 Q120.6406,36.9375 120,37.0781 Q119.3594,37.2344 118.6563,37.2344 Q116.1563,37.2344 114.8281,35.5938 Q113.5156,33.9375 113.5156,30.8125 Q113.5156,27.6875 114.8281,26.0313 Q116.1563,24.375 118.6563,24.375 Q119.3594,24.375 120,24.5313 Q120.6563,24.6875 121.2188,24.9844 L121.2188,27.7031 Q120.5938,27.125 120,26.8594 Q119.4063,26.5781 118.7813,26.5781 Q117.4375,26.5781 116.75,27.6563 Q116.0625,28.7188 116.0625,30.8125 Q116.0625,32.9063 116.75,33.9844 Q117.4375,35.0469 118.7813,35.0469 Q119.4063,35.0469 120,34.7813 Q120.5938,34.5 121.2188,33.9219 L121.2188,36.6406 Z " fill="#000000"/><text fill="#000000" font-family="sans-serif" font-size="14" lengthAdjust="spacing" textLength="80" x="138.75" y="35.8467">Luchthaven</text><line style="stroke:#181818;stroke-width:0.5;" x1="8" x2="317" y1="47" y2="47"/><ellipse cx="18" cy="60.6484" fill="none" rx="3" ry="3" style="stroke:#038048;stroke-width:1.0;"/><text fill="#000000" font-family="sans-serif" font-size="14" lengthAdjust="spacing" textLength="180" x="27" y="63.9951">Naam : string &#171;get&#187; &#171;set&#187;</text><ellipse cx="18" cy="76.9453" fill="none" rx="3" ry="3" style="stroke:#038048;stroke-width:1.0;"/><text fill="#000000" font-family="sans-serif" font-size="14" lengthAdjust="spacing" textLength="285" x="27" y="80.292">Vliegtuigen : List&lt;Vliegtuig&gt; &#171;get&#187; &#171;set&#187;</text><line style="stroke:#181818;stroke-width:0.5;" x1="8" x2="317" y1="87.5938" y2="87.5938"/><ellipse cx="18" cy="101.2422" fill="#84BE84" rx="3" ry="3" style="stroke:#038048;stroke-width:1.0;"/><text fill="#000000" font-family="sans-serif" font-size="14" lengthAdjust="spacing" textLength="172" x="27" y="104.5889">Luchthaven(naam:string)</text><ellipse cx="18" cy="117.5391" fill="#84BE84" rx="3" ry="3" style="stroke:#038048;stroke-width:1.0;"/><text fill="#000000" font-family="sans-serif" font-size="14" lengthAdjust="spacing" textLength="198" x="27" y="120.8857">&#171;override&#187; ToString() : string</text></g><!--class Vliegtuig--><g id="elem_Vliegtuig"><rect codeLine="1" fill="#F1F1F1" height="129.4844" id="Vliegtuig" rx="2.5" ry="2.5" style="stroke:#181818;stroke-width:0.5;" width="524" x="353.5" y="7"/><ellipse cx="581.75" cy="23" fill="#ADD1B2" rx="11" ry="11" style="stroke:#181818;stroke-width:1.0;"/><path d="M584.7188,28.6406 Q584.1406,28.9375 583.5,29.0781 Q582.8594,29.2344 582.1563,29.2344 Q579.6563,29.2344 578.3281,27.5938 Q577.0156,25.9375 577.0156,22.8125 Q577.0156,19.6875 578.3281,18.0313 Q579.6563,16.375 582.1563,16.375 Q582.8594,16.375 583.5,16.5313 Q584.1563,16.6875 584.7188,16.9844 L584.7188,19.7031 Q584.0938,19.125 583.5,18.8594 Q582.9063,18.5781 582.2813,18.5781 Q580.9375,18.5781 580.25,19.6563 Q579.5625,20.7188 579.5625,22.8125 Q579.5625,24.9063 580.25,25.9844 Q580.9375,27.0469 582.2813,27.0469 Q582.9063,27.0469 583.5,26.7813 Q584.0938,26.5 584.7188,25.9219 L584.7188,28.6406 Z " fill="#000000"/><text fill="#000000" font-family="sans-serif" font-size="14" lengthAdjust="spacing" textLength="59" x="602.25" y="27.8467">Vliegtuig</text><line style="stroke:#181818;stroke-width:0.5;" x1="354.5" x2="876.5" y1="39" y2="39"/><ellipse cx="364.5" cy="52.6484" fill="none" rx="3" ry="3" style="stroke:#038048;stroke-width:1.0;"/><text fill="#000000" font-family="sans-serif" font-size="14" lengthAdjust="spacing" textLength="237" x="373.5" y="55.9951">VliegtuigCode : string &#171;get&#187; &#171;set&#187;</text><ellipse cx="364.5" cy="68.9453" fill="none" rx="3" ry="3" style="stroke:#038048;stroke-width:1.0;"/><text fill="#000000" font-family="sans-serif" font-size="14" lengthAdjust="spacing" textLength="234" x="373.5" y="72.292">VliegtuigType : string &#171;get&#187; &#171;set&#187;</text><ellipse cx="364.5" cy="85.2422" fill="none" rx="3" ry="3" style="stroke:#038048;stroke-width:1.0;"/><text fill="#000000" font-family="sans-serif" font-size="14" lengthAdjust="spacing" textLength="238" x="373.5" y="88.5889">AantalZitplaatsen : int &#171;get&#187; &#171;set&#187;</text><line style="stroke:#181818;stroke-width:0.5;" x1="354.5" x2="876.5" y1="95.8906" y2="95.8906"/><ellipse cx="364.5" cy="109.5391" fill="#84BE84" rx="3" ry="3" style="stroke:#038048;stroke-width:1.0;"/><text fill="#000000" font-family="sans-serif" font-size="14" lengthAdjust="spacing" textLength="498" x="373.5" y="112.8857">Vliegtuig(vliegtuigCode:string, vliegtuigType:string, aantalZitplaatsen:int)</text><ellipse cx="364.5" cy="125.8359" fill="#84BE84" rx="3" ry="3" style="stroke:#038048;stroke-width:1.0;"/><text fill="#000000" font-family="sans-serif" font-size="14" lengthAdjust="spacing" textLength="198" x="373.5" y="129.1826">&#171;override&#187; ToString() : string</text></g><!--class FileOperations--><g id="elem_FileOperations"><rect codeLine="1" fill="#F1F1F1" height="88.8594" id="FileOperations" rx="2.5" ry="2.5" style="stroke:#181818;stroke-width:0.5;" width="297" x="14" y="196"/><ellipse cx="108.75" cy="216.1328" fill="#ADD1B2" rx="11" ry="11" style="stroke:#181818;stroke-width:1.0;"/><path d="M111.7188,221.7734 Q111.1406,222.0703 110.5,222.2109 Q109.8594,222.3672 109.1563,222.3672 Q106.6563,222.3672 105.3281,220.7266 Q104.0156,219.0703 104.0156,215.9453 Q104.0156,212.8203 105.3281,211.1641 Q106.6563,209.5078 109.1563,209.5078 Q109.8594,209.5078 110.5,209.6641 Q111.1563,209.8203 111.7188,210.1172 L111.7188,212.8359 Q111.0938,212.2578 110.5,211.9922 Q109.9063,211.7109 109.2813,211.7109 Q107.9375,211.7109 107.25,212.7891 Q106.5625,213.8516 106.5625,215.9453 Q106.5625,218.0391 107.25,219.1172 Q107.9375,220.1797 109.2813,220.1797 Q109.9063,220.1797 110.5,219.9141 Q111.0938,219.6328 111.7188,219.0547 L111.7188,221.7734 Z " fill="#000000"/><text fill="#000000" font-family="sans-serif" font-size="12" font-style="italic" lengthAdjust="spacing" textLength="48" x="154.75" y="212.1387">&#171;static&#187;</text><text fill="#000000" font-family="sans-serif" font-size="14" lengthAdjust="spacing" textLength="99" x="129.25" y="227.9639">FileOperations</text><line style="stroke:#181818;stroke-width:0.5;" x1="15" x2="310" y1="236.2656" y2="236.2656"/><line style="stroke:#181818;stroke-width:0.5;" x1="15" x2="310" y1="244.2656" y2="244.2656"/><ellipse cx="25" cy="257.9141" fill="#84BE84" rx="3" ry="3" style="stroke:#038048;stroke-width:1.0;"/><text fill="#000000" font-family="sans-serif" font-size="14" lengthAdjust="spacing" text-decoration="underline" textLength="239" x="34" y="261.2607">LeesVliegtuigen() : List&lt;Vliegtuig&gt;</text><ellipse cx="25" cy="274.2109" fill="#84BE84" rx="3" ry="3" style="stroke:#038048;stroke-width:1.0;"/><text fill="#000000" font-family="sans-serif" font-size="14" lengthAdjust="spacing" text-decoration="underline" textLength="271" x="34" y="277.5576">LeesLuchthavens() : List&lt;Luchthaven&gt;</text></g><!--SRC=[KypCIyufJKbLy2bDpYZ9I2nBpTChACtDuLA4IOJbPAQcbvHcfgE9ksNcfFeNf1ObbcJcvnM39G40]--></g></svg>