<?xml version="1.0" encoding="us-ascii" standalone="no"?><svg xmlns="http://www.w3.org/2000/svg" xmlns:xlink="http://www.w3.org/1999/xlink" contentStyleType="text/css" height="150px" preserveAspectRatio="none" style="width:545px;height:150px;background:#FFFFFF;" version="1.1" viewBox="0 0 545 150" width="545px" zoomAndPan="magnify"><defs/><g><!--class Vliegtuig--><g id="elem_Vliegtuig"><rect codeLine="1" fill="#F1F1F1" height="129.4844" id="Vliegtuig" rx="2.5" ry="2.5" style="stroke:#181818;stroke-width:0.5;" width="524" x="7" y="7"/><ellipse cx="235.25" cy="23" fill="#ADD1B2" rx="11" ry="11" style="stroke:#181818;stroke-width:1.0;"/><path d="M238.2188,28.6406 Q237.6406,28.9375 237,29.0781 Q236.3594,29.2344 235.6563,29.2344 Q233.1563,29.2344 231.8281,27.5938 Q230.5156,25.9375 230.5156,22.8125 Q230.5156,19.6875 231.8281,18.0313 Q233.1563,16.375 235.6563,16.375 Q236.3594,16.375 237,16.5313 Q237.6563,16.6875 238.2188,16.9844 L238.2188,19.7031 Q237.5938,19.125 237,18.8594 Q236.4063,18.5781 235.7813,18.5781 Q234.4375,18.5781 233.75,19.6563 Q233.0625,20.7188 233.0625,22.8125 Q233.0625,24.9063 233.75,25.9844 Q234.4375,27.0469 235.7813,27.0469 Q236.4063,27.0469 237,26.7813 Q237.5938,26.5 238.2188,25.9219 L238.2188,28.6406 Z " fill="#000000"/><text fill="#000000" font-family="sans-serif" font-size="14" lengthAdjust="spacing" textLength="59" x="255.75" y="27.8467">Vliegtuig</text><line style="stroke:#181818;stroke-width:0.5;" x1="8" x2="530" y1="39" y2="39"/><ellipse cx="18" cy="52.6484" fill="none" rx="3" ry="3" style="stroke:#038048;stroke-width:1.0;"/><text fill="#000000" font-family="sans-serif" font-size="14" lengthAdjust="spacing" textLength="237" x="27" y="55.9951">VliegtuigCode : string &#171;get&#187; &#171;set&#187;</text><ellipse cx="18" cy="68.9453" fill="none" rx="3" ry="3" style="stroke:#038048;stroke-width:1.0;"/><text fill="#000000" font-family="sans-serif" font-size="14" lengthAdjust="spacing" textLength="234" x="27" y="72.292">VliegtuigType : string &#171;get&#187; &#171;set&#187;</text><ellipse cx="18" cy="85.2422" fill="none" rx="3" ry="3" style="stroke:#038048;stroke-width:1.0;"/><text fill="#000000" font-family="sans-serif" font-size="14" lengthAdjust="spacing" textLength="238" x="27" y="88.5889">AantalZitplaatsen : int &#171;get&#187; &#171;set&#187;</text><line style="stroke:#181818;stroke-width:0.5;" x1="8" x2="530" y1="95.8906" y2="95.8906"/><ellipse cx="18" cy="109.5391" fill="#84BE84" rx="3" ry="3" style="stroke:#038048;stroke-width:1.0;"/><text fill="#000000" font-family="sans-serif" font-size="14" lengthAdjust="spacing" textLength="498" x="27" y="112.8857">Vliegtuig(vliegtuigCode:string, vliegtuigType:string, aantalZitplaatsen:int)</text><ellipse cx="18" cy="125.8359" fill="#84BE84" rx="3" ry="3" style="stroke:#038048;stroke-width:1.0;"/><text fill="#000000" font-family="sans-serif" font-size="14" lengthAdjust="spacing" textLength="198" x="27" y="129.1826">&#171;override&#187; ToString() : string</text></g><!--SRC=[Iyv9B2vM2Cl9J4qlASrCLwZcKW02ROI8StvAgeALGd59KMPUkeADJNfgYPqTa2u6qUYAGoeB22fsJCmhISo9oYmfo4bCB2bEpGDgoCmh8MIqHXcoYwmWLkWeb25R3HTDHBV32cY39jH86vlyijIYeioKLA1j8Vd1O3qQcd1tSzK20000]--></g></svg>