<?xml version="1.0" encoding="us-ascii" standalone="no"?><svg xmlns="http://www.w3.org/2000/svg" xmlns:xlink="http://www.w3.org/1999/xlink" contentStyleType="text/css" height="251px" preserveAspectRatio="none" style="width:298px;height:251px;background:#FFFFFF;" version="1.1" viewBox="0 0 298 251" width="298px" zoomAndPan="magnify"><defs/><g><!--class Balk--><g id="elem_Balk"><rect codeLine="1" fill="#F1F1F1" height="129.4844" id="Balk" rx="2.5" ry="2.5" style="stroke:#181818;stroke-width:0.5;" width="284" x="7" y="115"/><ellipse cx="130.25" cy="131" fill="#ADD1B2" rx="11" ry="11" style="stroke:#181818;stroke-width:1.0;"/><path d="M133.2188,136.6406 Q132.6406,136.9375 132,137.0781 Q131.3594,137.2344 130.6563,137.2344 Q128.1563,137.2344 126.8281,135.5938 Q125.5156,133.9375 125.5156,130.8125 Q125.5156,127.6875 126.8281,126.0313 Q128.1563,124.375 130.6563,124.375 Q131.3594,124.375 132,124.5313 Q132.6563,124.6875 133.2188,124.9844 L133.2188,127.7031 Q132.5938,127.125 132,126.8594 Q131.4063,126.5781 130.7813,126.5781 Q129.4375,126.5781 128.75,127.6563 Q128.0625,128.7188 128.0625,130.8125 Q128.0625,132.9063 128.75,133.9844 Q129.4375,135.0469 130.7813,135.0469 Q131.4063,135.0469 132,134.7813 Q132.5938,134.5 133.2188,133.9219 L133.2188,136.6406 Z " fill="#000000"/><text fill="#000000" font-family="sans-serif" font-size="14" lengthAdjust="spacing" textLength="29" x="150.75" y="135.8467">Balk</text><line style="stroke:#181818;stroke-width:0.5;" x1="8" x2="290" y1="147" y2="147"/><ellipse cx="18" cy="160.6484" fill="none" rx="3" ry="3" style="stroke:#038048;stroke-width:1.0;"/><text fill="#000000" font-family="sans-serif" font-size="14" lengthAdjust="spacing" textLength="206" x="27" y="163.9951">Breedte : double &#171;get&#187; &#171;set&#187;</text><ellipse cx="18" cy="176.9453" fill="none" rx="3" ry="3" style="stroke:#038048;stroke-width:1.0;"/><text fill="#000000" font-family="sans-serif" font-size="14" lengthAdjust="spacing" textLength="201" x="27" y="180.292">Hoogte : double &#171;get&#187; &#171;set&#187;</text><line style="stroke:#181818;stroke-width:0.5;" x1="8" x2="290" y1="187.5938" y2="187.5938"/><ellipse cx="18" cy="201.2422" fill="#84BE84" rx="3" ry="3" style="stroke:#038048;stroke-width:1.0;"/><text fill="#000000" font-family="sans-serif" font-size="14" lengthAdjust="spacing" textLength="258" x="27" y="204.5889">Balk(breedte:double, hoogte:double)</text><ellipse cx="18" cy="217.5391" fill="#84BE84" rx="3" ry="3" style="stroke:#038048;stroke-width:1.0;"/><text fill="#000000" font-family="sans-serif" font-size="14" lengthAdjust="spacing" textLength="144" x="27" y="220.8857">BepaalKleur() : string</text><ellipse cx="18" cy="233.8359" fill="#84BE84" rx="3" ry="3" style="stroke:#038048;stroke-width:1.0;"/><text fill="#000000" font-family="sans-serif" font-size="14" lengthAdjust="spacing" textLength="213" x="27" y="237.1826">BerekenOppervlakte() : double</text></g><!--class IVeelhoek--><g id="elem_IVeelhoek"><rect fill="#F1F1F1" height="48" id="IVeelhoek" rx="2.5" ry="2.5" style="stroke:#181818;stroke-width:0.5;" width="100" x="39" y="7"/><ellipse cx="54" cy="23" fill="#ADD1B2" rx="11" ry="11" style="stroke:#181818;stroke-width:1.0;"/><path d="M56.9688,28.6406 Q56.3906,28.9375 55.75,29.0781 Q55.1094,29.2344 54.4063,29.2344 Q51.9063,29.2344 50.5781,27.5938 Q49.2656,25.9375 49.2656,22.8125 Q49.2656,19.6875 50.5781,18.0313 Q51.9063,16.375 54.4063,16.375 Q55.1094,16.375 55.75,16.5313 Q56.4063,16.6875 56.9688,16.9844 L56.9688,19.7031 Q56.3438,19.125 55.75,18.8594 Q55.1563,18.5781 54.5313,18.5781 Q53.1875,18.5781 52.5,19.6563 Q51.8125,20.7188 51.8125,22.8125 Q51.8125,24.9063 52.5,25.9844 Q53.1875,27.0469 54.5313,27.0469 Q55.1563,27.0469 55.75,26.7813 Q56.3438,26.5 56.9688,25.9219 L56.9688,28.6406 Z " fill="#000000"/><text fill="#000000" font-family="sans-serif" font-size="14" lengthAdjust="spacing" textLength="68" x="68" y="27.8467">IVeelhoek</text><line style="stroke:#181818;stroke-width:0.5;" x1="40" x2="138" y1="39" y2="39"/><line style="stroke:#181818;stroke-width:0.5;" x1="40" x2="138" y1="47" y2="47"/></g><!--class IKleur--><g id="elem_IKleur"><rect fill="#F1F1F1" height="48" id="IKleur" rx="2.5" ry="2.5" style="stroke:#181818;stroke-width:0.5;" width="70" x="174" y="7"/><ellipse cx="189" cy="23" fill="#ADD1B2" rx="11" ry="11" style="stroke:#181818;stroke-width:1.0;"/><path d="M191.9688,28.6406 Q191.3906,28.9375 190.75,29.0781 Q190.1094,29.2344 189.4063,29.2344 Q186.9063,29.2344 185.5781,27.5938 Q184.2656,25.9375 184.2656,22.8125 Q184.2656,19.6875 185.5781,18.0313 Q186.9063,16.375 189.4063,16.375 Q190.1094,16.375 190.75,16.5313 Q191.4063,16.6875 191.9688,16.9844 L191.9688,19.7031 Q191.3438,19.125 190.75,18.8594 Q190.1563,18.5781 189.5313,18.5781 Q188.1875,18.5781 187.5,19.6563 Q186.8125,20.7188 186.8125,22.8125 Q186.8125,24.9063 187.5,25.9844 Q188.1875,27.0469 189.5313,27.0469 Q190.1563,27.0469 190.75,26.7813 Q191.3438,26.5 191.9688,25.9219 L191.9688,28.6406 Z " fill="#000000"/><text fill="#000000" font-family="sans-serif" font-size="14" lengthAdjust="spacing" textLength="38" x="203" y="27.8467">IKleur</text><line style="stroke:#181818;stroke-width:0.5;" x1="175" x2="243" y1="39" y2="39"/><line style="stroke:#181818;stroke-width:0.5;" x1="175" x2="243" y1="47" y2="47"/></g><!--reverse link IVeelhoek to Balk--><g id="link_IVeelhoek_Balk"><path codeLine="8" d="M105.3318,71.8672 C111.9418,88.0072 114.27,93.69 122.96,114.93 " fill="none" id="IVeelhoek-backto-Balk" style="stroke:#181818;stroke-width:1.0;"/><polygon fill="none" points="98.51,55.21,99.7794,74.1412,110.8842,69.5933,98.51,55.21" style="stroke:#181818;stroke-width:1.0;"/></g><!--reverse link IKleur to Balk--><g id="link_IKleur_Balk"><path codeLine="9" d="M192.6682,71.8672 C186.0582,88.0072 183.73,93.69 175.04,114.93 " fill="none" id="IKleur-backto-Balk" style="stroke:#181818;stroke-width:1.0;"/><polygon fill="none" points="199.49,55.21,187.1158,69.5933,198.2206,74.1412,199.49,55.21" style="stroke:#181818;stroke-width:1.0;"/></g><!--SRC=[XOsn3e8m48RtFiMD4EK5ICF0975mOo_ofvXUQDCM5_NTXHPrz9O_T_VTTrTM8L2hsD13q5e7QZqmHb1Derq61acf4PjcpR3bZfsirV-fpLmCsLXdyaXJEjtRyaF2ASLdnkABSjM6w6-p_Yuz3EQBS_1tLYOYCTaWNgBh0Pui3CbdLQMleakkt-0D]--></g></svg>