<?xml version="1.0" encoding="us-ascii" standalone="no"?><svg xmlns="http://www.w3.org/2000/svg" xmlns:xlink="http://www.w3.org/1999/xlink" contentStyleType="text/css" height="251px" preserveAspectRatio="none" style="width:332px;height:251px;background:#FFFFFF;" version="1.1" viewBox="0 0 332 251" width="332px" zoomAndPan="magnify"><defs/><g><!--class Driehoek--><g id="elem_Driehoek"><rect codeLine="1" fill="#F1F1F1" height="129.4844" id="Driehoek" rx="2.5" ry="2.5" style="stroke:#181818;stroke-width:0.5;" width="318" x="7" y="115"/><ellipse cx="130.25" cy="131" fill="#ADD1B2" rx="11" ry="11" style="stroke:#181818;stroke-width:1.0;"/><path d="M133.2188,136.6406 Q132.6406,136.9375 132,137.0781 Q131.3594,137.2344 130.6563,137.2344 Q128.1563,137.2344 126.8281,135.5938 Q125.5156,133.9375 125.5156,130.8125 Q125.5156,127.6875 126.8281,126.0313 Q128.1563,124.375 130.6563,124.375 Q131.3594,124.375 132,124.5313 Q132.6563,124.6875 133.2188,124.9844 L133.2188,127.7031 Q132.5938,127.125 132,126.8594 Q131.4063,126.5781 130.7813,126.5781 Q129.4375,126.5781 128.75,127.6563 Q128.0625,128.7188 128.0625,130.8125 Q128.0625,132.9063 128.75,133.9844 Q129.4375,135.0469 130.7813,135.0469 Q131.4063,135.0469 132,134.7813 Q132.5938,134.5 133.2188,133.9219 L133.2188,136.6406 Z " fill="#000000"/><text fill="#000000" font-family="sans-serif" font-size="14" lengthAdjust="spacing" textLength="63" x="150.75" y="135.8467">Driehoek</text><line style="stroke:#181818;stroke-width:0.5;" x1="8" x2="324" y1="147" y2="147"/><ellipse cx="18" cy="160.6484" fill="none" rx="3" ry="3" style="stroke:#038048;stroke-width:1.0;"/><text fill="#000000" font-family="sans-serif" font-size="14" lengthAdjust="spacing" textLength="206" x="27" y="163.9951">Breedte : double &#171;get&#187; &#171;set&#187;</text><ellipse cx="18" cy="176.9453" fill="none" rx="3" ry="3" style="stroke:#038048;stroke-width:1.0;"/><text fill="#000000" font-family="sans-serif" font-size="14" lengthAdjust="spacing" textLength="201" x="27" y="180.292">Hoogte : double &#171;get&#187; &#171;set&#187;</text><line style="stroke:#181818;stroke-width:0.5;" x1="8" x2="324" y1="187.5938" y2="187.5938"/><ellipse cx="18" cy="201.2422" fill="#84BE84" rx="3" ry="3" style="stroke:#038048;stroke-width:1.0;"/><text fill="#000000" font-family="sans-serif" font-size="14" lengthAdjust="spacing" textLength="292" x="27" y="204.5889">Driehoek(breedte:double, hoogte:double)</text><ellipse cx="18" cy="217.5391" fill="#84BE84" rx="3" ry="3" style="stroke:#038048;stroke-width:1.0;"/><text fill="#000000" font-family="sans-serif" font-size="14" lengthAdjust="spacing" textLength="144" x="27" y="220.8857">BepaalKleur() : string</text><ellipse cx="18" cy="233.8359" fill="#84BE84" rx="3" ry="3" style="stroke:#038048;stroke-width:1.0;"/><text fill="#000000" font-family="sans-serif" font-size="14" lengthAdjust="spacing" textLength="213" x="27" y="237.1826">BerekenOppervlakte() : double</text></g><!--class IVeelhoek--><g id="elem_IVeelhoek"><rect fill="#F1F1F1" height="48" id="IVeelhoek" rx="2.5" ry="2.5" style="stroke:#181818;stroke-width:0.5;" width="100" x="56" y="7"/><ellipse cx="71" cy="23" fill="#ADD1B2" rx="11" ry="11" style="stroke:#181818;stroke-width:1.0;"/><path d="M73.9688,28.6406 Q73.3906,28.9375 72.75,29.0781 Q72.1094,29.2344 71.4063,29.2344 Q68.9063,29.2344 67.5781,27.5938 Q66.2656,25.9375 66.2656,22.8125 Q66.2656,19.6875 67.5781,18.0313 Q68.9063,16.375 71.4063,16.375 Q72.1094,16.375 72.75,16.5313 Q73.4063,16.6875 73.9688,16.9844 L73.9688,19.7031 Q73.3438,19.125 72.75,18.8594 Q72.1563,18.5781 71.5313,18.5781 Q70.1875,18.5781 69.5,19.6563 Q68.8125,20.7188 68.8125,22.8125 Q68.8125,24.9063 69.5,25.9844 Q70.1875,27.0469 71.5313,27.0469 Q72.1563,27.0469 72.75,26.7813 Q73.3438,26.5 73.9688,25.9219 L73.9688,28.6406 Z " fill="#000000"/><text fill="#000000" font-family="sans-serif" font-size="14" lengthAdjust="spacing" textLength="68" x="85" y="27.8467">IVeelhoek</text><line style="stroke:#181818;stroke-width:0.5;" x1="57" x2="155" y1="39" y2="39"/><line style="stroke:#181818;stroke-width:0.5;" x1="57" x2="155" y1="47" y2="47"/></g><!--class IKleur--><g id="elem_IKleur"><rect fill="#F1F1F1" height="48" id="IKleur" rx="2.5" ry="2.5" style="stroke:#181818;stroke-width:0.5;" width="70" x="191" y="7"/><ellipse cx="206" cy="23" fill="#ADD1B2" rx="11" ry="11" style="stroke:#181818;stroke-width:1.0;"/><path d="M208.9688,28.6406 Q208.3906,28.9375 207.75,29.0781 Q207.1094,29.2344 206.4063,29.2344 Q203.9063,29.2344 202.5781,27.5938 Q201.2656,25.9375 201.2656,22.8125 Q201.2656,19.6875 202.5781,18.0313 Q203.9063,16.375 206.4063,16.375 Q207.1094,16.375 207.75,16.5313 Q208.4063,16.6875 208.9688,16.9844 L208.9688,19.7031 Q208.3438,19.125 207.75,18.8594 Q207.1563,18.5781 206.5313,18.5781 Q205.1875,18.5781 204.5,19.6563 Q203.8125,20.7188 203.8125,22.8125 Q203.8125,24.9063 204.5,25.9844 Q205.1875,27.0469 206.5313,27.0469 Q207.1563,27.0469 207.75,26.7813 Q208.3438,26.5 208.9688,25.9219 L208.9688,28.6406 Z " fill="#000000"/><text fill="#000000" font-family="sans-serif" font-size="14" lengthAdjust="spacing" textLength="38" x="220" y="27.8467">IKleur</text><line style="stroke:#181818;stroke-width:0.5;" x1="192" x2="260" y1="39" y2="39"/><line style="stroke:#181818;stroke-width:0.5;" x1="192" x2="260" y1="47" y2="47"/></g><!--reverse link IVeelhoek to Driehoek--><g id="link_IVeelhoek_Driehoek"><path codeLine="8" d="M122.3318,71.8672 C128.9418,88.0072 131.27,93.69 139.96,114.93 " fill="none" id="IVeelhoek-backto-Driehoek" style="stroke:#181818;stroke-width:1.0;"/><polygon fill="none" points="115.51,55.21,116.7794,74.1412,127.8842,69.5933,115.51,55.21" style="stroke:#181818;stroke-width:1.0;"/></g><!--reverse link IKleur to Driehoek--><g id="link_IKleur_Driehoek"><path codeLine="9" d="M209.6682,71.8672 C203.0582,88.0072 200.73,93.69 192.04,114.93 " fill="none" id="IKleur-backto-Driehoek" style="stroke:#181818;stroke-width:1.0;"/><polygon fill="none" points="216.49,55.21,204.1158,69.5933,215.2206,74.1412,216.49,55.21" style="stroke:#181818;stroke-width:1.0;"/></g><!--SRC=[Iyv9B2vMS2dAJCt8JyrMgEPI009j1QUYrDIKabG5AuMK_DAad5G56vlqr18xEo1T3AAXoZpoyzC9guAPhf44CTKAebf78GEi7ShLX5cTMf2OcEETarfQfA49DBguf2WpBnqkMPIQdPhdNr2GMbIMavXTaWfM0p61gvRBComrDGVi4viQNLsupLoUOFDG1G40]--></g></svg>