<?xml version="1.0" encoding="us-ascii" standalone="no"?><svg xmlns="http://www.w3.org/2000/svg" xmlns:xlink="http://www.w3.org/1999/xlink" contentStyleType="text/css" height="117px" preserveAspectRatio="none" style="width:260px;height:117px;background:#FFFFFF;" version="1.1" viewBox="0 0 260 117" width="260px" zoomAndPan="magnify"><defs/><g><!--class IVeelhoek--><g id="elem_IVeelhoek"><rect codeLine="1" fill="#F1F1F1" height="96.8906" id="IVeelhoek" rx="2.5" ry="2.5" style="stroke:#181818;stroke-width:0.5;" width="239" x="7" y="7"/><ellipse cx="87.25" cy="23" fill="#B4A7E5" rx="11" ry="11" style="stroke:#181818;stroke-width:1.0;"/><path d="M83.1719,18.7656 L83.1719,16.6094 L90.5625,16.6094 L90.5625,18.7656 L88.0938,18.7656 L88.0938,26.8438 L90.5625,26.8438 L90.5625,29 L83.1719,29 L83.1719,26.8438 L85.6406,26.8438 L85.6406,18.7656 L83.1719,18.7656 Z " fill="#000000"/><text fill="#000000" font-family="sans-serif" font-size="14" font-style="italic" lengthAdjust="spacing" textLength="70" x="107.75" y="27.8467">IVeelhoek</text><line style="stroke:#181818;stroke-width:0.5;" x1="8" x2="245" y1="39" y2="39"/><ellipse cx="18" cy="52.6484" fill="none" rx="3" ry="3" style="stroke:#038048;stroke-width:1.0;"/><text fill="#000000" font-family="sans-serif" font-size="14" lengthAdjust="spacing" textLength="206" x="27" y="55.9951">Breedte : double &#171;get&#187; &#171;set&#187;</text><ellipse cx="18" cy="68.9453" fill="none" rx="3" ry="3" style="stroke:#038048;stroke-width:1.0;"/><text fill="#000000" font-family="sans-serif" font-size="14" lengthAdjust="spacing" textLength="201" x="27" y="72.292">Hoogte : double &#171;get&#187; &#171;set&#187;</text><line style="stroke:#181818;stroke-width:0.5;" x1="8" x2="245" y1="79.5938" y2="79.5938"/><ellipse cx="18" cy="93.2422" fill="#84BE84" rx="3" ry="3" style="stroke:#038048;stroke-width:1.0;"/><text fill="#000000" font-family="sans-serif" font-size="14" lengthAdjust="spacing" textLength="213" x="27" y="96.5889">BerekenOppervlakte() : double</text></g><!--SRC=[oymhIIrAIqnELV0CIqtDoSXFpLQevb800cq5fwBKr9IIL0KhXPJyqgISL0KRc_JK4Zix85qCeg7AFFBpqmchSaejIirEpVClA4WjAij9p2v9rT24w-6g1G00]--></g></svg>