<?xml version="1.0" encoding="us-ascii" standalone="no"?><svg xmlns="http://www.w3.org/2000/svg" xmlns:xlink="http://www.w3.org/1999/xlink" contentStyleType="text/css" height="251px" preserveAspectRatio="none" style="width:651px;height:251px;background:#FFFFFF;" version="1.1" viewBox="0 0 651 251" width="651px" zoomAndPan="magnify"><defs/><g><!--class Driehoek--><g id="elem_Driehoek"><rect codeLine="1" fill="#F1F1F1" height="129.4844" id="Driehoek" rx="2.5" ry="2.5" style="stroke:#181818;stroke-width:0.5;" width="318" x="7" y="115"/><ellipse cx="130.25" cy="131" fill="#ADD1B2" rx="11" ry="11" style="stroke:#181818;stroke-width:1.0;"/><path d="M133.2188,136.6406 Q132.6406,136.9375 132,137.0781 Q131.3594,137.2344 130.6563,137.2344 Q128.1563,137.2344 126.8281,135.5938 Q125.5156,133.9375 125.5156,130.8125 Q125.5156,127.6875 126.8281,126.0313 Q128.1563,124.375 130.6563,124.375 Q131.3594,124.375 132,124.5313 Q132.6563,124.6875 133.2188,124.9844 L133.2188,127.7031 Q132.5938,127.125 132,126.8594 Q131.4063,126.5781 130.7813,126.5781 Q129.4375,126.5781 128.75,127.6563 Q128.0625,128.7188 128.0625,130.8125 Q128.0625,132.9063 128.75,133.9844 Q129.4375,135.0469 130.7813,135.0469 Q131.4063,135.0469 132,134.7813 Q132.5938,134.5 133.2188,133.9219 L133.2188,136.6406 Z " fill="#000000"/><text fill="#000000" font-family="sans-serif" font-size="14" lengthAdjust="spacing" textLength="63" x="150.75" y="135.8467">Driehoek</text><line style="stroke:#181818;stroke-width:0.5;" x1="8" x2="324" y1="147" y2="147"/><ellipse cx="18" cy="160.6484" fill="none" rx="3" ry="3" style="stroke:#038048;stroke-width:1.0;"/><text fill="#000000" font-family="sans-serif" font-size="14" lengthAdjust="spacing" textLength="206" x="27" y="163.9951">Breedte : double &#171;get&#187; &#171;set&#187;</text><ellipse cx="18" cy="176.9453" fill="none" rx="3" ry="3" style="stroke:#038048;stroke-width:1.0;"/><text fill="#000000" font-family="sans-serif" font-size="14" lengthAdjust="spacing" textLength="201" x="27" y="180.292">Hoogte : double &#171;get&#187; &#171;set&#187;</text><line style="stroke:#181818;stroke-width:0.5;" x1="8" x2="324" y1="187.5938" y2="187.5938"/><ellipse cx="18" cy="201.2422" fill="#84BE84" rx="3" ry="3" style="stroke:#038048;stroke-width:1.0;"/><text fill="#000000" font-family="sans-serif" font-size="14" lengthAdjust="spacing" textLength="292" x="27" y="204.5889">Driehoek(breedte:double, hoogte:double)</text><ellipse cx="18" cy="217.5391" fill="#84BE84" rx="3" ry="3" style="stroke:#038048;stroke-width:1.0;"/><text fill="#000000" font-family="sans-serif" font-size="14" lengthAdjust="spacing" textLength="144" x="27" y="220.8857">BepaalKleur() : string</text><ellipse cx="18" cy="233.8359" fill="#84BE84" rx="3" ry="3" style="stroke:#038048;stroke-width:1.0;"/><text fill="#000000" font-family="sans-serif" font-size="14" lengthAdjust="spacing" textLength="213" x="27" y="237.1826">BerekenOppervlakte() : double</text></g><!--class IVeelhoek--><g id="elem_IVeelhoek"><rect codeLine="1" fill="#F1F1F1" height="48" id="IVeelhoek" rx="2.5" ry="2.5" style="stroke:#181818;stroke-width:0.5;" width="102" x="222" y="7"/><ellipse cx="237" cy="23" fill="#B4A7E5" rx="11" ry="11" style="stroke:#181818;stroke-width:1.0;"/><path d="M232.9219,18.7656 L232.9219,16.6094 L240.3125,16.6094 L240.3125,18.7656 L237.8438,18.7656 L237.8438,26.8438 L240.3125,26.8438 L240.3125,29 L232.9219,29 L232.9219,26.8438 L235.3906,26.8438 L235.3906,18.7656 L232.9219,18.7656 Z " fill="#000000"/><text fill="#000000" font-family="sans-serif" font-size="14" font-style="italic" lengthAdjust="spacing" textLength="70" x="251" y="27.8467">IVeelhoek</text><line style="stroke:#181818;stroke-width:0.5;" x1="223" x2="323" y1="39" y2="39"/><line style="stroke:#181818;stroke-width:0.5;" x1="223" x2="323" y1="47" y2="47"/></g><!--class IKleur--><g id="elem_IKleur"><rect codeLine="1" fill="#F1F1F1" height="48" id="IKleur" rx="2.5" ry="2.5" style="stroke:#181818;stroke-width:0.5;" width="71" x="412.5" y="7"/><ellipse cx="427.5" cy="23" fill="#B4A7E5" rx="11" ry="11" style="stroke:#181818;stroke-width:1.0;"/><path d="M423.4219,18.7656 L423.4219,16.6094 L430.8125,16.6094 L430.8125,18.7656 L428.3438,18.7656 L428.3438,26.8438 L430.8125,26.8438 L430.8125,29 L423.4219,29 L423.4219,26.8438 L425.8906,26.8438 L425.8906,18.7656 L423.4219,18.7656 Z " fill="#000000"/><text fill="#000000" font-family="sans-serif" font-size="14" font-style="italic" lengthAdjust="spacing" textLength="39" x="441.5" y="27.8467">IKleur</text><line style="stroke:#181818;stroke-width:0.5;" x1="413.5" x2="482.5" y1="39" y2="39"/><line style="stroke:#181818;stroke-width:0.5;" x1="413.5" x2="482.5" y1="47" y2="47"/></g><!--class Balk--><g id="elem_Balk"><rect codeLine="1" fill="#F1F1F1" height="129.4844" id="Balk" rx="2.5" ry="2.5" style="stroke:#181818;stroke-width:0.5;" width="284" x="360" y="115"/><ellipse cx="483.25" cy="131" fill="#ADD1B2" rx="11" ry="11" style="stroke:#181818;stroke-width:1.0;"/><path d="M486.2188,136.6406 Q485.6406,136.9375 485,137.0781 Q484.3594,137.2344 483.6563,137.2344 Q481.1563,137.2344 479.8281,135.5938 Q478.5156,133.9375 478.5156,130.8125 Q478.5156,127.6875 479.8281,126.0313 Q481.1563,124.375 483.6563,124.375 Q484.3594,124.375 485,124.5313 Q485.6563,124.6875 486.2188,124.9844 L486.2188,127.7031 Q485.5938,127.125 485,126.8594 Q484.4063,126.5781 483.7813,126.5781 Q482.4375,126.5781 481.75,127.6563 Q481.0625,128.7188 481.0625,130.8125 Q481.0625,132.9063 481.75,133.9844 Q482.4375,135.0469 483.7813,135.0469 Q484.4063,135.0469 485,134.7813 Q485.5938,134.5 486.2188,133.9219 L486.2188,136.6406 Z " fill="#000000"/><text fill="#000000" font-family="sans-serif" font-size="14" lengthAdjust="spacing" textLength="29" x="503.75" y="135.8467">Balk</text><line style="stroke:#181818;stroke-width:0.5;" x1="361" x2="643" y1="147" y2="147"/><ellipse cx="371" cy="160.6484" fill="none" rx="3" ry="3" style="stroke:#038048;stroke-width:1.0;"/><text fill="#000000" font-family="sans-serif" font-size="14" lengthAdjust="spacing" textLength="206" x="380" y="163.9951">Breedte : double &#171;get&#187; &#171;set&#187;</text><ellipse cx="371" cy="176.9453" fill="none" rx="3" ry="3" style="stroke:#038048;stroke-width:1.0;"/><text fill="#000000" font-family="sans-serif" font-size="14" lengthAdjust="spacing" textLength="201" x="380" y="180.292">Hoogte : double &#171;get&#187; &#171;set&#187;</text><line style="stroke:#181818;stroke-width:0.5;" x1="361" x2="643" y1="187.5938" y2="187.5938"/><ellipse cx="371" cy="201.2422" fill="#84BE84" rx="3" ry="3" style="stroke:#038048;stroke-width:1.0;"/><text fill="#000000" font-family="sans-serif" font-size="14" lengthAdjust="spacing" textLength="258" x="380" y="204.5889">Balk(breedte:double, hoogte:double)</text><ellipse cx="371" cy="217.5391" fill="#84BE84" rx="3" ry="3" style="stroke:#038048;stroke-width:1.0;"/><text fill="#000000" font-family="sans-serif" font-size="14" lengthAdjust="spacing" textLength="144" x="380" y="220.8857">BepaalKleur() : string</text><ellipse cx="371" cy="233.8359" fill="#84BE84" rx="3" ry="3" style="stroke:#038048;stroke-width:1.0;"/><text fill="#000000" font-family="sans-serif" font-size="14" lengthAdjust="spacing" textLength="213" x="380" y="237.1826">BerekenOppervlakte() : double</text></g><!--reverse link IVeelhoek to Driehoek--><g id="link_IVeelhoek_Driehoek"><path codeLine="8" d="M245.4324,69.745 C233.6424,85.885 227.94,93.69 212.43,114.93 " fill="none" id="IVeelhoek-backto-Driehoek" style="stroke:#181818;stroke-width:1.0;"/><polygon fill="none" points="256.05,55.21,240.5874,66.2058,250.2774,73.2842,256.05,55.21" style="stroke:#181818;stroke-width:1.0;"/></g><!--reverse link IKleur to Driehoek--><g id="link_IKleur_Driehoek"><path codeLine="9" d="M396.3087,58.8516 C364.9687,75.1416 333.46,91.5 288.53,114.84 " fill="none" id="IKleur-backto-Driehoek" style="stroke:#181818;stroke-width:1.0;"/><polygon fill="none" points="412.28,50.55,393.5415,53.5278,399.0759,64.1754,412.28,50.55" style="stroke:#181818;stroke-width:1.0;"/></g><!--reverse link IVeelhoek to Balk--><g id="link_IVeelhoek_Balk"><path codeLine="8" d="M324.1913,64.7523 C349.3813,80.8723 369.18,93.53 402.43,114.8 " fill="none" id="IVeelhoek-backto-Balk" style="stroke:#181818;stroke-width:1.0;"/><polygon fill="none" points="309.03,55.05,320.9572,69.8061,327.4254,59.6985,309.03,55.05" style="stroke:#181818;stroke-width:1.0;"/></g><!--reverse link IKleur to Balk--><g id="link_IKleur_Balk"><path codeLine="9" d="M462.7769,72.1023 C468.7169,88.2423 470.74,93.69 478.57,114.93 " fill="none" id="IKleur-backto-Balk" style="stroke:#181818;stroke-width:1.0;"/><polygon fill="none" points="456.56,55.21,457.1461,74.1746,468.4076,70.03,456.56,55.21" style="stroke:#181818;stroke-width:1.0;"/></g><!--SRC=[KypCIyufJKbLS2dAJCt8JytMAoZDpU5IX0ax9UQW2tbwvwIM5g4BXgMcvi3r0m00]--></g></svg>