<?xml version="1.0" encoding="us-ascii" standalone="no"?><svg xmlns="http://www.w3.org/2000/svg" xmlns:xlink="http://www.w3.org/1999/xlink" contentStyleType="text/css" height="300px" preserveAspectRatio="none" style="width:651px;height:300px;background:#FFFFFF;" version="1.1" viewBox="0 0 651 300" width="651px" zoomAndPan="magnify"><defs/><g><!--class Driehoek--><g id="elem_Driehoek"><rect codeLine="1" fill="#F1F1F1" height="129.4844" id="Driehoek" rx="2.5" ry="2.5" style="stroke:#181818;stroke-width:0.5;" width="318" x="7" y="164"/><ellipse cx="130.25" cy="180" fill="#ADD1B2" rx="11" ry="11" style="stroke:#181818;stroke-width:1.0;"/><path d="M133.2188,185.6406 Q132.6406,185.9375 132,186.0781 Q131.3594,186.2344 130.6563,186.2344 Q128.1563,186.2344 126.8281,184.5938 Q125.5156,182.9375 125.5156,179.8125 Q125.5156,176.6875 126.8281,175.0313 Q128.1563,173.375 130.6563,173.375 Q131.3594,173.375 132,173.5313 Q132.6563,173.6875 133.2188,173.9844 L133.2188,176.7031 Q132.5938,176.125 132,175.8594 Q131.4063,175.5781 130.7813,175.5781 Q129.4375,175.5781 128.75,176.6563 Q128.0625,177.7188 128.0625,179.8125 Q128.0625,181.9063 128.75,182.9844 Q129.4375,184.0469 130.7813,184.0469 Q131.4063,184.0469 132,183.7813 Q132.5938,183.5 133.2188,182.9219 L133.2188,185.6406 Z " fill="#000000"/><text fill="#000000" font-family="sans-serif" font-size="14" lengthAdjust="spacing" textLength="63" x="150.75" y="184.8467">Driehoek</text><line style="stroke:#181818;stroke-width:0.5;" x1="8" x2="324" y1="196" y2="196"/><ellipse cx="18" cy="209.6484" fill="none" rx="3" ry="3" style="stroke:#038048;stroke-width:1.0;"/><text fill="#000000" font-family="sans-serif" font-size="14" lengthAdjust="spacing" textLength="206" x="27" y="212.9951">Breedte : double &#171;get&#187; &#171;set&#187;</text><ellipse cx="18" cy="225.9453" fill="none" rx="3" ry="3" style="stroke:#038048;stroke-width:1.0;"/><text fill="#000000" font-family="sans-serif" font-size="14" lengthAdjust="spacing" textLength="201" x="27" y="229.292">Hoogte : double &#171;get&#187; &#171;set&#187;</text><line style="stroke:#181818;stroke-width:0.5;" x1="8" x2="324" y1="236.5938" y2="236.5938"/><ellipse cx="18" cy="250.2422" fill="#84BE84" rx="3" ry="3" style="stroke:#038048;stroke-width:1.0;"/><text fill="#000000" font-family="sans-serif" font-size="14" lengthAdjust="spacing" textLength="292" x="27" y="253.5889">Driehoek(breedte:double, hoogte:double)</text><ellipse cx="18" cy="266.5391" fill="#84BE84" rx="3" ry="3" style="stroke:#038048;stroke-width:1.0;"/><text fill="#000000" font-family="sans-serif" font-size="14" lengthAdjust="spacing" textLength="144" x="27" y="269.8857">BepaalKleur() : string</text><ellipse cx="18" cy="282.8359" fill="#84BE84" rx="3" ry="3" style="stroke:#038048;stroke-width:1.0;"/><text fill="#000000" font-family="sans-serif" font-size="14" lengthAdjust="spacing" textLength="213" x="27" y="286.1826">BerekenOppervlakte() : double</text></g><!--class IVeelhoek--><g id="elem_IVeelhoek"><rect codeLine="1" fill="#F1F1F1" height="96.8906" id="IVeelhoek" rx="2.5" ry="2.5" style="stroke:#181818;stroke-width:0.5;" width="239" x="94.5" y="7"/><ellipse cx="174.75" cy="23" fill="#B4A7E5" rx="11" ry="11" style="stroke:#181818;stroke-width:1.0;"/><path d="M170.6719,18.7656 L170.6719,16.6094 L178.0625,16.6094 L178.0625,18.7656 L175.5938,18.7656 L175.5938,26.8438 L178.0625,26.8438 L178.0625,29 L170.6719,29 L170.6719,26.8438 L173.1406,26.8438 L173.1406,18.7656 L170.6719,18.7656 Z " fill="#000000"/><text fill="#000000" font-family="sans-serif" font-size="14" font-style="italic" lengthAdjust="spacing" textLength="70" x="195.25" y="27.8467">IVeelhoek</text><line style="stroke:#181818;stroke-width:0.5;" x1="95.5" x2="332.5" y1="39" y2="39"/><ellipse cx="105.5" cy="52.6484" fill="none" rx="3" ry="3" style="stroke:#038048;stroke-width:1.0;"/><text fill="#000000" font-family="sans-serif" font-size="14" lengthAdjust="spacing" textLength="206" x="114.5" y="55.9951">Breedte : double &#171;get&#187; &#171;set&#187;</text><ellipse cx="105.5" cy="68.9453" fill="none" rx="3" ry="3" style="stroke:#038048;stroke-width:1.0;"/><text fill="#000000" font-family="sans-serif" font-size="14" lengthAdjust="spacing" textLength="201" x="114.5" y="72.292">Hoogte : double &#171;get&#187; &#171;set&#187;</text><line style="stroke:#181818;stroke-width:0.5;" x1="95.5" x2="332.5" y1="79.5938" y2="79.5938"/><ellipse cx="105.5" cy="93.2422" fill="#84BE84" rx="3" ry="3" style="stroke:#038048;stroke-width:1.0;"/><text fill="#000000" font-family="sans-serif" font-size="14" lengthAdjust="spacing" textLength="213" x="114.5" y="96.5889">BerekenOppervlakte() : double</text></g><!--class IKleur--><g id="elem_IKleur"><rect codeLine="1" fill="#F1F1F1" height="64.2969" id="IKleur" rx="2.5" ry="2.5" style="stroke:#181818;stroke-width:0.5;" width="170" x="393" y="23.5"/><ellipse cx="454.25" cy="39.5" fill="#B4A7E5" rx="11" ry="11" style="stroke:#181818;stroke-width:1.0;"/><path d="M450.1719,35.2656 L450.1719,33.1094 L457.5625,33.1094 L457.5625,35.2656 L455.0938,35.2656 L455.0938,43.3438 L457.5625,43.3438 L457.5625,45.5 L450.1719,45.5 L450.1719,43.3438 L452.6406,43.3438 L452.6406,35.2656 L450.1719,35.2656 Z " fill="#000000"/><text fill="#000000" font-family="sans-serif" font-size="14" font-style="italic" lengthAdjust="spacing" textLength="39" x="474.75" y="44.3467">IKleur</text><line style="stroke:#181818;stroke-width:0.5;" x1="394" x2="562" y1="55.5" y2="55.5"/><line style="stroke:#181818;stroke-width:0.5;" x1="394" x2="562" y1="63.5" y2="63.5"/><ellipse cx="404" cy="77.1484" fill="#84BE84" rx="3" ry="3" style="stroke:#038048;stroke-width:1.0;"/><text fill="#000000" font-family="sans-serif" font-size="14" lengthAdjust="spacing" textLength="144" x="413" y="80.4951">BepaalKleur() : string</text></g><!--class Balk--><g id="elem_Balk"><rect codeLine="1" fill="#F1F1F1" height="129.4844" id="Balk" rx="2.5" ry="2.5" style="stroke:#181818;stroke-width:0.5;" width="284" x="360" y="164"/><ellipse cx="483.25" cy="180" fill="#ADD1B2" rx="11" ry="11" style="stroke:#181818;stroke-width:1.0;"/><path d="M486.2188,185.6406 Q485.6406,185.9375 485,186.0781 Q484.3594,186.2344 483.6563,186.2344 Q481.1563,186.2344 479.8281,184.5938 Q478.5156,182.9375 478.5156,179.8125 Q478.5156,176.6875 479.8281,175.0313 Q481.1563,173.375 483.6563,173.375 Q484.3594,173.375 485,173.5313 Q485.6563,173.6875 486.2188,173.9844 L486.2188,176.7031 Q485.5938,176.125 485,175.8594 Q484.4063,175.5781 483.7813,175.5781 Q482.4375,175.5781 481.75,176.6563 Q481.0625,177.7188 481.0625,179.8125 Q481.0625,181.9063 481.75,182.9844 Q482.4375,184.0469 483.7813,184.0469 Q484.4063,184.0469 485,183.7813 Q485.5938,183.5 486.2188,182.9219 L486.2188,185.6406 Z " fill="#000000"/><text fill="#000000" font-family="sans-serif" font-size="14" lengthAdjust="spacing" textLength="29" x="503.75" y="184.8467">Balk</text><line style="stroke:#181818;stroke-width:0.5;" x1="361" x2="643" y1="196" y2="196"/><ellipse cx="371" cy="209.6484" fill="none" rx="3" ry="3" style="stroke:#038048;stroke-width:1.0;"/><text fill="#000000" font-family="sans-serif" font-size="14" lengthAdjust="spacing" textLength="206" x="380" y="212.9951">Breedte : double &#171;get&#187; &#171;set&#187;</text><ellipse cx="371" cy="225.9453" fill="none" rx="3" ry="3" style="stroke:#038048;stroke-width:1.0;"/><text fill="#000000" font-family="sans-serif" font-size="14" lengthAdjust="spacing" textLength="201" x="380" y="229.292">Hoogte : double &#171;get&#187; &#171;set&#187;</text><line style="stroke:#181818;stroke-width:0.5;" x1="361" x2="643" y1="236.5938" y2="236.5938"/><ellipse cx="371" cy="250.2422" fill="#84BE84" rx="3" ry="3" style="stroke:#038048;stroke-width:1.0;"/><text fill="#000000" font-family="sans-serif" font-size="14" lengthAdjust="spacing" textLength="258" x="380" y="253.5889">Balk(breedte:double, hoogte:double)</text><ellipse cx="371" cy="266.5391" fill="#84BE84" rx="3" ry="3" style="stroke:#038048;stroke-width:1.0;"/><text fill="#000000" font-family="sans-serif" font-size="14" lengthAdjust="spacing" textLength="144" x="380" y="269.8857">BepaalKleur() : string</text><ellipse cx="371" cy="282.8359" fill="#84BE84" rx="3" ry="3" style="stroke:#038048;stroke-width:1.0;"/><text fill="#000000" font-family="sans-serif" font-size="14" lengthAdjust="spacing" textLength="213" x="380" y="286.1826">BerekenOppervlakte() : double</text></g><!--reverse link IVeelhoek to Driehoek--><g id="link_IVeelhoek_Driehoek"><path codeLine="8" d="M195.7631,121.4595 C190.5731,139.9395 189.42,144.05 183.88,163.82 " fill="none" id="IVeelhoek-backto-Driehoek" style="stroke:#181818;stroke-width:1.0;"/><polygon fill="none" points="200.63,104.13,189.9866,119.8372,201.5396,123.0818,200.63,104.13" style="stroke:#181818;stroke-width:1.0;"/></g><!--reverse link IKleur to Driehoek--><g id="link_IKleur_Driehoek"><path codeLine="9" d="M405.3531,96.3172 C366.5031,117.5972 329.45,137.92 281.92,163.96 " fill="none" id="IKleur-backto-Driehoek" style="stroke:#181818;stroke-width:1.0;"/><polygon fill="none" points="421.14,87.67,402.4707,91.0549,408.2355,101.5795,421.14,87.67" style="stroke:#181818;stroke-width:1.0;"/></g><!--reverse link IVeelhoek to Balk--><g id="link_IVeelhoek_Balk"><path codeLine="8" d="M309.6976,113.3194 C340.9076,131.8494 361.65,144.17 395.02,163.98 " fill="none" id="IVeelhoek-backto-Balk" style="stroke:#181818;stroke-width:1.0;"/><polygon fill="none" points="294.22,104.13,306.6345,118.4786,312.7607,108.1602,294.22,104.13" style="stroke:#181818;stroke-width:1.0;"/></g><!--reverse link IKleur to Balk--><g id="link_IKleur_Balk"><path codeLine="9" d="M484.9032,105.6851 C487.8832,126.9051 489.42,137.84 493.05,163.75 " fill="none" id="IKleur-backto-Balk" style="stroke:#181818;stroke-width:1.0;"/><polygon fill="none" points="482.4,87.86,478.9615,106.5195,490.8449,104.8507,482.4,87.86" style="stroke:#181818;stroke-width:1.0;"/></g><!--SRC=[KypCIyufJKbLS2dAJCt8JytMAoZDpU5IX0ax9UQW2tbwvwIM5g4BXgMcvi3r0m00]--></g></svg>