<?xml version="1.0" encoding="us-ascii" standalone="no"?><svg xmlns="http://www.w3.org/2000/svg" xmlns:xlink="http://www.w3.org/1999/xlink" contentStyleType="text/css" height="398px" preserveAspectRatio="none" style="width:684px;height:398px;background:#FFFFFF;" version="1.1" viewBox="0 0 684 398" width="684px" zoomAndPan="magnify"><defs/><g><!--class Zichtrekening--><g id="elem_Zichtrekening"><rect codeLine="1" fill="#F1F1F1" height="96.8906" id="Zichtrekening" rx="2.5" ry="2.5" style="stroke:#181818;stroke-width:0.5;" width="362" x="7" y="278"/><ellipse cx="135.75" cy="294" fill="#ADD1B2" rx="11" ry="11" style="stroke:#181818;stroke-width:1.0;"/><path d="M138.7188,299.6406 Q138.1406,299.9375 137.5,300.0781 Q136.8594,300.2344 136.1563,300.2344 Q133.6563,300.2344 132.3281,298.5938 Q131.0156,296.9375 131.0156,293.8125 Q131.0156,290.6875 132.3281,289.0313 Q133.6563,287.375 136.1563,287.375 Q136.8594,287.375 137.5,287.5313 Q138.1563,287.6875 138.7188,287.9844 L138.7188,290.7031 Q138.0938,290.125 137.5,289.8594 Q136.9063,289.5781 136.2813,289.5781 Q134.9375,289.5781 134.25,290.6563 Q133.5625,291.7188 133.5625,293.8125 Q133.5625,295.9063 134.25,296.9844 Q134.9375,298.0469 136.2813,298.0469 Q136.9063,298.0469 137.5,297.7813 Q138.0938,297.5 138.7188,296.9219 L138.7188,299.6406 Z " fill="#000000"/><text fill="#000000" font-family="sans-serif" font-size="14" lengthAdjust="spacing" textLength="96" x="156.25" y="298.8467">Zichtrekening</text><line style="stroke:#181818;stroke-width:0.5;" x1="8" x2="368" y1="310" y2="310"/><line style="stroke:#181818;stroke-width:0.5;" x1="8" x2="368" y1="318" y2="318"/><ellipse cx="18" cy="331.6484" fill="#84BE84" rx="3" ry="3" style="stroke:#038048;stroke-width:1.0;"/><text fill="#000000" font-family="sans-serif" font-size="14" lengthAdjust="spacing" textLength="336" x="27" y="334.9951">Zichtrekening(ibanNummer:string, saldo:double)</text><ellipse cx="18" cy="347.9453" fill="#84BE84" rx="3" ry="3" style="stroke:#038048;stroke-width:1.0;"/><text fill="#000000" font-family="sans-serif" font-size="14" lengthAdjust="spacing" textLength="247" x="27" y="351.292">&#171;override&#187; ToonGegevens() : string</text><ellipse cx="18" cy="364.2422" fill="#84BE84" rx="3" ry="3" style="stroke:#038048;stroke-width:1.0;"/><text fill="#000000" font-family="sans-serif" font-size="14" lengthAdjust="spacing" textLength="198" x="27" y="367.5889">&#171;override&#187; ToString() : string</text></g><!--class Bankrekening--><g id="elem_Bankrekening"><rect codeLine="1" fill="#F1F1F1" height="194.6719" id="Bankrekening" rx="2.5" ry="2.5" style="stroke:#181818;stroke-width:0.5;" width="362" x="183" y="7"/><ellipse cx="311.75" cy="23" fill="#ADD1B2" rx="11" ry="11" style="stroke:#181818;stroke-width:1.0;"/><path d="M314.7188,28.6406 Q314.1406,28.9375 313.5,29.0781 Q312.8594,29.2344 312.1563,29.2344 Q309.6563,29.2344 308.3281,27.5938 Q307.0156,25.9375 307.0156,22.8125 Q307.0156,19.6875 308.3281,18.0313 Q309.6563,16.375 312.1563,16.375 Q312.8594,16.375 313.5,16.5313 Q314.1563,16.6875 314.7188,16.9844 L314.7188,19.7031 Q314.0938,19.125 313.5,18.8594 Q312.9063,18.5781 312.2813,18.5781 Q310.9375,18.5781 310.25,19.6563 Q309.5625,20.7188 309.5625,22.8125 Q309.5625,24.9063 310.25,25.9844 Q310.9375,27.0469 312.2813,27.0469 Q312.9063,27.0469 313.5,26.7813 Q314.0938,26.5 314.7188,25.9219 L314.7188,28.6406 Z " fill="#000000"/><text fill="#000000" font-family="sans-serif" font-size="14" lengthAdjust="spacing" textLength="96" x="332.25" y="27.8467">Bankrekening</text><line style="stroke:#181818;stroke-width:0.5;" x1="184" x2="544" y1="39" y2="39"/><ellipse cx="194" cy="52.6484" fill="none" rx="3" ry="3" style="stroke:#038048;stroke-width:1.0;"/><text fill="#000000" font-family="sans-serif" font-size="14" lengthAdjust="spacing" textLength="229" x="203" y="55.9951">IbanNummer : string &#171;get&#187; &#171;set&#187;</text><ellipse cx="194" cy="68.9453" fill="none" rx="3" ry="3" style="stroke:#038048;stroke-width:1.0;"/><text fill="#000000" font-family="sans-serif" font-size="14" lengthAdjust="spacing" textLength="167" x="203" y="72.292">LandCode : string &#171;get&#187;</text><ellipse cx="194" cy="85.2422" fill="none" rx="3" ry="3" style="stroke:#038048;stroke-width:1.0;"/><text fill="#000000" font-family="sans-serif" font-size="14" lengthAdjust="spacing" textLength="212" x="203" y="88.5889">Minimum : double &#171;get&#187; &#171;set&#187;</text><ellipse cx="194" cy="101.5391" fill="none" rx="3" ry="3" style="stroke:#038048;stroke-width:1.0;"/><text fill="#000000" font-family="sans-serif" font-size="14" lengthAdjust="spacing" textLength="188" x="203" y="104.8857">Saldo : double &#171;get&#187; &#171;set&#187;</text><line style="stroke:#181818;stroke-width:0.5;" x1="184" x2="544" y1="112.1875" y2="112.1875"/><ellipse cx="194" cy="125.8359" fill="#84BE84" rx="3" ry="3" style="stroke:#038048;stroke-width:1.0;"/><text fill="#000000" font-family="sans-serif" font-size="14" lengthAdjust="spacing" textLength="336" x="203" y="129.1826">Bankrekening(ibanNummer:string, saldo:double)</text><ellipse cx="194" cy="142.1328" fill="#84BE84" rx="3" ry="3" style="stroke:#038048;stroke-width:1.0;"/><text fill="#000000" font-family="sans-serif" font-size="14" lengthAdjust="spacing" textLength="204" x="203" y="145.4795">Afhalen(bedrag:double) : void</text><ellipse cx="194" cy="158.4297" fill="#84BE84" rx="3" ry="3" style="stroke:#038048;stroke-width:1.0;"/><text fill="#000000" font-family="sans-serif" font-size="14" lengthAdjust="spacing" textLength="204" x="203" y="161.7764">Storten(bedrag:double) : void</text><ellipse cx="194" cy="174.7266" fill="#84BE84" rx="3" ry="3" style="stroke:#038048;stroke-width:1.0;"/><text fill="#000000" font-family="sans-serif" font-size="14" lengthAdjust="spacing" textLength="231" x="203" y="178.0732">&#171;virtual&#187; ToonGegevens() : string</text><ellipse cx="194" cy="191.0234" fill="#84BE84" rx="3" ry="3" style="stroke:#038048;stroke-width:1.0;"/><text fill="#000000" font-family="sans-serif" font-size="14" lengthAdjust="spacing" textLength="198" x="203" y="194.3701">&#171;override&#187; ToString() : string</text></g><!--class Spaarrekening--><g id="elem_Spaarrekening"><rect codeLine="1" fill="#F1F1F1" height="129.4844" id="Spaarrekening" rx="2.5" ry="2.5" style="stroke:#181818;stroke-width:0.5;" width="273" x="404.5" y="262"/><ellipse cx="486.75" cy="278" fill="#ADD1B2" rx="11" ry="11" style="stroke:#181818;stroke-width:1.0;"/><path d="M489.7188,283.6406 Q489.1406,283.9375 488.5,284.0781 Q487.8594,284.2344 487.1563,284.2344 Q484.6563,284.2344 483.3281,282.5938 Q482.0156,280.9375 482.0156,277.8125 Q482.0156,274.6875 483.3281,273.0313 Q484.6563,271.375 487.1563,271.375 Q487.8594,271.375 488.5,271.5313 Q489.1563,271.6875 489.7188,271.9844 L489.7188,274.7031 Q489.0938,274.125 488.5,273.8594 Q487.9063,273.5781 487.2813,273.5781 Q485.9375,273.5781 485.25,274.6563 Q484.5625,275.7188 484.5625,277.8125 Q484.5625,279.9063 485.25,280.9844 Q485.9375,282.0469 487.2813,282.0469 Q487.9063,282.0469 488.5,281.7813 Q489.0938,281.5 489.7188,280.9219 L489.7188,283.6406 Z " fill="#000000"/><text fill="#000000" font-family="sans-serif" font-size="14" lengthAdjust="spacing" textLength="100" x="507.25" y="282.8467">Spaarrekening</text><line style="stroke:#181818;stroke-width:0.5;" x1="405.5" x2="676.5" y1="294" y2="294"/><ellipse cx="415.5" cy="307.6484" fill="none" rx="3" ry="3" style="stroke:#038048;stroke-width:1.0;"/><text fill="#000000" font-family="sans-serif" font-size="14" lengthAdjust="spacing" textLength="230" x="424.5" y="310.9951">Percentage : double &#171;get&#187; &#171;set&#187;</text><line style="stroke:#181818;stroke-width:0.5;" x1="405.5" x2="676.5" y1="318.2969" y2="318.2969"/><ellipse cx="415.5" cy="331.9453" fill="#84BE84" rx="3" ry="3" style="stroke:#038048;stroke-width:1.0;"/><text fill="#000000" font-family="sans-serif" font-size="14" lengthAdjust="spacing" textLength="242" x="424.5" y="335.292">Spaarrekening(ibanNummer:string)</text><ellipse cx="415.5" cy="348.2422" fill="#84BE84" rx="3" ry="3" style="stroke:#038048;stroke-width:1.0;"/><text fill="#000000" font-family="sans-serif" font-size="14" lengthAdjust="spacing" textLength="247" x="424.5" y="351.5889">&#171;override&#187; ToonGegevens() : string</text><ellipse cx="415.5" cy="364.5391" fill="#84BE84" rx="3" ry="3" style="stroke:#038048;stroke-width:1.0;"/><text fill="#000000" font-family="sans-serif" font-size="14" lengthAdjust="spacing" textLength="149" x="424.5" y="367.8857">SchrijfRentebij() : void</text><ellipse cx="415.5" cy="380.8359" fill="#84BE84" rx="3" ry="3" style="stroke:#038048;stroke-width:1.0;"/><text fill="#000000" font-family="sans-serif" font-size="14" lengthAdjust="spacing" textLength="198" x="424.5" y="384.1826">&#171;override&#187; ToString() : string</text></g><!--reverse link Bankrekening to Zichtrekening--><g id="link_Bankrekening_Zichtrekening"><path codeLine="6" d="M275.3016,216.3725 C254.3616,242.5325 243.87,255.66 226.15,277.81 " fill="none" id="Bankrekening-backto-Zichtrekening" style="stroke:#181818;stroke-width:1.0;"/><polygon fill="none" points="286.55,202.32,270.6174,212.623,279.9857,220.122,286.55,202.32" style="stroke:#181818;stroke-width:1.0;"/></g><!--reverse link Bankrekening to Spaarrekening--><g id="link_Bankrekening_Spaarrekening"><path codeLine="8" d="M453.1743,216.3437 C469.4043,236.5137 474.84,243.26 489.81,261.87 " fill="none" id="Bankrekening-backto-Spaarrekening" style="stroke:#181818;stroke-width:1.0;"/><polygon fill="none" points="441.89,202.32,448.4997,220.1051,457.8489,212.5823,441.89,202.32" style="stroke:#181818;stroke-width:1.0;"/></g><!--SRC=[KypCIyufJKbLYCfCpYWfIirEpSlCIzShACtDuLA4oJabvcNZa0ekI4miGf430000]--></g></svg>