<?xml version="1.0" encoding="us-ascii" standalone="no"?><svg xmlns="http://www.w3.org/2000/svg" xmlns:xlink="http://www.w3.org/1999/xlink" contentStyleType="text/css" height="166px" preserveAspectRatio="none" style="width:216px;height:166px;background:#FFFFFF;" version="1.1" viewBox="0 0 216 166" width="216px" zoomAndPan="magnify"><defs/><g><!--class Teller--><g id="elem_Teller"><rect codeLine="1" fill="#F1F1F1" height="145.7813" id="Teller" rx="2.5" ry="2.5" style="stroke:#181818;stroke-width:0.5;" width="195" x="7" y="7"/><ellipse cx="81.25" cy="23" fill="#ADD1B2" rx="11" ry="11" style="stroke:#181818;stroke-width:1.0;"/><path d="M84.2188,28.6406 Q83.6406,28.9375 83,29.0781 Q82.3594,29.2344 81.6563,29.2344 Q79.1563,29.2344 77.8281,27.5938 Q76.5156,25.9375 76.5156,22.8125 Q76.5156,19.6875 77.8281,18.0313 Q79.1563,16.375 81.6563,16.375 Q82.3594,16.375 83,16.5313 Q83.6563,16.6875 84.2188,16.9844 L84.2188,19.7031 Q83.5938,19.125 83,18.8594 Q82.4063,18.5781 81.7813,18.5781 Q80.4375,18.5781 79.75,19.6563 Q79.0625,20.7188 79.0625,22.8125 Q79.0625,24.9063 79.75,25.9844 Q80.4375,27.0469 81.7813,27.0469 Q82.4063,27.0469 83,26.7813 Q83.5938,26.5 84.2188,25.9219 L84.2188,28.6406 Z " fill="#000000"/><text fill="#000000" font-family="sans-serif" font-size="14" lengthAdjust="spacing" textLength="38" x="101.75" y="27.8467">Teller</text><line style="stroke:#181818;stroke-width:0.5;" x1="8" x2="201" y1="39" y2="39"/><ellipse cx="18" cy="52.6484" fill="none" rx="3" ry="3" style="stroke:#038048;stroke-width:1.0;"/><text fill="#000000" font-family="sans-serif" font-size="14" lengthAdjust="spacing" textLength="127" x="27" y="55.9951">Waarde : int &#171;get&#187;</text><line style="stroke:#181818;stroke-width:0.5;" x1="8" x2="201" y1="63.2969" y2="63.2969"/><ellipse cx="18" cy="76.9453" fill="#84BE84" rx="3" ry="3" style="stroke:#038048;stroke-width:1.0;"/><text fill="#000000" font-family="sans-serif" font-size="14" lengthAdjust="spacing" textLength="48" x="27" y="80.292">Teller()</text><ellipse cx="18" cy="93.2422" fill="#84BE84" rx="3" ry="3" style="stroke:#038048;stroke-width:1.0;"/><text fill="#000000" font-family="sans-serif" font-size="14" lengthAdjust="spacing" textLength="110" x="27" y="96.5889">Verhoog() : void</text><ellipse cx="18" cy="109.5391" fill="#84BE84" rx="3" ry="3" style="stroke:#038048;stroke-width:1.0;"/><text fill="#000000" font-family="sans-serif" font-size="14" lengthAdjust="spacing" textLength="102" x="27" y="112.8857">Verlaag() : void</text><ellipse cx="18" cy="125.8359" fill="#84BE84" rx="3" ry="3" style="stroke:#038048;stroke-width:1.0;"/><text fill="#000000" font-family="sans-serif" font-size="14" lengthAdjust="spacing" textLength="115" x="27" y="129.1826">Resetten() : void</text><ellipse cx="18" cy="142.1328" fill="#84BE84" rx="3" ry="3" style="stroke:#038048;stroke-width:1.0;"/><text fill="#000000" font-family="sans-serif" font-size="14" lengthAdjust="spacing" textLength="169" x="27" y="145.4795">ToonGegevens() : string</text></g><!--SRC=[POen2eD044LxJp6bIsuWOfi-B5eFyRDPM6PWPx0Hxnw9Wc1-zzzxxy9c554AAgqDxNlGn5ndK4TPdFe-mOVXL4VPXlEEg1_Lr8OzNZJF5oxCV_W5WplapgEgF96mGEpdp6kMr6nV]--></g></svg>