<?xml version="1.0" encoding="us-ascii" standalone="no"?><svg xmlns="http://www.w3.org/2000/svg" xmlns:xlink="http://www.w3.org/1999/xlink" contentStyleType="text/css" height="166px" preserveAspectRatio="none" style="width:631px;height:166px;background:#FFFFFF;" version="1.1" viewBox="0 0 631 166" width="631px" zoomAndPan="magnify"><defs/><g><!--class Persoon--><g id="elem_Persoon"><rect codeLine="1" fill="#F1F1F1" height="145.7813" id="Persoon" rx="2.5" ry="2.5" style="stroke:#181818;stroke-width:0.5;" width="610" x="7" y="7"/><ellipse cx="278.75" cy="23" fill="#ADD1B2" rx="11" ry="11" style="stroke:#181818;stroke-width:1.0;"/><path d="M281.7188,28.6406 Q281.1406,28.9375 280.5,29.0781 Q279.8594,29.2344 279.1563,29.2344 Q276.6563,29.2344 275.3281,27.5938 Q274.0156,25.9375 274.0156,22.8125 Q274.0156,19.6875 275.3281,18.0313 Q276.6563,16.375 279.1563,16.375 Q279.8594,16.375 280.5,16.5313 Q281.1563,16.6875 281.7188,16.9844 L281.7188,19.7031 Q281.0938,19.125 280.5,18.8594 Q279.9063,18.5781 279.2813,18.5781 Q277.9375,18.5781 277.25,19.6563 Q276.5625,20.7188 276.5625,22.8125 Q276.5625,24.9063 277.25,25.9844 Q277.9375,27.0469 279.2813,27.0469 Q279.9063,27.0469 280.5,26.7813 Q281.0938,26.5 281.7188,25.9219 L281.7188,28.6406 Z " fill="#000000"/><text fill="#000000" font-family="sans-serif" font-size="14" lengthAdjust="spacing" textLength="58" x="299.25" y="27.8467">Persoon</text><line style="stroke:#181818;stroke-width:0.5;" x1="8" x2="616" y1="39" y2="39"/><ellipse cx="18" cy="52.6484" fill="none" rx="3" ry="3" style="stroke:#038048;stroke-width:1.0;"/><text fill="#000000" font-family="sans-serif" font-size="14" lengthAdjust="spacing" textLength="211" x="27" y="55.9951">Voornaam : string &#171;get&#187; &#171;set&#187;</text><ellipse cx="18" cy="68.9453" fill="none" rx="3" ry="3" style="stroke:#038048;stroke-width:1.0;"/><text fill="#000000" font-family="sans-serif" font-size="14" lengthAdjust="spacing" textLength="226" x="27" y="72.292">Familienaam : string &#171;get&#187; &#171;set&#187;</text><ellipse cx="18" cy="85.2422" fill="none" rx="3" ry="3" style="stroke:#038048;stroke-width:1.0;"/><text fill="#000000" font-family="sans-serif" font-size="14" lengthAdjust="spacing" textLength="284" x="27" y="88.5889">Rijksregisternummer : string &#171;get&#187; &#171;set&#187;</text><ellipse cx="18" cy="101.5391" fill="none" rx="3" ry="3" style="stroke:#038048;stroke-width:1.0;"/><text fill="#000000" font-family="sans-serif" font-size="14" lengthAdjust="spacing" textLength="170" x="27" y="104.8857">Iban : string &#171;get&#187; &#171;set&#187;</text><line style="stroke:#181818;stroke-width:0.5;" x1="8" x2="616" y1="112.1875" y2="112.1875"/><ellipse cx="18" cy="125.8359" fill="#84BE84" rx="3" ry="3" style="stroke:#038048;stroke-width:1.0;"/><text fill="#000000" font-family="sans-serif" font-size="14" lengthAdjust="spacing" textLength="584" x="27" y="129.1826">Persoon(voornaam:string, familienaam:string, rijksregisternummer:string, iban:string)</text><ellipse cx="18" cy="142.1328" fill="#84BE84" rx="3" ry="3" style="stroke:#038048;stroke-width:1.0;"/><text fill="#000000" font-family="sans-serif" font-size="14" lengthAdjust="spacing" textLength="169" x="27" y="145.4795">ToonGegevens() : string</text></g><!--SRC=[ZOwn2i9038RtFaN65ds2KZfMt4J4FKfwH7ivIAvTn7VtnECS76gMdoH__dpN2StWG6eX23mgIBM1SmWgY1vQiAWi3hhEKUpxfFRMx1lGyyJqZ_N8jxifERP8AhFtf6id-mlAcYUJrqicRZ_kBOnVj3BJNuQou_GiDqtEFgNW7JbQIAnk2adrV040]--></g></svg>