<?xml version="1.0" encoding="us-ascii" standalone="no"?><svg xmlns="http://www.w3.org/2000/svg" xmlns:xlink="http://www.w3.org/1999/xlink" contentStyleType="text/css" height="101px" preserveAspectRatio="none" style="width:313px;height:101px;background:#FFFFFF;" version="1.1" viewBox="0 0 313 101" width="313px" zoomAndPan="magnify"><defs/><g><!--class FileOperations--><g id="elem_FileOperations"><rect codeLine="1" fill="#F1F1F1" height="80.5938" id="FileOperations" rx="2.5" ry="2.5" style="stroke:#181818;stroke-width:0.5;" width="292" x="7" y="7"/><ellipse cx="99.25" cy="23" fill="#ADD1B2" rx="11" ry="11" style="stroke:#181818;stroke-width:1.0;"/><path d="M102.2188,28.6406 Q101.6406,28.9375 101,29.0781 Q100.3594,29.2344 99.6563,29.2344 Q97.1563,29.2344 95.8281,27.5938 Q94.5156,25.9375 94.5156,22.8125 Q94.5156,19.6875 95.8281,18.0313 Q97.1563,16.375 99.6563,16.375 Q100.3594,16.375 101,16.5313 Q101.6563,16.6875 102.2188,16.9844 L102.2188,19.7031 Q101.5938,19.125 101,18.8594 Q100.4063,18.5781 99.7813,18.5781 Q98.4375,18.5781 97.75,19.6563 Q97.0625,20.7188 97.0625,22.8125 Q97.0625,24.9063 97.75,25.9844 Q98.4375,27.0469 99.7813,27.0469 Q100.4063,27.0469 101,26.7813 Q101.5938,26.5 102.2188,25.9219 L102.2188,28.6406 Z " fill="#000000"/><text fill="#000000" font-family="sans-serif" font-size="14" lengthAdjust="spacing" textLength="99" x="119.75" y="27.8467">FileOperations</text><line style="stroke:#181818;stroke-width:0.5;" x1="8" x2="298" y1="39" y2="39"/><line style="stroke:#181818;stroke-width:0.5;" x1="8" x2="298" y1="47" y2="47"/><ellipse cx="18" cy="60.6484" fill="#84BE84" rx="3" ry="3" style="stroke:#038048;stroke-width:1.0;"/><text fill="#000000" font-family="sans-serif" font-size="14" lengthAdjust="spacing" text-decoration="underline" textLength="177" x="27" y="63.9951">LeesDieren() : List&lt;Dier&gt;</text><ellipse cx="18" cy="76.9453" fill="#84BE84" rx="3" ry="3" style="stroke:#038048;stroke-width:1.0;"/><text fill="#000000" font-family="sans-serif" font-size="14" lengthAdjust="spacing" text-decoration="underline" textLength="266" x="27" y="80.292">LeesPersoneel() : List&lt;Personeelslid&gt;</text></g><!--SRC=[Iyv9B2vMSClCIVKlI2rABCdCpojMgEPI009jXUhY4g18Sgs2JsfgiKjcQb5gdeQcWfM2JsPnYGs8RuTDOK1gKN5-Ncfg3a8jNAWu9pF5ZgiM0000]--></g></svg>