<?xml version="1.0" encoding="us-ascii" standalone="no"?><svg xmlns="http://www.w3.org/2000/svg" xmlns:xlink="http://www.w3.org/1999/xlink" contentStyleType="text/css" height="446px" preserveAspectRatio="none" style="width:871px;height:446px;background:#FFFFFF;" version="1.1" viewBox="0 0 871 446" width="871px" zoomAndPan="magnify"><defs/><g><!--class Personeelslid--><g id="elem_Personeelslid"><rect codeLine="1" fill="#F1F1F1" height="162.0781" id="Personeelslid" rx="2.5" ry="2.5" style="stroke:#181818;stroke-width:0.5;" width="478" x="7" y="7"/><ellipse cx="195.25" cy="23" fill="#ADD1B2" rx="11" ry="11" style="stroke:#181818;stroke-width:1.0;"/><path d="M198.2188,28.6406 Q197.6406,28.9375 197,29.0781 Q196.3594,29.2344 195.6563,29.2344 Q193.1563,29.2344 191.8281,27.5938 Q190.5156,25.9375 190.5156,22.8125 Q190.5156,19.6875 191.8281,18.0313 Q193.1563,16.375 195.6563,16.375 Q196.3594,16.375 197,16.5313 Q197.6563,16.6875 198.2188,16.9844 L198.2188,19.7031 Q197.5938,19.125 197,18.8594 Q196.4063,18.5781 195.7813,18.5781 Q194.4375,18.5781 193.75,19.6563 Q193.0625,20.7188 193.0625,22.8125 Q193.0625,24.9063 193.75,25.9844 Q194.4375,27.0469 195.7813,27.0469 Q196.4063,27.0469 197,26.7813 Q197.5938,26.5 198.2188,25.9219 L198.2188,28.6406 Z " fill="#000000"/><text fill="#000000" font-family="sans-serif" font-size="14" lengthAdjust="spacing" textLength="93" x="215.75" y="27.8467">Personeelslid</text><line style="stroke:#181818;stroke-width:0.5;" x1="8" x2="484" y1="39" y2="39"/><ellipse cx="18" cy="52.6484" fill="none" rx="3" ry="3" style="stroke:#038048;stroke-width:1.0;"/><text fill="#000000" font-family="sans-serif" font-size="14" lengthAdjust="spacing" textLength="226" x="27" y="55.9951">Familienaam : string &#171;get&#187; &#171;set&#187;</text><ellipse cx="18" cy="68.9453" fill="none" rx="3" ry="3" style="stroke:#038048;stroke-width:1.0;"/><text fill="#000000" font-family="sans-serif" font-size="14" lengthAdjust="spacing" textLength="211" x="27" y="72.292">Voornaam : string &#171;get&#187; &#171;set&#187;</text><ellipse cx="18" cy="85.2422" fill="none" rx="3" ry="3" style="stroke:#038048;stroke-width:1.0;"/><text fill="#000000" font-family="sans-serif" font-size="14" lengthAdjust="spacing" textLength="193" x="27" y="88.5889">IsStagiair : bool &#171;get&#187; &#171;set&#187;</text><line style="stroke:#181818;stroke-width:0.5;" x1="8" x2="484" y1="95.8906" y2="95.8906"/><ellipse cx="18" cy="109.5391" fill="#84BE84" rx="3" ry="3" style="stroke:#038048;stroke-width:1.0;"/><text fill="#000000" font-family="sans-serif" font-size="14" lengthAdjust="spacing" textLength="452" x="27" y="112.8857">Personeelslid(voornaam:string, familienaam:string, isStagiair:bool)</text><ellipse cx="18" cy="125.8359" fill="#84BE84" rx="3" ry="3" style="stroke:#038048;stroke-width:1.0;"/><text fill="#000000" font-family="sans-serif" font-size="14" lengthAdjust="spacing" textLength="198" x="27" y="129.1826">&#171;override&#187; ToString() : string</text><ellipse cx="18" cy="142.1328" fill="#84BE84" rx="3" ry="3" style="stroke:#038048;stroke-width:1.0;"/><text fill="#000000" font-family="sans-serif" font-size="14" lengthAdjust="spacing" textLength="246" x="27" y="145.4795">&#171;override&#187; Equals(obj:object) : bool</text><ellipse cx="18" cy="158.4297" fill="#84BE84" rx="3" ry="3" style="stroke:#038048;stroke-width:1.0;"/><text fill="#000000" font-family="sans-serif" font-size="14" lengthAdjust="spacing" textLength="215" x="27" y="161.7764">&#171;override&#187; GetHashCode() : int</text></g><!--class FileOperations--><g id="elem_FileOperations"><rect codeLine="1" fill="#F1F1F1" height="80.5938" id="FileOperations" rx="2.5" ry="2.5" style="stroke:#181818;stroke-width:0.5;" width="292" x="520" y="47.5"/><ellipse cx="612.25" cy="63.5" fill="#ADD1B2" rx="11" ry="11" style="stroke:#181818;stroke-width:1.0;"/><path d="M615.2188,69.1406 Q614.6406,69.4375 614,69.5781 Q613.3594,69.7344 612.6563,69.7344 Q610.1563,69.7344 608.8281,68.0938 Q607.5156,66.4375 607.5156,63.3125 Q607.5156,60.1875 608.8281,58.5313 Q610.1563,56.875 612.6563,56.875 Q613.3594,56.875 614,57.0313 Q614.6563,57.1875 615.2188,57.4844 L615.2188,60.2031 Q614.5938,59.625 614,59.3594 Q613.4063,59.0781 612.7813,59.0781 Q611.4375,59.0781 610.75,60.1563 Q610.0625,61.2188 610.0625,63.3125 Q610.0625,65.4063 610.75,66.4844 Q611.4375,67.5469 612.7813,67.5469 Q613.4063,67.5469 614,67.2813 Q614.5938,67 615.2188,66.4219 L615.2188,69.1406 Z " fill="#000000"/><text fill="#000000" font-family="sans-serif" font-size="14" lengthAdjust="spacing" textLength="99" x="632.75" y="68.3467">FileOperations</text><line style="stroke:#181818;stroke-width:0.5;" x1="521" x2="811" y1="79.5" y2="79.5"/><line style="stroke:#181818;stroke-width:0.5;" x1="521" x2="811" y1="87.5" y2="87.5"/><ellipse cx="531" cy="101.1484" fill="#84BE84" rx="3" ry="3" style="stroke:#038048;stroke-width:1.0;"/><text fill="#000000" font-family="sans-serif" font-size="14" lengthAdjust="spacing" text-decoration="underline" textLength="177" x="540" y="104.4951">LeesDieren() : List&lt;Dier&gt;</text><ellipse cx="531" cy="117.4453" fill="#84BE84" rx="3" ry="3" style="stroke:#038048;stroke-width:1.0;"/><text fill="#000000" font-family="sans-serif" font-size="14" lengthAdjust="spacing" text-decoration="underline" textLength="266" x="540" y="120.792">LeesPersoneel() : List&lt;Personeelslid&gt;</text></g><!--class Dierenverblijf--><g id="elem_Dierenverblijf"><rect codeLine="1" fill="#F1F1F1" height="210.9688" id="Dierenverblijf" rx="2.5" ry="2.5" style="stroke:#181818;stroke-width:0.5;" width="409" x="41.5" y="229"/><ellipse cx="197.25" cy="245" fill="#ADD1B2" rx="11" ry="11" style="stroke:#181818;stroke-width:1.0;"/><path d="M200.2188,250.6406 Q199.6406,250.9375 199,251.0781 Q198.3594,251.2344 197.6563,251.2344 Q195.1563,251.2344 193.8281,249.5938 Q192.5156,247.9375 192.5156,244.8125 Q192.5156,241.6875 193.8281,240.0313 Q195.1563,238.375 197.6563,238.375 Q198.3594,238.375 199,238.5313 Q199.6563,238.6875 200.2188,238.9844 L200.2188,241.7031 Q199.5938,241.125 199,240.8594 Q198.4063,240.5781 197.7813,240.5781 Q196.4375,240.5781 195.75,241.6563 Q195.0625,242.7188 195.0625,244.8125 Q195.0625,246.9063 195.75,247.9844 Q196.4375,249.0469 197.7813,249.0469 Q198.4063,249.0469 199,248.7813 Q199.5938,248.5 200.2188,247.9219 L200.2188,250.6406 Z " fill="#000000"/><text fill="#000000" font-family="sans-serif" font-size="14" lengthAdjust="spacing" textLength="89" x="217.75" y="249.8467">Dierenverblijf</text><line style="stroke:#181818;stroke-width:0.5;" x1="42.5" x2="449.5" y1="261" y2="261"/><ellipse cx="52.5" cy="274.6484" fill="none" rx="3" ry="3" style="stroke:#038048;stroke-width:1.0;"/><text fill="#000000" font-family="sans-serif" font-size="14" lengthAdjust="spacing" textLength="302" x="61.5" y="277.9951">Hoofdverzorger : Personeelslid &#171;get&#187; &#171;set&#187;</text><ellipse cx="52.5" cy="290.9453" fill="none" rx="3" ry="3" style="stroke:#038048;stroke-width:1.0;"/><text fill="#000000" font-family="sans-serif" font-size="14" lengthAdjust="spacing" textLength="292" x="61.5" y="294.292">Hulpverzorger : Personeelslid &#171;get&#187; &#171;set&#187;</text><ellipse cx="52.5" cy="307.2422" fill="none" rx="3" ry="3" style="stroke:#038048;stroke-width:1.0;"/><text fill="#000000" font-family="sans-serif" font-size="14" lengthAdjust="spacing" textLength="228" x="61.5" y="310.5889">Mannetjesdier : Dier &#171;get&#187; &#171;set&#187;</text><ellipse cx="52.5" cy="323.5391" fill="none" rx="3" ry="3" style="stroke:#038048;stroke-width:1.0;"/><text fill="#000000" font-family="sans-serif" font-size="14" lengthAdjust="spacing" textLength="224" x="61.5" y="326.8857">Vrouwtjesdier : Dier &#171;get&#187; &#171;set&#187;</text><line style="stroke:#181818;stroke-width:0.5;" x1="42.5" x2="449.5" y1="334.1875" y2="334.1875"/><ellipse cx="52.5" cy="347.8359" fill="#84BE84" rx="3" ry="3" style="stroke:#038048;stroke-width:1.0;"/><text fill="#000000" font-family="sans-serif" font-size="14" lengthAdjust="spacing" textLength="383" x="61.5" y="351.1826">MeldHoofdverzorgerAan(verzorger:Personeelslid) : bool</text><ellipse cx="52.5" cy="364.1328" fill="#84BE84" rx="3" ry="3" style="stroke:#038048;stroke-width:1.0;"/><text fill="#000000" font-family="sans-serif" font-size="14" lengthAdjust="spacing" textLength="373" x="61.5" y="367.4795">MeldHulpverzorgerAan(verzorger:Personeelslid) : bool</text><ellipse cx="52.5" cy="380.4297" fill="#84BE84" rx="3" ry="3" style="stroke:#038048;stroke-width:1.0;"/><text fill="#000000" font-family="sans-serif" font-size="14" lengthAdjust="spacing" textLength="239" x="61.5" y="383.7764">VoegMannetjeToe(dier:Dier) : bool</text><ellipse cx="52.5" cy="396.7266" fill="#84BE84" rx="3" ry="3" style="stroke:#038048;stroke-width:1.0;"/><text fill="#000000" font-family="sans-serif" font-size="14" lengthAdjust="spacing" textLength="235" x="61.5" y="400.0732">VoegVrouwtjeToe(dier:Dier) : bool</text><ellipse cx="52.5" cy="413.0234" fill="#84BE84" rx="3" ry="3" style="stroke:#038048;stroke-width:1.0;"/><text fill="#000000" font-family="sans-serif" font-size="14" lengthAdjust="spacing" textLength="277" x="61.5" y="416.3701">DierenVoeren(moment:DateTime) : void</text><ellipse cx="52.5" cy="429.3203" fill="#84BE84" rx="3" ry="3" style="stroke:#038048;stroke-width:1.0;"/><text fill="#000000" font-family="sans-serif" font-size="14" lengthAdjust="spacing" textLength="198" x="61.5" y="432.667">&#171;override&#187; ToString() : string</text></g><!--class Dier--><g id="elem_Dier"><rect codeLine="1" fill="#F1F1F1" height="194.6719" id="Dier" rx="2.5" ry="2.5" style="stroke:#181818;stroke-width:0.5;" width="379" x="485.5" y="237"/><ellipse cx="656.75" cy="253" fill="#ADD1B2" rx="11" ry="11" style="stroke:#181818;stroke-width:1.0;"/><path d="M659.7188,258.6406 Q659.1406,258.9375 658.5,259.0781 Q657.8594,259.2344 657.1563,259.2344 Q654.6563,259.2344 653.3281,257.5938 Q652.0156,255.9375 652.0156,252.8125 Q652.0156,249.6875 653.3281,248.0313 Q654.6563,246.375 657.1563,246.375 Q657.8594,246.375 658.5,246.5313 Q659.1563,246.6875 659.7188,246.9844 L659.7188,249.7031 Q659.0938,249.125 658.5,248.8594 Q657.9063,248.5781 657.2813,248.5781 Q655.9375,248.5781 655.25,249.6563 Q654.5625,250.7188 654.5625,252.8125 Q654.5625,254.9063 655.25,255.9844 Q655.9375,257.0469 657.2813,257.0469 Q657.9063,257.0469 658.5,256.7813 Q659.0938,256.5 659.7188,255.9219 L659.7188,258.6406 Z " fill="#000000"/><text fill="#000000" font-family="sans-serif" font-size="14" lengthAdjust="spacing" textLength="28" x="677.25" y="257.8467">Dier</text><line style="stroke:#181818;stroke-width:0.5;" x1="486.5" x2="863.5" y1="269" y2="269"/><ellipse cx="496.5" cy="282.6484" fill="none" rx="3" ry="3" style="stroke:#038048;stroke-width:1.0;"/><text fill="#000000" font-family="sans-serif" font-size="14" lengthAdjust="spacing" textLength="180" x="505.5" y="285.9951">Naam : string &#171;get&#187; &#171;set&#187;</text><ellipse cx="496.5" cy="298.9453" fill="none" rx="3" ry="3" style="stroke:#038048;stroke-width:1.0;"/><text fill="#000000" font-family="sans-serif" font-size="14" lengthAdjust="spacing" textLength="205" x="505.5" y="302.292">Diersoort : string &#171;get&#187; &#171;set&#187;</text><ellipse cx="496.5" cy="315.2422" fill="none" rx="3" ry="3" style="stroke:#038048;stroke-width:1.0;"/><text fill="#000000" font-family="sans-serif" font-size="14" lengthAdjust="spacing" textLength="269" x="505.5" y="318.5889">LaatstGevoerd : DateTime &#171;get&#187; &#171;set&#187;</text><ellipse cx="496.5" cy="331.5391" fill="none" rx="3" ry="3" style="stroke:#038048;stroke-width:1.0;"/><text fill="#000000" font-family="sans-serif" font-size="14" lengthAdjust="spacing" textLength="208" x="505.5" y="334.8857">IsGevaarlijk : bool &#171;get&#187; &#171;set&#187;</text><line style="stroke:#181818;stroke-width:0.5;" x1="486.5" x2="863.5" y1="342.1875" y2="342.1875"/><ellipse cx="496.5" cy="355.8359" fill="#84BE84" rx="3" ry="3" style="stroke:#038048;stroke-width:1.0;"/><text fill="#000000" font-family="sans-serif" font-size="14" lengthAdjust="spacing" textLength="353" x="505.5" y="359.1826">Dier(naam:string, diersoort:string, isGevaarlijk:bool)</text><ellipse cx="496.5" cy="372.1328" fill="#84BE84" rx="3" ry="3" style="stroke:#038048;stroke-width:1.0;"/><text fill="#000000" font-family="sans-serif" font-size="14" lengthAdjust="spacing" textLength="198" x="505.5" y="375.4795">&#171;override&#187; ToString() : string</text><ellipse cx="496.5" cy="388.4297" fill="#84BE84" rx="3" ry="3" style="stroke:#038048;stroke-width:1.0;"/><text fill="#000000" font-family="sans-serif" font-size="14" lengthAdjust="spacing" textLength="246" x="505.5" y="391.7764">&#171;override&#187; Equals(obj:object) : bool</text><ellipse cx="496.5" cy="404.7266" fill="#84BE84" rx="3" ry="3" style="stroke:#038048;stroke-width:1.0;"/><text fill="#000000" font-family="sans-serif" font-size="14" lengthAdjust="spacing" textLength="215" x="505.5" y="408.0732">&#171;override&#187; GetHashCode() : int</text><ellipse cx="496.5" cy="421.0234" fill="#84BE84" rx="3" ry="3" style="stroke:#038048;stroke-width:1.0;"/><text fill="#000000" font-family="sans-serif" font-size="14" lengthAdjust="spacing" textLength="213" x="505.5" y="424.3701">Eten(moment:DateTime) : void</text></g><!--SRC=[KypCIyufJKbL24WjAixFIqtDASx9JD4hACtDuLA4oRbbvgJw5wGM9PPavkSLeqcwPAOMfUQLfHObvMHcfM6H10i10000]--></g></svg>