<?xml version="1.0" encoding="us-ascii" standalone="no"?><svg xmlns="http://www.w3.org/2000/svg" xmlns:xlink="http://www.w3.org/1999/xlink" contentStyleType="text/css" height="183px" preserveAspectRatio="none" style="width:496px;height:183px;background:#FFFFFF;" version="1.1" viewBox="0 0 496 183" width="496px" zoomAndPan="magnify"><defs/><g><!--class Personeelslid--><g id="elem_Personeelslid"><rect codeLine="1" fill="#F1F1F1" height="162.0781" id="Personeelslid" rx="2.5" ry="2.5" style="stroke:#181818;stroke-width:0.5;" width="475" x="7" y="7"/><ellipse cx="193.75" cy="23" fill="#ADD1B2" rx="11" ry="11" style="stroke:#181818;stroke-width:1.0;"/><path d="M196.7188,28.6406 Q196.1406,28.9375 195.5,29.0781 Q194.8594,29.2344 194.1563,29.2344 Q191.6563,29.2344 190.3281,27.5938 Q189.0156,25.9375 189.0156,22.8125 Q189.0156,19.6875 190.3281,18.0313 Q191.6563,16.375 194.1563,16.375 Q194.8594,16.375 195.5,16.5313 Q196.1563,16.6875 196.7188,16.9844 L196.7188,19.7031 Q196.0938,19.125 195.5,18.8594 Q194.9063,18.5781 194.2813,18.5781 Q192.9375,18.5781 192.25,19.6563 Q191.5625,20.7188 191.5625,22.8125 Q191.5625,24.9063 192.25,25.9844 Q192.9375,27.0469 194.2813,27.0469 Q194.9063,27.0469 195.5,26.7813 Q196.0938,26.5 196.7188,25.9219 L196.7188,28.6406 Z " fill="#000000"/><text fill="#000000" font-family="sans-serif" font-size="14" lengthAdjust="spacing" textLength="93" x="214.25" y="27.8467">Personeelslid</text><line style="stroke:#181818;stroke-width:0.5;" x1="8" x2="481" y1="39" y2="39"/><ellipse cx="18" cy="52.6484" fill="none" rx="3" ry="3" style="stroke:#038048;stroke-width:1.0;"/><text fill="#000000" font-family="sans-serif" font-size="14" lengthAdjust="spacing" textLength="226" x="27" y="55.9951">Familienaam : string &#171;get&#187; &#171;set&#187;</text><ellipse cx="18" cy="68.9453" fill="none" rx="3" ry="3" style="stroke:#038048;stroke-width:1.0;"/><text fill="#000000" font-family="sans-serif" font-size="14" lengthAdjust="spacing" textLength="211" x="27" y="72.292">Voornaam : string &#171;get&#187; &#171;set&#187;</text><ellipse cx="18" cy="85.2422" fill="none" rx="3" ry="3" style="stroke:#038048;stroke-width:1.0;"/><text fill="#000000" font-family="sans-serif" font-size="14" lengthAdjust="spacing" textLength="190" x="27" y="88.5889">IsStagair : bool &#171;get&#187; &#171;set&#187;</text><line style="stroke:#181818;stroke-width:0.5;" x1="8" x2="481" y1="95.8906" y2="95.8906"/><ellipse cx="18" cy="109.5391" fill="#84BE84" rx="3" ry="3" style="stroke:#038048;stroke-width:1.0;"/><text fill="#000000" font-family="sans-serif" font-size="14" lengthAdjust="spacing" textLength="449" x="27" y="112.8857">Personeelslid(voornaam:string, familienaam:string, isStagair:bool)</text><ellipse cx="18" cy="125.8359" fill="#84BE84" rx="3" ry="3" style="stroke:#038048;stroke-width:1.0;"/><text fill="#000000" font-family="sans-serif" font-size="14" lengthAdjust="spacing" textLength="198" x="27" y="129.1826">&#171;override&#187; ToString() : string</text><ellipse cx="18" cy="142.1328" fill="#84BE84" rx="3" ry="3" style="stroke:#038048;stroke-width:1.0;"/><text fill="#000000" font-family="sans-serif" font-size="14" lengthAdjust="spacing" textLength="246" x="27" y="145.4795">&#171;override&#187; Equals(obj:object) : bool</text><ellipse cx="18" cy="158.4297" fill="#84BE84" rx="3" ry="3" style="stroke:#038048;stroke-width:1.0;"/><text fill="#000000" font-family="sans-serif" font-size="14" lengthAdjust="spacing" textLength="215" x="27" y="161.7764">&#171;override&#187; GetHashCode() : int</text></g><!--SRC=[ZOxB2i9034Nt_OeiM_GBoj2D-De95VTf6-l8EC79s8tuxqxhM14g60WNmk7arWP5O4TEs18PCRg1Um9XPh32YpQQBE85SX3lj6r1gPPyKOIKFYDwO7R_S5ifFRQeNG0hPlC3- -gJTb6UlzHpE7wAZJVzDkUzDuiYfRWZvtH3uSUUom5Eix7c5BQytj18ojKv3qkrpsBPANXDVeDoMd13WrPRdpoU]--></g></svg>