<?xml version="1.0" encoding="us-ascii" standalone="no"?><svg xmlns="http://www.w3.org/2000/svg" xmlns:xlink="http://www.w3.org/1999/xlink" contentStyleType="text/css" height="414px" preserveAspectRatio="none" style="width:759px;height:414px;background:#FFFFFF;" version="1.1" viewBox="0 0 759 414" width="759px" zoomAndPan="magnify"><defs/><g><!--class Plc--><g id="elem_Plc"><rect codeLine="1" fill="#F1F1F1" height="243.5625" id="Plc" rx="2.5" ry="2.5" style="stroke:#181818;stroke-width:0.5;" width="508" x="7" y="7"/><ellipse cx="246.75" cy="23" fill="#ADD1B2" rx="11" ry="11" style="stroke:#181818;stroke-width:1.0;"/><path d="M249.7188,28.6406 Q249.1406,28.9375 248.5,29.0781 Q247.8594,29.2344 247.1563,29.2344 Q244.6563,29.2344 243.3281,27.5938 Q242.0156,25.9375 242.0156,22.8125 Q242.0156,19.6875 243.3281,18.0313 Q244.6563,16.375 247.1563,16.375 Q247.8594,16.375 248.5,16.5313 Q249.1563,16.6875 249.7188,16.9844 L249.7188,19.7031 Q249.0938,19.125 248.5,18.8594 Q247.9063,18.5781 247.2813,18.5781 Q245.9375,18.5781 245.25,19.6563 Q244.5625,20.7188 244.5625,22.8125 Q244.5625,24.9063 245.25,25.9844 Q245.9375,27.0469 247.2813,27.0469 Q247.9063,27.0469 248.5,26.7813 Q249.0938,26.5 249.7188,25.9219 L249.7188,28.6406 Z " fill="#000000"/><text fill="#000000" font-family="sans-serif" font-size="14" lengthAdjust="spacing" textLength="20" x="267.25" y="27.8467">Plc</text><line style="stroke:#181818;stroke-width:0.5;" x1="8" x2="514" y1="39" y2="39"/><ellipse cx="18" cy="52.6484" fill="none" rx="3" ry="3" style="stroke:#038048;stroke-width:1.0;"/><text fill="#000000" font-family="sans-serif" font-size="14" lengthAdjust="spacing" textLength="219" x="27" y="55.9951">KeukenLicht : Licht &#171;get&#187; &#171;set&#187;</text><ellipse cx="18" cy="68.9453" fill="none" rx="3" ry="3" style="stroke:#038048;stroke-width:1.0;"/><text fill="#000000" font-family="sans-serif" font-size="14" lengthAdjust="spacing" textLength="249" x="27" y="72.292">WoonkamerLicht : Licht &#171;get&#187; &#171;set&#187;</text><ellipse cx="18" cy="85.2422" fill="none" rx="3" ry="3" style="stroke:#038048;stroke-width:1.0;"/><text fill="#000000" font-family="sans-serif" font-size="14" lengthAdjust="spacing" textLength="264" x="27" y="88.5889">Verwarming : Verwarming &#171;get&#187; &#171;set&#187;</text><line style="stroke:#181818;stroke-width:0.5;" x1="8" x2="514" y1="95.8906" y2="95.8906"/><ellipse cx="18" cy="109.5391" fill="#84BE84" rx="3" ry="3" style="stroke:#038048;stroke-width:1.0;"/><text fill="#000000" font-family="sans-serif" font-size="14" lengthAdjust="spacing" textLength="191" x="27" y="112.8857">DoeKeukenLichtAan() : void</text><ellipse cx="18" cy="125.8359" fill="#84BE84" rx="3" ry="3" style="stroke:#038048;stroke-width:1.0;"/><text fill="#000000" font-family="sans-serif" font-size="14" lengthAdjust="spacing" textLength="183" x="27" y="129.1826">DoeKeukenLichtUit() : void</text><ellipse cx="18" cy="142.1328" fill="#84BE84" rx="3" ry="3" style="stroke:#038048;stroke-width:1.0;"/><text fill="#000000" font-family="sans-serif" font-size="14" lengthAdjust="spacing" textLength="221" x="27" y="145.4795">DoeWoonkamerLichtAan() : void</text><ellipse cx="18" cy="158.4297" fill="#84BE84" rx="3" ry="3" style="stroke:#038048;stroke-width:1.0;"/><text fill="#000000" font-family="sans-serif" font-size="14" lengthAdjust="spacing" textLength="213" x="27" y="161.7764">DoeWoonkamerLichtUit() : void</text><ellipse cx="18" cy="174.7266" fill="#84BE84" rx="3" ry="3" style="stroke:#038048;stroke-width:1.0;"/><text fill="#000000" font-family="sans-serif" font-size="14" lengthAdjust="spacing" textLength="182" x="27" y="178.0732">ZetVerwarmingAan() : void</text><ellipse cx="18" cy="191.0234" fill="#84BE84" rx="3" ry="3" style="stroke:#038048;stroke-width:1.0;"/><text fill="#000000" font-family="sans-serif" font-size="14" lengthAdjust="spacing" textLength="174" x="27" y="194.3701">ZetVerwarmingUit() : void</text><ellipse cx="18" cy="207.3203" fill="#84BE84" rx="3" ry="3" style="stroke:#038048;stroke-width:1.0;"/><text fill="#000000" font-family="sans-serif" font-size="14" lengthAdjust="spacing" textLength="331" x="27" y="210.667">PasTemperatuurAan(temperatuur:double) : void</text><ellipse cx="18" cy="223.6172" fill="#84BE84" rx="3" ry="3" style="stroke:#038048;stroke-width:1.0;"/><text fill="#000000" font-family="sans-serif" font-size="14" lengthAdjust="spacing" textLength="482" x="27" y="226.9639">Plc(keukenLicht:Licht, woonkamerLicht:Licht, verwarming:Verwarming)</text><ellipse cx="18" cy="239.9141" fill="#84BE84" rx="3" ry="3" style="stroke:#038048;stroke-width:1.0;"/><text fill="#000000" font-family="sans-serif" font-size="14" lengthAdjust="spacing" textLength="198" x="27" y="243.2607">&#171;override&#187; ToString() : string</text></g><!--class Licht--><g id="elem_Licht"><rect codeLine="1" fill="#F1F1F1" height="64.2969" id="Licht" rx="2.5" ry="2.5" style="stroke:#181818;stroke-width:0.5;" width="202" x="550" y="97"/><ellipse cx="630.75" cy="113" fill="#ADD1B2" rx="11" ry="11" style="stroke:#181818;stroke-width:1.0;"/><path d="M633.7188,118.6406 Q633.1406,118.9375 632.5,119.0781 Q631.8594,119.2344 631.1563,119.2344 Q628.6563,119.2344 627.3281,117.5938 Q626.0156,115.9375 626.0156,112.8125 Q626.0156,109.6875 627.3281,108.0313 Q628.6563,106.375 631.1563,106.375 Q631.8594,106.375 632.5,106.5313 Q633.1563,106.6875 633.7188,106.9844 L633.7188,109.7031 Q633.0938,109.125 632.5,108.8594 Q631.9063,108.5781 631.2813,108.5781 Q629.9375,108.5781 629.25,109.6563 Q628.5625,110.7188 628.5625,112.8125 Q628.5625,114.9063 629.25,115.9844 Q629.9375,117.0469 631.2813,117.0469 Q631.9063,117.0469 632.5,116.7813 Q633.0938,116.5 633.7188,115.9219 L633.7188,118.6406 Z " fill="#000000"/><text fill="#000000" font-family="sans-serif" font-size="14" lengthAdjust="spacing" textLength="32" x="651.25" y="117.8467">Licht</text><line style="stroke:#181818;stroke-width:0.5;" x1="551" x2="751" y1="129" y2="129"/><ellipse cx="561" cy="142.6484" fill="none" rx="3" ry="3" style="stroke:#038048;stroke-width:1.0;"/><text fill="#000000" font-family="sans-serif" font-size="14" lengthAdjust="spacing" textLength="176" x="570" y="145.9951">AanUit : bool &#171;get&#187; &#171;set&#187;</text><line style="stroke:#181818;stroke-width:0.5;" x1="551" x2="751" y1="153.2969" y2="153.2969"/></g><!--class Verwarming--><g id="elem_Verwarming"><rect codeLine="1" fill="#F1F1F1" height="96.8906" id="Verwarming" rx="2.5" ry="2.5" style="stroke:#181818;stroke-width:0.5;" width="227" x="147.5" y="311"/><ellipse cx="216.25" cy="327" fill="#ADD1B2" rx="11" ry="11" style="stroke:#181818;stroke-width:1.0;"/><path d="M219.2188,332.6406 Q218.6406,332.9375 218,333.0781 Q217.3594,333.2344 216.6563,333.2344 Q214.1563,333.2344 212.8281,331.5938 Q211.5156,329.9375 211.5156,326.8125 Q211.5156,323.6875 212.8281,322.0313 Q214.1563,320.375 216.6563,320.375 Q217.3594,320.375 218,320.5313 Q218.6563,320.6875 219.2188,320.9844 L219.2188,323.7031 Q218.5938,323.125 218,322.8594 Q217.4063,322.5781 216.7813,322.5781 Q215.4375,322.5781 214.75,323.6563 Q214.0625,324.7188 214.0625,326.8125 Q214.0625,328.9063 214.75,329.9844 Q215.4375,331.0469 216.7813,331.0469 Q217.4063,331.0469 218,330.7813 Q218.5938,330.5 219.2188,329.9219 L219.2188,332.6406 Z " fill="#000000"/><text fill="#000000" font-family="sans-serif" font-size="14" lengthAdjust="spacing" textLength="81" x="236.75" y="331.8467">Verwarming</text><line style="stroke:#181818;stroke-width:0.5;" x1="148.5" x2="373.5" y1="343" y2="343"/><ellipse cx="158.5" cy="356.6484" fill="none" rx="3" ry="3" style="stroke:#038048;stroke-width:1.0;"/><text fill="#000000" font-family="sans-serif" font-size="14" lengthAdjust="spacing" textLength="201" x="167.5" y="359.9951">Graden : double &#171;get&#187; &#171;set&#187;</text><ellipse cx="158.5" cy="372.9453" fill="none" rx="3" ry="3" style="stroke:#038048;stroke-width:1.0;"/><text fill="#000000" font-family="sans-serif" font-size="14" lengthAdjust="spacing" textLength="176" x="167.5" y="376.292">AanUit : bool &#171;get&#187; &#171;set&#187;</text><line style="stroke:#181818;stroke-width:0.5;" x1="148.5" x2="373.5" y1="383.5938" y2="383.5938"/><ellipse cx="158.5" cy="397.2422" fill="#84BE84" rx="3" ry="3" style="stroke:#038048;stroke-width:1.0;"/><text fill="#000000" font-family="sans-serif" font-size="14" lengthAdjust="spacing" textLength="91" x="167.5" y="400.5889">Verwarming()</text></g><!--SRC=[KypCIyufJKbL2CX9rYiepStXKeI9-6GcPvIWYOMb5fKd5kLcvgM39G00]--></g></svg>