<?xml version="1.0" encoding="us-ascii" standalone="no"?><svg xmlns="http://www.w3.org/2000/svg" xmlns:xlink="http://www.w3.org/1999/xlink" contentStyleType="text/css" height="117px" preserveAspectRatio="none" style="width:248px;height:117px;background:#FFFFFF;" version="1.1" viewBox="0 0 248 117" width="248px" zoomAndPan="magnify"><defs/><g><!--class Verwarming--><g id="elem_Verwarming"><rect codeLine="1" fill="#F1F1F1" height="96.8906" id="Verwarming" rx="2.5" ry="2.5" style="stroke:#181818;stroke-width:0.5;" width="227" x="7" y="7"/><ellipse cx="75.75" cy="23" fill="#ADD1B2" rx="11" ry="11" style="stroke:#181818;stroke-width:1.0;"/><path d="M78.7188,28.6406 Q78.1406,28.9375 77.5,29.0781 Q76.8594,29.2344 76.1563,29.2344 Q73.6563,29.2344 72.3281,27.5938 Q71.0156,25.9375 71.0156,22.8125 Q71.0156,19.6875 72.3281,18.0313 Q73.6563,16.375 76.1563,16.375 Q76.8594,16.375 77.5,16.5313 Q78.1563,16.6875 78.7188,16.9844 L78.7188,19.7031 Q78.0938,19.125 77.5,18.8594 Q76.9063,18.5781 76.2813,18.5781 Q74.9375,18.5781 74.25,19.6563 Q73.5625,20.7188 73.5625,22.8125 Q73.5625,24.9063 74.25,25.9844 Q74.9375,27.0469 76.2813,27.0469 Q76.9063,27.0469 77.5,26.7813 Q78.0938,26.5 78.7188,25.9219 L78.7188,28.6406 Z " fill="#000000"/><text fill="#000000" font-family="sans-serif" font-size="14" lengthAdjust="spacing" textLength="81" x="96.25" y="27.8467">Verwarming</text><line style="stroke:#181818;stroke-width:0.5;" x1="8" x2="233" y1="39" y2="39"/><ellipse cx="18" cy="52.6484" fill="none" rx="3" ry="3" style="stroke:#038048;stroke-width:1.0;"/><text fill="#000000" font-family="sans-serif" font-size="14" lengthAdjust="spacing" textLength="201" x="27" y="55.9951">Graden : double &#171;get&#187; &#171;set&#187;</text><ellipse cx="18" cy="68.9453" fill="none" rx="3" ry="3" style="stroke:#038048;stroke-width:1.0;"/><text fill="#000000" font-family="sans-serif" font-size="14" lengthAdjust="spacing" textLength="176" x="27" y="72.292">AanUit : bool &#171;get&#187; &#171;set&#187;</text><line style="stroke:#181818;stroke-width:0.5;" x1="8" x2="233" y1="79.5938" y2="79.5938"/><ellipse cx="18" cy="93.2422" fill="#84BE84" rx="3" ry="3" style="stroke:#038048;stroke-width:1.0;"/><text fill="#000000" font-family="sans-serif" font-size="14" lengthAdjust="spacing" textLength="91" x="27" y="96.5889">Verwarming()</text></g><!--SRC=[Iyv9B2vM24ijAayioitCIrUevb800cq5zwB4bDGy1Ik5bFpIf9nK1HkRzDGIEpiWNGoYeQeS4_D2Cqk0gfBoytDmg44Ohg79LGi0]--></g></svg>