<?xml version="1.0" encoding="us-ascii" standalone="no"?><svg xmlns="http://www.w3.org/2000/svg" xmlns:xlink="http://www.w3.org/1999/xlink" contentStyleType="text/css" height="183px" preserveAspectRatio="none" style="width:565px;height:183px;background:#FFFFFF;" version="1.1" viewBox="0 0 565 183" width="565px" zoomAndPan="magnify"><defs/><g><!--class Meting--><g id="elem_Meting"><rect codeLine="1" fill="#F1F1F1" height="162.0781" id="Meting" rx="2.5" ry="2.5" style="stroke:#181818;stroke-width:0.5;" width="544" x="7" y="7"/><ellipse cx="251.25" cy="23" fill="#ADD1B2" rx="11" ry="11" style="stroke:#181818;stroke-width:1.0;"/><path d="M254.2188,28.6406 Q253.6406,28.9375 253,29.0781 Q252.3594,29.2344 251.6563,29.2344 Q249.1563,29.2344 247.8281,27.5938 Q246.5156,25.9375 246.5156,22.8125 Q246.5156,19.6875 247.8281,18.0313 Q249.1563,16.375 251.6563,16.375 Q252.3594,16.375 253,16.5313 Q253.6563,16.6875 254.2188,16.9844 L254.2188,19.7031 Q253.5938,19.125 253,18.8594 Q252.4063,18.5781 251.7813,18.5781 Q250.4375,18.5781 249.75,19.6563 Q249.0625,20.7188 249.0625,22.8125 Q249.0625,24.9063 249.75,25.9844 Q250.4375,27.0469 251.7813,27.0469 Q252.4063,27.0469 253,26.7813 Q253.5938,26.5 254.2188,25.9219 L254.2188,28.6406 Z " fill="#000000"/><text fill="#000000" font-family="sans-serif" font-size="14" lengthAdjust="spacing" textLength="47" x="271.75" y="27.8467">Meting</text><line style="stroke:#181818;stroke-width:0.5;" x1="8" x2="550" y1="39" y2="39"/><ellipse cx="18" cy="52.6484" fill="none" rx="3" ry="3" style="stroke:#038048;stroke-width:1.0;"/><text fill="#000000" font-family="sans-serif" font-size="14" lengthAdjust="spacing" textLength="218" x="27" y="55.9951">Tijdstip : DateTime &#171;get&#187; &#171;set&#187;</text><ellipse cx="18" cy="68.9453" fill="none" rx="3" ry="3" style="stroke:#038048;stroke-width:1.0;"/><text fill="#000000" font-family="sans-serif" font-size="14" lengthAdjust="spacing" textLength="275" x="27" y="72.292">GradenFahrenheit : double &#171;get&#187; &#171;set&#187;</text><ellipse cx="18" cy="85.2422" fill="none" rx="3" ry="3" style="stroke:#038048;stroke-width:1.0;"/><text fill="#000000" font-family="sans-serif" font-size="14" lengthAdjust="spacing" textLength="251" x="27" y="88.5889">GradenCelsius : double &#171;get&#187; &#171;set&#187;</text><line style="stroke:#181818;stroke-width:0.5;" x1="8" x2="550" y1="95.8906" y2="95.8906"/><ellipse cx="18" cy="109.5391" fill="#84BE84" rx="3" ry="3" style="stroke:#038048;stroke-width:1.0;"/><text fill="#000000" font-family="sans-serif" font-size="14" lengthAdjust="spacing" textLength="209" x="27" y="112.8857">Meting(gradenCelsius:double)</text><ellipse cx="18" cy="125.8359" fill="#84BE84" rx="3" ry="3" style="stroke:#038048;stroke-width:1.0;"/><text fill="#000000" font-family="sans-serif" font-size="14" lengthAdjust="spacing" textLength="334" x="27" y="129.1826">Meting(tijdstip:DateTime, gradenCelsius:double)</text><ellipse cx="18" cy="142.1328" fill="#84BE84" rx="3" ry="3" style="stroke:#038048;stroke-width:1.0;"/><text fill="#000000" font-family="sans-serif" font-size="14" lengthAdjust="spacing" textLength="518" x="27" y="145.4795">Meting(tijdstip:DateTime, gradenFahrenheit:double, gradenCelsius:double)</text><ellipse cx="18" cy="158.4297" fill="#84BE84" rx="3" ry="3" style="stroke:#038048;stroke-width:1.0;"/><text fill="#000000" font-family="sans-serif" font-size="14" lengthAdjust="spacing" textLength="169" x="27" y="161.7764">ToonGegevens() : string</text></g><!--SRC=[fOyn3i8m34Ntdi9ZApX1L7K1qOaj5mYDbHg51CKk2-Bk3MeGi9G1Btzvx-jxy8OPZYWK7DmhoBS1JMVBGbTGi3U2cYu8RUjGkYudFxEGVJ8Mmy6C2SE89DcmSJhvTNw7dcdYN_2ogdQVZbgCvXkHCbYzvcxX7-lzJn7NwtICeKU7DmnSD_ahbfJxgySC]--></g></svg>