<?xml version="1.0" encoding="us-ascii" standalone="no"?><svg xmlns="http://www.w3.org/2000/svg" xmlns:xlink="http://www.w3.org/1999/xlink" contentStyleType="text/css" height="101px" preserveAspectRatio="none" style="width:503px;height:101px;background:#FFFFFF;" version="1.1" viewBox="0 0 503 101" width="503px" zoomAndPan="magnify"><defs/><g><!--class TemperatuurConversies--><g id="elem_TemperatuurConversies"><rect codeLine="1" fill="#F1F1F1" height="80.5938" id="TemperatuurConversies" rx="2.5" ry="2.5" style="stroke:#181818;stroke-width:0.5;" width="482" x="7" y="7"/><ellipse cx="160.25" cy="23" fill="#ADD1B2" rx="11" ry="11" style="stroke:#181818;stroke-width:1.0;"/><path d="M163.2188,28.6406 Q162.6406,28.9375 162,29.0781 Q161.3594,29.2344 160.6563,29.2344 Q158.1563,29.2344 156.8281,27.5938 Q155.5156,25.9375 155.5156,22.8125 Q155.5156,19.6875 156.8281,18.0313 Q158.1563,16.375 160.6563,16.375 Q161.3594,16.375 162,16.5313 Q162.6563,16.6875 163.2188,16.9844 L163.2188,19.7031 Q162.5938,19.125 162,18.8594 Q161.4063,18.5781 160.7813,18.5781 Q159.4375,18.5781 158.75,19.6563 Q158.0625,20.7188 158.0625,22.8125 Q158.0625,24.9063 158.75,25.9844 Q159.4375,27.0469 160.7813,27.0469 Q161.4063,27.0469 162,26.7813 Q162.5938,26.5 163.2188,25.9219 L163.2188,28.6406 Z " fill="#000000"/><text fill="#000000" font-family="sans-serif" font-size="14" lengthAdjust="spacing" textLength="167" x="180.75" y="27.8467">TemperatuurConversies</text><line style="stroke:#181818;stroke-width:0.5;" x1="8" x2="488" y1="39" y2="39"/><line style="stroke:#181818;stroke-width:0.5;" x1="8" x2="488" y1="47" y2="47"/><ellipse cx="18" cy="60.6484" fill="#84BE84" rx="3" ry="3" style="stroke:#038048;stroke-width:1.0;"/><text fill="#000000" font-family="sans-serif" font-size="14" lengthAdjust="spacing" text-decoration="underline" textLength="456" x="27" y="63.9951">ConverteerNaarGradenCelsius(gradenFahrenheit:double) : double</text><ellipse cx="18" cy="76.9453" fill="#84BE84" rx="3" ry="3" style="stroke:#038048;stroke-width:1.0;"/><text fill="#000000" font-family="sans-serif" font-size="14" lengthAdjust="spacing" text-decoration="underline" textLength="456" x="27" y="80.292">ConverteerNaarGradenFahrenheit(gradenCelsius:double) : double</text></g><!--SRC=[Iyv9B2vM24dDBKWjIYmfBIropiyhIoqgpamjLgZcKW02RONgufB4aipaMWM8N4bgQf5VOcAHUr5YIcgUSsfESMPfiKOwcEUMc56KcfUHcbbYbP9VcfIJggbWfG1X4MCOGZlKFAZfc8RL0W00]--></g></svg>