<?xml version="1.0" encoding="us-ascii" standalone="no"?><svg xmlns="http://www.w3.org/2000/svg" xmlns:xlink="http://www.w3.org/1999/xlink" contentStyleType="text/css" height="183px" preserveAspectRatio="none" style="width:200px;height:183px;background:#FFFFFF;" version="1.1" viewBox="0 0 200 183" width="200px" zoomAndPan="magnify"><defs/><g><!--class Vierkant--><g id="elem_Vierkant"><rect codeLine="1" fill="#F1F1F1" height="162.0781" id="Vierkant" rx="2.5" ry="2.5" style="stroke:#181818;stroke-width:0.5;" width="179" x="7" y="7"/><ellipse cx="64.25" cy="23" fill="#ADD1B2" rx="11" ry="11" style="stroke:#181818;stroke-width:1.0;"/><path d="M67.2188,28.6406 Q66.6406,28.9375 66,29.0781 Q65.3594,29.2344 64.6563,29.2344 Q62.1563,29.2344 60.8281,27.5938 Q59.5156,25.9375 59.5156,22.8125 Q59.5156,19.6875 60.8281,18.0313 Q62.1563,16.375 64.6563,16.375 Q65.3594,16.375 66,16.5313 Q66.6563,16.6875 67.2188,16.9844 L67.2188,19.7031 Q66.5938,19.125 66,18.8594 Q65.4063,18.5781 64.7813,18.5781 Q63.4375,18.5781 62.75,19.6563 Q62.0625,20.7188 62.0625,22.8125 Q62.0625,24.9063 62.75,25.9844 Q63.4375,27.0469 64.7813,27.0469 Q65.4063,27.0469 66,26.7813 Q66.5938,26.5 67.2188,25.9219 L67.2188,28.6406 Z " fill="#000000"/><text fill="#000000" font-family="sans-serif" font-size="14" lengthAdjust="spacing" textLength="56" x="84.75" y="27.8467">Vierkant</text><line style="stroke:#181818;stroke-width:0.5;" x1="8" x2="185" y1="39" y2="39"/><ellipse cx="18" cy="52.6484" fill="none" rx="3" ry="3" style="stroke:#038048;stroke-width:1.0;"/><text fill="#000000" font-family="sans-serif" font-size="14" lengthAdjust="spacing" textLength="153" x="27" y="55.9951">Zijde : int &#171;get&#187; &#171;set&#187;</text><line style="stroke:#181818;stroke-width:0.5;" x1="8" x2="185" y1="63.2969" y2="63.2969"/><ellipse cx="18" cy="76.9453" fill="#84BE84" rx="3" ry="3" style="stroke:#038048;stroke-width:1.0;"/><text fill="#000000" font-family="sans-serif" font-size="14" lengthAdjust="spacing" textLength="66" x="27" y="80.292">Vierkant()</text><ellipse cx="18" cy="93.2422" fill="#84BE84" rx="3" ry="3" style="stroke:#038048;stroke-width:1.0;"/><text fill="#000000" font-family="sans-serif" font-size="14" lengthAdjust="spacing" textLength="132" x="27" y="96.5889">Vierkant(lengte:int)</text><ellipse cx="18" cy="109.5391" fill="#84BE84" rx="3" ry="3" style="stroke:#038048;stroke-width:1.0;"/><text fill="#000000" font-family="sans-serif" font-size="14" lengthAdjust="spacing" textLength="139" x="27" y="112.8857">Diagonaal() : double</text><ellipse cx="18" cy="125.8359" fill="#84BE84" rx="3" ry="3" style="stroke:#038048;stroke-width:1.0;"/><text fill="#000000" font-family="sans-serif" font-size="14" lengthAdjust="spacing" textLength="91" x="27" y="129.1826">Omtrek() : int</text><ellipse cx="18" cy="142.1328" fill="#84BE84" rx="3" ry="3" style="stroke:#038048;stroke-width:1.0;"/><text fill="#000000" font-family="sans-serif" font-size="14" lengthAdjust="spacing" textLength="123" x="27" y="145.4795">Oppervlakte() : int</text><ellipse cx="18" cy="158.4297" fill="#84BE84" rx="3" ry="3" style="stroke:#038048;stroke-width:1.0;"/><text fill="#000000" font-family="sans-serif" font-size="14" lengthAdjust="spacing" textLength="106" x="27" y="161.7764">Teken() : string</text></g><!--SRC=[NOon3i8m34JtVeN7Lln1LNLYPq4CR8QU8fFWLebXGVmxfcgMUZdflJlV4vT25q6Eh4QVXlmET9N71Ef9d0r3W8sZP_ddrgYJjjk310s6tgTL7ON3hCofxVpdDBzk2PiwFIqZhjm75IuByZjnDEpC6H6wic9PD3JV7m00]--></g></svg>