<?xml version="1.0" encoding="us-ascii" standalone="no"?><svg xmlns="http://www.w3.org/2000/svg" xmlns:xlink="http://www.w3.org/1999/xlink" contentStyleType="text/css" height="199px" preserveAspectRatio="none" style="width:544px;height:199px;background:#FFFFFF;" version="1.1" viewBox="0 0 544 199" width="544px" zoomAndPan="magnify"><defs/><g><!--class Email--><g id="elem_Email"><rect codeLine="1" fill="#F1F1F1" height="178.375" id="Email" rx="2.5" ry="2.5" style="stroke:#181818;stroke-width:0.5;" width="523" x="7" y="7"/><ellipse cx="246.25" cy="23" fill="#ADD1B2" rx="11" ry="11" style="stroke:#181818;stroke-width:1.0;"/><path d="M249.2188,28.6406 Q248.6406,28.9375 248,29.0781 Q247.3594,29.2344 246.6563,29.2344 Q244.1563,29.2344 242.8281,27.5938 Q241.5156,25.9375 241.5156,22.8125 Q241.5156,19.6875 242.8281,18.0313 Q244.1563,16.375 246.6563,16.375 Q247.3594,16.375 248,16.5313 Q248.6563,16.6875 249.2188,16.9844 L249.2188,19.7031 Q248.5938,19.125 248,18.8594 Q247.4063,18.5781 246.7813,18.5781 Q245.4375,18.5781 244.75,19.6563 Q244.0625,20.7188 244.0625,22.8125 Q244.0625,24.9063 244.75,25.9844 Q245.4375,27.0469 246.7813,27.0469 Q247.4063,27.0469 248,26.7813 Q248.5938,26.5 249.2188,25.9219 L249.2188,28.6406 Z " fill="#000000"/><text fill="#000000" font-family="sans-serif" font-size="14" lengthAdjust="spacing" textLength="36" x="266.75" y="27.8467">Email</text><line style="stroke:#181818;stroke-width:0.5;" x1="8" x2="529" y1="39" y2="39"/><ellipse cx="18" cy="52.6484" fill="none" rx="3" ry="3" style="stroke:#038048;stroke-width:1.0;"/><text fill="#000000" font-family="sans-serif" font-size="14" lengthAdjust="spacing" textLength="232" x="27" y="55.9951">Verzender : Persoon &#171;get&#187; &#171;set&#187;</text><ellipse cx="18" cy="68.9453" fill="none" rx="3" ry="3" style="stroke:#038048;stroke-width:1.0;"/><text fill="#000000" font-family="sans-serif" font-size="14" lengthAdjust="spacing" textLength="232" x="27" y="72.292">Ontvanger : Persoon &#171;get&#187; &#171;set&#187;</text><ellipse cx="18" cy="85.2422" fill="none" rx="3" ry="3" style="stroke:#038048;stroke-width:1.0;"/><text fill="#000000" font-family="sans-serif" font-size="14" lengthAdjust="spacing" textLength="170" x="27" y="88.5889">Titel : string &#171;get&#187; &#171;set&#187;</text><ellipse cx="18" cy="101.5391" fill="none" rx="3" ry="3" style="stroke:#038048;stroke-width:1.0;"/><text fill="#000000" font-family="sans-serif" font-size="14" lengthAdjust="spacing" textLength="190" x="27" y="104.8857">Bericht : string &#171;get&#187; &#171;set&#187;</text><line style="stroke:#181818;stroke-width:0.5;" x1="8" x2="529" y1="112.1875" y2="112.1875"/><ellipse cx="18" cy="125.8359" fill="#84BE84" rx="3" ry="3" style="stroke:#038048;stroke-width:1.0;"/><text fill="#000000" font-family="sans-serif" font-size="14" lengthAdjust="spacing" textLength="497" x="27" y="129.1826">Email(verzender:Persoon, ontvanger:Persoon, titel:string, bericht:string)</text><ellipse cx="18" cy="142.1328" fill="#84BE84" rx="3" ry="3" style="stroke:#038048;stroke-width:1.0;"/><text fill="#000000" font-family="sans-serif" font-size="14" lengthAdjust="spacing" textLength="198" x="27" y="145.4795">&#171;override&#187; ToString() : string</text><ellipse cx="18" cy="158.4297" fill="#84BE84" rx="3" ry="3" style="stroke:#038048;stroke-width:1.0;"/><text fill="#000000" font-family="sans-serif" font-size="14" lengthAdjust="spacing" textLength="246" x="27" y="161.7764">&#171;override&#187; Equals(obj:object) : bool</text><ellipse cx="18" cy="174.7266" fill="#84BE84" rx="3" ry="3" style="stroke:#038048;stroke-width:1.0;"/><text fill="#000000" font-family="sans-serif" font-size="14" lengthAdjust="spacing" textLength="215" x="27" y="178.0732">&#171;override&#187; GetHashCode() : int</text></g><!--SRC=[ZOx13e8m38RlF4MF47a2id3G4Brf8l4-e86PkSQjSj3uxWuOUi5eawPf- -N__rfBvw2uIANX4O6l5PpGtj4qQ2630rf7P4285ZdF_NJ33EJUS2zD-mTPAaRjASTMcVOBj4Qhwev_OMFQk9zJPi4v1PhZV4uy-6QJN0hLP13s9EW9GLxCgWQzLKd7yHadxnXBM76zIUrYgiwPRwnvm2iYlGHlaNVITHjgS9HLXgFd2m00]--></g></svg>