<?xml version="1.0" encoding="us-ascii" standalone="no"?><svg xmlns="http://www.w3.org/2000/svg" xmlns:xlink="http://www.w3.org/1999/xlink" contentStyleType="text/css" height="93px" preserveAspectRatio="none" style="width:280px;height:93px;background:#FFFFFF;" version="1.1" viewBox="0 0 280 93" width="280px" zoomAndPan="magnify"><defs/><g><!--class FileOperations--><g id="elem_FileOperations"><rect codeLine="1" fill="#F1F1F1" height="72.5625" id="FileOperations" rx="2.5" ry="2.5" style="stroke:#181818;stroke-width:0.5;" width="259" x="7" y="7"/><ellipse cx="82.75" cy="27.1328" fill="#ADD1B2" rx="11" ry="11" style="stroke:#181818;stroke-width:1.0;"/><path d="M85.7188,32.7734 Q85.1406,33.0703 84.5,33.2109 Q83.8594,33.3672 83.1563,33.3672 Q80.6563,33.3672 79.3281,31.7266 Q78.0156,30.0703 78.0156,26.9453 Q78.0156,23.8203 79.3281,22.1641 Q80.6563,20.5078 83.1563,20.5078 Q83.8594,20.5078 84.5,20.6641 Q85.1563,20.8203 85.7188,21.1172 L85.7188,23.8359 Q85.0938,23.2578 84.5,22.9922 Q83.9063,22.7109 83.2813,22.7109 Q81.9375,22.7109 81.25,23.7891 Q80.5625,24.8516 80.5625,26.9453 Q80.5625,29.0391 81.25,30.1172 Q81.9375,31.1797 83.2813,31.1797 Q83.9063,31.1797 84.5,30.9141 Q85.0938,30.6328 85.7188,30.0547 L85.7188,32.7734 Z " fill="#000000"/><text fill="#000000" font-family="sans-serif" font-size="12" font-style="italic" lengthAdjust="spacing" textLength="48" x="128.75" y="23.1387">&#171;static&#187;</text><text fill="#000000" font-family="sans-serif" font-size="14" lengthAdjust="spacing" textLength="99" x="103.25" y="38.9639">FileOperations</text><line style="stroke:#181818;stroke-width:0.5;" x1="8" x2="265" y1="47.2656" y2="47.2656"/><line style="stroke:#181818;stroke-width:0.5;" x1="8" x2="265" y1="55.2656" y2="55.2656"/><ellipse cx="18" cy="68.9141" fill="#84BE84" rx="3" ry="3" style="stroke:#038048;stroke-width:1.0;"/><text fill="#000000" font-family="sans-serif" font-size="14" lengthAdjust="spacing" text-decoration="underline" textLength="233" x="27" y="72.2607">LeesContacten() : List&lt;Persoon&gt;</text></g><!--SRC=[Iyv9B2vMSClCIVKlI2rABCdCpojMiB4fBW4oa-ti5Agv5810Mw4Q8bAhu9EQMkoSdrUIc5oIcgUXgM2bu9DPN68Ja5fKd9-VPyTL2m00]--></g></svg>