<?xml version="1.0" encoding="us-ascii" standalone="no"?><svg xmlns="http://www.w3.org/2000/svg" xmlns:xlink="http://www.w3.org/1999/xlink" contentStyleType="text/css" height="324px" preserveAspectRatio="none" style="width:999px;height:324px;background:#FFFFFF;" version="1.1" viewBox="0 0 999 324" width="999px" zoomAndPan="magnify"><defs/><g><!--class Persoon--><g id="elem_Persoon"><rect codeLine="1" fill="#F1F1F1" height="162.0781" id="Persoon" rx="2.5" ry="2.5" style="stroke:#181818;stroke-width:0.5;" width="427" x="7" y="15"/><ellipse cx="187.25" cy="31" fill="#ADD1B2" rx="11" ry="11" style="stroke:#181818;stroke-width:1.0;"/><path d="M190.2188,36.6406 Q189.6406,36.9375 189,37.0781 Q188.3594,37.2344 187.6563,37.2344 Q185.1563,37.2344 183.8281,35.5938 Q182.5156,33.9375 182.5156,30.8125 Q182.5156,27.6875 183.8281,26.0313 Q185.1563,24.375 187.6563,24.375 Q188.3594,24.375 189,24.5313 Q189.6563,24.6875 190.2188,24.9844 L190.2188,27.7031 Q189.5938,27.125 189,26.8594 Q188.4063,26.5781 187.7813,26.5781 Q186.4375,26.5781 185.75,27.6563 Q185.0625,28.7188 185.0625,30.8125 Q185.0625,32.9063 185.75,33.9844 Q186.4375,35.0469 187.7813,35.0469 Q188.4063,35.0469 189,34.7813 Q189.5938,34.5 190.2188,33.9219 L190.2188,36.6406 Z " fill="#000000"/><text fill="#000000" font-family="sans-serif" font-size="14" lengthAdjust="spacing" textLength="58" x="207.75" y="35.8467">Persoon</text><line style="stroke:#181818;stroke-width:0.5;" x1="8" x2="433" y1="47" y2="47"/><ellipse cx="18" cy="60.6484" fill="none" rx="3" ry="3" style="stroke:#038048;stroke-width:1.0;"/><text fill="#000000" font-family="sans-serif" font-size="14" lengthAdjust="spacing" textLength="211" x="27" y="63.9951">Voornaam : string &#171;get&#187; &#171;set&#187;</text><ellipse cx="18" cy="76.9453" fill="none" rx="3" ry="3" style="stroke:#038048;stroke-width:1.0;"/><text fill="#000000" font-family="sans-serif" font-size="14" lengthAdjust="spacing" textLength="226" x="27" y="80.292">Familienaam : string &#171;get&#187; &#171;set&#187;</text><ellipse cx="18" cy="93.2422" fill="none" rx="3" ry="3" style="stroke:#038048;stroke-width:1.0;"/><text fill="#000000" font-family="sans-serif" font-size="14" lengthAdjust="spacing" textLength="177" x="27" y="96.5889">Email : string &#171;get&#187; &#171;set&#187;</text><line style="stroke:#181818;stroke-width:0.5;" x1="8" x2="433" y1="103.8906" y2="103.8906"/><ellipse cx="18" cy="117.5391" fill="#84BE84" rx="3" ry="3" style="stroke:#038048;stroke-width:1.0;"/><text fill="#000000" font-family="sans-serif" font-size="14" lengthAdjust="spacing" textLength="401" x="27" y="120.8857">Persoon(voornaam:string, familienaam:string, email:string)</text><ellipse cx="18" cy="133.8359" fill="#84BE84" rx="3" ry="3" style="stroke:#038048;stroke-width:1.0;"/><text fill="#000000" font-family="sans-serif" font-size="14" lengthAdjust="spacing" textLength="198" x="27" y="137.1826">&#171;override&#187; ToString() : string</text><ellipse cx="18" cy="150.1328" fill="#84BE84" rx="3" ry="3" style="stroke:#038048;stroke-width:1.0;"/><text fill="#000000" font-family="sans-serif" font-size="14" lengthAdjust="spacing" textLength="246" x="27" y="153.4795">&#171;override&#187; Equals(obj:object) : bool</text><ellipse cx="18" cy="166.4297" fill="#84BE84" rx="3" ry="3" style="stroke:#038048;stroke-width:1.0;"/><text fill="#000000" font-family="sans-serif" font-size="14" lengthAdjust="spacing" textLength="215" x="27" y="169.7764">&#171;override&#187; GetHashCode() : int</text></g><!--class Email--><g id="elem_Email"><rect codeLine="1" fill="#F1F1F1" height="178.375" id="Email" rx="2.5" ry="2.5" style="stroke:#181818;stroke-width:0.5;" width="523" x="469" y="7"/><ellipse cx="708.25" cy="23" fill="#ADD1B2" rx="11" ry="11" style="stroke:#181818;stroke-width:1.0;"/><path d="M711.2188,28.6406 Q710.6406,28.9375 710,29.0781 Q709.3594,29.2344 708.6563,29.2344 Q706.1563,29.2344 704.8281,27.5938 Q703.5156,25.9375 703.5156,22.8125 Q703.5156,19.6875 704.8281,18.0313 Q706.1563,16.375 708.6563,16.375 Q709.3594,16.375 710,16.5313 Q710.6563,16.6875 711.2188,16.9844 L711.2188,19.7031 Q710.5938,19.125 710,18.8594 Q709.4063,18.5781 708.7813,18.5781 Q707.4375,18.5781 706.75,19.6563 Q706.0625,20.7188 706.0625,22.8125 Q706.0625,24.9063 706.75,25.9844 Q707.4375,27.0469 708.7813,27.0469 Q709.4063,27.0469 710,26.7813 Q710.5938,26.5 711.2188,25.9219 L711.2188,28.6406 Z " fill="#000000"/><text fill="#000000" font-family="sans-serif" font-size="14" lengthAdjust="spacing" textLength="36" x="728.75" y="27.8467">Email</text><line style="stroke:#181818;stroke-width:0.5;" x1="470" x2="991" y1="39" y2="39"/><ellipse cx="480" cy="52.6484" fill="none" rx="3" ry="3" style="stroke:#038048;stroke-width:1.0;"/><text fill="#000000" font-family="sans-serif" font-size="14" lengthAdjust="spacing" textLength="232" x="489" y="55.9951">Verzender : Persoon &#171;get&#187; &#171;set&#187;</text><ellipse cx="480" cy="68.9453" fill="none" rx="3" ry="3" style="stroke:#038048;stroke-width:1.0;"/><text fill="#000000" font-family="sans-serif" font-size="14" lengthAdjust="spacing" textLength="232" x="489" y="72.292">Ontvanger : Persoon &#171;get&#187; &#171;set&#187;</text><ellipse cx="480" cy="85.2422" fill="none" rx="3" ry="3" style="stroke:#038048;stroke-width:1.0;"/><text fill="#000000" font-family="sans-serif" font-size="14" lengthAdjust="spacing" textLength="170" x="489" y="88.5889">Titel : string &#171;get&#187; &#171;set&#187;</text><ellipse cx="480" cy="101.5391" fill="none" rx="3" ry="3" style="stroke:#038048;stroke-width:1.0;"/><text fill="#000000" font-family="sans-serif" font-size="14" lengthAdjust="spacing" textLength="190" x="489" y="104.8857">Bericht : string &#171;get&#187; &#171;set&#187;</text><line style="stroke:#181818;stroke-width:0.5;" x1="470" x2="991" y1="112.1875" y2="112.1875"/><ellipse cx="480" cy="125.8359" fill="#84BE84" rx="3" ry="3" style="stroke:#038048;stroke-width:1.0;"/><text fill="#000000" font-family="sans-serif" font-size="14" lengthAdjust="spacing" textLength="497" x="489" y="129.1826">Email(verzender:Persoon, ontvanger:Persoon, titel:string, bericht:string)</text><ellipse cx="480" cy="142.1328" fill="#84BE84" rx="3" ry="3" style="stroke:#038048;stroke-width:1.0;"/><text fill="#000000" font-family="sans-serif" font-size="14" lengthAdjust="spacing" textLength="198" x="489" y="145.4795">&#171;override&#187; ToString() : string</text><ellipse cx="480" cy="158.4297" fill="#84BE84" rx="3" ry="3" style="stroke:#038048;stroke-width:1.0;"/><text fill="#000000" font-family="sans-serif" font-size="14" lengthAdjust="spacing" textLength="246" x="489" y="161.7764">&#171;override&#187; Equals(obj:object) : bool</text><ellipse cx="480" cy="174.7266" fill="#84BE84" rx="3" ry="3" style="stroke:#038048;stroke-width:1.0;"/><text fill="#000000" font-family="sans-serif" font-size="14" lengthAdjust="spacing" textLength="215" x="489" y="178.0732">&#171;override&#187; GetHashCode() : int</text></g><!--class FileOperations--><g id="elem_FileOperations"><rect codeLine="1" fill="#F1F1F1" height="72.5625" id="FileOperations" rx="2.5" ry="2.5" style="stroke:#181818;stroke-width:0.5;" width="259" x="91" y="245"/><ellipse cx="166.75" cy="265.1328" fill="#ADD1B2" rx="11" ry="11" style="stroke:#181818;stroke-width:1.0;"/><path d="M169.7188,270.7734 Q169.1406,271.0703 168.5,271.2109 Q167.8594,271.3672 167.1563,271.3672 Q164.6563,271.3672 163.3281,269.7266 Q162.0156,268.0703 162.0156,264.9453 Q162.0156,261.8203 163.3281,260.1641 Q164.6563,258.5078 167.1563,258.5078 Q167.8594,258.5078 168.5,258.6641 Q169.1563,258.8203 169.7188,259.1172 L169.7188,261.8359 Q169.0938,261.2578 168.5,260.9922 Q167.9063,260.7109 167.2813,260.7109 Q165.9375,260.7109 165.25,261.7891 Q164.5625,262.8516 164.5625,264.9453 Q164.5625,267.0391 165.25,268.1172 Q165.9375,269.1797 167.2813,269.1797 Q167.9063,269.1797 168.5,268.9141 Q169.0938,268.6328 169.7188,268.0547 L169.7188,270.7734 Z " fill="#000000"/><text fill="#000000" font-family="sans-serif" font-size="12" font-style="italic" lengthAdjust="spacing" textLength="48" x="212.75" y="261.1387">&#171;static&#187;</text><text fill="#000000" font-family="sans-serif" font-size="14" lengthAdjust="spacing" textLength="99" x="187.25" y="276.9639">FileOperations</text><line style="stroke:#181818;stroke-width:0.5;" x1="92" x2="349" y1="285.2656" y2="285.2656"/><line style="stroke:#181818;stroke-width:0.5;" x1="92" x2="349" y1="293.2656" y2="293.2656"/><ellipse cx="102" cy="306.9141" fill="#84BE84" rx="3" ry="3" style="stroke:#038048;stroke-width:1.0;"/><text fill="#000000" font-family="sans-serif" font-size="14" lengthAdjust="spacing" text-decoration="underline" textLength="233" x="111" y="310.2607">LeesContacten() : List&lt;Persoon&gt;</text></g><!--SRC=[KypCIyufJKbL24WjAixFpzChACtDuLA4YRhc9cRce8cvPUQa-XUa5YMMPERd5OCb0G00]--></g></svg>