<?xml version="1.0" encoding="us-ascii" standalone="no"?><svg xmlns="http://www.w3.org/2000/svg" xmlns:xlink="http://www.w3.org/1999/xlink" contentStyleType="text/css" height="202px" preserveAspectRatio="none" style="width:662px;height:202px;background:#FFFFFF;" version="1.1" viewBox="0 0 662 202" width="662px" zoomAndPan="magnify"><defs/><g><!--class Audi--><g id="elem_Audi"><rect codeLine="1" fill="#F1F1F1" height="80.5938" id="Audi" rx="2.5" ry="2.5" style="stroke:#181818;stroke-width:0.5;" width="648" x="7" y="115"/><ellipse cx="311.75" cy="131" fill="#ADD1B2" rx="11" ry="11" style="stroke:#181818;stroke-width:1.0;"/><path d="M314.7188,136.6406 Q314.1406,136.9375 313.5,137.0781 Q312.8594,137.2344 312.1563,137.2344 Q309.6563,137.2344 308.3281,135.5938 Q307.0156,133.9375 307.0156,130.8125 Q307.0156,127.6875 308.3281,126.0313 Q309.6563,124.375 312.1563,124.375 Q312.8594,124.375 313.5,124.5313 Q314.1563,124.6875 314.7188,124.9844 L314.7188,127.7031 Q314.0938,127.125 313.5,126.8594 Q312.9063,126.5781 312.2813,126.5781 Q310.9375,126.5781 310.25,127.6563 Q309.5625,128.7188 309.5625,130.8125 Q309.5625,132.9063 310.25,133.9844 Q310.9375,135.0469 312.2813,135.0469 Q312.9063,135.0469 313.5,134.7813 Q314.0938,134.5 314.7188,133.9219 L314.7188,136.6406 Z " fill="#000000"/><text fill="#000000" font-family="sans-serif" font-size="14" lengthAdjust="spacing" textLength="30" x="332.25" y="135.8467">Audi</text><line style="stroke:#181818;stroke-width:0.5;" x1="8" x2="654" y1="147" y2="147"/><line style="stroke:#181818;stroke-width:0.5;" x1="8" x2="654" y1="155" y2="155"/><ellipse cx="18" cy="168.6484" fill="#84BE84" rx="3" ry="3" style="stroke:#038048;stroke-width:1.0;"/><text fill="#000000" font-family="sans-serif" font-size="14" lengthAdjust="spacing" textLength="622" x="27" y="171.9951">Audi(nummerplaat:string, aantalKilometers:double, kostPrijs:double, literBrandstof:double)</text><ellipse cx="18" cy="184.9453" fill="#84BE84" rx="3" ry="3" style="stroke:#038048;stroke-width:1.0;"/><text fill="#000000" font-family="sans-serif" font-size="14" lengthAdjust="spacing" textLength="331" x="27" y="188.292">&#171;override&#187; Rijden(aantalKilometer:double) : void</text></g><!--class Auto--><g id="elem_Auto"><rect fill="#F1F1F1" height="48" id="Auto" rx="2.5" ry="2.5" style="stroke:#181818;stroke-width:0.5;" width="64" x="299" y="7"/><ellipse cx="314" cy="23" fill="#ADD1B2" rx="11" ry="11" style="stroke:#181818;stroke-width:1.0;"/><path d="M316.9688,28.6406 Q316.3906,28.9375 315.75,29.0781 Q315.1094,29.2344 314.4063,29.2344 Q311.9063,29.2344 310.5781,27.5938 Q309.2656,25.9375 309.2656,22.8125 Q309.2656,19.6875 310.5781,18.0313 Q311.9063,16.375 314.4063,16.375 Q315.1094,16.375 315.75,16.5313 Q316.4063,16.6875 316.9688,16.9844 L316.9688,19.7031 Q316.3438,19.125 315.75,18.8594 Q315.1563,18.5781 314.5313,18.5781 Q313.1875,18.5781 312.5,19.6563 Q311.8125,20.7188 311.8125,22.8125 Q311.8125,24.9063 312.5,25.9844 Q313.1875,27.0469 314.5313,27.0469 Q315.1563,27.0469 315.75,26.7813 Q316.3438,26.5 316.9688,25.9219 L316.9688,28.6406 Z " fill="#000000"/><text fill="#000000" font-family="sans-serif" font-size="14" lengthAdjust="spacing" textLength="32" x="328" y="27.8467">Auto</text><line style="stroke:#181818;stroke-width:0.5;" x1="300" x2="362" y1="39" y2="39"/><line style="stroke:#181818;stroke-width:0.5;" x1="300" x2="362" y1="47" y2="47"/></g><!--reverse link Auto to Audi--><g id="link_Auto_Audi"><path codeLine="5" d="M331,73.04 C331,89.81 331,94.95 331,114.69 " fill="none" id="Auto-backto-Audi" style="stroke:#181818;stroke-width:1.0;"/><polygon fill="none" points="331,55.04,325,73.04,337,73.04,331,55.04" style="stroke:#181818;stroke-width:1.0;"/></g><!--SRC=[NKvB2i8m4Dtd5BEis5wWb4BTkX5lC3MZJ4qoCfbqezxTKYg2R_SUxtS9c3CCnJCy7IpOhwHA9KRIHq2qDfjokjM0c0p3aOD4CjBSUYbZe1hkaksaFFsKm8lXe9XyDhbkycuRw3gPIPKzzJsSUVAKgh_kRm9Qc8MzUxkXc43tQfhrtmS0]--></g></svg>