<?xml version="1.0" encoding="us-ascii" standalone="no"?><svg xmlns="http://www.w3.org/2000/svg" xmlns:xlink="http://www.w3.org/1999/xlink" contentStyleType="text/css" height="202px" preserveAspectRatio="none" style="width:666px;height:202px;background:#FFFFFF;" version="1.1" viewBox="0 0 666 202" width="666px" zoomAndPan="magnify"><defs/><g><!--class Bmw--><g id="elem_Bmw"><rect codeLine="1" fill="#F1F1F1" height="80.5938" id="Bmw" rx="2.5" ry="2.5" style="stroke:#181818;stroke-width:0.5;" width="652" x="7" y="115"/><ellipse cx="311.75" cy="131" fill="#ADD1B2" rx="11" ry="11" style="stroke:#181818;stroke-width:1.0;"/><path d="M314.7188,136.6406 Q314.1406,136.9375 313.5,137.0781 Q312.8594,137.2344 312.1563,137.2344 Q309.6563,137.2344 308.3281,135.5938 Q307.0156,133.9375 307.0156,130.8125 Q307.0156,127.6875 308.3281,126.0313 Q309.6563,124.375 312.1563,124.375 Q312.8594,124.375 313.5,124.5313 Q314.1563,124.6875 314.7188,124.9844 L314.7188,127.7031 Q314.0938,127.125 313.5,126.8594 Q312.9063,126.5781 312.2813,126.5781 Q310.9375,126.5781 310.25,127.6563 Q309.5625,128.7188 309.5625,130.8125 Q309.5625,132.9063 310.25,133.9844 Q310.9375,135.0469 312.2813,135.0469 Q312.9063,135.0469 313.5,134.7813 Q314.0938,134.5 314.7188,133.9219 L314.7188,136.6406 Z " fill="#000000"/><text fill="#000000" font-family="sans-serif" font-size="14" lengthAdjust="spacing" textLength="34" x="332.25" y="135.8467">Bmw</text><line style="stroke:#181818;stroke-width:0.5;" x1="8" x2="658" y1="147" y2="147"/><line style="stroke:#181818;stroke-width:0.5;" x1="8" x2="658" y1="155" y2="155"/><ellipse cx="18" cy="168.6484" fill="#84BE84" rx="3" ry="3" style="stroke:#038048;stroke-width:1.0;"/><text fill="#000000" font-family="sans-serif" font-size="14" lengthAdjust="spacing" textLength="626" x="27" y="171.9951">Bmw(nummerplaat:string, aantalKilometers:double, kostPrijs:double, literBrandstof:double)</text><ellipse cx="18" cy="184.9453" fill="#84BE84" rx="3" ry="3" style="stroke:#038048;stroke-width:1.0;"/><text fill="#000000" font-family="sans-serif" font-size="14" lengthAdjust="spacing" textLength="331" x="27" y="188.292">&#171;override&#187; Rijden(aantalKilometer:double) : void</text></g><!--class Auto--><g id="elem_Auto"><rect fill="#F1F1F1" height="48" id="Auto" rx="2.5" ry="2.5" style="stroke:#181818;stroke-width:0.5;" width="64" x="301" y="7"/><ellipse cx="316" cy="23" fill="#ADD1B2" rx="11" ry="11" style="stroke:#181818;stroke-width:1.0;"/><path d="M318.9688,28.6406 Q318.3906,28.9375 317.75,29.0781 Q317.1094,29.2344 316.4063,29.2344 Q313.9063,29.2344 312.5781,27.5938 Q311.2656,25.9375 311.2656,22.8125 Q311.2656,19.6875 312.5781,18.0313 Q313.9063,16.375 316.4063,16.375 Q317.1094,16.375 317.75,16.5313 Q318.4063,16.6875 318.9688,16.9844 L318.9688,19.7031 Q318.3438,19.125 317.75,18.8594 Q317.1563,18.5781 316.5313,18.5781 Q315.1875,18.5781 314.5,19.6563 Q313.8125,20.7188 313.8125,22.8125 Q313.8125,24.9063 314.5,25.9844 Q315.1875,27.0469 316.5313,27.0469 Q317.1563,27.0469 317.75,26.7813 Q318.3438,26.5 318.9688,25.9219 L318.9688,28.6406 Z " fill="#000000"/><text fill="#000000" font-family="sans-serif" font-size="14" lengthAdjust="spacing" textLength="32" x="330" y="27.8467">Auto</text><line style="stroke:#181818;stroke-width:0.5;" x1="302" x2="364" y1="39" y2="39"/><line style="stroke:#181818;stroke-width:0.5;" x1="302" x2="364" y1="47" y2="47"/></g><!--reverse link Auto to Bmw--><g id="link_Auto_Bmw"><path codeLine="5" d="M333,73.04 C333,89.81 333,94.95 333,114.69 " fill="none" id="Auto-backto-Bmw" style="stroke:#181818;stroke-width:1.0;"/><polygon fill="none" points="333,55.04,327,73.04,339,73.04,333,55.04" style="stroke:#181818;stroke-width:1.0;"/></g><!--SRC=[NOx12i9034Jl-nKvLcn_O2a5U_KY_a5qewJkRYIRreFwxxPG4PpJCCmyvXon5EZJ0vuEPcqNN-Kn9T9xH3HVJ3bVQq3CXd7FKH8PQV51nbEa6cvIxA0y_9B8Sw5NpA6ONDPui_BRLYPIvK1T1qSU0kNgZ_rTW8T9EBYtsuqcqBwQPhdt0G00]--></g></svg>