<?xml version="1.0" encoding="us-ascii" standalone="no"?><svg xmlns="http://www.w3.org/2000/svg" xmlns:xlink="http://www.w3.org/1999/xlink" contentStyleType="text/css" height="349px" preserveAspectRatio="none" style="width:2085px;height:349px;background:#FFFFFF;" version="1.1" viewBox="0 0 2085 349" width="2085px" zoomAndPan="magnify"><defs/><g><!--class Auto--><g id="elem_Auto"><rect codeLine="1" fill="#F1F1F1" height="194.6719" id="Auto" rx="2.5" ry="2.5" style="stroke:#181818;stroke-width:0.5;" width="650" x="691" y="7"/><ellipse cx="995.75" cy="23" fill="#ADD1B2" rx="11" ry="11" style="stroke:#181818;stroke-width:1.0;"/><path d="M998.7188,28.6406 Q998.1406,28.9375 997.5,29.0781 Q996.8594,29.2344 996.1563,29.2344 Q993.6563,29.2344 992.3281,27.5938 Q991.0156,25.9375 991.0156,22.8125 Q991.0156,19.6875 992.3281,18.0313 Q993.6563,16.375 996.1563,16.375 Q996.8594,16.375 997.5,16.5313 Q998.1563,16.6875 998.7188,16.9844 L998.7188,19.7031 Q998.0938,19.125 997.5,18.8594 Q996.9063,18.5781 996.2813,18.5781 Q994.9375,18.5781 994.25,19.6563 Q993.5625,20.7188 993.5625,22.8125 Q993.5625,24.9063 994.25,25.9844 Q994.9375,27.0469 996.2813,27.0469 Q996.9063,27.0469 997.5,26.7813 Q998.0938,26.5 998.7188,25.9219 L998.7188,28.6406 Z " fill="#000000"/><text fill="#000000" font-family="sans-serif" font-size="14" lengthAdjust="spacing" textLength="32" x="1016.25" y="27.8467">Auto</text><line style="stroke:#181818;stroke-width:0.5;" x1="692" x2="1340" y1="39" y2="39"/><polygon fill="none" points="702,47.6484,706,51.6484,702,55.6484,698,51.6484" style="stroke:#B38D22;stroke-width:1.0;"/><text fill="#000000" font-family="sans-serif" font-size="14" lengthAdjust="spacing" textLength="131" x="711" y="55.9951">Merk : string &#171;get&#187;</text><polygon fill="none" points="702,63.9453,706,67.9453,702,71.9453,698,67.9453" style="stroke:#B38D22;stroke-width:1.0;"/><text fill="#000000" font-family="sans-serif" font-size="14" lengthAdjust="spacing" textLength="233" x="711" y="72.292">Nummerplaat : string &#171;get&#187; &#171;set&#187;</text><polygon fill="none" points="702,80.2422,706,84.2422,702,88.2422,698,84.2422" style="stroke:#B38D22;stroke-width:1.0;"/><text fill="#000000" font-family="sans-serif" font-size="14" lengthAdjust="spacing" textLength="257" x="711" y="88.5889">AantalKilometer : double &#171;get&#187; &#171;set&#187;</text><polygon fill="none" points="702,96.5391,706,100.5391,702,104.5391,698,100.5391" style="stroke:#B38D22;stroke-width:1.0;"/><text fill="#000000" font-family="sans-serif" font-size="14" lengthAdjust="spacing" textLength="209" x="711" y="104.8857">KostPrijs : double &#171;get&#187; &#171;set&#187;</text><polygon fill="none" points="702,112.8359,706,116.8359,702,120.8359,698,116.8359" style="stroke:#B38D22;stroke-width:1.0;"/><text fill="#000000" font-family="sans-serif" font-size="14" lengthAdjust="spacing" textLength="246" x="711" y="121.1826">LiterBrandstof : double &#171;get&#187; &#171;set&#187;</text><line style="stroke:#181818;stroke-width:0.5;" x1="692" x2="1340" y1="128.4844" y2="128.4844"/><polygon fill="#FFFF44" points="702,137.1328,706,141.1328,702,145.1328,698,141.1328" style="stroke:#B38D22;stroke-width:1.0;"/><text fill="#000000" font-family="sans-serif" font-size="14" lengthAdjust="spacing" textLength="624" x="711" y="145.4795">Auto(nummerplaat:string, aantalKilometers:double, kostPrijs:double, literBrandstof:double)</text><ellipse cx="702" cy="158.4297" fill="#84BE84" rx="3" ry="3" style="stroke:#038048;stroke-width:1.0;"/><text fill="#000000" font-family="sans-serif" font-size="14" lengthAdjust="spacing" textLength="198" x="711" y="161.7764">&#171;override&#187; ToString() : string</text><ellipse cx="702" cy="174.7266" fill="#84BE84" rx="3" ry="3" style="stroke:#038048;stroke-width:1.0;"/><text fill="#000000" font-family="sans-serif" font-size="14" lengthAdjust="spacing" textLength="246" x="711" y="178.0732">&#171;override&#187; Equals(obj:object) : bool</text><ellipse cx="702" cy="191.0234" fill="#84BE84" rx="3" ry="3" style="stroke:#038048;stroke-width:1.0;"/><text fill="#000000" font-family="sans-serif" font-size="14" lengthAdjust="spacing" textLength="315" x="711" y="194.3701">&#171;virtual&#187; Rijden(aantalKilometer:double) : void</text></g><!--class Audi--><g id="elem_Audi"><rect codeLine="1" fill="#F1F1F1" height="80.5938" id="Audi" rx="2.5" ry="2.5" style="stroke:#181818;stroke-width:0.5;" width="648" x="7" y="262"/><ellipse cx="311.75" cy="278" fill="#ADD1B2" rx="11" ry="11" style="stroke:#181818;stroke-width:1.0;"/><path d="M314.7188,283.6406 Q314.1406,283.9375 313.5,284.0781 Q312.8594,284.2344 312.1563,284.2344 Q309.6563,284.2344 308.3281,282.5938 Q307.0156,280.9375 307.0156,277.8125 Q307.0156,274.6875 308.3281,273.0313 Q309.6563,271.375 312.1563,271.375 Q312.8594,271.375 313.5,271.5313 Q314.1563,271.6875 314.7188,271.9844 L314.7188,274.7031 Q314.0938,274.125 313.5,273.8594 Q312.9063,273.5781 312.2813,273.5781 Q310.9375,273.5781 310.25,274.6563 Q309.5625,275.7188 309.5625,277.8125 Q309.5625,279.9063 310.25,280.9844 Q310.9375,282.0469 312.2813,282.0469 Q312.9063,282.0469 313.5,281.7813 Q314.0938,281.5 314.7188,280.9219 L314.7188,283.6406 Z " fill="#000000"/><text fill="#000000" font-family="sans-serif" font-size="14" lengthAdjust="spacing" textLength="30" x="332.25" y="282.8467">Audi</text><line style="stroke:#181818;stroke-width:0.5;" x1="8" x2="654" y1="294" y2="294"/><line style="stroke:#181818;stroke-width:0.5;" x1="8" x2="654" y1="302" y2="302"/><ellipse cx="18" cy="315.6484" fill="#84BE84" rx="3" ry="3" style="stroke:#038048;stroke-width:1.0;"/><text fill="#000000" font-family="sans-serif" font-size="14" lengthAdjust="spacing" textLength="622" x="27" y="318.9951">Audi(nummerplaat:string, aantalKilometers:double, kostPrijs:double, literBrandstof:double)</text><ellipse cx="18" cy="331.9453" fill="#84BE84" rx="3" ry="3" style="stroke:#038048;stroke-width:1.0;"/><text fill="#000000" font-family="sans-serif" font-size="14" lengthAdjust="spacing" textLength="331" x="27" y="335.292">&#171;override&#187; Rijden(aantalKilometer:double) : void</text></g><!--class Bmw--><g id="elem_Bmw"><rect codeLine="1" fill="#F1F1F1" height="80.5938" id="Bmw" rx="2.5" ry="2.5" style="stroke:#181818;stroke-width:0.5;" width="652" x="690" y="262"/><ellipse cx="994.75" cy="278" fill="#ADD1B2" rx="11" ry="11" style="stroke:#181818;stroke-width:1.0;"/><path d="M997.7188,283.6406 Q997.1406,283.9375 996.5,284.0781 Q995.8594,284.2344 995.1563,284.2344 Q992.6563,284.2344 991.3281,282.5938 Q990.0156,280.9375 990.0156,277.8125 Q990.0156,274.6875 991.3281,273.0313 Q992.6563,271.375 995.1563,271.375 Q995.8594,271.375 996.5,271.5313 Q997.1563,271.6875 997.7188,271.9844 L997.7188,274.7031 Q997.0938,274.125 996.5,273.8594 Q995.9063,273.5781 995.2813,273.5781 Q993.9375,273.5781 993.25,274.6563 Q992.5625,275.7188 992.5625,277.8125 Q992.5625,279.9063 993.25,280.9844 Q993.9375,282.0469 995.2813,282.0469 Q995.9063,282.0469 996.5,281.7813 Q997.0938,281.5 997.7188,280.9219 L997.7188,283.6406 Z " fill="#000000"/><text fill="#000000" font-family="sans-serif" font-size="14" lengthAdjust="spacing" textLength="34" x="1015.25" y="282.8467">Bmw</text><line style="stroke:#181818;stroke-width:0.5;" x1="691" x2="1341" y1="294" y2="294"/><line style="stroke:#181818;stroke-width:0.5;" x1="691" x2="1341" y1="302" y2="302"/><ellipse cx="701" cy="315.6484" fill="#84BE84" rx="3" ry="3" style="stroke:#038048;stroke-width:1.0;"/><text fill="#000000" font-family="sans-serif" font-size="14" lengthAdjust="spacing" textLength="626" x="710" y="318.9951">Bmw(nummerplaat:string, aantalKilometers:double, kostPrijs:double, literBrandstof:double)</text><ellipse cx="701" cy="331.9453" fill="#84BE84" rx="3" ry="3" style="stroke:#038048;stroke-width:1.0;"/><text fill="#000000" font-family="sans-serif" font-size="14" lengthAdjust="spacing" textLength="331" x="710" y="335.292">&#171;override&#187; Rijden(aantalKilometer:double) : void</text></g><!--class Volkswagen--><g id="elem_Volkswagen"><rect codeLine="1" fill="#F1F1F1" height="80.5938" id="Volkswagen" rx="2.5" ry="2.5" style="stroke:#181818;stroke-width:0.5;" width="701" x="1377.5" y="262"/><ellipse cx="1682.25" cy="278" fill="#ADD1B2" rx="11" ry="11" style="stroke:#181818;stroke-width:1.0;"/><path d="M1685.2188,283.6406 Q1684.6406,283.9375 1684,284.0781 Q1683.3594,284.2344 1682.6563,284.2344 Q1680.1563,284.2344 1678.8281,282.5938 Q1677.5156,280.9375 1677.5156,277.8125 Q1677.5156,274.6875 1678.8281,273.0313 Q1680.1563,271.375 1682.6563,271.375 Q1683.3594,271.375 1684,271.5313 Q1684.6563,271.6875 1685.2188,271.9844 L1685.2188,274.7031 Q1684.5938,274.125 1684,273.8594 Q1683.4063,273.5781 1682.7813,273.5781 Q1681.4375,273.5781 1680.75,274.6563 Q1680.0625,275.7188 1680.0625,277.8125 Q1680.0625,279.9063 1680.75,280.9844 Q1681.4375,282.0469 1682.7813,282.0469 Q1683.4063,282.0469 1684,281.7813 Q1684.5938,281.5 1685.2188,280.9219 L1685.2188,283.6406 Z " fill="#000000"/><text fill="#000000" font-family="sans-serif" font-size="14" lengthAdjust="spacing" textLength="83" x="1702.75" y="282.8467">Volkswagen</text><line style="stroke:#181818;stroke-width:0.5;" x1="1378.5" x2="2077.5" y1="294" y2="294"/><line style="stroke:#181818;stroke-width:0.5;" x1="1378.5" x2="2077.5" y1="302" y2="302"/><ellipse cx="1388.5" cy="315.6484" fill="#84BE84" rx="3" ry="3" style="stroke:#038048;stroke-width:1.0;"/><text fill="#000000" font-family="sans-serif" font-size="14" lengthAdjust="spacing" textLength="675" x="1397.5" y="318.9951">Volkswagen(nummerplaat:string, aantalKilometers:double, kostPrijs:double, literBrandstof:double)</text><ellipse cx="1388.5" cy="331.9453" fill="#84BE84" rx="3" ry="3" style="stroke:#038048;stroke-width:1.0;"/><text fill="#000000" font-family="sans-serif" font-size="14" lengthAdjust="spacing" textLength="331" x="1397.5" y="335.292">&#171;override&#187; Rijden(aantalKilometer:double) : void</text></g><!--reverse link Auto to Audi--><g id="link_Auto_Audi"><path codeLine="5" d="M673.4943,203.5011 C595.4443,225.8311 533.5,243.56 469.32,261.92 " fill="none" id="Auto-backto-Audi" style="stroke:#181818;stroke-width:1.0;"/><polygon fill="none" points="690.8,198.55,671.844,197.7326,675.1447,209.2697,690.8,198.55" style="stroke:#181818;stroke-width:1.0;"/></g><!--reverse link Auto to Bmw--><g id="link_Auto_Bmw"><path codeLine="5" d="M1016,220.06 C1016,241.13 1016,244.28 1016,261.63 " fill="none" id="Auto-backto-Bmw" style="stroke:#181818;stroke-width:1.0;"/><polygon fill="none" points="1016,202.06,1010,220.06,1022,220.06,1016,202.06" style="stroke:#181818;stroke-width:1.0;"/></g><!--reverse link Auto to Volkswagen--><g id="link_Auto_Volkswagen"><path codeLine="5" d="M1358.3646,199.7469 C1443.5946,223.2069 1513.87,242.55 1584.14,261.9 " fill="none" id="Auto-backto-Volkswagen" style="stroke:#181818;stroke-width:1.0;"/><polygon fill="none" points="1341.01,194.97,1356.7723,205.5318,1359.9569,193.9621,1341.01,194.97" style="stroke:#181818;stroke-width:1.0;"/></g><!--SRC=[KypCIyufJKbLS2mjoTShACtDuL942ALaeWavvPQZYOJbvsGNboUcf-Q19G00]--></g></svg>