<?xml version="1.0" encoding="us-ascii" standalone="no"?><svg xmlns="http://www.w3.org/2000/svg" xmlns:xlink="http://www.w3.org/1999/xlink" contentStyleType="text/css" height="202px" preserveAspectRatio="none" style="width:715px;height:202px;background:#FFFFFF;" version="1.1" viewBox="0 0 715 202" width="715px" zoomAndPan="magnify"><defs/><g><!--class Volkswagen--><g id="elem_Volkswagen"><rect codeLine="1" fill="#F1F1F1" height="80.5938" id="Volkswagen" rx="2.5" ry="2.5" style="stroke:#181818;stroke-width:0.5;" width="701" x="7" y="115"/><ellipse cx="311.75" cy="131" fill="#ADD1B2" rx="11" ry="11" style="stroke:#181818;stroke-width:1.0;"/><path d="M314.7188,136.6406 Q314.1406,136.9375 313.5,137.0781 Q312.8594,137.2344 312.1563,137.2344 Q309.6563,137.2344 308.3281,135.5938 Q307.0156,133.9375 307.0156,130.8125 Q307.0156,127.6875 308.3281,126.0313 Q309.6563,124.375 312.1563,124.375 Q312.8594,124.375 313.5,124.5313 Q314.1563,124.6875 314.7188,124.9844 L314.7188,127.7031 Q314.0938,127.125 313.5,126.8594 Q312.9063,126.5781 312.2813,126.5781 Q310.9375,126.5781 310.25,127.6563 Q309.5625,128.7188 309.5625,130.8125 Q309.5625,132.9063 310.25,133.9844 Q310.9375,135.0469 312.2813,135.0469 Q312.9063,135.0469 313.5,134.7813 Q314.0938,134.5 314.7188,133.9219 L314.7188,136.6406 Z " fill="#000000"/><text fill="#000000" font-family="sans-serif" font-size="14" lengthAdjust="spacing" textLength="83" x="332.25" y="135.8467">Volkswagen</text><line style="stroke:#181818;stroke-width:0.5;" x1="8" x2="707" y1="147" y2="147"/><line style="stroke:#181818;stroke-width:0.5;" x1="8" x2="707" y1="155" y2="155"/><ellipse cx="18" cy="168.6484" fill="#84BE84" rx="3" ry="3" style="stroke:#038048;stroke-width:1.0;"/><text fill="#000000" font-family="sans-serif" font-size="14" lengthAdjust="spacing" textLength="675" x="27" y="171.9951">Volkswagen(nummerplaat:string, aantalKilometers:double, kostPrijs:double, literBrandstof:double)</text><ellipse cx="18" cy="184.9453" fill="#84BE84" rx="3" ry="3" style="stroke:#038048;stroke-width:1.0;"/><text fill="#000000" font-family="sans-serif" font-size="14" lengthAdjust="spacing" textLength="331" x="27" y="188.292">&#171;override&#187; Rijden(aantalKilometer:double) : void</text></g><!--class Auto--><g id="elem_Auto"><rect fill="#F1F1F1" height="48" id="Auto" rx="2.5" ry="2.5" style="stroke:#181818;stroke-width:0.5;" width="64" x="325.5" y="7"/><ellipse cx="340.5" cy="23" fill="#ADD1B2" rx="11" ry="11" style="stroke:#181818;stroke-width:1.0;"/><path d="M343.4688,28.6406 Q342.8906,28.9375 342.25,29.0781 Q341.6094,29.2344 340.9063,29.2344 Q338.4063,29.2344 337.0781,27.5938 Q335.7656,25.9375 335.7656,22.8125 Q335.7656,19.6875 337.0781,18.0313 Q338.4063,16.375 340.9063,16.375 Q341.6094,16.375 342.25,16.5313 Q342.9063,16.6875 343.4688,16.9844 L343.4688,19.7031 Q342.8438,19.125 342.25,18.8594 Q341.6563,18.5781 341.0313,18.5781 Q339.6875,18.5781 339,19.6563 Q338.3125,20.7188 338.3125,22.8125 Q338.3125,24.9063 339,25.9844 Q339.6875,27.0469 341.0313,27.0469 Q341.6563,27.0469 342.25,26.7813 Q342.8438,26.5 343.4688,25.9219 L343.4688,28.6406 Z " fill="#000000"/><text fill="#000000" font-family="sans-serif" font-size="14" lengthAdjust="spacing" textLength="32" x="354.5" y="27.8467">Auto</text><line style="stroke:#181818;stroke-width:0.5;" x1="326.5" x2="388.5" y1="39" y2="39"/><line style="stroke:#181818;stroke-width:0.5;" x1="326.5" x2="388.5" y1="47" y2="47"/></g><!--reverse link Auto to Volkswagen--><g id="link_Auto_Volkswagen"><path codeLine="5" d="M357.5,73.04 C357.5,89.81 357.5,94.95 357.5,114.69 " fill="none" id="Auto-backto-Volkswagen" style="stroke:#181818;stroke-width:1.0;"/><polygon fill="none" points="357.5,55.04,351.5,73.04,363.5,73.04,357.5,55.04" style="stroke:#181818;stroke-width:1.0;"/></g><!--SRC=[NOwz3e9G38LtdgAZHdW1GaXqTJ4ExDLRoOLoQzg2W_hkCc0adl7B-Rioca4ZtDi3Mqhmp63MReKsQHm6qZiZUcckCRKv82P7FaQMWPpKoY3ZXIc7NinF6hiVuJWR3eefcCjjmTjbfgfa8jKOgAxX7Bimx_rrVnDGmYGnPEziFxf0zIgArSiF]--></g></svg>