<?xml version="1.0" encoding="us-ascii" standalone="no"?><svg xmlns="http://www.w3.org/2000/svg" xmlns:xlink="http://www.w3.org/1999/xlink" contentStyleType="text/css" height="176px" preserveAspectRatio="none" style="width:696px;height:176px;background:#FFFFFF;" version="1.1" viewBox="0 0 696 176" width="696px" zoomAndPan="magnify"><defs/><g><!--class Motor--><g id="elem_Motor"><rect codeLine="1" fill="#F1F1F1" height="113.1875" id="Motor" rx="2.5" ry="2.5" style="stroke:#181818;stroke-width:0.5;" width="244" x="7" y="31.5"/><ellipse cx="104.75" cy="47.5" fill="#ADD1B2" rx="11" ry="11" style="stroke:#181818;stroke-width:1.0;"/><path d="M107.7188,53.1406 Q107.1406,53.4375 106.5,53.5781 Q105.8594,53.7344 105.1563,53.7344 Q102.6563,53.7344 101.3281,52.0938 Q100.0156,50.4375 100.0156,47.3125 Q100.0156,44.1875 101.3281,42.5313 Q102.6563,40.875 105.1563,40.875 Q105.8594,40.875 106.5,41.0313 Q107.1563,41.1875 107.7188,41.4844 L107.7188,44.2031 Q107.0938,43.625 106.5,43.3594 Q105.9063,43.0781 105.2813,43.0781 Q103.9375,43.0781 103.25,44.1563 Q102.5625,45.2188 102.5625,47.3125 Q102.5625,49.4063 103.25,50.4844 Q103.9375,51.5469 105.2813,51.5469 Q105.9063,51.5469 106.5,51.2813 Q107.0938,51 107.7188,50.4219 L107.7188,53.1406 Z " fill="#000000"/><text fill="#000000" font-family="sans-serif" font-size="14" lengthAdjust="spacing" textLength="40" x="125.25" y="52.3467">Motor</text><line style="stroke:#181818;stroke-width:0.5;" x1="8" x2="250" y1="63.5" y2="63.5"/><ellipse cx="18" cy="77.1484" fill="none" rx="3" ry="3" style="stroke:#038048;stroke-width:1.0;"/><text fill="#000000" font-family="sans-serif" font-size="14" lengthAdjust="spacing" textLength="218" x="27" y="80.4951">Cilinderinhoud : int &#171;get&#187; &#171;set&#187;</text><ellipse cx="18" cy="93.4453" fill="none" rx="3" ry="3" style="stroke:#038048;stroke-width:1.0;"/><text fill="#000000" font-family="sans-serif" font-size="14" lengthAdjust="spacing" textLength="136" x="27" y="96.792">Pk : int &#171;get&#187; &#171;set&#187;</text><line style="stroke:#181818;stroke-width:0.5;" x1="8" x2="250" y1="104.0938" y2="104.0938"/><ellipse cx="18" cy="117.7422" fill="#84BE84" rx="3" ry="3" style="stroke:#038048;stroke-width:1.0;"/><text fill="#000000" font-family="sans-serif" font-size="14" lengthAdjust="spacing" textLength="216" x="27" y="121.0889">Motor(cilinderinhoud:int, pk:int)</text><ellipse cx="18" cy="134.0391" fill="#84BE84" rx="3" ry="3" style="stroke:#038048;stroke-width:1.0;"/><text fill="#000000" font-family="sans-serif" font-size="14" lengthAdjust="spacing" textLength="198" x="27" y="137.3857">&#171;override&#187; ToString() : string</text></g><!--class Auto--><g id="elem_Auto"><rect codeLine="1" fill="#F1F1F1" height="162.0781" id="Auto" rx="2.5" ry="2.5" style="stroke:#181818;stroke-width:0.5;" width="403" x="286.5" y="7"/><ellipse cx="467.75" cy="23" fill="#ADD1B2" rx="11" ry="11" style="stroke:#181818;stroke-width:1.0;"/><path d="M470.7188,28.6406 Q470.1406,28.9375 469.5,29.0781 Q468.8594,29.2344 468.1563,29.2344 Q465.6563,29.2344 464.3281,27.5938 Q463.0156,25.9375 463.0156,22.8125 Q463.0156,19.6875 464.3281,18.0313 Q465.6563,16.375 468.1563,16.375 Q468.8594,16.375 469.5,16.5313 Q470.1563,16.6875 470.7188,16.9844 L470.7188,19.7031 Q470.0938,19.125 469.5,18.8594 Q468.9063,18.5781 468.2813,18.5781 Q466.9375,18.5781 466.25,19.6563 Q465.5625,20.7188 465.5625,22.8125 Q465.5625,24.9063 466.25,25.9844 Q466.9375,27.0469 468.2813,27.0469 Q468.9063,27.0469 469.5,26.7813 Q470.0938,26.5 470.7188,25.9219 L470.7188,28.6406 Z " fill="#000000"/><text fill="#000000" font-family="sans-serif" font-size="14" lengthAdjust="spacing" textLength="32" x="488.25" y="27.8467">Auto</text><line style="stroke:#181818;stroke-width:0.5;" x1="287.5" x2="688.5" y1="39" y2="39"/><ellipse cx="297.5" cy="52.6484" fill="none" rx="3" ry="3" style="stroke:#038048;stroke-width:1.0;"/><text fill="#000000" font-family="sans-serif" font-size="14" lengthAdjust="spacing" textLength="253" x="306.5" y="55.9951">Chassisnummer : string &#171;get&#187; &#171;set&#187;</text><ellipse cx="297.5" cy="68.9453" fill="none" rx="3" ry="3" style="stroke:#038048;stroke-width:1.0;"/><text fill="#000000" font-family="sans-serif" font-size="14" lengthAdjust="spacing" textLength="175" x="306.5" y="72.292">Merk : string &#171;get&#187; &#171;set&#187;</text><ellipse cx="297.5" cy="85.2422" fill="none" rx="3" ry="3" style="stroke:#038048;stroke-width:1.0;"/><text fill="#000000" font-family="sans-serif" font-size="14" lengthAdjust="spacing" textLength="182" x="306.5" y="88.5889">Motor : Motor &#171;get&#187; &#171;set&#187;</text><line style="stroke:#181818;stroke-width:0.5;" x1="287.5" x2="688.5" y1="95.8906" y2="95.8906"/><ellipse cx="297.5" cy="109.5391" fill="#84BE84" rx="3" ry="3" style="stroke:#038048;stroke-width:1.0;"/><text fill="#000000" font-family="sans-serif" font-size="14" lengthAdjust="spacing" textLength="377" x="306.5" y="112.8857">Auto(chassisnummer:string, merk:string, motor:Motor)</text><ellipse cx="297.5" cy="125.8359" fill="#84BE84" rx="3" ry="3" style="stroke:#038048;stroke-width:1.0;"/><text fill="#000000" font-family="sans-serif" font-size="14" lengthAdjust="spacing" textLength="198" x="306.5" y="129.1826">&#171;override&#187; ToString() : string</text><ellipse cx="297.5" cy="142.1328" fill="#84BE84" rx="3" ry="3" style="stroke:#038048;stroke-width:1.0;"/><text fill="#000000" font-family="sans-serif" font-size="14" lengthAdjust="spacing" textLength="246" x="306.5" y="145.4795">&#171;override&#187; Equals(obj:object) : bool</text><ellipse cx="297.5" cy="158.4297" fill="#84BE84" rx="3" ry="3" style="stroke:#038048;stroke-width:1.0;"/><text fill="#000000" font-family="sans-serif" font-size="14" lengthAdjust="spacing" textLength="215" x="306.5" y="161.7764">&#171;override&#187; GetHashCode() : int</text></g><!--SRC=[KypCIyufJKbLyCqloI_IAoZDpU5IX8avbfRaWuK0]--></g></svg>