<?xml version="1.0" encoding="us-ascii" standalone="no"?><svg xmlns="http://www.w3.org/2000/svg" xmlns:xlink="http://www.w3.org/1999/xlink" contentStyleType="text/css" height="186px" preserveAspectRatio="none" style="width:383px;height:186px;background:#FFFFFF;" version="1.1" viewBox="0 0 383 186" width="383px" zoomAndPan="magnify"><defs/><g><!--class BestandNietGevondenException--><g id="elem_BestandNietGevondenException"><rect codeLine="1" fill="#F1F1F1" height="64.2969" id="BestandNietGevondenException" rx="2.5" ry="2.5" style="stroke:#181818;stroke-width:0.5;" width="369" x="7" y="115"/><ellipse cx="74.75" cy="131" fill="#ADD1B2" rx="11" ry="11" style="stroke:#181818;stroke-width:1.0;"/><path d="M77.7188,136.6406 Q77.1406,136.9375 76.5,137.0781 Q75.8594,137.2344 75.1563,137.2344 Q72.6563,137.2344 71.3281,135.5938 Q70.0156,133.9375 70.0156,130.8125 Q70.0156,127.6875 71.3281,126.0313 Q72.6563,124.375 75.1563,124.375 Q75.8594,124.375 76.5,124.5313 Q77.1563,124.6875 77.7188,124.9844 L77.7188,127.7031 Q77.0938,127.125 76.5,126.8594 Q75.9063,126.5781 75.2813,126.5781 Q73.9375,126.5781 73.25,127.6563 Q72.5625,128.7188 72.5625,130.8125 Q72.5625,132.9063 73.25,133.9844 Q73.9375,135.0469 75.2813,135.0469 Q75.9063,135.0469 76.5,134.7813 Q77.0938,134.5 77.7188,133.9219 L77.7188,136.6406 Z " fill="#000000"/><text fill="#000000" font-family="sans-serif" font-size="14" lengthAdjust="spacing" textLength="225" x="95.25" y="135.8467">BestandNietGevondenException</text><line style="stroke:#181818;stroke-width:0.5;" x1="8" x2="375" y1="147" y2="147"/><line style="stroke:#181818;stroke-width:0.5;" x1="8" x2="375" y1="155" y2="155"/><ellipse cx="18" cy="168.6484" fill="#84BE84" rx="3" ry="3" style="stroke:#038048;stroke-width:1.0;"/><text fill="#000000" font-family="sans-serif" font-size="14" lengthAdjust="spacing" textLength="343" x="27" y="171.9951">BestandNietGevondenException(message:string)</text></g><!--class Exception--><g id="elem_Exception"><rect fill="#F1F1F1" height="48" id="Exception" rx="2.5" ry="2.5" style="stroke:#181818;stroke-width:0.5;" width="100" x="141.5" y="7"/><ellipse cx="156.5" cy="23" fill="#ADD1B2" rx="11" ry="11" style="stroke:#181818;stroke-width:1.0;"/><path d="M159.4688,28.6406 Q158.8906,28.9375 158.25,29.0781 Q157.6094,29.2344 156.9063,29.2344 Q154.4063,29.2344 153.0781,27.5938 Q151.7656,25.9375 151.7656,22.8125 Q151.7656,19.6875 153.0781,18.0313 Q154.4063,16.375 156.9063,16.375 Q157.6094,16.375 158.25,16.5313 Q158.9063,16.6875 159.4688,16.9844 L159.4688,19.7031 Q158.8438,19.125 158.25,18.8594 Q157.6563,18.5781 157.0313,18.5781 Q155.6875,18.5781 155,19.6563 Q154.3125,20.7188 154.3125,22.8125 Q154.3125,24.9063 155,25.9844 Q155.6875,27.0469 157.0313,27.0469 Q157.6563,27.0469 158.25,26.7813 Q158.8438,26.5 159.4688,25.9219 L159.4688,28.6406 Z " fill="#000000"/><text fill="#000000" font-family="sans-serif" font-size="14" lengthAdjust="spacing" textLength="68" x="170.5" y="27.8467">Exception</text><line style="stroke:#181818;stroke-width:0.5;" x1="142.5" x2="240.5" y1="39" y2="39"/><line style="stroke:#181818;stroke-width:0.5;" x1="142.5" x2="240.5" y1="47" y2="47"/></g><!--reverse link Exception to BestandNietGevondenException--><g id="link_Exception_BestandNietGevondenException"><path codeLine="4" d="M191.5,73.07 C191.5,90.25 191.5,95.88 191.5,114.75 " fill="none" id="Exception-backto-BestandNietGevondenException" style="stroke:#181818;stroke-width:1.0;"/><polygon fill="none" points="191.5,55.07,185.5,73.07,197.5,73.07,191.5,55.07" style="stroke:#181818;stroke-width:1.0;"/></g><!--SRC=[Iyv9B2vMS4ejBadCI_7BJ2rnJotBpqj9pNEjI4ujACdCprEevb800csyYZHoKukB4zDJhOfBYZBpqZMvQhaG1jZKwEhYrGq0]--></g></svg>