<?xml version="1.0" encoding="us-ascii" standalone="no"?><svg xmlns="http://www.w3.org/2000/svg" xmlns:xlink="http://www.w3.org/1999/xlink" contentStyleType="text/css" height="218px" preserveAspectRatio="none" style="width:479px;height:218px;background:#FFFFFF;" version="1.1" viewBox="0 0 479 218" width="479px" zoomAndPan="magnify"><defs/><g><!--class Docent--><g id="elem_Docent"><rect codeLine="1" fill="#F1F1F1" height="96.8906" id="Docent" rx="2.5" ry="2.5" style="stroke:#181818;stroke-width:0.5;" width="465" x="7" y="115"/><ellipse cx="209.75" cy="131" fill="#ADD1B2" rx="11" ry="11" style="stroke:#181818;stroke-width:1.0;"/><path d="M212.7188,136.6406 Q212.1406,136.9375 211.5,137.0781 Q210.8594,137.2344 210.1563,137.2344 Q207.6563,137.2344 206.3281,135.5938 Q205.0156,133.9375 205.0156,130.8125 Q205.0156,127.6875 206.3281,126.0313 Q207.6563,124.375 210.1563,124.375 Q210.8594,124.375 211.5,124.5313 Q212.1563,124.6875 212.7188,124.9844 L212.7188,127.7031 Q212.0938,127.125 211.5,126.8594 Q210.9063,126.5781 210.2813,126.5781 Q208.9375,126.5781 208.25,127.6563 Q207.5625,128.7188 207.5625,130.8125 Q207.5625,132.9063 208.25,133.9844 Q208.9375,135.0469 210.2813,135.0469 Q210.9063,135.0469 211.5,134.7813 Q212.0938,134.5 212.7188,133.9219 L212.7188,136.6406 Z " fill="#000000"/><text fill="#000000" font-family="sans-serif" font-size="14" lengthAdjust="spacing" textLength="51" x="230.25" y="135.8467">Docent</text><line style="stroke:#181818;stroke-width:0.5;" x1="8" x2="471" y1="147" y2="147"/><ellipse cx="18" cy="160.6484" fill="none" rx="3" ry="3" style="stroke:#038048;stroke-width:1.0;"/><text fill="#000000" font-family="sans-serif" font-size="14" lengthAdjust="spacing" textLength="184" x="27" y="163.9951">Loon : double &#171;get&#187; &#171;set&#187;</text><line style="stroke:#181818;stroke-width:0.5;" x1="8" x2="471" y1="171.2969" y2="171.2969"/><ellipse cx="18" cy="184.9453" fill="#84BE84" rx="3" ry="3" style="stroke:#038048;stroke-width:1.0;"/><text fill="#000000" font-family="sans-serif" font-size="14" lengthAdjust="spacing" textLength="439" x="27" y="188.292">Docent(id:int, voornaam:string, familienaam:string, loon:double)</text><ellipse cx="18" cy="201.2422" fill="#84BE84" rx="3" ry="3" style="stroke:#038048;stroke-width:1.0;"/><text fill="#000000" font-family="sans-serif" font-size="14" lengthAdjust="spacing" textLength="198" x="27" y="204.5889">&#171;override&#187; ToString() : string</text></g><!--class Gebruiker--><g id="elem_Gebruiker"><rect fill="#F1F1F1" height="48" id="Gebruiker" rx="2.5" ry="2.5" style="stroke:#181818;stroke-width:0.5;" width="100" x="189.5" y="7"/><ellipse cx="204.5" cy="23" fill="#ADD1B2" rx="11" ry="11" style="stroke:#181818;stroke-width:1.0;"/><path d="M207.4688,28.6406 Q206.8906,28.9375 206.25,29.0781 Q205.6094,29.2344 204.9063,29.2344 Q202.4063,29.2344 201.0781,27.5938 Q199.7656,25.9375 199.7656,22.8125 Q199.7656,19.6875 201.0781,18.0313 Q202.4063,16.375 204.9063,16.375 Q205.6094,16.375 206.25,16.5313 Q206.9063,16.6875 207.4688,16.9844 L207.4688,19.7031 Q206.8438,19.125 206.25,18.8594 Q205.6563,18.5781 205.0313,18.5781 Q203.6875,18.5781 203,19.6563 Q202.3125,20.7188 202.3125,22.8125 Q202.3125,24.9063 203,25.9844 Q203.6875,27.0469 205.0313,27.0469 Q205.6563,27.0469 206.25,26.7813 Q206.8438,26.5 207.4688,25.9219 L207.4688,28.6406 Z " fill="#000000"/><text fill="#000000" font-family="sans-serif" font-size="14" lengthAdjust="spacing" textLength="68" x="218.5" y="27.8467">Gebruiker</text><line style="stroke:#181818;stroke-width:0.5;" x1="190.5" x2="288.5" y1="39" y2="39"/><line style="stroke:#181818;stroke-width:0.5;" x1="190.5" x2="288.5" y1="47" y2="47"/></g><!--reverse link Gebruiker to Docent--><g id="link_Gebruiker_Docent"><path codeLine="6" d="M239.5,73.03 C239.5,89.57 239.5,94.44 239.5,114.84 " fill="none" id="Gebruiker-backto-Docent" style="stroke:#181818;stroke-width:1.0;"/><polygon fill="none" points="239.5,55.03,233.5,73.03,245.5,73.03,239.5,55.03" style="stroke:#181818;stroke-width:1.0;"/></g><!--SRC=[LOqn3eCm34NtdC8Zg721A6AgrALRUu50N6Grn98JM6ZlJcYorCkNhF_VcxoD4QuyOKYmAyXtWJjp00sErz4Z63DZ6eQSySpQAPE6dAQGEjYO9LYxw9Y4mjp1ooxa2Vz-FdDreROLOmnlA48Ei-79Zr-pQREzZDHNtN2KbTueO3vzNyK7]--></g></svg>