<?xml version="1.0" encoding="us-ascii" standalone="no"?><svg xmlns="http://www.w3.org/2000/svg" xmlns:xlink="http://www.w3.org/1999/xlink" contentStyleType="text/css" height="93px" preserveAspectRatio="none" style="width:394px;height:93px;background:#FFFFFF;" version="1.1" viewBox="0 0 394 93" width="394px" zoomAndPan="magnify"><defs/><g><!--class FileOperations--><g id="elem_FileOperations"><rect codeLine="1" fill="#F1F1F1" height="72.5625" id="FileOperations" rx="2.5" ry="2.5" style="stroke:#181818;stroke-width:0.5;" width="373" x="7" y="7"/><ellipse cx="139.75" cy="27.1328" fill="#ADD1B2" rx="11" ry="11" style="stroke:#181818;stroke-width:1.0;"/><path d="M142.7188,32.7734 Q142.1406,33.0703 141.5,33.2109 Q140.8594,33.3672 140.1563,33.3672 Q137.6563,33.3672 136.3281,31.7266 Q135.0156,30.0703 135.0156,26.9453 Q135.0156,23.8203 136.3281,22.1641 Q137.6563,20.5078 140.1563,20.5078 Q140.8594,20.5078 141.5,20.6641 Q142.1563,20.8203 142.7188,21.1172 L142.7188,23.8359 Q142.0938,23.2578 141.5,22.9922 Q140.9063,22.7109 140.2813,22.7109 Q138.9375,22.7109 138.25,23.7891 Q137.5625,24.8516 137.5625,26.9453 Q137.5625,29.0391 138.25,30.1172 Q138.9375,31.1797 140.2813,31.1797 Q140.9063,31.1797 141.5,30.9141 Q142.0938,30.6328 142.7188,30.0547 L142.7188,32.7734 Z " fill="#000000"/><text fill="#000000" font-family="sans-serif" font-size="12" font-style="italic" lengthAdjust="spacing" textLength="48" x="185.75" y="23.1387">&#171;static&#187;</text><text fill="#000000" font-family="sans-serif" font-size="14" lengthAdjust="spacing" textLength="99" x="160.25" y="38.9639">FileOperations</text><line style="stroke:#181818;stroke-width:0.5;" x1="8" x2="379" y1="47.2656" y2="47.2656"/><line style="stroke:#181818;stroke-width:0.5;" x1="8" x2="379" y1="55.2656" y2="55.2656"/><ellipse cx="18" cy="68.9141" fill="#84BE84" rx="3" ry="3" style="stroke:#038048;stroke-width:1.0;"/><text fill="#000000" font-family="sans-serif" font-size="14" lengthAdjust="spacing" text-decoration="underline" textLength="347" x="27" y="72.2607">BestandInlezen(bestand:string) : List&lt;Gebruiker&gt;</text></g><!--SRC=[Iyv9B2vMSClCIVKlI2rABCdCpojMiB4fBW4oa-ti5Agv5810Mw4Q8bAhu9GAPEMbUERbf5QbvcaaGRXMnIL5cNdfcWfM2ZwPnIKsxgb9HQMPsQb5Tbor0000]--></g></svg>