<?xml version="1.0" encoding="us-ascii" standalone="no"?><svg xmlns="http://www.w3.org/2000/svg" xmlns:xlink="http://www.w3.org/1999/xlink" contentStyleType="text/css" height="150px" preserveAspectRatio="none" style="width:412px;height:150px;background:#FFFFFF;" version="1.1" viewBox="0 0 412 150" width="412px" zoomAndPan="magnify"><defs/><g><!--class Gebruiker--><g id="elem_Gebruiker"><rect codeLine="1" fill="#F1F1F1" height="129.4844" id="Gebruiker" rx="2.5" ry="2.5" style="stroke:#181818;stroke-width:0.5;" width="391" x="7" y="7"/><ellipse cx="164.25" cy="23" fill="#ADD1B2" rx="11" ry="11" style="stroke:#181818;stroke-width:1.0;"/><path d="M167.2188,28.6406 Q166.6406,28.9375 166,29.0781 Q165.3594,29.2344 164.6563,29.2344 Q162.1563,29.2344 160.8281,27.5938 Q159.5156,25.9375 159.5156,22.8125 Q159.5156,19.6875 160.8281,18.0313 Q162.1563,16.375 164.6563,16.375 Q165.3594,16.375 166,16.5313 Q166.6563,16.6875 167.2188,16.9844 L167.2188,19.7031 Q166.5938,19.125 166,18.8594 Q165.4063,18.5781 164.7813,18.5781 Q163.4375,18.5781 162.75,19.6563 Q162.0625,20.7188 162.0625,22.8125 Q162.0625,24.9063 162.75,25.9844 Q163.4375,27.0469 164.7813,27.0469 Q165.4063,27.0469 166,26.7813 Q166.5938,26.5 167.2188,25.9219 L167.2188,28.6406 Z " fill="#000000"/><text fill="#000000" font-family="sans-serif" font-size="14" lengthAdjust="spacing" textLength="68" x="184.75" y="27.8467">Gebruiker</text><line style="stroke:#181818;stroke-width:0.5;" x1="8" x2="397" y1="39" y2="39"/><ellipse cx="18" cy="52.6484" fill="none" rx="3" ry="3" style="stroke:#038048;stroke-width:1.0;"/><text fill="#000000" font-family="sans-serif" font-size="14" lengthAdjust="spacing" textLength="211" x="27" y="55.9951">Voornaam : string &#171;get&#187; &#171;set&#187;</text><ellipse cx="18" cy="68.9453" fill="none" rx="3" ry="3" style="stroke:#038048;stroke-width:1.0;"/><text fill="#000000" font-family="sans-serif" font-size="14" lengthAdjust="spacing" textLength="226" x="27" y="72.292">Familienaam : string &#171;get&#187; &#171;set&#187;</text><ellipse cx="18" cy="85.2422" fill="none" rx="3" ry="3" style="stroke:#038048;stroke-width:1.0;"/><text fill="#000000" font-family="sans-serif" font-size="14" lengthAdjust="spacing" textLength="131" x="27" y="88.5889">Id : int &#171;get&#187; &#171;set&#187;</text><line style="stroke:#181818;stroke-width:0.5;" x1="8" x2="397" y1="95.8906" y2="95.8906"/><ellipse cx="18" cy="109.5391" fill="#84BE84" rx="3" ry="3" style="stroke:#038048;stroke-width:1.0;"/><text fill="#000000" font-family="sans-serif" font-size="14" lengthAdjust="spacing" textLength="365" x="27" y="112.8857">Gebruiker(id:int, voornaam:string, familienaam:string)</text><ellipse cx="18" cy="125.8359" fill="#84BE84" rx="3" ry="3" style="stroke:#038048;stroke-width:1.0;"/><text fill="#000000" font-family="sans-serif" font-size="14" lengthAdjust="spacing" textLength="198" x="27" y="129.1826">&#171;override&#187; ToString() : string</text></g><!--SRC=[Iyv9B2vMS4zDAYhDp4ujKgZcKW02ROMm_FoYlCJ4N0KhXUAIeioyT0KRc_JK4Zix85qCeg7gt19pCtCoKubHwfa2L96PLu936ku6ZSmKAw0o7OKog1ki8CRgAAGXB8EAQK8rszZabwKM5MMcf0BD3SaF1ajgQCATn5KB0000]--></g></svg>