<?xml version="1.0" encoding="us-ascii" standalone="no"?><svg xmlns="http://www.w3.org/2000/svg" xmlns:xlink="http://www.w3.org/1999/xlink" contentStyleType="text/css" height="299px" preserveAspectRatio="none" style="width:1190px;height:299px;background:#FFFFFF;" version="1.1" viewBox="0 0 1190 299" width="1190px" zoomAndPan="magnify"><defs/><g><!--class Klasse--><g id="elem_Klasse"><rect codeLine="1" fill="#F1F1F1" height="48" id="Klasse" rx="2.5" ry="2.5" style="stroke:#181818;stroke-width:0.5;" width="77" x="7" y="47.5"/><ellipse cx="22" cy="63.5" fill="#ADD1B2" rx="11" ry="11" style="stroke:#181818;stroke-width:1.0;"/><path d="M24.9688,69.1406 Q24.3906,69.4375 23.75,69.5781 Q23.1094,69.7344 22.4063,69.7344 Q19.9063,69.7344 18.5781,68.0938 Q17.2656,66.4375 17.2656,63.3125 Q17.2656,60.1875 18.5781,58.5313 Q19.9063,56.875 22.4063,56.875 Q23.1094,56.875 23.75,57.0313 Q24.4063,57.1875 24.9688,57.4844 L24.9688,60.2031 Q24.3438,59.625 23.75,59.3594 Q23.1563,59.0781 22.5313,59.0781 Q21.1875,59.0781 20.5,60.1563 Q19.8125,61.2188 19.8125,63.3125 Q19.8125,65.4063 20.5,66.4844 Q21.1875,67.5469 22.5313,67.5469 Q23.1563,67.5469 23.75,67.2813 Q24.3438,67 24.9688,66.4219 L24.9688,69.1406 Z " fill="#000000"/><text fill="#000000" font-family="sans-serif" font-size="14" lengthAdjust="spacing" textLength="45" x="36" y="68.3467">Klasse</text><line style="stroke:#181818;stroke-width:0.5;" x1="8" x2="83" y1="79.5" y2="79.5"/><line style="stroke:#181818;stroke-width:0.5;" x1="8" x2="83" y1="87.5" y2="87.5"/></g><!--class FileOperations--><g id="elem_FileOperations"><rect codeLine="1" fill="#F1F1F1" height="72.5625" id="FileOperations" rx="2.5" ry="2.5" style="stroke:#181818;stroke-width:0.5;" width="373" x="119" y="35"/><ellipse cx="251.75" cy="55.1328" fill="#ADD1B2" rx="11" ry="11" style="stroke:#181818;stroke-width:1.0;"/><path d="M254.7188,60.7734 Q254.1406,61.0703 253.5,61.2109 Q252.8594,61.3672 252.1563,61.3672 Q249.6563,61.3672 248.3281,59.7266 Q247.0156,58.0703 247.0156,54.9453 Q247.0156,51.8203 248.3281,50.1641 Q249.6563,48.5078 252.1563,48.5078 Q252.8594,48.5078 253.5,48.6641 Q254.1563,48.8203 254.7188,49.1172 L254.7188,51.8359 Q254.0938,51.2578 253.5,50.9922 Q252.9063,50.7109 252.2813,50.7109 Q250.9375,50.7109 250.25,51.7891 Q249.5625,52.8516 249.5625,54.9453 Q249.5625,57.0391 250.25,58.1172 Q250.9375,59.1797 252.2813,59.1797 Q252.9063,59.1797 253.5,58.9141 Q254.0938,58.6328 254.7188,58.0547 L254.7188,60.7734 Z " fill="#000000"/><text fill="#000000" font-family="sans-serif" font-size="12" font-style="italic" lengthAdjust="spacing" textLength="48" x="297.75" y="51.1387">&#171;static&#187;</text><text fill="#000000" font-family="sans-serif" font-size="14" lengthAdjust="spacing" textLength="99" x="272.25" y="66.9639">FileOperations</text><line style="stroke:#181818;stroke-width:0.5;" x1="120" x2="491" y1="75.2656" y2="75.2656"/><line style="stroke:#181818;stroke-width:0.5;" x1="120" x2="491" y1="83.2656" y2="83.2656"/><ellipse cx="130" cy="96.9141" fill="#84BE84" rx="3" ry="3" style="stroke:#038048;stroke-width:1.0;"/><text fill="#000000" font-family="sans-serif" font-size="14" lengthAdjust="spacing" text-decoration="underline" textLength="347" x="139" y="100.2607">BestandInlezen(bestand:string) : List&lt;Gebruiker&gt;</text></g><!--class Gebruiker--><g id="elem_Gebruiker"><rect codeLine="1" fill="#F1F1F1" height="129.4844" id="Gebruiker" rx="2.5" ry="2.5" style="stroke:#181818;stroke-width:0.5;" width="391" x="527" y="7"/><ellipse cx="684.25" cy="23" fill="#ADD1B2" rx="11" ry="11" style="stroke:#181818;stroke-width:1.0;"/><path d="M687.2188,28.6406 Q686.6406,28.9375 686,29.0781 Q685.3594,29.2344 684.6563,29.2344 Q682.1563,29.2344 680.8281,27.5938 Q679.5156,25.9375 679.5156,22.8125 Q679.5156,19.6875 680.8281,18.0313 Q682.1563,16.375 684.6563,16.375 Q685.3594,16.375 686,16.5313 Q686.6563,16.6875 687.2188,16.9844 L687.2188,19.7031 Q686.5938,19.125 686,18.8594 Q685.4063,18.5781 684.7813,18.5781 Q683.4375,18.5781 682.75,19.6563 Q682.0625,20.7188 682.0625,22.8125 Q682.0625,24.9063 682.75,25.9844 Q683.4375,27.0469 684.7813,27.0469 Q685.4063,27.0469 686,26.7813 Q686.5938,26.5 687.2188,25.9219 L687.2188,28.6406 Z " fill="#000000"/><text fill="#000000" font-family="sans-serif" font-size="14" lengthAdjust="spacing" textLength="68" x="704.75" y="27.8467">Gebruiker</text><line style="stroke:#181818;stroke-width:0.5;" x1="528" x2="917" y1="39" y2="39"/><ellipse cx="538" cy="52.6484" fill="none" rx="3" ry="3" style="stroke:#038048;stroke-width:1.0;"/><text fill="#000000" font-family="sans-serif" font-size="14" lengthAdjust="spacing" textLength="211" x="547" y="55.9951">Voornaam : string &#171;get&#187; &#171;set&#187;</text><ellipse cx="538" cy="68.9453" fill="none" rx="3" ry="3" style="stroke:#038048;stroke-width:1.0;"/><text fill="#000000" font-family="sans-serif" font-size="14" lengthAdjust="spacing" textLength="226" x="547" y="72.292">Familienaam : string &#171;get&#187; &#171;set&#187;</text><ellipse cx="538" cy="85.2422" fill="none" rx="3" ry="3" style="stroke:#038048;stroke-width:1.0;"/><text fill="#000000" font-family="sans-serif" font-size="14" lengthAdjust="spacing" textLength="131" x="547" y="88.5889">Id : int &#171;get&#187; &#171;set&#187;</text><line style="stroke:#181818;stroke-width:0.5;" x1="528" x2="917" y1="95.8906" y2="95.8906"/><ellipse cx="538" cy="109.5391" fill="#84BE84" rx="3" ry="3" style="stroke:#038048;stroke-width:1.0;"/><text fill="#000000" font-family="sans-serif" font-size="14" lengthAdjust="spacing" textLength="365" x="547" y="112.8857">Gebruiker(id:int, voornaam:string, familienaam:string)</text><ellipse cx="538" cy="125.8359" fill="#84BE84" rx="3" ry="3" style="stroke:#038048;stroke-width:1.0;"/><text fill="#000000" font-family="sans-serif" font-size="14" lengthAdjust="spacing" textLength="198" x="547" y="129.1826">&#171;override&#187; ToString() : string</text></g><!--class Student--><g id="elem_Student"><rect codeLine="1" fill="#F1F1F1" height="64.2969" id="Student" rx="2.5" ry="2.5" style="stroke:#181818;stroke-width:0.5;" width="378" x="304.5" y="212.5"/><ellipse cx="461.75" cy="228.5" fill="#ADD1B2" rx="11" ry="11" style="stroke:#181818;stroke-width:1.0;"/><path d="M464.7188,234.1406 Q464.1406,234.4375 463.5,234.5781 Q462.8594,234.7344 462.1563,234.7344 Q459.6563,234.7344 458.3281,233.0938 Q457.0156,231.4375 457.0156,228.3125 Q457.0156,225.1875 458.3281,223.5313 Q459.6563,221.875 462.1563,221.875 Q462.8594,221.875 463.5,222.0313 Q464.1563,222.1875 464.7188,222.4844 L464.7188,225.2031 Q464.0938,224.625 463.5,224.3594 Q462.9063,224.0781 462.2813,224.0781 Q460.9375,224.0781 460.25,225.1563 Q459.5625,226.2188 459.5625,228.3125 Q459.5625,230.4063 460.25,231.4844 Q460.9375,232.5469 462.2813,232.5469 Q462.9063,232.5469 463.5,232.2813 Q464.0938,232 464.7188,231.4219 L464.7188,234.1406 Z " fill="#000000"/><text fill="#000000" font-family="sans-serif" font-size="14" lengthAdjust="spacing" textLength="55" x="482.25" y="233.3467">Student</text><line style="stroke:#181818;stroke-width:0.5;" x1="305.5" x2="681.5" y1="244.5" y2="244.5"/><line style="stroke:#181818;stroke-width:0.5;" x1="305.5" x2="681.5" y1="252.5" y2="252.5"/><ellipse cx="315.5" cy="266.1484" fill="#84BE84" rx="3" ry="3" style="stroke:#038048;stroke-width:1.0;"/><text fill="#000000" font-family="sans-serif" font-size="14" lengthAdjust="spacing" textLength="352" x="324.5" y="269.4951">Student(id:int, voornaam:string, familienaam:string)</text></g><!--class Docent--><g id="elem_Docent"><rect codeLine="1" fill="#F1F1F1" height="96.8906" id="Docent" rx="2.5" ry="2.5" style="stroke:#181818;stroke-width:0.5;" width="465" x="718" y="196"/><ellipse cx="920.75" cy="212" fill="#ADD1B2" rx="11" ry="11" style="stroke:#181818;stroke-width:1.0;"/><path d="M923.7188,217.6406 Q923.1406,217.9375 922.5,218.0781 Q921.8594,218.2344 921.1563,218.2344 Q918.6563,218.2344 917.3281,216.5938 Q916.0156,214.9375 916.0156,211.8125 Q916.0156,208.6875 917.3281,207.0313 Q918.6563,205.375 921.1563,205.375 Q921.8594,205.375 922.5,205.5313 Q923.1563,205.6875 923.7188,205.9844 L923.7188,208.7031 Q923.0938,208.125 922.5,207.8594 Q921.9063,207.5781 921.2813,207.5781 Q919.9375,207.5781 919.25,208.6563 Q918.5625,209.7188 918.5625,211.8125 Q918.5625,213.9063 919.25,214.9844 Q919.9375,216.0469 921.2813,216.0469 Q921.9063,216.0469 922.5,215.7813 Q923.0938,215.5 923.7188,214.9219 L923.7188,217.6406 Z " fill="#000000"/><text fill="#000000" font-family="sans-serif" font-size="14" lengthAdjust="spacing" textLength="51" x="941.25" y="216.8467">Docent</text><line style="stroke:#181818;stroke-width:0.5;" x1="719" x2="1182" y1="228" y2="228"/><ellipse cx="729" cy="241.6484" fill="none" rx="3" ry="3" style="stroke:#038048;stroke-width:1.0;"/><text fill="#000000" font-family="sans-serif" font-size="14" lengthAdjust="spacing" textLength="184" x="738" y="244.9951">Loon : double &#171;get&#187; &#171;set&#187;</text><line style="stroke:#181818;stroke-width:0.5;" x1="719" x2="1182" y1="252.2969" y2="252.2969"/><ellipse cx="729" cy="265.9453" fill="#84BE84" rx="3" ry="3" style="stroke:#038048;stroke-width:1.0;"/><text fill="#000000" font-family="sans-serif" font-size="14" lengthAdjust="spacing" textLength="439" x="738" y="269.292">Docent(id:int, voornaam:string, familienaam:string, loon:double)</text><ellipse cx="729" cy="282.2422" fill="#84BE84" rx="3" ry="3" style="stroke:#038048;stroke-width:1.0;"/><text fill="#000000" font-family="sans-serif" font-size="14" lengthAdjust="spacing" textLength="198" x="738" y="285.5889">&#171;override&#187; ToString() : string</text></g><!--reverse link Gebruiker to Student--><g id="link_Gebruiker_Student"><path codeLine="4" d="M622.8082,146.9408 C587.9682,172.9608 563.67,191.1 535.21,212.35 " fill="none" id="Gebruiker-backto-Student" style="stroke:#181818;stroke-width:1.0;"/><polygon fill="none" points="637.23,136.17,619.2179,142.1336,626.3985,151.7481,637.23,136.17" style="stroke:#181818;stroke-width:1.0;"/></g><!--reverse link Gebruiker to Docent--><g id="link_Gebruiker_Docent"><path codeLine="6" d="M821.7967,146.9744 C848.1267,166.7344 862.29,177.34 886.91,195.81 " fill="none" id="Gebruiker-backto-Docent" style="stroke:#181818;stroke-width:1.0;"/><polygon fill="none" points="807.4,136.17,818.1953,151.7733,825.3982,142.1755,807.4,136.17" style="stroke:#181818;stroke-width:1.0;"/></g><!--SRC=[KypCIyufJKbLyCv9B2vErIiepStXKeG9kcNcfFeNf1ObbcJcvnMZIRgd9XMLPcQd5g691vS0oRmID56N_6IO8000]--></g></svg>