<?xml version="1.0" encoding="us-ascii" standalone="no"?><svg xmlns="http://www.w3.org/2000/svg" xmlns:xlink="http://www.w3.org/1999/xlink" contentStyleType="text/css" height="299px" preserveAspectRatio="none" style="width:1503px;height:299px;background:#FFFFFF;" version="1.1" viewBox="0 0 1503 299" width="1503px" zoomAndPan="magnify"><defs/><g><!--class BestandNietGevondenException--><g id="elem_BestandNietGevondenException"><rect codeLine="1" fill="#F1F1F1" height="64.2969" id="BestandNietGevondenException" rx="2.5" ry="2.5" style="stroke:#181818;stroke-width:0.5;" width="369" x="7" y="212.5"/><ellipse cx="74.75" cy="228.5" fill="#ADD1B2" rx="11" ry="11" style="stroke:#181818;stroke-width:1.0;"/><path d="M77.7188,234.1406 Q77.1406,234.4375 76.5,234.5781 Q75.8594,234.7344 75.1563,234.7344 Q72.6563,234.7344 71.3281,233.0938 Q70.0156,231.4375 70.0156,228.3125 Q70.0156,225.1875 71.3281,223.5313 Q72.6563,221.875 75.1563,221.875 Q75.8594,221.875 76.5,222.0313 Q77.1563,222.1875 77.7188,222.4844 L77.7188,225.2031 Q77.0938,224.625 76.5,224.3594 Q75.9063,224.0781 75.2813,224.0781 Q73.9375,224.0781 73.25,225.1563 Q72.5625,226.2188 72.5625,228.3125 Q72.5625,230.4063 73.25,231.4844 Q73.9375,232.5469 75.2813,232.5469 Q75.9063,232.5469 76.5,232.2813 Q77.0938,232 77.7188,231.4219 L77.7188,234.1406 Z " fill="#000000"/><text fill="#000000" font-family="sans-serif" font-size="14" lengthAdjust="spacing" textLength="225" x="95.25" y="233.3467">BestandNietGevondenException</text><line style="stroke:#181818;stroke-width:0.5;" x1="8" x2="375" y1="244.5" y2="244.5"/><line style="stroke:#181818;stroke-width:0.5;" x1="8" x2="375" y1="252.5" y2="252.5"/><ellipse cx="18" cy="266.1484" fill="#84BE84" rx="3" ry="3" style="stroke:#038048;stroke-width:1.0;"/><text fill="#000000" font-family="sans-serif" font-size="14" lengthAdjust="spacing" textLength="343" x="27" y="269.4951">BestandNietGevondenException(message:string)</text></g><!--class Exception--><g id="elem_Exception"><rect fill="#F1F1F1" height="48" id="Exception" rx="2.5" ry="2.5" style="stroke:#181818;stroke-width:0.5;" width="100" x="141.5" y="47.5"/><ellipse cx="156.5" cy="63.5" fill="#ADD1B2" rx="11" ry="11" style="stroke:#181818;stroke-width:1.0;"/><path d="M159.4688,69.1406 Q158.8906,69.4375 158.25,69.5781 Q157.6094,69.7344 156.9063,69.7344 Q154.4063,69.7344 153.0781,68.0938 Q151.7656,66.4375 151.7656,63.3125 Q151.7656,60.1875 153.0781,58.5313 Q154.4063,56.875 156.9063,56.875 Q157.6094,56.875 158.25,57.0313 Q158.9063,57.1875 159.4688,57.4844 L159.4688,60.2031 Q158.8438,59.625 158.25,59.3594 Q157.6563,59.0781 157.0313,59.0781 Q155.6875,59.0781 155,60.1563 Q154.3125,61.2188 154.3125,63.3125 Q154.3125,65.4063 155,66.4844 Q155.6875,67.5469 157.0313,67.5469 Q157.6563,67.5469 158.25,67.2813 Q158.8438,67 159.4688,66.4219 L159.4688,69.1406 Z " fill="#000000"/><text fill="#000000" font-family="sans-serif" font-size="14" lengthAdjust="spacing" textLength="68" x="170.5" y="68.3467">Exception</text><line style="stroke:#181818;stroke-width:0.5;" x1="142.5" x2="240.5" y1="79.5" y2="79.5"/><line style="stroke:#181818;stroke-width:0.5;" x1="142.5" x2="240.5" y1="87.5" y2="87.5"/></g><!--class FileOperations--><g id="elem_FileOperations"><rect codeLine="1" fill="#F1F1F1" height="88.8594" id="FileOperations" rx="2.5" ry="2.5" style="stroke:#181818;stroke-width:0.5;" width="373" x="365" y="27"/><ellipse cx="497.75" cy="47.1328" fill="#ADD1B2" rx="11" ry="11" style="stroke:#181818;stroke-width:1.0;"/><path d="M500.7188,52.7734 Q500.1406,53.0703 499.5,53.2109 Q498.8594,53.3672 498.1563,53.3672 Q495.6563,53.3672 494.3281,51.7266 Q493.0156,50.0703 493.0156,46.9453 Q493.0156,43.8203 494.3281,42.1641 Q495.6563,40.5078 498.1563,40.5078 Q498.8594,40.5078 499.5,40.6641 Q500.1563,40.8203 500.7188,41.1172 L500.7188,43.8359 Q500.0938,43.2578 499.5,42.9922 Q498.9063,42.7109 498.2813,42.7109 Q496.9375,42.7109 496.25,43.7891 Q495.5625,44.8516 495.5625,46.9453 Q495.5625,49.0391 496.25,50.1172 Q496.9375,51.1797 498.2813,51.1797 Q498.9063,51.1797 499.5,50.9141 Q500.0938,50.6328 500.7188,50.0547 L500.7188,52.7734 Z " fill="#000000"/><text fill="#000000" font-family="sans-serif" font-size="12" font-style="italic" lengthAdjust="spacing" textLength="48" x="543.75" y="43.1387">&#171;static&#187;</text><text fill="#000000" font-family="sans-serif" font-size="14" lengthAdjust="spacing" textLength="99" x="518.25" y="58.9639">FileOperations</text><line style="stroke:#181818;stroke-width:0.5;" x1="366" x2="737" y1="67.2656" y2="67.2656"/><line style="stroke:#181818;stroke-width:0.5;" x1="366" x2="737" y1="75.2656" y2="75.2656"/><ellipse cx="376" cy="88.9141" fill="#84BE84" rx="3" ry="3" style="stroke:#038048;stroke-width:1.0;"/><text fill="#000000" font-family="sans-serif" font-size="14" lengthAdjust="spacing" text-decoration="underline" textLength="347" x="385" y="92.2607">BestandInlezen(bestand:string) : List&lt;Gebruiker&gt;</text><ellipse cx="376" cy="105.2109" fill="#84BE84" rx="3" ry="3" style="stroke:#038048;stroke-width:1.0;"/><text fill="#000000" font-family="sans-serif" font-size="14" lengthAdjust="spacing" text-decoration="underline" textLength="223" x="385" y="108.5576">FoutLoggen(ex:Exception) : void</text></g><!--class Gebruiker--><g id="elem_Gebruiker"><rect codeLine="1" fill="#F1F1F1" height="129.4844" id="Gebruiker" rx="2.5" ry="2.5" style="stroke:#181818;stroke-width:0.5;" width="391" x="817" y="7"/><ellipse cx="974.25" cy="23" fill="#ADD1B2" rx="11" ry="11" style="stroke:#181818;stroke-width:1.0;"/><path d="M977.2188,28.6406 Q976.6406,28.9375 976,29.0781 Q975.3594,29.2344 974.6563,29.2344 Q972.1563,29.2344 970.8281,27.5938 Q969.5156,25.9375 969.5156,22.8125 Q969.5156,19.6875 970.8281,18.0313 Q972.1563,16.375 974.6563,16.375 Q975.3594,16.375 976,16.5313 Q976.6563,16.6875 977.2188,16.9844 L977.2188,19.7031 Q976.5938,19.125 976,18.8594 Q975.4063,18.5781 974.7813,18.5781 Q973.4375,18.5781 972.75,19.6563 Q972.0625,20.7188 972.0625,22.8125 Q972.0625,24.9063 972.75,25.9844 Q973.4375,27.0469 974.7813,27.0469 Q975.4063,27.0469 976,26.7813 Q976.5938,26.5 977.2188,25.9219 L977.2188,28.6406 Z " fill="#000000"/><text fill="#000000" font-family="sans-serif" font-size="14" lengthAdjust="spacing" textLength="68" x="994.75" y="27.8467">Gebruiker</text><line style="stroke:#181818;stroke-width:0.5;" x1="818" x2="1207" y1="39" y2="39"/><ellipse cx="828" cy="52.6484" fill="none" rx="3" ry="3" style="stroke:#038048;stroke-width:1.0;"/><text fill="#000000" font-family="sans-serif" font-size="14" lengthAdjust="spacing" textLength="211" x="837" y="55.9951">Voornaam : string &#171;get&#187; &#171;set&#187;</text><ellipse cx="828" cy="68.9453" fill="none" rx="3" ry="3" style="stroke:#038048;stroke-width:1.0;"/><text fill="#000000" font-family="sans-serif" font-size="14" lengthAdjust="spacing" textLength="226" x="837" y="72.292">Familienaam : string &#171;get&#187; &#171;set&#187;</text><ellipse cx="828" cy="85.2422" fill="none" rx="3" ry="3" style="stroke:#038048;stroke-width:1.0;"/><text fill="#000000" font-family="sans-serif" font-size="14" lengthAdjust="spacing" textLength="131" x="837" y="88.5889">Id : int &#171;get&#187; &#171;set&#187;</text><line style="stroke:#181818;stroke-width:0.5;" x1="818" x2="1207" y1="95.8906" y2="95.8906"/><ellipse cx="828" cy="109.5391" fill="#84BE84" rx="3" ry="3" style="stroke:#038048;stroke-width:1.0;"/><text fill="#000000" font-family="sans-serif" font-size="14" lengthAdjust="spacing" textLength="365" x="837" y="112.8857">Gebruiker(id:int, voornaam:string, familienaam:string)</text><ellipse cx="828" cy="125.8359" fill="#84BE84" rx="3" ry="3" style="stroke:#038048;stroke-width:1.0;"/><text fill="#000000" font-family="sans-serif" font-size="14" lengthAdjust="spacing" textLength="198" x="837" y="129.1826">&#171;override&#187; ToString() : string</text></g><!--class Student--><g id="elem_Student"><rect codeLine="1" fill="#F1F1F1" height="64.2969" id="Student" rx="2.5" ry="2.5" style="stroke:#181818;stroke-width:0.5;" width="378" x="617.5" y="212.5"/><ellipse cx="774.75" cy="228.5" fill="#ADD1B2" rx="11" ry="11" style="stroke:#181818;stroke-width:1.0;"/><path d="M777.7188,234.1406 Q777.1406,234.4375 776.5,234.5781 Q775.8594,234.7344 775.1563,234.7344 Q772.6563,234.7344 771.3281,233.0938 Q770.0156,231.4375 770.0156,228.3125 Q770.0156,225.1875 771.3281,223.5313 Q772.6563,221.875 775.1563,221.875 Q775.8594,221.875 776.5,222.0313 Q777.1563,222.1875 777.7188,222.4844 L777.7188,225.2031 Q777.0938,224.625 776.5,224.3594 Q775.9063,224.0781 775.2813,224.0781 Q773.9375,224.0781 773.25,225.1563 Q772.5625,226.2188 772.5625,228.3125 Q772.5625,230.4063 773.25,231.4844 Q773.9375,232.5469 775.2813,232.5469 Q775.9063,232.5469 776.5,232.2813 Q777.0938,232 777.7188,231.4219 L777.7188,234.1406 Z " fill="#000000"/><text fill="#000000" font-family="sans-serif" font-size="14" lengthAdjust="spacing" textLength="55" x="795.25" y="233.3467">Student</text><line style="stroke:#181818;stroke-width:0.5;" x1="618.5" x2="994.5" y1="244.5" y2="244.5"/><line style="stroke:#181818;stroke-width:0.5;" x1="618.5" x2="994.5" y1="252.5" y2="252.5"/><ellipse cx="628.5" cy="266.1484" fill="#84BE84" rx="3" ry="3" style="stroke:#038048;stroke-width:1.0;"/><text fill="#000000" font-family="sans-serif" font-size="14" lengthAdjust="spacing" textLength="352" x="637.5" y="269.4951">Student(id:int, voornaam:string, familienaam:string)</text></g><!--class Docent--><g id="elem_Docent"><rect codeLine="1" fill="#F1F1F1" height="96.8906" id="Docent" rx="2.5" ry="2.5" style="stroke:#181818;stroke-width:0.5;" width="465" x="1031" y="196"/><ellipse cx="1233.75" cy="212" fill="#ADD1B2" rx="11" ry="11" style="stroke:#181818;stroke-width:1.0;"/><path d="M1236.7188,217.6406 Q1236.1406,217.9375 1235.5,218.0781 Q1234.8594,218.2344 1234.1563,218.2344 Q1231.6563,218.2344 1230.3281,216.5938 Q1229.0156,214.9375 1229.0156,211.8125 Q1229.0156,208.6875 1230.3281,207.0313 Q1231.6563,205.375 1234.1563,205.375 Q1234.8594,205.375 1235.5,205.5313 Q1236.1563,205.6875 1236.7188,205.9844 L1236.7188,208.7031 Q1236.0938,208.125 1235.5,207.8594 Q1234.9063,207.5781 1234.2813,207.5781 Q1232.9375,207.5781 1232.25,208.6563 Q1231.5625,209.7188 1231.5625,211.8125 Q1231.5625,213.9063 1232.25,214.9844 Q1232.9375,216.0469 1234.2813,216.0469 Q1234.9063,216.0469 1235.5,215.7813 Q1236.0938,215.5 1236.7188,214.9219 L1236.7188,217.6406 Z " fill="#000000"/><text fill="#000000" font-family="sans-serif" font-size="14" lengthAdjust="spacing" textLength="51" x="1254.25" y="216.8467">Docent</text><line style="stroke:#181818;stroke-width:0.5;" x1="1032" x2="1495" y1="228" y2="228"/><ellipse cx="1042" cy="241.6484" fill="none" rx="3" ry="3" style="stroke:#038048;stroke-width:1.0;"/><text fill="#000000" font-family="sans-serif" font-size="14" lengthAdjust="spacing" textLength="184" x="1051" y="244.9951">Loon : double &#171;get&#187; &#171;set&#187;</text><line style="stroke:#181818;stroke-width:0.5;" x1="1032" x2="1495" y1="252.2969" y2="252.2969"/><ellipse cx="1042" cy="265.9453" fill="#84BE84" rx="3" ry="3" style="stroke:#038048;stroke-width:1.0;"/><text fill="#000000" font-family="sans-serif" font-size="14" lengthAdjust="spacing" textLength="439" x="1051" y="269.292">Docent(id:int, voornaam:string, familienaam:string, loon:double)</text><ellipse cx="1042" cy="282.2422" fill="#84BE84" rx="3" ry="3" style="stroke:#038048;stroke-width:1.0;"/><text fill="#000000" font-family="sans-serif" font-size="14" lengthAdjust="spacing" textLength="198" x="1051" y="285.5889">&#171;override&#187; ToString() : string</text></g><!--reverse link Exception to BestandNietGevondenException--><g id="link_Exception_BestandNietGevondenException"><path codeLine="4" d="M191.5,113.56 C191.5,143.74 191.5,178.73 191.5,212.42 " fill="none" id="Exception-backto-BestandNietGevondenException" style="stroke:#181818;stroke-width:1.0;"/><polygon fill="none" points="191.5,95.56,185.5,113.56,197.5,113.56,191.5,95.56" style="stroke:#181818;stroke-width:1.0;"/></g><!--reverse link Gebruiker to Student--><g id="link_Gebruiker_Student"><path codeLine="4" d="M921.941,147.6681 C890.601,173.6881 869.63,191.1 844.02,212.35 " fill="none" id="Gebruiker-backto-Student" style="stroke:#181818;stroke-width:1.0;"/><polygon fill="none" points="935.79,136.17,918.1083,143.0518,925.7737,152.2844,935.79,136.17" style="stroke:#181818;stroke-width:1.0;"/></g><!--reverse link Gebruiker to Docent--><g id="link_Gebruiker_Docent"><path codeLine="6" d="M1120.8335,146.308 C1149.8235,166.068 1166.39,177.34 1193.5,195.81 " fill="none" id="Gebruiker-backto-Docent" style="stroke:#181818;stroke-width:1.0;"/><polygon fill="none" points="1105.96,136.17,1117.4542,151.2658,1124.2128,141.3502,1105.96,136.17" style="stroke:#181818;stroke-width:1.0;"/></g><!--SRC=[KypCIyufJKbLS4ejBadCI_7BJ2rnJotBpqj9pNEjI4ujACdCpzChACtDuLA4ANNBp4drBqWjIWJ95QD9kgSc5PLcPgSMeOa7bm39l18qKPVyP9WW0000]--></g></svg>