<?xml version="1.0" encoding="us-ascii" standalone="no"?><svg xmlns="http://www.w3.org/2000/svg" xmlns:xlink="http://www.w3.org/1999/xlink" contentStyleType="text/css" height="186px" preserveAspectRatio="none" style="width:392px;height:186px;background:#FFFFFF;" version="1.1" viewBox="0 0 392 186" width="392px" zoomAndPan="magnify"><defs/><g><!--class Student--><g id="elem_Student"><rect codeLine="1" fill="#F1F1F1" height="64.2969" id="Student" rx="2.5" ry="2.5" style="stroke:#181818;stroke-width:0.5;" width="378" x="7" y="115"/><ellipse cx="164.25" cy="131" fill="#ADD1B2" rx="11" ry="11" style="stroke:#181818;stroke-width:1.0;"/><path d="M167.2188,136.6406 Q166.6406,136.9375 166,137.0781 Q165.3594,137.2344 164.6563,137.2344 Q162.1563,137.2344 160.8281,135.5938 Q159.5156,133.9375 159.5156,130.8125 Q159.5156,127.6875 160.8281,126.0313 Q162.1563,124.375 164.6563,124.375 Q165.3594,124.375 166,124.5313 Q166.6563,124.6875 167.2188,124.9844 L167.2188,127.7031 Q166.5938,127.125 166,126.8594 Q165.4063,126.5781 164.7813,126.5781 Q163.4375,126.5781 162.75,127.6563 Q162.0625,128.7188 162.0625,130.8125 Q162.0625,132.9063 162.75,133.9844 Q163.4375,135.0469 164.7813,135.0469 Q165.4063,135.0469 166,134.7813 Q166.5938,134.5 167.2188,133.9219 L167.2188,136.6406 Z " fill="#000000"/><text fill="#000000" font-family="sans-serif" font-size="14" lengthAdjust="spacing" textLength="55" x="184.75" y="135.8467">Student</text><line style="stroke:#181818;stroke-width:0.5;" x1="8" x2="384" y1="147" y2="147"/><line style="stroke:#181818;stroke-width:0.5;" x1="8" x2="384" y1="155" y2="155"/><ellipse cx="18" cy="168.6484" fill="#84BE84" rx="3" ry="3" style="stroke:#038048;stroke-width:1.0;"/><text fill="#000000" font-family="sans-serif" font-size="14" lengthAdjust="spacing" textLength="352" x="27" y="171.9951">Student(id:int, voornaam:string, familienaam:string)</text></g><!--class Gebruiker--><g id="elem_Gebruiker"><rect fill="#F1F1F1" height="48" id="Gebruiker" rx="2.5" ry="2.5" style="stroke:#181818;stroke-width:0.5;" width="100" x="146" y="7"/><ellipse cx="161" cy="23" fill="#ADD1B2" rx="11" ry="11" style="stroke:#181818;stroke-width:1.0;"/><path d="M163.9688,28.6406 Q163.3906,28.9375 162.75,29.0781 Q162.1094,29.2344 161.4063,29.2344 Q158.9063,29.2344 157.5781,27.5938 Q156.2656,25.9375 156.2656,22.8125 Q156.2656,19.6875 157.5781,18.0313 Q158.9063,16.375 161.4063,16.375 Q162.1094,16.375 162.75,16.5313 Q163.4063,16.6875 163.9688,16.9844 L163.9688,19.7031 Q163.3438,19.125 162.75,18.8594 Q162.1563,18.5781 161.5313,18.5781 Q160.1875,18.5781 159.5,19.6563 Q158.8125,20.7188 158.8125,22.8125 Q158.8125,24.9063 159.5,25.9844 Q160.1875,27.0469 161.5313,27.0469 Q162.1563,27.0469 162.75,26.7813 Q163.3438,26.5 163.9688,25.9219 L163.9688,28.6406 Z " fill="#000000"/><text fill="#000000" font-family="sans-serif" font-size="14" lengthAdjust="spacing" textLength="68" x="175" y="27.8467">Gebruiker</text><line style="stroke:#181818;stroke-width:0.5;" x1="147" x2="245" y1="39" y2="39"/><line style="stroke:#181818;stroke-width:0.5;" x1="147" x2="245" y1="47" y2="47"/></g><!--reverse link Gebruiker to Student--><g id="link_Gebruiker_Student"><path codeLine="4" d="M196,73.07 C196,90.25 196,95.88 196,114.75 " fill="none" id="Gebruiker-backto-Student" style="stroke:#181818;stroke-width:1.0;"/><polygon fill="none" points="196,55.07,190,73.07,202,73.07,196,55.07" style="stroke:#181818;stroke-width:1.0;"/></g><!--SRC=[Iyv9B2vM22ufJKdDAr6evb800cqONoCpnIephqH7eIm_loWlCJ7NghYaA3ClNKSXBJ4tCoSp5KbCawkMopqrgQWqCpkrIC6cHbSNPWe0]--></g></svg>