<?xml version="1.0" encoding="us-ascii" standalone="no"?><svg xmlns="http://www.w3.org/2000/svg" xmlns:xlink="http://www.w3.org/1999/xlink" contentStyleType="text/css" height="166px" preserveAspectRatio="none" style="width:273px;height:166px;background:#FFFFFF;" version="1.1" viewBox="0 0 273 166" width="273px" zoomAndPan="magnify"><defs/><g><!--class Gebruiker--><g id="elem_Gebruiker"><rect codeLine="1" fill="#F1F1F1" height="145.7813" id="Gebruiker" rx="2.5" ry="2.5" style="stroke:#181818;stroke-width:0.5;" width="252" x="7" y="7"/><ellipse cx="94.75" cy="23" fill="#ADD1B2" rx="11" ry="11" style="stroke:#181818;stroke-width:1.0;"/><path d="M97.7188,28.6406 Q97.1406,28.9375 96.5,29.0781 Q95.8594,29.2344 95.1563,29.2344 Q92.6563,29.2344 91.3281,27.5938 Q90.0156,25.9375 90.0156,22.8125 Q90.0156,19.6875 91.3281,18.0313 Q92.6563,16.375 95.1563,16.375 Q95.8594,16.375 96.5,16.5313 Q97.1563,16.6875 97.7188,16.9844 L97.7188,19.7031 Q97.0938,19.125 96.5,18.8594 Q95.9063,18.5781 95.2813,18.5781 Q93.9375,18.5781 93.25,19.6563 Q92.5625,20.7188 92.5625,22.8125 Q92.5625,24.9063 93.25,25.9844 Q93.9375,27.0469 95.2813,27.0469 Q95.9063,27.0469 96.5,26.7813 Q97.0938,26.5 97.7188,25.9219 L97.7188,28.6406 Z " fill="#000000"/><text fill="#000000" font-family="sans-serif" font-size="14" lengthAdjust="spacing" textLength="68" x="115.25" y="27.8467">Gebruiker</text><line style="stroke:#181818;stroke-width:0.5;" x1="8" x2="258" y1="39" y2="39"/><ellipse cx="18" cy="52.6484" fill="none" rx="3" ry="3" style="stroke:#038048;stroke-width:1.0;"/><text fill="#000000" font-family="sans-serif" font-size="14" lengthAdjust="spacing" textLength="178" x="27" y="55.9951">Nummer : int &#171;get&#187; &#171;set&#187;</text><ellipse cx="18" cy="68.9453" fill="none" rx="3" ry="3" style="stroke:#038048;stroke-width:1.0;"/><text fill="#000000" font-family="sans-serif" font-size="14" lengthAdjust="spacing" textLength="211" x="27" y="72.292">Voornaam : string &#171;get&#187; &#171;set&#187;</text><ellipse cx="18" cy="85.2422" fill="none" rx="3" ry="3" style="stroke:#038048;stroke-width:1.0;"/><text fill="#000000" font-family="sans-serif" font-size="14" lengthAdjust="spacing" textLength="226" x="27" y="88.5889">Familienaam : string &#171;get&#187; &#171;set&#187;</text><line style="stroke:#181818;stroke-width:0.5;" x1="8" x2="258" y1="95.8906" y2="95.8906"/><ellipse cx="18" cy="109.5391" fill="#84BE84" rx="3" ry="3" style="stroke:#038048;stroke-width:1.0;"/><text fill="#000000" font-family="sans-serif" font-size="14" lengthAdjust="spacing" textLength="78" x="27" y="112.8857">Gebruiker()</text><ellipse cx="18" cy="125.8359" fill="#84BE84" rx="3" ry="3" style="stroke:#038048;stroke-width:1.0;"/><text fill="#000000" font-family="sans-serif" font-size="14" lengthAdjust="spacing" textLength="101" x="27" y="129.1826">Wissen() : void</text><ellipse cx="18" cy="142.1328" fill="#84BE84" rx="3" ry="3" style="stroke:#038048;stroke-width:1.0;"/><text fill="#000000" font-family="sans-serif" font-size="14" lengthAdjust="spacing" textLength="169" x="27" y="145.4795">ToonGegevens() : string</text></g><!--SRC=[Iyv9B2vMS4zDAYhDp4ujKgZcKW02RGM_qjnS8DTA8JElHC769ZsrnCuEI1U3QAYIiFpyehp4n5oWekAIeioyT1pgt19pCtCoKubH2dU7XYPK93opk3WrJqCJgBCiFpC5AXgIdv_ddfgUMfQQLmoMWvZALGi0]--></g></svg>