<?xml version="1.0" encoding="us-ascii" standalone="no"?><svg xmlns="http://www.w3.org/2000/svg" xmlns:xlink="http://www.w3.org/1999/xlink" contentStyleType="text/css" height="199px" preserveAspectRatio="none" style="width:232px;height:199px;background:#FFFFFF;" version="1.1" viewBox="0 0 232 199" width="232px" zoomAndPan="magnify"><defs/><g><!--class Televisie--><g id="elem_Televisie"><rect codeLine="1" fill="#F1F1F1" height="178.375" id="Televisie" rx="2.5" ry="2.5" style="stroke:#181818;stroke-width:0.5;" width="211" x="7" y="7"/><ellipse cx="78.25" cy="23" fill="#ADD1B2" rx="11" ry="11" style="stroke:#181818;stroke-width:1.0;"/><path d="M81.2188,28.6406 Q80.6406,28.9375 80,29.0781 Q79.3594,29.2344 78.6563,29.2344 Q76.1563,29.2344 74.8281,27.5938 Q73.5156,25.9375 73.5156,22.8125 Q73.5156,19.6875 74.8281,18.0313 Q76.1563,16.375 78.6563,16.375 Q79.3594,16.375 80,16.5313 Q80.6563,16.6875 81.2188,16.9844 L81.2188,19.7031 Q80.5938,19.125 80,18.8594 Q79.4063,18.5781 78.7813,18.5781 Q77.4375,18.5781 76.75,19.6563 Q76.0625,20.7188 76.0625,22.8125 Q76.0625,24.9063 76.75,25.9844 Q77.4375,27.0469 78.7813,27.0469 Q79.4063,27.0469 80,26.7813 Q80.5938,26.5 81.2188,25.9219 L81.2188,28.6406 Z " fill="#000000"/><text fill="#000000" font-family="sans-serif" font-size="14" lengthAdjust="spacing" textLength="60" x="98.75" y="27.8467">Televisie</text><line style="stroke:#181818;stroke-width:0.5;" x1="8" x2="217" y1="39" y2="39"/><ellipse cx="18" cy="52.6484" fill="none" rx="3" ry="3" style="stroke:#038048;stroke-width:1.0;"/><text fill="#000000" font-family="sans-serif" font-size="14" lengthAdjust="spacing" textLength="164" x="27" y="55.9951">Kanaal : int &#171;get&#187; &#171;set&#187;</text><ellipse cx="18" cy="68.9453" fill="none" rx="3" ry="3" style="stroke:#038048;stroke-width:1.0;"/><text fill="#000000" font-family="sans-serif" font-size="14" lengthAdjust="spacing" textLength="171" x="27" y="72.292">Volume : int &#171;get&#187; &#171;set&#187;</text><line style="stroke:#181818;stroke-width:0.5;" x1="8" x2="217" y1="79.5938" y2="79.5938"/><ellipse cx="18" cy="93.2422" fill="#84BE84" rx="3" ry="3" style="stroke:#038048;stroke-width:1.0;"/><text fill="#000000" font-family="sans-serif" font-size="14" lengthAdjust="spacing" textLength="169" x="27" y="96.5889">ToonGegevens() : string</text><ellipse cx="18" cy="109.5391" fill="#84BE84" rx="3" ry="3" style="stroke:#038048;stroke-width:1.0;"/><text fill="#000000" font-family="sans-serif" font-size="14" lengthAdjust="spacing" textLength="178" x="27" y="112.8857">VermeerderKanaal() : void</text><ellipse cx="18" cy="125.8359" fill="#84BE84" rx="3" ry="3" style="stroke:#038048;stroke-width:1.0;"/><text fill="#000000" font-family="sans-serif" font-size="14" lengthAdjust="spacing" textLength="167" x="27" y="129.1826">VerminderKanaal() : void</text><ellipse cx="18" cy="142.1328" fill="#84BE84" rx="3" ry="3" style="stroke:#038048;stroke-width:1.0;"/><text fill="#000000" font-family="sans-serif" font-size="14" lengthAdjust="spacing" textLength="185" x="27" y="145.4795">VermeerderVolume() : void</text><ellipse cx="18" cy="158.4297" fill="#84BE84" rx="3" ry="3" style="stroke:#038048;stroke-width:1.0;"/><text fill="#000000" font-family="sans-serif" font-size="14" lengthAdjust="spacing" textLength="174" x="27" y="161.7764">VerminderVolume() : void</text><ellipse cx="18" cy="174.7266" fill="#84BE84" rx="3" ry="3" style="stroke:#038048;stroke-width:1.0;"/><text fill="#000000" font-family="sans-serif" font-size="14" lengthAdjust="spacing" textLength="70" x="27" y="178.0732">Televisie()</text></g><!--SRC=[Iyv9B2vM24dDIItBBCvCLQZcKW02RGNlnBp4n1m5AuNCl1856vlqr18xEo1T3AAXIiBoSqfpK_4g2SdFptDFJKyjIyqhrj04AYqkAShCIuSPa5gKcvfQb99Q1B4DhA8iFpC5IJup3wyqH3l49JYrOvU6-rb3awiM0000]--></g></svg>