<?xml version="1.0" encoding="us-ascii" standalone="no"?><svg xmlns="http://www.w3.org/2000/svg" xmlns:xlink="http://www.w3.org/1999/xlink" contentStyleType="text/css" height="333px" preserveAspectRatio="none" style="width:618px;height:333px;background:#FFFFFF;" version="1.1" viewBox="0 0 618 333" width="618px" zoomAndPan="magnify"><defs/><g><!--class Medewerker--><g id="elem_Medewerker"><rect codeLine="1" fill="#F1F1F1" height="145.7813" id="Medewerker" rx="2.5" ry="2.5" style="stroke:#181818;stroke-width:0.5;" width="481" x="68.5" y="7"/><ellipse cx="261.75" cy="23" fill="#ADD1B2" rx="11" ry="11" style="stroke:#181818;stroke-width:1.0;"/><path d="M264.7188,28.6406 Q264.1406,28.9375 263.5,29.0781 Q262.8594,29.2344 262.1563,29.2344 Q259.6563,29.2344 258.3281,27.5938 Q257.0156,25.9375 257.0156,22.8125 Q257.0156,19.6875 258.3281,18.0313 Q259.6563,16.375 262.1563,16.375 Q262.8594,16.375 263.5,16.5313 Q264.1563,16.6875 264.7188,16.9844 L264.7188,19.7031 Q264.0938,19.125 263.5,18.8594 Q262.9063,18.5781 262.2813,18.5781 Q260.9375,18.5781 260.25,19.6563 Q259.5625,20.7188 259.5625,22.8125 Q259.5625,24.9063 260.25,25.9844 Q260.9375,27.0469 262.2813,27.0469 Q262.9063,27.0469 263.5,26.7813 Q264.0938,26.5 264.7188,25.9219 L264.7188,28.6406 Z " fill="#000000"/><text fill="#000000" font-family="sans-serif" font-size="14" lengthAdjust="spacing" textLength="86" x="282.25" y="27.8467">Medewerker</text><line style="stroke:#181818;stroke-width:0.5;" x1="69.5" x2="548.5" y1="39" y2="39"/><ellipse cx="79.5" cy="52.6484" fill="none" rx="3" ry="3" style="stroke:#038048;stroke-width:1.0;"/><text fill="#000000" font-family="sans-serif" font-size="14" lengthAdjust="spacing" textLength="211" x="88.5" y="55.9951">Voornaam : string &#171;get&#187; &#171;set&#187;</text><ellipse cx="79.5" cy="68.9453" fill="none" rx="3" ry="3" style="stroke:#038048;stroke-width:1.0;"/><text fill="#000000" font-family="sans-serif" font-size="14" lengthAdjust="spacing" textLength="226" x="88.5" y="72.292">Familienaam : string &#171;get&#187; &#171;set&#187;</text><ellipse cx="79.5" cy="85.2422" fill="none" rx="3" ry="3" style="stroke:#038048;stroke-width:1.0;"/><text fill="#000000" font-family="sans-serif" font-size="14" lengthAdjust="spacing" textLength="204" x="88.5" y="88.5889">Uurloon : double &#171;get&#187; &#171;set&#187;</text><line style="stroke:#181818;stroke-width:0.5;" x1="69.5" x2="548.5" y1="95.8906" y2="95.8906"/><ellipse cx="79.5" cy="109.5391" fill="#84BE84" rx="3" ry="3" style="stroke:#038048;stroke-width:1.0;"/><text fill="#000000" font-family="sans-serif" font-size="14" lengthAdjust="spacing" textLength="455" x="88.5" y="112.8857">Medewerker(voornaam:string, familienaam:string, uurloon:double)</text><ellipse cx="79.5" cy="125.8359" fill="#84BE84" rx="3" ry="3" style="stroke:#038048;stroke-width:1.0;"/><text fill="#000000" font-family="sans-serif" font-size="14" lengthAdjust="spacing" textLength="268" x="88.5" y="129.1826">&#171;virtual&#187; BerekenMaandloon() : double</text><ellipse cx="79.5" cy="142.1328" fill="#84BE84" rx="3" ry="3" style="stroke:#038048;stroke-width:1.0;"/><text fill="#000000" font-family="sans-serif" font-size="14" lengthAdjust="spacing" textLength="198" x="88.5" y="145.4795">&#171;override&#187; ToString() : string</text></g><!--class Eigenaar--><g id="elem_Eigenaar"><rect codeLine="1" fill="#F1F1F1" height="113.1875" id="Eigenaar" rx="2.5" ry="2.5" style="stroke:#181818;stroke-width:0.5;" width="604" x="7" y="213"/><ellipse cx="274.75" cy="229" fill="#ADD1B2" rx="11" ry="11" style="stroke:#181818;stroke-width:1.0;"/><path d="M277.7188,234.6406 Q277.1406,234.9375 276.5,235.0781 Q275.8594,235.2344 275.1563,235.2344 Q272.6563,235.2344 271.3281,233.5938 Q270.0156,231.9375 270.0156,228.8125 Q270.0156,225.6875 271.3281,224.0313 Q272.6563,222.375 275.1563,222.375 Q275.8594,222.375 276.5,222.5313 Q277.1563,222.6875 277.7188,222.9844 L277.7188,225.7031 Q277.0938,225.125 276.5,224.8594 Q275.9063,224.5781 275.2813,224.5781 Q273.9375,224.5781 273.25,225.6563 Q272.5625,226.7188 272.5625,228.8125 Q272.5625,230.9063 273.25,231.9844 Q273.9375,233.0469 275.2813,233.0469 Q275.9063,233.0469 276.5,232.7813 Q277.0938,232.5 277.7188,231.9219 L277.7188,234.6406 Z " fill="#000000"/><text fill="#000000" font-family="sans-serif" font-size="14" lengthAdjust="spacing" textLength="60" x="295.25" y="233.8467">Eigenaar</text><line style="stroke:#181818;stroke-width:0.5;" x1="8" x2="610" y1="245" y2="245"/><ellipse cx="18" cy="258.6484" fill="none" rx="3" ry="3" style="stroke:#038048;stroke-width:1.0;"/><text fill="#000000" font-family="sans-serif" font-size="14" lengthAdjust="spacing" textLength="240" x="27" y="261.9951">VastInkomen : double &#171;get&#187; &#171;set&#187;</text><line style="stroke:#181818;stroke-width:0.5;" x1="8" x2="610" y1="269.2969" y2="269.2969"/><ellipse cx="18" cy="282.9453" fill="#84BE84" rx="3" ry="3" style="stroke:#038048;stroke-width:1.0;"/><text fill="#000000" font-family="sans-serif" font-size="14" lengthAdjust="spacing" textLength="578" x="27" y="286.292">Eigenaar(voornaam:string, familienaam:string, uurloon:double, vastInkomen:double)</text><ellipse cx="18" cy="299.2422" fill="#84BE84" rx="3" ry="3" style="stroke:#038048;stroke-width:1.0;"/><text fill="#000000" font-family="sans-serif" font-size="14" lengthAdjust="spacing" textLength="284" x="27" y="302.5889">&#171;override&#187; BerekenMaandloon() : double</text><ellipse cx="18" cy="315.5391" fill="#84BE84" rx="3" ry="3" style="stroke:#038048;stroke-width:1.0;"/><text fill="#000000" font-family="sans-serif" font-size="14" lengthAdjust="spacing" textLength="198" x="27" y="318.8857">&#171;override&#187; ToString() : string</text></g><!--reverse link Medewerker to Eigenaar--><g id="link_Medewerker_Eigenaar"><path codeLine="7" d="M309,171.22 C309,191.03 309,194.19 309,212.91 " fill="none" id="Medewerker-backto-Eigenaar" style="stroke:#181818;stroke-width:1.0;"/><polygon fill="none" points="309,153.22,303,171.22,315,171.22,309,153.22" style="stroke:#181818;stroke-width:1.0;"/></g><!--SRC=[KypCIyufJKbLy4rDIIrFBSfEBT8hACtDuLA4IRXcfgVc9IP2X040]--></g></svg>