<?xml version="1.0" encoding="us-ascii" standalone="no"?><svg xmlns="http://www.w3.org/2000/svg" xmlns:xlink="http://www.w3.org/1999/xlink" contentStyleType="text/css" height="218px" preserveAspectRatio="none" style="width:324px;height:218px;background:#FFFFFF;" version="1.1" viewBox="0 0 324 218" width="324px" zoomAndPan="magnify"><defs/><g><!--class ArgentaRekening--><g id="elem_ArgentaRekening"><rect codeLine="1" fill="#F1F1F1" height="96.8906" id="ArgentaRekening" rx="2.5" ry="2.5" style="stroke:#181818;stroke-width:0.5;" width="310" x="7" y="115"/><ellipse cx="97.75" cy="131" fill="#ADD1B2" rx="11" ry="11" style="stroke:#181818;stroke-width:1.0;"/><path d="M100.7188,136.6406 Q100.1406,136.9375 99.5,137.0781 Q98.8594,137.2344 98.1563,137.2344 Q95.6563,137.2344 94.3281,135.5938 Q93.0156,133.9375 93.0156,130.8125 Q93.0156,127.6875 94.3281,126.0313 Q95.6563,124.375 98.1563,124.375 Q98.8594,124.375 99.5,124.5313 Q100.1563,124.6875 100.7188,124.9844 L100.7188,127.7031 Q100.0938,127.125 99.5,126.8594 Q98.9063,126.5781 98.2813,126.5781 Q96.9375,126.5781 96.25,127.6563 Q95.5625,128.7188 95.5625,130.8125 Q95.5625,132.9063 96.25,133.9844 Q96.9375,135.0469 98.2813,135.0469 Q98.9063,135.0469 99.5,134.7813 Q100.0938,134.5 100.7188,133.9219 L100.7188,136.6406 Z " fill="#000000"/><text fill="#000000" font-family="sans-serif" font-size="14" lengthAdjust="spacing" textLength="120" x="118.25" y="135.8467">ArgentaRekening</text><line style="stroke:#181818;stroke-width:0.5;" x1="8" x2="316" y1="147" y2="147"/><ellipse cx="18" cy="160.6484" fill="none" rx="3" ry="3" style="stroke:#038048;stroke-width:1.0;"/><text fill="#000000" font-family="sans-serif" font-size="14" lengthAdjust="spacing" textLength="226" x="27" y="163.9951">&#171;override&#187; Rente : double &#171;get&#187;</text><line style="stroke:#181818;stroke-width:0.5;" x1="8" x2="316" y1="171.2969" y2="171.2969"/><ellipse cx="18" cy="184.9453" fill="#84BE84" rx="3" ry="3" style="stroke:#038048;stroke-width:1.0;"/><text fill="#000000" font-family="sans-serif" font-size="14" lengthAdjust="spacing" textLength="284" x="27" y="188.292">&#171;override&#187; Afhalen(bedrag:double) : bool</text><ellipse cx="18" cy="201.2422" fill="#84BE84" rx="3" ry="3" style="stroke:#038048;stroke-width:1.0;"/><text fill="#000000" font-family="sans-serif" font-size="14" lengthAdjust="spacing" textLength="283" x="27" y="204.5889">&#171;override&#187; storten(bedrag:double) : bool</text></g><!--class Rekening--><g id="elem_Rekening"><rect fill="#F1F1F1" height="48" id="Rekening" rx="2.5" ry="2.5" style="stroke:#181818;stroke-width:0.5;" width="98" x="113" y="7"/><ellipse cx="128" cy="23" fill="#ADD1B2" rx="11" ry="11" style="stroke:#181818;stroke-width:1.0;"/><path d="M130.9688,28.6406 Q130.3906,28.9375 129.75,29.0781 Q129.1094,29.2344 128.4063,29.2344 Q125.9063,29.2344 124.5781,27.5938 Q123.2656,25.9375 123.2656,22.8125 Q123.2656,19.6875 124.5781,18.0313 Q125.9063,16.375 128.4063,16.375 Q129.1094,16.375 129.75,16.5313 Q130.4063,16.6875 130.9688,16.9844 L130.9688,19.7031 Q130.3438,19.125 129.75,18.8594 Q129.1563,18.5781 128.5313,18.5781 Q127.1875,18.5781 126.5,19.6563 Q125.8125,20.7188 125.8125,22.8125 Q125.8125,24.9063 126.5,25.9844 Q127.1875,27.0469 128.5313,27.0469 Q129.1563,27.0469 129.75,26.7813 Q130.3438,26.5 130.9688,25.9219 L130.9688,28.6406 Z " fill="#000000"/><text fill="#000000" font-family="sans-serif" font-size="14" lengthAdjust="spacing" textLength="66" x="142" y="27.8467">Rekening</text><line style="stroke:#181818;stroke-width:0.5;" x1="114" x2="210" y1="39" y2="39"/><line style="stroke:#181818;stroke-width:0.5;" x1="114" x2="210" y1="47" y2="47"/></g><!--reverse link Rekening to ArgentaRekening--><g id="link_Rekening_ArgentaRekening"><path codeLine="6" d="M162,73.03 C162,89.57 162,94.44 162,114.84 " fill="none" id="Rekening-backto-ArgentaRekening" style="stroke:#181818;stroke-width:1.0;"/><polygon fill="none" points="162,55.03,156,73.03,168,73.03,162,55.03" style="stroke:#181818;stroke-width:1.0;"/></g><!--SRC=[Iyv9B2vMS2nAJyqhIGnApKxDoynBLwZcKW02RGKRc_oorAAYp9HKEpk58A2IL0KhXPJyqgISLA1SUcg9dHqsbOvf6OavgNaQIQafHOdfLX0Dca2jIVdvETWq59Va5vNWr53B1NUOJOskBhfh0G00]--></g></svg>