<?xml version="1.0" encoding="us-ascii" standalone="no"?><svg xmlns="http://www.w3.org/2000/svg" xmlns:xlink="http://www.w3.org/1999/xlink" contentStyleType="text/css" height="332px" preserveAspectRatio="none" style="width:669px;height:332px;background:#FFFFFF;" version="1.1" viewBox="0 0 669 332" width="669px" zoomAndPan="magnify"><defs/><g><!--class Rekening--><g id="elem_Rekening"><rect codeLine="1" fill="#F1F1F1" height="162.0781" id="Rekening" rx="2.5" ry="2.5" style="stroke:#181818;stroke-width:0.5;" width="233" x="217.5" y="7"/><ellipse cx="296.75" cy="23" fill="#A9DCDF" rx="11" ry="11" style="stroke:#181818;stroke-width:1.0;"/><path d="M296.8594,18.3438 L295.7031,23.4219 L298.0313,23.4219 L296.8594,18.3438 Z M295.375,16.1094 L298.3594,16.1094 L301.7188,28.5 L299.2656,28.5 L298.5,25.4375 L295.2188,25.4375 L294.4688,28.5 L292.0313,28.5 L295.375,16.1094 Z " fill="#000000"/><text fill="#000000" font-family="sans-serif" font-size="14" font-style="italic" lengthAdjust="spacing" textLength="66" x="317.25" y="27.8467">Rekening</text><line style="stroke:#181818;stroke-width:0.5;" x1="218.5" x2="449.5" y1="39" y2="39"/><ellipse cx="228.5" cy="52.6484" fill="none" rx="3" ry="3" style="stroke:#038048;stroke-width:1.0;"/><text fill="#000000" font-family="sans-serif" font-size="14" lengthAdjust="spacing" textLength="170" x="237.5" y="55.9951">Iban : string &#171;get&#187; &#171;set&#187;</text><ellipse cx="228.5" cy="68.9453" fill="none" rx="3" ry="3" style="stroke:#038048;stroke-width:1.0;"/><text fill="#000000" font-family="sans-serif" font-size="14" lengthAdjust="spacing" textLength="200" x="237.5" y="72.292">Bedrag : double &#171;get&#187; &#171;set&#187;</text><ellipse cx="228.5" cy="85.2422" fill="none" rx="3" ry="3" style="stroke:#038048;stroke-width:1.0;"/><text fill="#000000" font-family="sans-serif" font-size="14" font-style="italic" lengthAdjust="spacing" textLength="148" x="237.5" y="88.5889">Rente : double &#171;get&#187;</text><line style="stroke:#181818;stroke-width:0.5;" x1="218.5" x2="449.5" y1="95.8906" y2="95.8906"/><ellipse cx="228.5" cy="109.5391" fill="#84BE84" rx="3" ry="3" style="stroke:#038048;stroke-width:1.0;"/><text fill="#000000" font-family="sans-serif" font-size="14" font-style="italic" lengthAdjust="spacing" textLength="207" x="237.5" y="112.8857">Afhalen(bedrag:double) : bool</text><ellipse cx="228.5" cy="125.8359" fill="#84BE84" rx="3" ry="3" style="stroke:#038048;stroke-width:1.0;"/><text fill="#000000" font-family="sans-serif" font-size="14" font-style="italic" lengthAdjust="spacing" textLength="204" x="237.5" y="129.1826">storten(bedrag:double) : bool</text><ellipse cx="228.5" cy="142.1328" fill="#84BE84" rx="3" ry="3" style="stroke:#038048;stroke-width:1.0;"/><text fill="#000000" font-family="sans-serif" font-size="14" lengthAdjust="spacing" textLength="150" x="237.5" y="145.4795">SchrijfRenteBij() : void</text><ellipse cx="228.5" cy="158.4297" fill="#84BE84" rx="3" ry="3" style="stroke:#038048;stroke-width:1.0;"/><text fill="#000000" font-family="sans-serif" font-size="14" lengthAdjust="spacing" textLength="108" x="237.5" y="161.7764">IsGeldig() : bool</text></g><!--class BelfiusRekening--><g id="elem_BelfiusRekening"><rect codeLine="1" fill="#F1F1F1" height="96.8906" id="BelfiusRekening" rx="2.5" ry="2.5" style="stroke:#181818;stroke-width:0.5;" width="310" x="7" y="229"/><ellipse cx="101.75" cy="245" fill="#ADD1B2" rx="11" ry="11" style="stroke:#181818;stroke-width:1.0;"/><path d="M104.7188,250.6406 Q104.1406,250.9375 103.5,251.0781 Q102.8594,251.2344 102.1563,251.2344 Q99.6563,251.2344 98.3281,249.5938 Q97.0156,247.9375 97.0156,244.8125 Q97.0156,241.6875 98.3281,240.0313 Q99.6563,238.375 102.1563,238.375 Q102.8594,238.375 103.5,238.5313 Q104.1563,238.6875 104.7188,238.9844 L104.7188,241.7031 Q104.0938,241.125 103.5,240.8594 Q102.9063,240.5781 102.2813,240.5781 Q100.9375,240.5781 100.25,241.6563 Q99.5625,242.7188 99.5625,244.8125 Q99.5625,246.9063 100.25,247.9844 Q100.9375,249.0469 102.2813,249.0469 Q102.9063,249.0469 103.5,248.7813 Q104.0938,248.5 104.7188,247.9219 L104.7188,250.6406 Z " fill="#000000"/><text fill="#000000" font-family="sans-serif" font-size="14" lengthAdjust="spacing" textLength="112" x="122.25" y="249.8467">BelfiusRekening</text><line style="stroke:#181818;stroke-width:0.5;" x1="8" x2="316" y1="261" y2="261"/><ellipse cx="18" cy="274.6484" fill="none" rx="3" ry="3" style="stroke:#038048;stroke-width:1.0;"/><text fill="#000000" font-family="sans-serif" font-size="14" lengthAdjust="spacing" textLength="226" x="27" y="277.9951">&#171;override&#187; Rente : double &#171;get&#187;</text><line style="stroke:#181818;stroke-width:0.5;" x1="8" x2="316" y1="285.2969" y2="285.2969"/><ellipse cx="18" cy="298.9453" fill="#84BE84" rx="3" ry="3" style="stroke:#038048;stroke-width:1.0;"/><text fill="#000000" font-family="sans-serif" font-size="14" lengthAdjust="spacing" textLength="284" x="27" y="302.292">&#171;override&#187; Afhalen(bedrag:double) : bool</text><ellipse cx="18" cy="315.2422" fill="#84BE84" rx="3" ry="3" style="stroke:#038048;stroke-width:1.0;"/><text fill="#000000" font-family="sans-serif" font-size="14" lengthAdjust="spacing" textLength="283" x="27" y="318.5889">&#171;override&#187; storten(bedrag:double) : bool</text></g><!--class ArgentaRekening--><g id="elem_ArgentaRekening"><rect codeLine="1" fill="#F1F1F1" height="96.8906" id="ArgentaRekening" rx="2.5" ry="2.5" style="stroke:#181818;stroke-width:0.5;" width="310" x="352" y="229"/><ellipse cx="442.75" cy="245" fill="#ADD1B2" rx="11" ry="11" style="stroke:#181818;stroke-width:1.0;"/><path d="M445.7188,250.6406 Q445.1406,250.9375 444.5,251.0781 Q443.8594,251.2344 443.1563,251.2344 Q440.6563,251.2344 439.3281,249.5938 Q438.0156,247.9375 438.0156,244.8125 Q438.0156,241.6875 439.3281,240.0313 Q440.6563,238.375 443.1563,238.375 Q443.8594,238.375 444.5,238.5313 Q445.1563,238.6875 445.7188,238.9844 L445.7188,241.7031 Q445.0938,241.125 444.5,240.8594 Q443.9063,240.5781 443.2813,240.5781 Q441.9375,240.5781 441.25,241.6563 Q440.5625,242.7188 440.5625,244.8125 Q440.5625,246.9063 441.25,247.9844 Q441.9375,249.0469 443.2813,249.0469 Q443.9063,249.0469 444.5,248.7813 Q445.0938,248.5 445.7188,247.9219 L445.7188,250.6406 Z " fill="#000000"/><text fill="#000000" font-family="sans-serif" font-size="14" lengthAdjust="spacing" textLength="120" x="463.25" y="249.8467">ArgentaRekening</text><line style="stroke:#181818;stroke-width:0.5;" x1="353" x2="661" y1="261" y2="261"/><ellipse cx="363" cy="274.6484" fill="none" rx="3" ry="3" style="stroke:#038048;stroke-width:1.0;"/><text fill="#000000" font-family="sans-serif" font-size="14" lengthAdjust="spacing" textLength="226" x="372" y="277.9951">&#171;override&#187; Rente : double &#171;get&#187;</text><line style="stroke:#181818;stroke-width:0.5;" x1="353" x2="661" y1="285.2969" y2="285.2969"/><ellipse cx="363" cy="298.9453" fill="#84BE84" rx="3" ry="3" style="stroke:#038048;stroke-width:1.0;"/><text fill="#000000" font-family="sans-serif" font-size="14" lengthAdjust="spacing" textLength="284" x="372" y="302.292">&#171;override&#187; Afhalen(bedrag:double) : bool</text><ellipse cx="363" cy="315.2422" fill="#84BE84" rx="3" ry="3" style="stroke:#038048;stroke-width:1.0;"/><text fill="#000000" font-family="sans-serif" font-size="14" lengthAdjust="spacing" textLength="283" x="372" y="318.5889">&#171;override&#187; storten(bedrag:double) : bool</text></g><!--reverse link Rekening to BelfiusRekening--><g id="link_Rekening_BelfiusRekening"><path codeLine="6" d="M248.3931,182.3253 C229.6731,202.7353 222.31,210.75 205.62,228.95 " fill="none" id="Rekening-backto-BelfiusRekening" style="stroke:#181818;stroke-width:1.0;"/><polygon fill="none" points="260.56,169.06,243.9714,178.2696,252.8149,186.3809,260.56,169.06" style="stroke:#181818;stroke-width:1.0;"/></g><!--reverse link Rekening to ArgentaRekening--><g id="link_Rekening_ArgentaRekening"><path codeLine="6" d="M420.0755,182.2897 C438.9055,202.6997 446.34,210.75 463.13,228.95 " fill="none" id="Rekening-backto-ArgentaRekening" style="stroke:#181818;stroke-width:1.0;"/><polygon fill="none" points="407.87,169.06,415.6656,186.3582,424.4854,178.2212,407.87,169.06" style="stroke:#181818;stroke-width:1.0;"/></g><!--SRC=[KypCIyufJKbL24hDJitBp4lNAoZDpU5IX0axfUQaPPOMuv1rB4fFpIj9H9450000]--></g></svg>