<?xml version="1.0" encoding="us-ascii" standalone="no"?><svg xmlns="http://www.w3.org/2000/svg" xmlns:xlink="http://www.w3.org/1999/xlink" contentStyleType="text/css" height="183px" preserveAspectRatio="none" style="width:254px;height:183px;background:#FFFFFF;" version="1.1" viewBox="0 0 254 183" width="254px" zoomAndPan="magnify"><defs/><g><!--class Rekening--><g id="elem_Rekening"><rect codeLine="1" fill="#F1F1F1" height="162.0781" id="Rekening" rx="2.5" ry="2.5" style="stroke:#181818;stroke-width:0.5;" width="233" x="7" y="7"/><ellipse cx="86.25" cy="23" fill="#A9DCDF" rx="11" ry="11" style="stroke:#181818;stroke-width:1.0;"/><path d="M86.3594,18.3438 L85.2031,23.4219 L87.5313,23.4219 L86.3594,18.3438 Z M84.875,16.1094 L87.8594,16.1094 L91.2188,28.5 L88.7656,28.5 L88,25.4375 L84.7188,25.4375 L83.9688,28.5 L81.5313,28.5 L84.875,16.1094 Z " fill="#000000"/><text fill="#000000" font-family="sans-serif" font-size="14" font-style="italic" lengthAdjust="spacing" textLength="66" x="106.75" y="27.8467">Rekening</text><line style="stroke:#181818;stroke-width:0.5;" x1="8" x2="239" y1="39" y2="39"/><ellipse cx="18" cy="52.6484" fill="none" rx="3" ry="3" style="stroke:#038048;stroke-width:1.0;"/><text fill="#000000" font-family="sans-serif" font-size="14" lengthAdjust="spacing" textLength="170" x="27" y="55.9951">Iban : string &#171;get&#187; &#171;set&#187;</text><ellipse cx="18" cy="68.9453" fill="none" rx="3" ry="3" style="stroke:#038048;stroke-width:1.0;"/><text fill="#000000" font-family="sans-serif" font-size="14" lengthAdjust="spacing" textLength="200" x="27" y="72.292">Bedrag : double &#171;get&#187; &#171;set&#187;</text><ellipse cx="18" cy="85.2422" fill="none" rx="3" ry="3" style="stroke:#038048;stroke-width:1.0;"/><text fill="#000000" font-family="sans-serif" font-size="14" font-style="italic" lengthAdjust="spacing" textLength="148" x="27" y="88.5889">Rente : double &#171;get&#187;</text><line style="stroke:#181818;stroke-width:0.5;" x1="8" x2="239" y1="95.8906" y2="95.8906"/><ellipse cx="18" cy="109.5391" fill="#84BE84" rx="3" ry="3" style="stroke:#038048;stroke-width:1.0;"/><text fill="#000000" font-family="sans-serif" font-size="14" font-style="italic" lengthAdjust="spacing" textLength="207" x="27" y="112.8857">Afhalen(bedrag:double) : bool</text><ellipse cx="18" cy="125.8359" fill="#84BE84" rx="3" ry="3" style="stroke:#038048;stroke-width:1.0;"/><text fill="#000000" font-family="sans-serif" font-size="14" font-style="italic" lengthAdjust="spacing" textLength="204" x="27" y="129.1826">storten(bedrag:double) : bool</text><ellipse cx="18" cy="142.1328" fill="#84BE84" rx="3" ry="3" style="stroke:#038048;stroke-width:1.0;"/><text fill="#000000" font-family="sans-serif" font-size="14" lengthAdjust="spacing" textLength="150" x="27" y="145.4795">SchrijfRenteBij() : void</text><ellipse cx="18" cy="158.4297" fill="#84BE84" rx="3" ry="3" style="stroke:#038048;stroke-width:1.0;"/><text fill="#000000" font-family="sans-serif" font-size="14" lengthAdjust="spacing" textLength="108" x="27" y="161.7764">IsGeldig() : bool</text></g><!--SRC=[XS_13i8W30RWkq_H8yOtM9ObxcAywXCKw1YJG4APbsNlBipfXHXxQLA-vYyeEKLK2PH3PhZHWxpr1fO3v3h1LQA71Z8gqxOrbBekTovzDptfY2Oh7MRfw8TQS8zQSufFLFdQdOSH7NaXju3cpOzvKORWQiufnFI7tzKOxJHi5_Hs4kNv6Qp-V9SlvBGruhkslW00]--></g></svg>