<?xml version="1.0" encoding="us-ascii" standalone="no"?><svg xmlns="http://www.w3.org/2000/svg" xmlns:xlink="http://www.w3.org/1999/xlink" contentStyleType="text/css" height="109px" preserveAspectRatio="none" style="width:346px;height:109px;background:#FFFFFF;" version="1.1" viewBox="0 0 346 109" width="346px" zoomAndPan="magnify"><defs/><g><!--class FileOperations--><g id="elem_FileOperations"><rect codeLine="1" fill="#F1F1F1" height="88.8594" id="FileOperations" rx="2.5" ry="2.5" style="stroke:#181818;stroke-width:0.5;" width="325" x="7" y="7"/><ellipse cx="115.75" cy="27.1328" fill="#ADD1B2" rx="11" ry="11" style="stroke:#181818;stroke-width:1.0;"/><path d="M118.7188,32.7734 Q118.1406,33.0703 117.5,33.2109 Q116.8594,33.3672 116.1563,33.3672 Q113.6563,33.3672 112.3281,31.7266 Q111.0156,30.0703 111.0156,26.9453 Q111.0156,23.8203 112.3281,22.1641 Q113.6563,20.5078 116.1563,20.5078 Q116.8594,20.5078 117.5,20.6641 Q118.1563,20.8203 118.7188,21.1172 L118.7188,23.8359 Q118.0938,23.2578 117.5,22.9922 Q116.9063,22.7109 116.2813,22.7109 Q114.9375,22.7109 114.25,23.7891 Q113.5625,24.8516 113.5625,26.9453 Q113.5625,29.0391 114.25,30.1172 Q114.9375,31.1797 116.2813,31.1797 Q116.9063,31.1797 117.5,30.9141 Q118.0938,30.6328 118.7188,30.0547 L118.7188,32.7734 Z " fill="#000000"/><text fill="#000000" font-family="sans-serif" font-size="12" font-style="italic" lengthAdjust="spacing" textLength="48" x="161.75" y="23.1387">&#171;static&#187;</text><text fill="#000000" font-family="sans-serif" font-size="14" lengthAdjust="spacing" textLength="99" x="136.25" y="38.9639">FileOperations</text><line style="stroke:#181818;stroke-width:0.5;" x1="8" x2="331" y1="47.2656" y2="47.2656"/><ellipse cx="18" cy="60.9141" fill="none" rx="3" ry="3" style="stroke:#038048;stroke-width:1.0;"/><text fill="#000000" font-family="sans-serif" font-size="14" lengthAdjust="spacing" text-decoration="underline" textLength="299" x="27" y="64.2607">BestandWoningen : string = "woningen.txt"</text><line style="stroke:#181818;stroke-width:0.5;" x1="8" x2="331" y1="71.5625" y2="71.5625"/><ellipse cx="18" cy="85.2109" fill="#84BE84" rx="3" ry="3" style="stroke:#038048;stroke-width:1.0;"/><text fill="#000000" font-family="sans-serif" font-size="14" lengthAdjust="spacing" text-decoration="underline" textLength="225" x="27" y="88.5576">LeesWoningen() : List&lt;Woning&gt;</text></g><!--SRC=[Iyv9B2vMSClCIVKlI2rABCdCpojMiB4fBW4oa-ti5Agv5810Mw4Q8bAhu9GAPEMbXEVdPUQbf-OfM2aKbnG1cGgs2ahbK46zaeeI9NIDFgcfnJ1T6ff0VJwPnIKs414xhbe0]--></g></svg>