<?xml version="1.0" encoding="us-ascii" standalone="no"?><svg xmlns="http://www.w3.org/2000/svg" xmlns:xlink="http://www.w3.org/1999/xlink" contentStyleType="text/css" height="381px" preserveAspectRatio="none" style="width:1609px;height:381px;background:#FFFFFF;" version="1.1" viewBox="0 0 1609 381" width="1609px" zoomAndPan="magnify"><defs/><g><!--class FileOperations--><g id="elem_FileOperations"><rect codeLine="1" fill="#F1F1F1" height="88.8594" id="FileOperations" rx="2.5" ry="2.5" style="stroke:#181818;stroke-width:0.5;" width="325" x="105" y="51.5"/><ellipse cx="213.75" cy="71.6328" fill="#ADD1B2" rx="11" ry="11" style="stroke:#181818;stroke-width:1.0;"/><path d="M216.7188,77.2734 Q216.1406,77.5703 215.5,77.7109 Q214.8594,77.8672 214.1563,77.8672 Q211.6563,77.8672 210.3281,76.2266 Q209.0156,74.5703 209.0156,71.4453 Q209.0156,68.3203 210.3281,66.6641 Q211.6563,65.0078 214.1563,65.0078 Q214.8594,65.0078 215.5,65.1641 Q216.1563,65.3203 216.7188,65.6172 L216.7188,68.3359 Q216.0938,67.7578 215.5,67.4922 Q214.9063,67.2109 214.2813,67.2109 Q212.9375,67.2109 212.25,68.2891 Q211.5625,69.3516 211.5625,71.4453 Q211.5625,73.5391 212.25,74.6172 Q212.9375,75.6797 214.2813,75.6797 Q214.9063,75.6797 215.5,75.4141 Q216.0938,75.1328 216.7188,74.5547 L216.7188,77.2734 Z " fill="#000000"/><text fill="#000000" font-family="sans-serif" font-size="12" font-style="italic" lengthAdjust="spacing" textLength="48" x="259.75" y="67.6387">&#171;static&#187;</text><text fill="#000000" font-family="sans-serif" font-size="14" lengthAdjust="spacing" textLength="99" x="234.25" y="83.4639">FileOperations</text><line style="stroke:#181818;stroke-width:0.5;" x1="106" x2="429" y1="91.7656" y2="91.7656"/><ellipse cx="116" cy="105.4141" fill="none" rx="3" ry="3" style="stroke:#038048;stroke-width:1.0;"/><text fill="#000000" font-family="sans-serif" font-size="14" lengthAdjust="spacing" text-decoration="underline" textLength="299" x="125" y="108.7607">BestandWoningen : string = "woningen.txt"</text><line style="stroke:#181818;stroke-width:0.5;" x1="106" x2="429" y1="116.0625" y2="116.0625"/><ellipse cx="116" cy="129.7109" fill="#84BE84" rx="3" ry="3" style="stroke:#038048;stroke-width:1.0;"/><text fill="#000000" font-family="sans-serif" font-size="14" lengthAdjust="spacing" text-decoration="underline" textLength="225" x="125" y="133.0576">LeesWoningen() : List&lt;Woning&gt;</text></g><!--class Huis--><g id="elem_Huis"><rect codeLine="1" fill="#F1F1F1" height="129.4844" id="Huis" rx="2.5" ry="2.5" style="stroke:#181818;stroke-width:0.5;" width="687" x="7" y="245"/><ellipse cx="331.25" cy="261" fill="#ADD1B2" rx="11" ry="11" style="stroke:#181818;stroke-width:1.0;"/><path d="M334.2188,266.6406 Q333.6406,266.9375 333,267.0781 Q332.3594,267.2344 331.6563,267.2344 Q329.1563,267.2344 327.8281,265.5938 Q326.5156,263.9375 326.5156,260.8125 Q326.5156,257.6875 327.8281,256.0313 Q329.1563,254.375 331.6563,254.375 Q332.3594,254.375 333,254.5313 Q333.6563,254.6875 334.2188,254.9844 L334.2188,257.7031 Q333.5938,257.125 333,256.8594 Q332.4063,256.5781 331.7813,256.5781 Q330.4375,256.5781 329.75,257.6563 Q329.0625,258.7188 329.0625,260.8125 Q329.0625,262.9063 329.75,263.9844 Q330.4375,265.0469 331.7813,265.0469 Q332.4063,265.0469 333,264.7813 Q333.5938,264.5 334.2188,263.9219 L334.2188,266.6406 Z " fill="#000000"/><text fill="#000000" font-family="sans-serif" font-size="14" lengthAdjust="spacing" textLength="30" x="351.75" y="265.8467">Huis</text><line style="stroke:#181818;stroke-width:0.5;" x1="8" x2="693" y1="277" y2="277"/><ellipse cx="18" cy="290.6484" fill="none" rx="3" ry="3" style="stroke:#038048;stroke-width:1.0;"/><text fill="#000000" font-family="sans-serif" font-size="14" lengthAdjust="spacing" textLength="213" x="27" y="293.9951">AantalKamers : int &#171;get&#187; &#171;set&#187;</text><ellipse cx="18" cy="306.9453" fill="none" rx="3" ry="3" style="stroke:#038048;stroke-width:1.0;"/><text fill="#000000" font-family="sans-serif" font-size="14" lengthAdjust="spacing" textLength="271" x="27" y="310.292">gemiddeldeOppervlakte : double &#171;get&#187;</text><line style="stroke:#181818;stroke-width:0.5;" x1="8" x2="693" y1="317.5938" y2="317.5938"/><ellipse cx="18" cy="331.2422" fill="#84BE84" rx="3" ry="3" style="stroke:#038048;stroke-width:1.0;"/><text fill="#000000" font-family="sans-serif" font-size="14" lengthAdjust="spacing" textLength="661" x="27" y="334.5889">Huis(adres:string, oppervlakte:double, bouwjaar:int, heeftZonnepanelen:bool, aantalKamers:int)</text><ellipse cx="18" cy="347.5391" fill="#84BE84" rx="3" ry="3" style="stroke:#038048;stroke-width:1.0;"/><text fill="#000000" font-family="sans-serif" font-size="14" lengthAdjust="spacing" textLength="317" x="27" y="350.8857">BerekenVerbruik(aantalPersonen:int) : double</text><ellipse cx="18" cy="363.8359" fill="#84BE84" rx="3" ry="3" style="stroke:#038048;stroke-width:1.0;"/><text fill="#000000" font-family="sans-serif" font-size="14" lengthAdjust="spacing" textLength="198" x="27" y="367.1826">&#171;override&#187; ToString() : string</text></g><!--class Woning--><g id="elem_Woning"><rect codeLine="1" fill="#F1F1F1" height="178.375" id="Woning" rx="2.5" ry="2.5" style="stroke:#181818;stroke-width:0.5;" width="586" x="465.5" y="7"/><ellipse cx="728.25" cy="23" fill="#ADD1B2" rx="11" ry="11" style="stroke:#181818;stroke-width:1.0;"/><path d="M731.2188,28.6406 Q730.6406,28.9375 730,29.0781 Q729.3594,29.2344 728.6563,29.2344 Q726.1563,29.2344 724.8281,27.5938 Q723.5156,25.9375 723.5156,22.8125 Q723.5156,19.6875 724.8281,18.0313 Q726.1563,16.375 728.6563,16.375 Q729.3594,16.375 730,16.5313 Q730.6563,16.6875 731.2188,16.9844 L731.2188,19.7031 Q730.5938,19.125 730,18.8594 Q729.4063,18.5781 728.7813,18.5781 Q727.4375,18.5781 726.75,19.6563 Q726.0625,20.7188 726.0625,22.8125 Q726.0625,24.9063 726.75,25.9844 Q727.4375,27.0469 728.7813,27.0469 Q729.4063,27.0469 730,26.7813 Q730.5938,26.5 731.2188,25.9219 L731.2188,28.6406 Z " fill="#000000"/><text fill="#000000" font-family="sans-serif" font-size="14" lengthAdjust="spacing" textLength="52" x="748.75" y="27.8467">Woning</text><line style="stroke:#181818;stroke-width:0.5;" x1="466.5" x2="1050.5" y1="39" y2="39"/><ellipse cx="476.5" cy="52.6484" fill="none" rx="3" ry="3" style="stroke:#038048;stroke-width:1.0;"/><text fill="#000000" font-family="sans-serif" font-size="14" lengthAdjust="spacing" textLength="181" x="485.5" y="55.9951">Adres : string &#171;get&#187; &#171;set&#187;</text><ellipse cx="476.5" cy="68.9453" fill="none" rx="3" ry="3" style="stroke:#038048;stroke-width:1.0;"/><text fill="#000000" font-family="sans-serif" font-size="14" lengthAdjust="spacing" textLength="233" x="485.5" y="72.292">Oppervlakte : double &#171;get&#187; &#171;set&#187;</text><ellipse cx="476.5" cy="85.2422" fill="none" rx="3" ry="3" style="stroke:#038048;stroke-width:1.0;"/><text fill="#000000" font-family="sans-serif" font-size="14" lengthAdjust="spacing" textLength="182" x="485.5" y="88.5889">Bouwjaar : int &#171;get&#187; &#171;set&#187;</text><ellipse cx="476.5" cy="101.5391" fill="none" rx="3" ry="3" style="stroke:#038048;stroke-width:1.0;"/><text fill="#000000" font-family="sans-serif" font-size="14" lengthAdjust="spacing" textLength="234" x="485.5" y="104.8857">Zonnepanelen : bool &#171;get&#187; &#171;set&#187;</text><ellipse cx="476.5" cy="117.8359" fill="none" rx="3" ry="3" style="stroke:#038048;stroke-width:1.0;"/><text fill="#000000" font-family="sans-serif" font-size="14" lengthAdjust="spacing" textLength="122" x="485.5" y="121.1826">Info : string &#171;get&#187;</text><line style="stroke:#181818;stroke-width:0.5;" x1="466.5" x2="1050.5" y1="128.4844" y2="128.4844"/><ellipse cx="476.5" cy="142.1328" fill="#84BE84" rx="3" ry="3" style="stroke:#038048;stroke-width:1.0;"/><text fill="#000000" font-family="sans-serif" font-size="14" lengthAdjust="spacing" textLength="560" x="485.5" y="145.4795">Woning(adres:string, oppervlakte:double, bouwjaar:int, heeftZonnepanelen:bool)</text><ellipse cx="476.5" cy="158.4297" fill="#84BE84" rx="3" ry="3" style="stroke:#038048;stroke-width:1.0;"/><text fill="#000000" font-family="sans-serif" font-size="14" lengthAdjust="spacing" textLength="198" x="485.5" y="161.7764">&#171;override&#187; ToString() : string</text><ellipse cx="476.5" cy="174.7266" fill="#84BE84" rx="3" ry="3" style="stroke:#038048;stroke-width:1.0;"/><text fill="#000000" font-family="sans-serif" font-size="14" lengthAdjust="spacing" textLength="253" x="485.5" y="178.0732">&#171;override&#187; Equals(obj:object?) : bool</text></g><!--class Appartement--><g id="elem_Appartement"><rect codeLine="1" fill="#F1F1F1" height="129.4844" id="Appartement" rx="2.5" ry="2.5" style="stroke:#181818;stroke-width:0.5;" width="873" x="729" y="245"/><ellipse cx="1116.25" cy="261" fill="#ADD1B2" rx="11" ry="11" style="stroke:#181818;stroke-width:1.0;"/><path d="M1119.2188,266.6406 Q1118.6406,266.9375 1118,267.0781 Q1117.3594,267.2344 1116.6563,267.2344 Q1114.1563,267.2344 1112.8281,265.5938 Q1111.5156,263.9375 1111.5156,260.8125 Q1111.5156,257.6875 1112.8281,256.0313 Q1114.1563,254.375 1116.6563,254.375 Q1117.3594,254.375 1118,254.5313 Q1118.6563,254.6875 1119.2188,254.9844 L1119.2188,257.7031 Q1118.5938,257.125 1118,256.8594 Q1117.4063,256.5781 1116.7813,256.5781 Q1115.4375,256.5781 1114.75,257.6563 Q1114.0625,258.7188 1114.0625,260.8125 Q1114.0625,262.9063 1114.75,263.9844 Q1115.4375,265.0469 1116.7813,265.0469 Q1117.4063,265.0469 1118,264.7813 Q1118.5938,264.5 1119.2188,263.9219 L1119.2188,266.6406 Z " fill="#000000"/><text fill="#000000" font-family="sans-serif" font-size="14" lengthAdjust="spacing" textLength="90" x="1136.75" y="265.8467">Appartement</text><line style="stroke:#181818;stroke-width:0.5;" x1="730" x2="1601" y1="277" y2="277"/><ellipse cx="740" cy="290.6484" fill="none" rx="3" ry="3" style="stroke:#038048;stroke-width:1.0;"/><text fill="#000000" font-family="sans-serif" font-size="14" lengthAdjust="spacing" textLength="193" x="749" y="293.9951">Verdieping : int &#171;get&#187; &#171;set&#187;</text><ellipse cx="740" cy="306.9453" fill="none" rx="3" ry="3" style="stroke:#038048;stroke-width:1.0;"/><text fill="#000000" font-family="sans-serif" font-size="14" lengthAdjust="spacing" textLength="238" x="749" y="310.292">VasteKosten : double &#171;get&#187; &#171;set&#187;</text><line style="stroke:#181818;stroke-width:0.5;" x1="730" x2="1601" y1="317.5938" y2="317.5938"/><ellipse cx="740" cy="331.2422" fill="#84BE84" rx="3" ry="3" style="stroke:#038048;stroke-width:1.0;"/><text fill="#000000" font-family="sans-serif" font-size="14" lengthAdjust="spacing" textLength="847" x="749" y="334.5889">Appartement(adres:string, oppervlakte:double, bouwjaar:int, heeftZonnepanelen:bool, verdieping:int, vasteKosten:double)</text><ellipse cx="740" cy="347.5391" fill="#84BE84" rx="3" ry="3" style="stroke:#038048;stroke-width:1.0;"/><text fill="#000000" font-family="sans-serif" font-size="14" lengthAdjust="spacing" textLength="321" x="749" y="350.8857">BerekenHuurprijs(aantalPersonen:int) : double</text><ellipse cx="740" cy="363.8359" fill="#84BE84" rx="3" ry="3" style="stroke:#038048;stroke-width:1.0;"/><text fill="#000000" font-family="sans-serif" font-size="14" lengthAdjust="spacing" textLength="198" x="749" y="367.1826">&#171;override&#187; ToString() : string</text></g><!--reverse link Woning to Huis--><g id="link_Woning_Huis"><path codeLine="8" d="M572.74,193.295 C534.01,213.375 509.57,226.04 473.26,244.86 " fill="none" id="Woning-backto-Huis" style="stroke:#181818;stroke-width:1.0;"/><polygon fill="none" points="588.72,185.01,569.9784,187.9683,575.5017,198.6216,588.72,185.01" style="stroke:#181818;stroke-width:1.0;"/></g><!--reverse link Woning to Appartement--><g id="link_Woning_Appartement"><path codeLine="8" d="M943.8321,193.3102 C982.4721,213.3902 1006.82,226.04 1043.04,244.86 " fill="none" id="Woning-backto-Appartement" style="stroke:#181818;stroke-width:1.0;"/><polygon fill="none" points="927.86,185.01,941.0653,198.6342,946.5988,187.9862,927.86,185.01" style="stroke:#181818;stroke-width:1.0;"/></g><!--SRC=[KypCIyufJKbLSClCIVKlI2rABCdCpolMAoZDpU5IX4bwb6QY2paM52GMbQJcfkQLeCc4v-TbvgM31G40]--></g></svg>