<?xml version="1.0" encoding="us-ascii" standalone="no"?><svg xmlns="http://www.w3.org/2000/svg" xmlns:xlink="http://www.w3.org/1999/xlink" contentStyleType="text/css" height="381px" preserveAspectRatio="none" style="width:2300px;height:381px;background:#FFFFFF;" version="1.1" viewBox="0 0 2300 381" width="2300px" zoomAndPan="magnify"><defs/><g><!--class Huis--><g id="elem_Huis"><rect codeLine="1" fill="#F1F1F1" height="129.4844" id="Huis" rx="2.5" ry="2.5" style="stroke:#181818;stroke-width:0.5;" width="687" x="698" y="245"/><ellipse cx="1022.25" cy="261" fill="#ADD1B2" rx="11" ry="11" style="stroke:#181818;stroke-width:1.0;"/><path d="M1025.2188,266.6406 Q1024.6406,266.9375 1024,267.0781 Q1023.3594,267.2344 1022.6563,267.2344 Q1020.1563,267.2344 1018.8281,265.5938 Q1017.5156,263.9375 1017.5156,260.8125 Q1017.5156,257.6875 1018.8281,256.0313 Q1020.1563,254.375 1022.6563,254.375 Q1023.3594,254.375 1024,254.5313 Q1024.6563,254.6875 1025.2188,254.9844 L1025.2188,257.7031 Q1024.5938,257.125 1024,256.8594 Q1023.4063,256.5781 1022.7813,256.5781 Q1021.4375,256.5781 1020.75,257.6563 Q1020.0625,258.7188 1020.0625,260.8125 Q1020.0625,262.9063 1020.75,263.9844 Q1021.4375,265.0469 1022.7813,265.0469 Q1023.4063,265.0469 1024,264.7813 Q1024.5938,264.5 1025.2188,263.9219 L1025.2188,266.6406 Z " fill="#000000"/><text fill="#000000" font-family="sans-serif" font-size="14" lengthAdjust="spacing" textLength="30" x="1042.75" y="265.8467">Huis</text><line style="stroke:#181818;stroke-width:0.5;" x1="699" x2="1384" y1="277" y2="277"/><ellipse cx="709" cy="290.6484" fill="none" rx="3" ry="3" style="stroke:#038048;stroke-width:1.0;"/><text fill="#000000" font-family="sans-serif" font-size="14" lengthAdjust="spacing" textLength="213" x="718" y="293.9951">AantalKamers : int &#171;get&#187; &#171;set&#187;</text><ellipse cx="709" cy="306.9453" fill="none" rx="3" ry="3" style="stroke:#038048;stroke-width:1.0;"/><text fill="#000000" font-family="sans-serif" font-size="14" lengthAdjust="spacing" textLength="315" x="718" y="310.292">GemiddeldeKameroppervlakte : double &#171;get&#187;</text><line style="stroke:#181818;stroke-width:0.5;" x1="699" x2="1384" y1="317.5938" y2="317.5938"/><ellipse cx="709" cy="331.2422" fill="#84BE84" rx="3" ry="3" style="stroke:#038048;stroke-width:1.0;"/><text fill="#000000" font-family="sans-serif" font-size="14" lengthAdjust="spacing" textLength="661" x="718" y="334.5889">Huis(adres:string, oppervlakte:double, bouwjaar:int, heeftZonnepanelen:bool, aantalKamers:int)</text><ellipse cx="709" cy="347.5391" fill="#84BE84" rx="3" ry="3" style="stroke:#038048;stroke-width:1.0;"/><text fill="#000000" font-family="sans-serif" font-size="14" lengthAdjust="spacing" textLength="317" x="718" y="350.8857">BerekenVerbruik(aantalPersonen:int) : double</text><ellipse cx="709" cy="363.8359" fill="#84BE84" rx="3" ry="3" style="stroke:#038048;stroke-width:1.0;"/><text fill="#000000" font-family="sans-serif" font-size="14" lengthAdjust="spacing" textLength="198" x="718" y="367.1826">&#171;override&#187; ToString() : string</text></g><!--class Woning--><g id="elem_Woning"><rect codeLine="1" fill="#F1F1F1" height="178.375" id="Woning" rx="2.5" ry="2.5" style="stroke:#181818;stroke-width:0.5;" width="586" x="990.5" y="7"/><ellipse cx="1253.25" cy="23" fill="#ADD1B2" rx="11" ry="11" style="stroke:#181818;stroke-width:1.0;"/><path d="M1256.2188,28.6406 Q1255.6406,28.9375 1255,29.0781 Q1254.3594,29.2344 1253.6563,29.2344 Q1251.1563,29.2344 1249.8281,27.5938 Q1248.5156,25.9375 1248.5156,22.8125 Q1248.5156,19.6875 1249.8281,18.0313 Q1251.1563,16.375 1253.6563,16.375 Q1254.3594,16.375 1255,16.5313 Q1255.6563,16.6875 1256.2188,16.9844 L1256.2188,19.7031 Q1255.5938,19.125 1255,18.8594 Q1254.4063,18.5781 1253.7813,18.5781 Q1252.4375,18.5781 1251.75,19.6563 Q1251.0625,20.7188 1251.0625,22.8125 Q1251.0625,24.9063 1251.75,25.9844 Q1252.4375,27.0469 1253.7813,27.0469 Q1254.4063,27.0469 1255,26.7813 Q1255.5938,26.5 1256.2188,25.9219 L1256.2188,28.6406 Z " fill="#000000"/><text fill="#000000" font-family="sans-serif" font-size="14" lengthAdjust="spacing" textLength="52" x="1273.75" y="27.8467">Woning</text><line style="stroke:#181818;stroke-width:0.5;" x1="991.5" x2="1575.5" y1="39" y2="39"/><ellipse cx="1001.5" cy="52.6484" fill="none" rx="3" ry="3" style="stroke:#038048;stroke-width:1.0;"/><text fill="#000000" font-family="sans-serif" font-size="14" lengthAdjust="spacing" textLength="181" x="1010.5" y="55.9951">Adres : string &#171;get&#187; &#171;set&#187;</text><ellipse cx="1001.5" cy="68.9453" fill="none" rx="3" ry="3" style="stroke:#038048;stroke-width:1.0;"/><text fill="#000000" font-family="sans-serif" font-size="14" lengthAdjust="spacing" textLength="233" x="1010.5" y="72.292">Oppervlakte : double &#171;get&#187; &#171;set&#187;</text><ellipse cx="1001.5" cy="85.2422" fill="none" rx="3" ry="3" style="stroke:#038048;stroke-width:1.0;"/><text fill="#000000" font-family="sans-serif" font-size="14" lengthAdjust="spacing" textLength="182" x="1010.5" y="88.5889">Bouwjaar : int &#171;get&#187; &#171;set&#187;</text><ellipse cx="1001.5" cy="101.5391" fill="none" rx="3" ry="3" style="stroke:#038048;stroke-width:1.0;"/><text fill="#000000" font-family="sans-serif" font-size="14" lengthAdjust="spacing" textLength="234" x="1010.5" y="104.8857">Zonnepanelen : bool &#171;get&#187; &#171;set&#187;</text><ellipse cx="1001.5" cy="117.8359" fill="none" rx="3" ry="3" style="stroke:#038048;stroke-width:1.0;"/><text fill="#000000" font-family="sans-serif" font-size="14" lengthAdjust="spacing" textLength="122" x="1010.5" y="121.1826">Info : string &#171;get&#187;</text><line style="stroke:#181818;stroke-width:0.5;" x1="991.5" x2="1575.5" y1="128.4844" y2="128.4844"/><ellipse cx="1001.5" cy="142.1328" fill="#84BE84" rx="3" ry="3" style="stroke:#038048;stroke-width:1.0;"/><text fill="#000000" font-family="sans-serif" font-size="14" lengthAdjust="spacing" textLength="560" x="1010.5" y="145.4795">Woning(adres:string, oppervlakte:double, bouwjaar:int, heeftZonnepanelen:bool)</text><ellipse cx="1001.5" cy="158.4297" fill="#84BE84" rx="3" ry="3" style="stroke:#038048;stroke-width:1.0;"/><text fill="#000000" font-family="sans-serif" font-size="14" lengthAdjust="spacing" textLength="198" x="1010.5" y="161.7764">&#171;override&#187; ToString() : string</text><ellipse cx="1001.5" cy="174.7266" fill="#84BE84" rx="3" ry="3" style="stroke:#038048;stroke-width:1.0;"/><text fill="#000000" font-family="sans-serif" font-size="14" lengthAdjust="spacing" textLength="253" x="1010.5" y="178.0732">&#171;override&#187; Equals(obj:object?) : bool</text></g><!--class VerbruikHelper--><g id="elem_VerbruikHelper"><rect codeLine="1" fill="#F1F1F1" height="88.8594" id="VerbruikHelper" rx="2.5" ry="2.5" style="stroke:#181818;stroke-width:0.5;" width="505" x="7" y="51.5"/><ellipse cx="204.25" cy="71.6328" fill="#ADD1B2" rx="11" ry="11" style="stroke:#181818;stroke-width:1.0;"/><path d="M207.2188,77.2734 Q206.6406,77.5703 206,77.7109 Q205.3594,77.8672 204.6563,77.8672 Q202.1563,77.8672 200.8281,76.2266 Q199.5156,74.5703 199.5156,71.4453 Q199.5156,68.3203 200.8281,66.6641 Q202.1563,65.0078 204.6563,65.0078 Q205.3594,65.0078 206,65.1641 Q206.6563,65.3203 207.2188,65.6172 L207.2188,68.3359 Q206.5938,67.7578 206,67.4922 Q205.4063,67.2109 204.7813,67.2109 Q203.4375,67.2109 202.75,68.2891 Q202.0625,69.3516 202.0625,71.4453 Q202.0625,73.5391 202.75,74.6172 Q203.4375,75.6797 204.7813,75.6797 Q205.4063,75.6797 206,75.4141 Q206.5938,75.1328 207.2188,74.5547 L207.2188,77.2734 Z " fill="#000000"/><text fill="#000000" font-family="sans-serif" font-size="12" font-style="italic" lengthAdjust="spacing" textLength="48" x="251.75" y="67.6387">&#171;static&#187;</text><text fill="#000000" font-family="sans-serif" font-size="14" lengthAdjust="spacing" textLength="102" x="224.75" y="83.4639">VerbruikHelper</text><line style="stroke:#181818;stroke-width:0.5;" x1="8" x2="511" y1="91.7656" y2="91.7656"/><line style="stroke:#181818;stroke-width:0.5;" x1="8" x2="511" y1="99.7656" y2="99.7656"/><ellipse cx="18" cy="113.4141" fill="#84BE84" rx="3" ry="3" style="stroke:#038048;stroke-width:1.0;"/><text fill="#000000" font-family="sans-serif" font-size="14" lengthAdjust="spacing" text-decoration="underline" textLength="479" x="27" y="116.7607">BerekenVerbruikObvEPeil(origineelVerbruik:double, EPeil:int) : double</text><ellipse cx="18" cy="129.7109" fill="#84BE84" rx="3" ry="3" style="stroke:#038048;stroke-width:1.0;"/><text fill="#000000" font-family="sans-serif" font-size="14" lengthAdjust="spacing" text-decoration="underline" textLength="423" x="27" y="133.0576">BerekenVerbruikVoorEpcA(origineelVerbruik:double) : double</text></g><!--class Klasse--><g id="elem_Klasse"><rect codeLine="1" fill="#F1F1F1" height="48" id="Klasse" rx="2.5" ry="2.5" style="stroke:#181818;stroke-width:0.5;" width="77" x="547" y="72"/><ellipse cx="562" cy="88" fill="#ADD1B2" rx="11" ry="11" style="stroke:#181818;stroke-width:1.0;"/><path d="M564.9688,93.6406 Q564.3906,93.9375 563.75,94.0781 Q563.1094,94.2344 562.4063,94.2344 Q559.9063,94.2344 558.5781,92.5938 Q557.2656,90.9375 557.2656,87.8125 Q557.2656,84.6875 558.5781,83.0313 Q559.9063,81.375 562.4063,81.375 Q563.1094,81.375 563.75,81.5313 Q564.4063,81.6875 564.9688,81.9844 L564.9688,84.7031 Q564.3438,84.125 563.75,83.8594 Q563.1563,83.5781 562.5313,83.5781 Q561.1875,83.5781 560.5,84.6563 Q559.8125,85.7188 559.8125,87.8125 Q559.8125,89.9063 560.5,90.9844 Q561.1875,92.0469 562.5313,92.0469 Q563.1563,92.0469 563.75,91.7813 Q564.3438,91.5 564.9688,90.9219 L564.9688,93.6406 Z " fill="#000000"/><text fill="#000000" font-family="sans-serif" font-size="14" lengthAdjust="spacing" textLength="45" x="576" y="92.8467">Klasse</text><line style="stroke:#181818;stroke-width:0.5;" x1="548" x2="623" y1="104" y2="104"/><line style="stroke:#181818;stroke-width:0.5;" x1="548" x2="623" y1="112" y2="112"/></g><!--class FileOperations--><g id="elem_FileOperations"><rect codeLine="1" fill="#F1F1F1" height="88.8594" id="FileOperations" rx="2.5" ry="2.5" style="stroke:#181818;stroke-width:0.5;" width="325" x="97" y="265"/><ellipse cx="205.75" cy="285.1328" fill="#ADD1B2" rx="11" ry="11" style="stroke:#181818;stroke-width:1.0;"/><path d="M208.7188,290.7734 Q208.1406,291.0703 207.5,291.2109 Q206.8594,291.3672 206.1563,291.3672 Q203.6563,291.3672 202.3281,289.7266 Q201.0156,288.0703 201.0156,284.9453 Q201.0156,281.8203 202.3281,280.1641 Q203.6563,278.5078 206.1563,278.5078 Q206.8594,278.5078 207.5,278.6641 Q208.1563,278.8203 208.7188,279.1172 L208.7188,281.8359 Q208.0938,281.2578 207.5,280.9922 Q206.9063,280.7109 206.2813,280.7109 Q204.9375,280.7109 204.25,281.7891 Q203.5625,282.8516 203.5625,284.9453 Q203.5625,287.0391 204.25,288.1172 Q204.9375,289.1797 206.2813,289.1797 Q206.9063,289.1797 207.5,288.9141 Q208.0938,288.6328 208.7188,288.0547 L208.7188,290.7734 Z " fill="#000000"/><text fill="#000000" font-family="sans-serif" font-size="12" font-style="italic" lengthAdjust="spacing" textLength="48" x="251.75" y="281.1387">&#171;static&#187;</text><text fill="#000000" font-family="sans-serif" font-size="14" lengthAdjust="spacing" textLength="99" x="226.25" y="296.9639">FileOperations</text><line style="stroke:#181818;stroke-width:0.5;" x1="98" x2="421" y1="305.2656" y2="305.2656"/><ellipse cx="108" cy="318.9141" fill="none" rx="3" ry="3" style="stroke:#038048;stroke-width:1.0;"/><text fill="#000000" font-family="sans-serif" font-size="14" lengthAdjust="spacing" text-decoration="underline" textLength="299" x="117" y="322.2607">BestandWoningen : string = "woningen.txt"</text><line style="stroke:#181818;stroke-width:0.5;" x1="98" x2="421" y1="329.5625" y2="329.5625"/><ellipse cx="108" cy="343.2109" fill="#84BE84" rx="3" ry="3" style="stroke:#038048;stroke-width:1.0;"/><text fill="#000000" font-family="sans-serif" font-size="14" lengthAdjust="spacing" text-decoration="underline" textLength="225" x="117" y="346.5576">LeesWoningen() : List&lt;Woning&gt;</text></g><!--class Appartement--><g id="elem_Appartement"><rect codeLine="1" fill="#F1F1F1" height="129.4844" id="Appartement" rx="2.5" ry="2.5" style="stroke:#181818;stroke-width:0.5;" width="873" x="1420" y="245"/><ellipse cx="1807.25" cy="261" fill="#ADD1B2" rx="11" ry="11" style="stroke:#181818;stroke-width:1.0;"/><path d="M1810.2188,266.6406 Q1809.6406,266.9375 1809,267.0781 Q1808.3594,267.2344 1807.6563,267.2344 Q1805.1563,267.2344 1803.8281,265.5938 Q1802.5156,263.9375 1802.5156,260.8125 Q1802.5156,257.6875 1803.8281,256.0313 Q1805.1563,254.375 1807.6563,254.375 Q1808.3594,254.375 1809,254.5313 Q1809.6563,254.6875 1810.2188,254.9844 L1810.2188,257.7031 Q1809.5938,257.125 1809,256.8594 Q1808.4063,256.5781 1807.7813,256.5781 Q1806.4375,256.5781 1805.75,257.6563 Q1805.0625,258.7188 1805.0625,260.8125 Q1805.0625,262.9063 1805.75,263.9844 Q1806.4375,265.0469 1807.7813,265.0469 Q1808.4063,265.0469 1809,264.7813 Q1809.5938,264.5 1810.2188,263.9219 L1810.2188,266.6406 Z " fill="#000000"/><text fill="#000000" font-family="sans-serif" font-size="14" lengthAdjust="spacing" textLength="90" x="1827.75" y="265.8467">Appartement</text><line style="stroke:#181818;stroke-width:0.5;" x1="1421" x2="2292" y1="277" y2="277"/><ellipse cx="1431" cy="290.6484" fill="none" rx="3" ry="3" style="stroke:#038048;stroke-width:1.0;"/><text fill="#000000" font-family="sans-serif" font-size="14" lengthAdjust="spacing" textLength="193" x="1440" y="293.9951">Verdieping : int &#171;get&#187; &#171;set&#187;</text><ellipse cx="1431" cy="306.9453" fill="none" rx="3" ry="3" style="stroke:#038048;stroke-width:1.0;"/><text fill="#000000" font-family="sans-serif" font-size="14" lengthAdjust="spacing" textLength="238" x="1440" y="310.292">VasteKosten : double &#171;get&#187; &#171;set&#187;</text><line style="stroke:#181818;stroke-width:0.5;" x1="1421" x2="2292" y1="317.5938" y2="317.5938"/><ellipse cx="1431" cy="331.2422" fill="#84BE84" rx="3" ry="3" style="stroke:#038048;stroke-width:1.0;"/><text fill="#000000" font-family="sans-serif" font-size="14" lengthAdjust="spacing" textLength="321" x="1440" y="334.5889">BerekenHuurprijs(aantalPersonen:int) : double</text><ellipse cx="1431" cy="347.5391" fill="#84BE84" rx="3" ry="3" style="stroke:#038048;stroke-width:1.0;"/><text fill="#000000" font-family="sans-serif" font-size="14" lengthAdjust="spacing" textLength="198" x="1440" y="350.8857">&#171;override&#187; ToString() : string</text><ellipse cx="1431" cy="363.8359" fill="#84BE84" rx="3" ry="3" style="stroke:#038048;stroke-width:1.0;"/><text fill="#000000" font-family="sans-serif" font-size="14" lengthAdjust="spacing" textLength="847" x="1440" y="367.1826">Appartement(adres:string, oppervlakte:double, bouwjaar:int, heeftZonnepanelen:bool, verdieping:int, vasteKosten:double)</text></g><!--reverse link Woning to Huis--><g id="link_Woning_Huis"><path codeLine="8" d="M1169.0703,197.0093 C1146.1203,217.0793 1135.72,226.16 1114.2,244.96 " fill="none" id="Woning-backto-Huis" style="stroke:#181818;stroke-width:1.0;"/><polygon fill="none" points="1182.62,185.16,1165.1206,192.4928,1173.0201,201.5259,1182.62,185.16" style="stroke:#181818;stroke-width:1.0;"/></g><!--reverse link Woning to Appartement--><g id="link_Woning_Appartement"><path codeLine="8" d="M1538.826,191.2441 C1593.216,211.3241 1633.1,226.04 1684.1,244.86 " fill="none" id="Woning-backto-Appartement" style="stroke:#181818;stroke-width:1.0;"/><polygon fill="none" points="1521.94,185.01,1536.748,196.8727,1540.904,185.6154,1521.94,185.01" style="stroke:#181818;stroke-width:1.0;"/></g><!--SRC=[KypCIyufJKbLy2ZDBDOhACtDuLA42OMb5YKLbMPcUwJc5AGMeKbwvoGM5wUY2RfbvgJw0zKcbcJcvw4RvrXGa5XKafgRcbU29XEUdvUPbmuM1000]--></g></svg>