<?xml version="1.0" encoding="us-ascii" standalone="no"?><svg xmlns="http://www.w3.org/2000/svg" xmlns:xlink="http://www.w3.org/1999/xlink" contentStyleType="text/css" height="109px" preserveAspectRatio="none" style="width:526px;height:109px;background:#FFFFFF;" version="1.1" viewBox="0 0 526 109" width="526px" zoomAndPan="magnify"><defs/><g><!--class VerbruikHelper--><g id="elem_VerbruikHelper"><rect codeLine="1" fill="#F1F1F1" height="88.8594" id="VerbruikHelper" rx="2.5" ry="2.5" style="stroke:#181818;stroke-width:0.5;" width="505" x="7" y="7"/><ellipse cx="204.25" cy="27.1328" fill="#ADD1B2" rx="11" ry="11" style="stroke:#181818;stroke-width:1.0;"/><path d="M207.2188,32.7734 Q206.6406,33.0703 206,33.2109 Q205.3594,33.3672 204.6563,33.3672 Q202.1563,33.3672 200.8281,31.7266 Q199.5156,30.0703 199.5156,26.9453 Q199.5156,23.8203 200.8281,22.1641 Q202.1563,20.5078 204.6563,20.5078 Q205.3594,20.5078 206,20.6641 Q206.6563,20.8203 207.2188,21.1172 L207.2188,23.8359 Q206.5938,23.2578 206,22.9922 Q205.4063,22.7109 204.7813,22.7109 Q203.4375,22.7109 202.75,23.7891 Q202.0625,24.8516 202.0625,26.9453 Q202.0625,29.0391 202.75,30.1172 Q203.4375,31.1797 204.7813,31.1797 Q205.4063,31.1797 206,30.9141 Q206.5938,30.6328 207.2188,30.0547 L207.2188,32.7734 Z " fill="#000000"/><text fill="#000000" font-family="sans-serif" font-size="12" font-style="italic" lengthAdjust="spacing" textLength="48" x="251.75" y="23.1387">&#171;static&#187;</text><text fill="#000000" font-family="sans-serif" font-size="14" lengthAdjust="spacing" textLength="102" x="224.75" y="38.9639">VerbruikHelper</text><line style="stroke:#181818;stroke-width:0.5;" x1="8" x2="511" y1="47.2656" y2="47.2656"/><line style="stroke:#181818;stroke-width:0.5;" x1="8" x2="511" y1="55.2656" y2="55.2656"/><ellipse cx="18" cy="68.9141" fill="#84BE84" rx="3" ry="3" style="stroke:#038048;stroke-width:1.0;"/><text fill="#000000" font-family="sans-serif" font-size="14" lengthAdjust="spacing" text-decoration="underline" textLength="479" x="27" y="72.2607">BerekenVerbruikObvEPeil(origineelVerbruik:double, EPeil:int) : double</text><ellipse cx="18" cy="85.2109" fill="#84BE84" rx="3" ry="3" style="stroke:#038048;stroke-width:1.0;"/><text fill="#000000" font-family="sans-serif" font-size="14" lengthAdjust="spacing" text-decoration="underline" textLength="423" x="27" y="88.5576">BerekenVerbruikVoorEpcA(origineelVerbruik:double) : double</text></g><!--SRC=[Iyv9B2vM24ijIYegpSpsICqfI2rIiB4fBaaioKosirEevb800cs5QeX8hO9JQb5gTceUJ8T_KfbhG6fcZaP-KMPwPbvgQWvCnYeblpGf9rL70InlbPbNegbWfG0H961eM7v-aMj1iYDEGv5CgWK0]--></g></svg>