<?xml version="1.0" encoding="us-ascii" standalone="no"?><svg xmlns="http://www.w3.org/2000/svg" xmlns:xlink="http://www.w3.org/1999/xlink" contentStyleType="text/css" height="604px" preserveAspectRatio="none" style="width:365px;height:604px;background:#FFFFFF;" version="1.1" viewBox="0 0 365 604" width="365px" zoomAndPan="magnify"><defs/><g><!--class Cilinder--><g id="elem_Cilinder"><rect codeLine="1" fill="#F1F1F1" height="162.0781" id="Cilinder" rx="2.5" ry="2.5" style="stroke:#181818;stroke-width:0.5;" width="351" x="7" y="435"/><ellipse cx="152.75" cy="451" fill="#ADD1B2" rx="11" ry="11" style="stroke:#181818;stroke-width:1.0;"/><path d="M155.7188,456.6406 Q155.1406,456.9375 154.5,457.0781 Q153.8594,457.2344 153.1563,457.2344 Q150.6563,457.2344 149.3281,455.5938 Q148.0156,453.9375 148.0156,450.8125 Q148.0156,447.6875 149.3281,446.0313 Q150.6563,444.375 153.1563,444.375 Q153.8594,444.375 154.5,444.5313 Q155.1563,444.6875 155.7188,444.9844 L155.7188,447.7031 Q155.0938,447.125 154.5,446.8594 Q153.9063,446.5781 153.2813,446.5781 Q151.9375,446.5781 151.25,447.6563 Q150.5625,448.7188 150.5625,450.8125 Q150.5625,452.9063 151.25,453.9844 Q151.9375,455.0469 153.2813,455.0469 Q153.9063,455.0469 154.5,454.7813 Q155.0938,454.5 155.7188,453.9219 L155.7188,456.6406 Z " fill="#000000"/><text fill="#000000" font-family="sans-serif" font-size="14" lengthAdjust="spacing" textLength="51" x="173.25" y="455.8467">Cilinder</text><line style="stroke:#181818;stroke-width:0.5;" x1="8" x2="357" y1="467" y2="467"/><ellipse cx="18" cy="480.6484" fill="none" rx="3" ry="3" style="stroke:#038048;stroke-width:1.0;"/><text fill="#000000" font-family="sans-serif" font-size="14" lengthAdjust="spacing" textLength="160" x="27" y="483.9951">H : double &#171;get&#187; &#171;set&#187;</text><ellipse cx="18" cy="496.9453" fill="none" rx="3" ry="3" style="stroke:#038048;stroke-width:1.0;"/><text fill="#000000" font-family="sans-serif" font-size="14" lengthAdjust="spacing" textLength="263" x="27" y="500.292">&#171;override&#187; Omschrijving : string &#171;get&#187;</text><line style="stroke:#181818;stroke-width:0.5;" x1="8" x2="357" y1="507.5938" y2="507.5938"/><ellipse cx="18" cy="521.2422" fill="#84BE84" rx="3" ry="3" style="stroke:#038048;stroke-width:1.0;"/><text fill="#000000" font-family="sans-serif" font-size="14" lengthAdjust="spacing" textLength="61" x="27" y="524.5889">Cilinder()</text><ellipse cx="18" cy="537.5391" fill="#84BE84" rx="3" ry="3" style="stroke:#038048;stroke-width:1.0;"/><text fill="#000000" font-family="sans-serif" font-size="14" lengthAdjust="spacing" textLength="325" x="27" y="540.8857">Cilinder(x:double, y:double, r:double, h:double)</text><ellipse cx="18" cy="553.8359" fill="#84BE84" rx="3" ry="3" style="stroke:#038048;stroke-width:1.0;"/><text fill="#000000" font-family="sans-serif" font-size="14" lengthAdjust="spacing" textLength="232" x="27" y="557.1826">&#171;override&#187; Oppervlakte() : double</text><ellipse cx="18" cy="570.1328" fill="#84BE84" rx="3" ry="3" style="stroke:#038048;stroke-width:1.0;"/><text fill="#000000" font-family="sans-serif" font-size="14" lengthAdjust="spacing" textLength="123" x="27" y="573.4795">Volume() : double</text><ellipse cx="18" cy="586.4297" fill="#84BE84" rx="3" ry="3" style="stroke:#038048;stroke-width:1.0;"/><text fill="#000000" font-family="sans-serif" font-size="14" lengthAdjust="spacing" textLength="247" x="27" y="589.7764">&#171;override&#187; ToonGegevens() : string</text></g><!--class Cirkel--><g id="elem_Cirkel"><rect codeLine="1" fill="#F1F1F1" height="162.0781" id="Cirkel" rx="2.5" ry="2.5" style="stroke:#181818;stroke-width:0.5;" width="289" x="38" y="213"/><ellipse cx="159.25" cy="229" fill="#ADD1B2" rx="11" ry="11" style="stroke:#181818;stroke-width:1.0;"/><path d="M162.2188,234.6406 Q161.6406,234.9375 161,235.0781 Q160.3594,235.2344 159.6563,235.2344 Q157.1563,235.2344 155.8281,233.5938 Q154.5156,231.9375 154.5156,228.8125 Q154.5156,225.6875 155.8281,224.0313 Q157.1563,222.375 159.6563,222.375 Q160.3594,222.375 161,222.5313 Q161.6563,222.6875 162.2188,222.9844 L162.2188,225.7031 Q161.5938,225.125 161,224.8594 Q160.4063,224.5781 159.7813,224.5781 Q158.4375,224.5781 157.75,225.6563 Q157.0625,226.7188 157.0625,228.8125 Q157.0625,230.9063 157.75,231.9844 Q158.4375,233.0469 159.7813,233.0469 Q160.4063,233.0469 161,232.7813 Q161.5938,232.5 162.2188,231.9219 L162.2188,234.6406 Z " fill="#000000"/><text fill="#000000" font-family="sans-serif" font-size="14" lengthAdjust="spacing" textLength="38" x="179.75" y="233.8467">Cirkel</text><line style="stroke:#181818;stroke-width:0.5;" x1="39" x2="326" y1="245" y2="245"/><ellipse cx="49" cy="258.6484" fill="none" rx="3" ry="3" style="stroke:#038048;stroke-width:1.0;"/><text fill="#000000" font-family="sans-serif" font-size="14" lengthAdjust="spacing" textLength="160" x="58" y="261.9951">R : double &#171;get&#187; &#171;set&#187;</text><ellipse cx="49" cy="274.9453" fill="none" rx="3" ry="3" style="stroke:#038048;stroke-width:1.0;"/><text fill="#000000" font-family="sans-serif" font-size="14" lengthAdjust="spacing" textLength="263" x="58" y="278.292">&#171;override&#187; Omschrijving : string &#171;get&#187;</text><line style="stroke:#181818;stroke-width:0.5;" x1="39" x2="326" y1="285.5938" y2="285.5938"/><ellipse cx="49" cy="299.2422" fill="#84BE84" rx="3" ry="3" style="stroke:#038048;stroke-width:1.0;"/><text fill="#000000" font-family="sans-serif" font-size="14" lengthAdjust="spacing" textLength="48" x="58" y="302.5889">Cirkel()</text><ellipse cx="49" cy="315.5391" fill="#84BE84" rx="3" ry="3" style="stroke:#038048;stroke-width:1.0;"/><text fill="#000000" font-family="sans-serif" font-size="14" lengthAdjust="spacing" textLength="242" x="58" y="318.8857">Cirkel(x:double, y:double, r:double)</text><ellipse cx="49" cy="331.8359" fill="#84BE84" rx="3" ry="3" style="stroke:#038048;stroke-width:1.0;"/><text fill="#000000" font-family="sans-serif" font-size="14" lengthAdjust="spacing" textLength="122" x="58" y="335.1826">Omtrek() : double</text><ellipse cx="49" cy="348.1328" fill="#84BE84" rx="3" ry="3" style="stroke:#038048;stroke-width:1.0;"/><text fill="#000000" font-family="sans-serif" font-size="14" lengthAdjust="spacing" textLength="216" x="58" y="351.4795">&#171;virtual&#187; Oppervlakte() : double</text><ellipse cx="49" cy="364.4297" fill="#84BE84" rx="3" ry="3" style="stroke:#038048;stroke-width:1.0;"/><text fill="#000000" font-family="sans-serif" font-size="14" lengthAdjust="spacing" textLength="247" x="58" y="367.7764">&#171;override&#187; ToonGegevens() : string</text></g><!--class Punt--><g id="elem_Punt"><rect codeLine="1" fill="#F1F1F1" height="145.7813" id="Punt" rx="2.5" ry="2.5" style="stroke:#181818;stroke-width:0.5;" width="273" x="46" y="7"/><ellipse cx="162.25" cy="23" fill="#ADD1B2" rx="11" ry="11" style="stroke:#181818;stroke-width:1.0;"/><path d="M165.2188,28.6406 Q164.6406,28.9375 164,29.0781 Q163.3594,29.2344 162.6563,29.2344 Q160.1563,29.2344 158.8281,27.5938 Q157.5156,25.9375 157.5156,22.8125 Q157.5156,19.6875 158.8281,18.0313 Q160.1563,16.375 162.6563,16.375 Q163.3594,16.375 164,16.5313 Q164.6563,16.6875 165.2188,16.9844 L165.2188,19.7031 Q164.5938,19.125 164,18.8594 Q163.4063,18.5781 162.7813,18.5781 Q161.4375,18.5781 160.75,19.6563 Q160.0625,20.7188 160.0625,22.8125 Q160.0625,24.9063 160.75,25.9844 Q161.4375,27.0469 162.7813,27.0469 Q163.4063,27.0469 164,26.7813 Q164.5938,26.5 165.2188,25.9219 L165.2188,28.6406 Z " fill="#000000"/><text fill="#000000" font-family="sans-serif" font-size="14" lengthAdjust="spacing" textLength="32" x="182.75" y="27.8467">Punt</text><line style="stroke:#181818;stroke-width:0.5;" x1="47" x2="318" y1="39" y2="39"/><ellipse cx="57" cy="52.6484" fill="none" rx="3" ry="3" style="stroke:#038048;stroke-width:1.0;"/><text fill="#000000" font-family="sans-serif" font-size="14" lengthAdjust="spacing" textLength="159" x="66" y="55.9951">X : double &#171;get&#187; &#171;set&#187;</text><ellipse cx="57" cy="68.9453" fill="none" rx="3" ry="3" style="stroke:#038048;stroke-width:1.0;"/><text fill="#000000" font-family="sans-serif" font-size="14" lengthAdjust="spacing" textLength="159" x="66" y="72.292">Y : double &#171;get&#187; &#171;set&#187;</text><ellipse cx="57" cy="85.2422" fill="none" rx="3" ry="3" style="stroke:#038048;stroke-width:1.0;"/><text fill="#000000" font-family="sans-serif" font-size="14" lengthAdjust="spacing" textLength="247" x="66" y="88.5889">&#171;virtual&#187; Omschrijving : string &#171;get&#187;</text><line style="stroke:#181818;stroke-width:0.5;" x1="47" x2="318" y1="95.8906" y2="95.8906"/><ellipse cx="57" cy="109.5391" fill="#84BE84" rx="3" ry="3" style="stroke:#038048;stroke-width:1.0;"/><text fill="#000000" font-family="sans-serif" font-size="14" lengthAdjust="spacing" textLength="42" x="66" y="112.8857">Punt()</text><ellipse cx="57" cy="125.8359" fill="#84BE84" rx="3" ry="3" style="stroke:#038048;stroke-width:1.0;"/><text fill="#000000" font-family="sans-serif" font-size="14" lengthAdjust="spacing" textLength="170" x="66" y="129.1826">Punt(x:double, y:double)</text><ellipse cx="57" cy="142.1328" fill="#84BE84" rx="3" ry="3" style="stroke:#038048;stroke-width:1.0;"/><text fill="#000000" font-family="sans-serif" font-size="14" lengthAdjust="spacing" textLength="231" x="66" y="145.4795">&#171;virtual&#187; ToonGegevens() : string</text></g><!--reverse link Cirkel to Cilinder--><g id="link_Cirkel_Cilinder"><path codeLine="10" d="M182.5,393.05 C182.5,412.46 182.5,415.22 182.5,434.64 " fill="none" id="Cirkel-backto-Cilinder" style="stroke:#181818;stroke-width:1.0;"/><polygon fill="none" points="182.5,375.05,176.5,393.05,188.5,393.05,182.5,375.05" style="stroke:#181818;stroke-width:1.0;"/></g><!--reverse link Punt to Cirkel--><g id="link_Punt_Cirkel"><path codeLine="10" d="M182.5,171.07 C182.5,190.28 182.5,193.14 182.5,212.76 " fill="none" id="Punt-backto-Cirkel" style="stroke:#181818;stroke-width:1.0;"/><polygon fill="none" points="182.5,153.07,176.5,171.07,188.5,171.07,182.5,153.07" style="stroke:#181818;stroke-width:1.0;"/></g><!--SRC=[KypCIyufJKbLSCxCoSnBIItIAoZDpU5IH0WNPQVce0a6bEQLW8K0]--></g></svg>