<?xml version="1.0" encoding="us-ascii" standalone="no"?><svg xmlns="http://www.w3.org/2000/svg" xmlns:xlink="http://www.w3.org/1999/xlink" contentStyleType="text/css" height="166px" preserveAspectRatio="none" style="width:294px;height:166px;background:#FFFFFF;" version="1.1" viewBox="0 0 294 166" width="294px" zoomAndPan="magnify"><defs/><g><!--class Punt--><g id="elem_Punt"><rect codeLine="1" fill="#F1F1F1" height="145.7813" id="Punt" rx="2.5" ry="2.5" style="stroke:#181818;stroke-width:0.5;" width="273" x="7" y="7"/><ellipse cx="123.25" cy="23" fill="#ADD1B2" rx="11" ry="11" style="stroke:#181818;stroke-width:1.0;"/><path d="M126.2188,28.6406 Q125.6406,28.9375 125,29.0781 Q124.3594,29.2344 123.6563,29.2344 Q121.1563,29.2344 119.8281,27.5938 Q118.5156,25.9375 118.5156,22.8125 Q118.5156,19.6875 119.8281,18.0313 Q121.1563,16.375 123.6563,16.375 Q124.3594,16.375 125,16.5313 Q125.6563,16.6875 126.2188,16.9844 L126.2188,19.7031 Q125.5938,19.125 125,18.8594 Q124.4063,18.5781 123.7813,18.5781 Q122.4375,18.5781 121.75,19.6563 Q121.0625,20.7188 121.0625,22.8125 Q121.0625,24.9063 121.75,25.9844 Q122.4375,27.0469 123.7813,27.0469 Q124.4063,27.0469 125,26.7813 Q125.5938,26.5 126.2188,25.9219 L126.2188,28.6406 Z " fill="#000000"/><text fill="#000000" font-family="sans-serif" font-size="14" lengthAdjust="spacing" textLength="32" x="143.75" y="27.8467">Punt</text><line style="stroke:#181818;stroke-width:0.5;" x1="8" x2="279" y1="39" y2="39"/><ellipse cx="18" cy="52.6484" fill="none" rx="3" ry="3" style="stroke:#038048;stroke-width:1.0;"/><text fill="#000000" font-family="sans-serif" font-size="14" lengthAdjust="spacing" textLength="159" x="27" y="55.9951">X : double &#171;get&#187; &#171;set&#187;</text><ellipse cx="18" cy="68.9453" fill="none" rx="3" ry="3" style="stroke:#038048;stroke-width:1.0;"/><text fill="#000000" font-family="sans-serif" font-size="14" lengthAdjust="spacing" textLength="159" x="27" y="72.292">Y : double &#171;get&#187; &#171;set&#187;</text><ellipse cx="18" cy="85.2422" fill="none" rx="3" ry="3" style="stroke:#038048;stroke-width:1.0;"/><text fill="#000000" font-family="sans-serif" font-size="14" lengthAdjust="spacing" textLength="247" x="27" y="88.5889">&#171;virtual&#187; Omschrijving : string &#171;get&#187;</text><line style="stroke:#181818;stroke-width:0.5;" x1="8" x2="279" y1="95.8906" y2="95.8906"/><ellipse cx="18" cy="109.5391" fill="#84BE84" rx="3" ry="3" style="stroke:#038048;stroke-width:1.0;"/><text fill="#000000" font-family="sans-serif" font-size="14" lengthAdjust="spacing" textLength="42" x="27" y="112.8857">Punt()</text><ellipse cx="18" cy="125.8359" fill="#84BE84" rx="3" ry="3" style="stroke:#038048;stroke-width:1.0;"/><text fill="#000000" font-family="sans-serif" font-size="14" lengthAdjust="spacing" textLength="170" x="27" y="129.1826">Punt(x:double, y:double)</text><ellipse cx="18" cy="142.1328" fill="#84BE84" rx="3" ry="3" style="stroke:#038048;stroke-width:1.0;"/><text fill="#000000" font-family="sans-serif" font-size="14" lengthAdjust="spacing" textLength="231" x="27" y="145.4795">&#171;virtual&#187; ToonGegevens() : string</text></g><!--SRC=[Iyv9B2vM22ZDAr6evb800cs520KhXPJyqgISL0KRc_JK4Zix85qCeg4A8WafiB4foomgAKtC0ShuvnOdPnHbPfLbvgK3zHMN584OK7rGzI3hDJIHEHLM40jq52gXB4qiPeVav-UvfwQdbgNc5MjematdgWK0]--></g></svg>