<?xml version="1.0" encoding="us-ascii" standalone="no"?><svg xmlns="http://www.w3.org/2000/svg" xmlns:xlink="http://www.w3.org/1999/xlink" contentStyleType="text/css" height="235px" preserveAspectRatio="none" style="width:287px;height:235px;background:#FFFFFF;" version="1.1" viewBox="0 0 287 235" width="287px" zoomAndPan="magnify"><defs/><g><!--class Spaarrekening--><g id="elem_Spaarrekening"><rect codeLine="1" fill="#F1F1F1" height="113.1875" id="Spaarrekening" rx="2.5" ry="2.5" style="stroke:#181818;stroke-width:0.5;" width="273" x="7" y="115"/><ellipse cx="89.25" cy="131" fill="#ADD1B2" rx="11" ry="11" style="stroke:#181818;stroke-width:1.0;"/><path d="M92.2188,136.6406 Q91.6406,136.9375 91,137.0781 Q90.3594,137.2344 89.6563,137.2344 Q87.1563,137.2344 85.8281,135.5938 Q84.5156,133.9375 84.5156,130.8125 Q84.5156,127.6875 85.8281,126.0313 Q87.1563,124.375 89.6563,124.375 Q90.3594,124.375 91,124.5313 Q91.6563,124.6875 92.2188,124.9844 L92.2188,127.7031 Q91.5938,127.125 91,126.8594 Q90.4063,126.5781 89.7813,126.5781 Q88.4375,126.5781 87.75,127.6563 Q87.0625,128.7188 87.0625,130.8125 Q87.0625,132.9063 87.75,133.9844 Q88.4375,135.0469 89.7813,135.0469 Q90.4063,135.0469 91,134.7813 Q91.5938,134.5 92.2188,133.9219 L92.2188,136.6406 Z " fill="#000000"/><text fill="#000000" font-family="sans-serif" font-size="14" lengthAdjust="spacing" textLength="100" x="109.75" y="135.8467">Spaarrekening</text><line style="stroke:#181818;stroke-width:0.5;" x1="8" x2="279" y1="147" y2="147"/><ellipse cx="18" cy="160.6484" fill="none" rx="3" ry="3" style="stroke:#038048;stroke-width:1.0;"/><text fill="#000000" font-family="sans-serif" font-size="14" lengthAdjust="spacing" textLength="230" x="27" y="163.9951">Percentage : double &#171;get&#187; &#171;set&#187;</text><line style="stroke:#181818;stroke-width:0.5;" x1="8" x2="279" y1="171.2969" y2="171.2969"/><ellipse cx="18" cy="184.9453" fill="#84BE84" rx="3" ry="3" style="stroke:#038048;stroke-width:1.0;"/><text fill="#000000" font-family="sans-serif" font-size="14" lengthAdjust="spacing" textLength="242" x="27" y="188.292">Spaarrekening(ibanNummer:string)</text><ellipse cx="18" cy="201.2422" fill="#84BE84" rx="3" ry="3" style="stroke:#038048;stroke-width:1.0;"/><text fill="#000000" font-family="sans-serif" font-size="14" lengthAdjust="spacing" textLength="247" x="27" y="204.5889">&#171;override&#187; ToonGegevens() : string</text><ellipse cx="18" cy="217.5391" fill="#84BE84" rx="3" ry="3" style="stroke:#038048;stroke-width:1.0;"/><text fill="#000000" font-family="sans-serif" font-size="14" lengthAdjust="spacing" textLength="149" x="27" y="220.8857">SchrijfRentebij() : void</text></g><!--class Bankrekening--><g id="elem_Bankrekening"><rect fill="#F1F1F1" height="48" id="Bankrekening" rx="2.5" ry="2.5" style="stroke:#181818;stroke-width:0.5;" width="128" x="79.5" y="7"/><ellipse cx="94.5" cy="23" fill="#ADD1B2" rx="11" ry="11" style="stroke:#181818;stroke-width:1.0;"/><path d="M97.4688,28.6406 Q96.8906,28.9375 96.25,29.0781 Q95.6094,29.2344 94.9063,29.2344 Q92.4063,29.2344 91.0781,27.5938 Q89.7656,25.9375 89.7656,22.8125 Q89.7656,19.6875 91.0781,18.0313 Q92.4063,16.375 94.9063,16.375 Q95.6094,16.375 96.25,16.5313 Q96.9063,16.6875 97.4688,16.9844 L97.4688,19.7031 Q96.8438,19.125 96.25,18.8594 Q95.6563,18.5781 95.0313,18.5781 Q93.6875,18.5781 93,19.6563 Q92.3125,20.7188 92.3125,22.8125 Q92.3125,24.9063 93,25.9844 Q93.6875,27.0469 95.0313,27.0469 Q95.6563,27.0469 96.25,26.7813 Q96.8438,26.5 97.4688,25.9219 L97.4688,28.6406 Z " fill="#000000"/><text fill="#000000" font-family="sans-serif" font-size="14" lengthAdjust="spacing" textLength="96" x="108.5" y="27.8467">Bankrekening</text><line style="stroke:#181818;stroke-width:0.5;" x1="80.5" x2="206.5" y1="39" y2="39"/><line style="stroke:#181818;stroke-width:0.5;" x1="80.5" x2="206.5" y1="47" y2="47"/></g><!--reverse link Bankrekening to Spaarrekening--><g id="link_Bankrekening_Spaarrekening"><path codeLine="7" d="M143.5,73.18 C143.5,89.51 143.5,94.08 143.5,114.94 " fill="none" id="Bankrekening-backto-Spaarrekening" style="stroke:#181818;stroke-width:1.0;"/><polygon fill="none" points="143.5,55.18,137.5,73.18,149.5,73.18,143.5,55.18" style="stroke:#181818;stroke-width:1.0;"/></g><!--SRC=[LOuz3i8m38Ntdi9ZAzGBL5475ZQ4W0kawIEaFmvosYp0tGbGaEhbITRdzzaCEWGwtRGMGGzsREcUKPeD7I06F6aBggZrSpE0bBAOwZfbUET2hkvprsZUp-C8gS8aQLCic58-GiIrI0rdxta7YmWEUP4CN_RNQAxYkiin-T6uxWD4xzhicMqrz_zVrQCir_eN]--></g></svg>