<?xml version="1.0" encoding="us-ascii" standalone="no"?><svg xmlns="http://www.w3.org/2000/svg" xmlns:xlink="http://www.w3.org/1999/xlink" contentStyleType="text/css" height="202px" preserveAspectRatio="none" style="width:376px;height:202px;background:#FFFFFF;" version="1.1" viewBox="0 0 376 202" width="376px" zoomAndPan="magnify"><defs/><g><!--class Zichtrekening--><g id="elem_Zichtrekening"><rect codeLine="1" fill="#F1F1F1" height="80.5938" id="Zichtrekening" rx="2.5" ry="2.5" style="stroke:#181818;stroke-width:0.5;" width="362" x="7" y="115"/><ellipse cx="135.75" cy="131" fill="#ADD1B2" rx="11" ry="11" style="stroke:#181818;stroke-width:1.0;"/><path d="M138.7188,136.6406 Q138.1406,136.9375 137.5,137.0781 Q136.8594,137.2344 136.1563,137.2344 Q133.6563,137.2344 132.3281,135.5938 Q131.0156,133.9375 131.0156,130.8125 Q131.0156,127.6875 132.3281,126.0313 Q133.6563,124.375 136.1563,124.375 Q136.8594,124.375 137.5,124.5313 Q138.1563,124.6875 138.7188,124.9844 L138.7188,127.7031 Q138.0938,127.125 137.5,126.8594 Q136.9063,126.5781 136.2813,126.5781 Q134.9375,126.5781 134.25,127.6563 Q133.5625,128.7188 133.5625,130.8125 Q133.5625,132.9063 134.25,133.9844 Q134.9375,135.0469 136.2813,135.0469 Q136.9063,135.0469 137.5,134.7813 Q138.0938,134.5 138.7188,133.9219 L138.7188,136.6406 Z " fill="#000000"/><text fill="#000000" font-family="sans-serif" font-size="14" lengthAdjust="spacing" textLength="96" x="156.25" y="135.8467">Zichtrekening</text><line style="stroke:#181818;stroke-width:0.5;" x1="8" x2="368" y1="147" y2="147"/><line style="stroke:#181818;stroke-width:0.5;" x1="8" x2="368" y1="155" y2="155"/><ellipse cx="18" cy="168.6484" fill="#84BE84" rx="3" ry="3" style="stroke:#038048;stroke-width:1.0;"/><text fill="#000000" font-family="sans-serif" font-size="14" lengthAdjust="spacing" textLength="336" x="27" y="171.9951">Zichtrekening(ibanNummer:string, saldo:double)</text><ellipse cx="18" cy="184.9453" fill="#84BE84" rx="3" ry="3" style="stroke:#038048;stroke-width:1.0;"/><text fill="#000000" font-family="sans-serif" font-size="14" lengthAdjust="spacing" textLength="247" x="27" y="188.292">&#171;override&#187; ToonGegevens() : string</text></g><!--class Bankrekening--><g id="elem_Bankrekening"><rect fill="#F1F1F1" height="48" id="Bankrekening" rx="2.5" ry="2.5" style="stroke:#181818;stroke-width:0.5;" width="128" x="124" y="7"/><ellipse cx="139" cy="23" fill="#ADD1B2" rx="11" ry="11" style="stroke:#181818;stroke-width:1.0;"/><path d="M141.9688,28.6406 Q141.3906,28.9375 140.75,29.0781 Q140.1094,29.2344 139.4063,29.2344 Q136.9063,29.2344 135.5781,27.5938 Q134.2656,25.9375 134.2656,22.8125 Q134.2656,19.6875 135.5781,18.0313 Q136.9063,16.375 139.4063,16.375 Q140.1094,16.375 140.75,16.5313 Q141.4063,16.6875 141.9688,16.9844 L141.9688,19.7031 Q141.3438,19.125 140.75,18.8594 Q140.1563,18.5781 139.5313,18.5781 Q138.1875,18.5781 137.5,19.6563 Q136.8125,20.7188 136.8125,22.8125 Q136.8125,24.9063 137.5,25.9844 Q138.1875,27.0469 139.5313,27.0469 Q140.1563,27.0469 140.75,26.7813 Q141.3438,26.5 141.9688,25.9219 L141.9688,28.6406 Z " fill="#000000"/><text fill="#000000" font-family="sans-serif" font-size="14" lengthAdjust="spacing" textLength="96" x="153" y="27.8467">Bankrekening</text><line style="stroke:#181818;stroke-width:0.5;" x1="125" x2="251" y1="39" y2="39"/><line style="stroke:#181818;stroke-width:0.5;" x1="125" x2="251" y1="47" y2="47"/></g><!--reverse link Bankrekening to Zichtrekening--><g id="link_Bankrekening_Zichtrekening"><path codeLine="5" d="M188,73.04 C188,89.81 188,94.95 188,114.69 " fill="none" id="Bankrekening-backto-Zichtrekening" style="stroke:#181818;stroke-width:1.0;"/><polygon fill="none" points="188,55.04,182,73.04,194,73.04,188,55.04" style="stroke:#181818;stroke-width:1.0;"/></g><!--SRC=[Iyv9B2vMYCfCpYWfIirEpSlCIrUevb800crKKOtCfCGylzBStDGYg-AI8g28Za9nOavAlbLAVcbIJgecL9EDJNvPQb5HPaggdPr2I7v-ddjgUcfPQbwnXgQ2bG949rSjbrDYNZRSGfiQNLrKsm00]--></g></svg>