<?xml version="1.0" encoding="us-ascii" standalone="no"?><svg xmlns="http://www.w3.org/2000/svg" xmlns:xlink="http://www.w3.org/1999/xlink" contentStyleType="text/css" height="126px" preserveAspectRatio="none" style="width:366px;height:126px;background:#FFFFFF;" version="1.1" viewBox="0 0 366 126" width="366px" zoomAndPan="magnify"><defs/><g><!--class FileOperations--><g id="elem_FileOperations"><rect codeLine="1" fill="#F1F1F1" height="105.1563" id="FileOperations" rx="2.5" ry="2.5" style="stroke:#181818;stroke-width:0.5;" width="345" x="7" y="7"/><ellipse cx="125.75" cy="27.1328" fill="#ADD1B2" rx="11" ry="11" style="stroke:#181818;stroke-width:1.0;"/><path d="M128.7188,32.7734 Q128.1406,33.0703 127.5,33.2109 Q126.8594,33.3672 126.1563,33.3672 Q123.6563,33.3672 122.3281,31.7266 Q121.0156,30.0703 121.0156,26.9453 Q121.0156,23.8203 122.3281,22.1641 Q123.6563,20.5078 126.1563,20.5078 Q126.8594,20.5078 127.5,20.6641 Q128.1563,20.8203 128.7188,21.1172 L128.7188,23.8359 Q128.0938,23.2578 127.5,22.9922 Q126.9063,22.7109 126.2813,22.7109 Q124.9375,22.7109 124.25,23.7891 Q123.5625,24.8516 123.5625,26.9453 Q123.5625,29.0391 124.25,30.1172 Q124.9375,31.1797 126.2813,31.1797 Q126.9063,31.1797 127.5,30.9141 Q128.0938,30.6328 128.7188,30.0547 L128.7188,32.7734 Z " fill="#000000"/><text fill="#000000" font-family="sans-serif" font-size="12" font-style="italic" lengthAdjust="spacing" textLength="48" x="171.75" y="23.1387">&#171;static&#187;</text><text fill="#000000" font-family="sans-serif" font-size="14" lengthAdjust="spacing" textLength="99" x="146.25" y="38.9639">FileOperations</text><line style="stroke:#181818;stroke-width:0.5;" x1="8" x2="351" y1="47.2656" y2="47.2656"/><line style="stroke:#181818;stroke-width:0.5;" x1="8" x2="351" y1="55.2656" y2="55.2656"/><ellipse cx="18" cy="68.9141" fill="#84BE84" rx="3" ry="3" style="stroke:#038048;stroke-width:1.0;"/><text fill="#000000" font-family="sans-serif" font-size="14" lengthAdjust="spacing" text-decoration="underline" textLength="307" x="27" y="72.2607">KlantenInlezen(bestand:string) : List&lt;Klant&gt;</text><ellipse cx="18" cy="85.2109" fill="#84BE84" rx="3" ry="3" style="stroke:#038048;stroke-width:1.0;"/><text fill="#000000" font-family="sans-serif" font-size="14" lengthAdjust="spacing" text-decoration="underline" textLength="319" x="27" y="88.5576">ZoekKlantViaNummer(klantnummer:int) : Klant</text><ellipse cx="18" cy="101.5078" fill="#84BE84" rx="3" ry="3" style="stroke:#038048;stroke-width:1.0;"/><text fill="#000000" font-family="sans-serif" font-size="14" lengthAdjust="spacing" text-decoration="underline" textLength="234" x="27" y="104.8545">FoutLoggen(fout:Exception) : void</text></g><!--SRC=[NOun3i8m34Ntdi9Z4JU8ecvKGbImCR25raHMKwTAN8IeUdUIiDNJj_z_jdjdOeIM7Dvc34R8SmIjeoJPDmsi5QGwmlgVR71nXWNvp0w_oFKJay63YXA8xG4KT1H5brIpPnyUn-BSoLoNQS9GZxdbeXMnv0KbiKTRlqZdhKqdNqcgqwV7EN-RYRUdeTf-]--></g></svg>