<?xml version="1.0" encoding="us-ascii" standalone="no"?><svg xmlns="http://www.w3.org/2000/svg" xmlns:xlink="http://www.w3.org/1999/xlink" contentStyleType="text/css" height="186px" preserveAspectRatio="none" style="width:364px;height:186px;background:#FFFFFF;" version="1.1" viewBox="0 0 364 186" width="364px" zoomAndPan="magnify"><defs/><g><!--class KlantNietGevondenException--><g id="elem_KlantNietGevondenException"><rect codeLine="1" fill="#F1F1F1" height="64.2969" id="KlantNietGevondenException" rx="2.5" ry="2.5" style="stroke:#181818;stroke-width:0.5;" width="350" x="7" y="115"/><ellipse cx="77.25" cy="131" fill="#ADD1B2" rx="11" ry="11" style="stroke:#181818;stroke-width:1.0;"/><path d="M80.2188,136.6406 Q79.6406,136.9375 79,137.0781 Q78.3594,137.2344 77.6563,137.2344 Q75.1563,137.2344 73.8281,135.5938 Q72.5156,133.9375 72.5156,130.8125 Q72.5156,127.6875 73.8281,126.0313 Q75.1563,124.375 77.6563,124.375 Q78.3594,124.375 79,124.5313 Q79.6563,124.6875 80.2188,124.9844 L80.2188,127.7031 Q79.5938,127.125 79,126.8594 Q78.4063,126.5781 77.7813,126.5781 Q76.4375,126.5781 75.75,127.6563 Q75.0625,128.7188 75.0625,130.8125 Q75.0625,132.9063 75.75,133.9844 Q76.4375,135.0469 77.7813,135.0469 Q78.4063,135.0469 79,134.7813 Q79.5938,134.5 80.2188,133.9219 L80.2188,136.6406 Z " fill="#000000"/><text fill="#000000" font-family="sans-serif" font-size="14" lengthAdjust="spacing" textLength="201" x="97.75" y="135.8467">KlantNietGevondenException</text><line style="stroke:#181818;stroke-width:0.5;" x1="8" x2="356" y1="147" y2="147"/><line style="stroke:#181818;stroke-width:0.5;" x1="8" x2="356" y1="155" y2="155"/><ellipse cx="18" cy="168.6484" fill="#84BE84" rx="3" ry="3" style="stroke:#038048;stroke-width:1.0;"/><text fill="#000000" font-family="sans-serif" font-size="14" lengthAdjust="spacing" textLength="324" x="27" y="171.9951">KlantNietGevondenException(klantnummer:int)</text></g><!--class Exception--><g id="elem_Exception"><rect fill="#F1F1F1" height="48" id="Exception" rx="2.5" ry="2.5" style="stroke:#181818;stroke-width:0.5;" width="100" x="132" y="7"/><ellipse cx="147" cy="23" fill="#ADD1B2" rx="11" ry="11" style="stroke:#181818;stroke-width:1.0;"/><path d="M149.9688,28.6406 Q149.3906,28.9375 148.75,29.0781 Q148.1094,29.2344 147.4063,29.2344 Q144.9063,29.2344 143.5781,27.5938 Q142.2656,25.9375 142.2656,22.8125 Q142.2656,19.6875 143.5781,18.0313 Q144.9063,16.375 147.4063,16.375 Q148.1094,16.375 148.75,16.5313 Q149.4063,16.6875 149.9688,16.9844 L149.9688,19.7031 Q149.3438,19.125 148.75,18.8594 Q148.1563,18.5781 147.5313,18.5781 Q146.1875,18.5781 145.5,19.6563 Q144.8125,20.7188 144.8125,22.8125 Q144.8125,24.9063 145.5,25.9844 Q146.1875,27.0469 147.5313,27.0469 Q148.1563,27.0469 148.75,26.7813 Q149.3438,26.5 149.9688,25.9219 L149.9688,28.6406 Z " fill="#000000"/><text fill="#000000" font-family="sans-serif" font-size="14" lengthAdjust="spacing" textLength="68" x="161" y="27.8467">Exception</text><line style="stroke:#181818;stroke-width:0.5;" x1="133" x2="231" y1="39" y2="39"/><line style="stroke:#181818;stroke-width:0.5;" x1="133" x2="231" y1="47" y2="47"/></g><!--reverse link Exception to KlantNietGevondenException--><g id="link_Exception_KlantNietGevondenException"><path codeLine="4" d="M182,73.07 C182,90.25 182,95.88 182,114.75 " fill="none" id="Exception-backto-KlantNietGevondenException" style="stroke:#181818;stroke-width:1.0;"/><polygon fill="none" points="182,55.07,176,73.07,188,73.07,182,55.07" style="stroke:#181818;stroke-width:1.0;"/></g><!--SRC=[Iyv9B2vMyCv9p2lnoqmjSKyjoyzBISrphKXEBIZ9pCzJgEPI009jF4eqia5IUQMvkQb5Lfbv9PfSjLm8_JOrkhfuD0C0]--></g></svg>