<?xml version="1.0" encoding="us-ascii" standalone="no"?><svg xmlns="http://www.w3.org/2000/svg" xmlns:xlink="http://www.w3.org/1999/xlink" contentStyleType="text/css" height="186px" preserveAspectRatio="none" style="width:265px;height:186px;background:#FFFFFF;" version="1.1" viewBox="0 0 265 186" width="265px" zoomAndPan="magnify"><defs/><g><!--class OngeldigBtwNummerException--><g id="elem_OngeldigBtwNummerException"><rect codeLine="1" fill="#F1F1F1" height="64.2969" id="OngeldigBtwNummerException" rx="2.5" ry="2.5" style="stroke:#181818;stroke-width:0.5;" width="251" x="7" y="115"/><ellipse cx="23.8" cy="131" fill="#ADD1B2" rx="11" ry="11" style="stroke:#181818;stroke-width:1.0;"/><path d="M26.7688,136.6406 Q26.1906,136.9375 25.55,137.0781 Q24.9094,137.2344 24.2063,137.2344 Q21.7063,137.2344 20.3781,135.5938 Q19.0656,133.9375 19.0656,130.8125 Q19.0656,127.6875 20.3781,126.0313 Q21.7063,124.375 24.2063,124.375 Q24.9094,124.375 25.55,124.5313 Q26.2063,124.6875 26.7688,124.9844 L26.7688,127.7031 Q26.1438,127.125 25.55,126.8594 Q24.9563,126.5781 24.3313,126.5781 Q22.9875,126.5781 22.3,127.6563 Q21.6125,128.7188 21.6125,130.8125 Q21.6125,132.9063 22.3,133.9844 Q22.9875,135.0469 24.3313,135.0469 Q24.9563,135.0469 25.55,134.7813 Q26.1438,134.5 26.7688,133.9219 L26.7688,136.6406 Z " fill="#000000"/><text fill="#000000" font-family="sans-serif" font-size="14" lengthAdjust="spacing" textLength="215" x="38.2" y="135.8467">OngeldigBtwNummerException</text><line style="stroke:#181818;stroke-width:0.5;" x1="8" x2="257" y1="147" y2="147"/><line style="stroke:#181818;stroke-width:0.5;" x1="8" x2="257" y1="155" y2="155"/><ellipse cx="18" cy="168.6484" fill="#84BE84" rx="3" ry="3" style="stroke:#038048;stroke-width:1.0;"/><text fill="#000000" font-family="sans-serif" font-size="14" lengthAdjust="spacing" textLength="225" x="27" y="171.9951">OngeldigBtwNummerException()</text></g><!--class Exception--><g id="elem_Exception"><rect fill="#F1F1F1" height="48" id="Exception" rx="2.5" ry="2.5" style="stroke:#181818;stroke-width:0.5;" width="100" x="82.5" y="7"/><ellipse cx="97.5" cy="23" fill="#ADD1B2" rx="11" ry="11" style="stroke:#181818;stroke-width:1.0;"/><path d="M100.4688,28.6406 Q99.8906,28.9375 99.25,29.0781 Q98.6094,29.2344 97.9063,29.2344 Q95.4063,29.2344 94.0781,27.5938 Q92.7656,25.9375 92.7656,22.8125 Q92.7656,19.6875 94.0781,18.0313 Q95.4063,16.375 97.9063,16.375 Q98.6094,16.375 99.25,16.5313 Q99.9063,16.6875 100.4688,16.9844 L100.4688,19.7031 Q99.8438,19.125 99.25,18.8594 Q98.6563,18.5781 98.0313,18.5781 Q96.6875,18.5781 96,19.6563 Q95.3125,20.7188 95.3125,22.8125 Q95.3125,24.9063 96,25.9844 Q96.6875,27.0469 98.0313,27.0469 Q98.6563,27.0469 99.25,26.7813 Q99.8438,26.5 100.4688,25.9219 L100.4688,28.6406 Z " fill="#000000"/><text fill="#000000" font-family="sans-serif" font-size="14" lengthAdjust="spacing" textLength="68" x="111.5" y="27.8467">Exception</text><line style="stroke:#181818;stroke-width:0.5;" x1="83.5" x2="181.5" y1="39" y2="39"/><line style="stroke:#181818;stroke-width:0.5;" x1="83.5" x2="181.5" y1="47" y2="47"/></g><!--reverse link Exception to OngeldigBtwNummerException--><g id="link_Exception_OngeldigBtwNummerException"><path codeLine="4" d="M132.5,73.07 C132.5,90.25 132.5,95.88 132.5,114.75 " fill="none" id="Exception-backto-OngeldigBtwNummerException" style="stroke:#181818;stroke-width:1.0;"/><polygon fill="none" points="132.5,55.07,126.5,73.07,138.5,73.07,132.5,55.07" style="stroke:#181818;stroke-width:1.0;"/></g><!--SRC=[Iyv9B2vMyCzBJyr9oKntAYdtAytDJIrohKXEBIZ9pCzJgEPI009jF4eqDBbgkH0QR6fqTV6e1W00]--></g></svg>