<?xml version="1.0" encoding="us-ascii" standalone="no"?><svg xmlns="http://www.w3.org/2000/svg" xmlns:xlink="http://www.w3.org/1999/xlink" contentStyleType="text/css" height="349px" preserveAspectRatio="none" style="width:1626px;height:349px;background:#FFFFFF;" version="1.1" viewBox="0 0 1626 349" width="1626px" zoomAndPan="magnify"><defs/><g><!--class Klant--><g id="elem_Klant"><rect codeLine="1" fill="#F1F1F1" height="194.6719" id="Klant" rx="2.5" ry="2.5" style="stroke:#181818;stroke-width:0.5;" width="606" x="105.5" y="7"/><ellipse cx="387.25" cy="23" fill="#ADD1B2" rx="11" ry="11" style="stroke:#181818;stroke-width:1.0;"/><path d="M390.2188,28.6406 Q389.6406,28.9375 389,29.0781 Q388.3594,29.2344 387.6563,29.2344 Q385.1563,29.2344 383.8281,27.5938 Q382.5156,25.9375 382.5156,22.8125 Q382.5156,19.6875 383.8281,18.0313 Q385.1563,16.375 387.6563,16.375 Q388.3594,16.375 389,16.5313 Q389.6563,16.6875 390.2188,16.9844 L390.2188,19.7031 Q389.5938,19.125 389,18.8594 Q388.4063,18.5781 387.7813,18.5781 Q386.4375,18.5781 385.75,19.6563 Q385.0625,20.7188 385.0625,22.8125 Q385.0625,24.9063 385.75,25.9844 Q386.4375,27.0469 387.7813,27.0469 Q388.4063,27.0469 389,26.7813 Q389.5938,26.5 390.2188,25.9219 L390.2188,28.6406 Z " fill="#000000"/><text fill="#000000" font-family="sans-serif" font-size="14" lengthAdjust="spacing" textLength="34" x="407.75" y="27.8467">Klant</text><line style="stroke:#181818;stroke-width:0.5;" x1="106.5" x2="710.5" y1="39" y2="39"/><ellipse cx="116.5" cy="52.6484" fill="none" rx="3" ry="3" style="stroke:#038048;stroke-width:1.0;"/><text fill="#000000" font-family="sans-serif" font-size="14" lengthAdjust="spacing" textLength="181" x="125.5" y="55.9951">Adres : string &#171;get&#187; &#171;set&#187;</text><ellipse cx="116.5" cy="68.9453" fill="none" rx="3" ry="3" style="stroke:#038048;stroke-width:1.0;"/><text fill="#000000" font-family="sans-serif" font-size="14" lengthAdjust="spacing" textLength="180" x="125.5" y="72.292">Naam : string &#171;get&#187; &#171;set&#187;</text><ellipse cx="116.5" cy="85.2422" fill="none" rx="3" ry="3" style="stroke:#038048;stroke-width:1.0;"/><text fill="#000000" font-family="sans-serif" font-size="14" lengthAdjust="spacing" textLength="207" x="125.5" y="88.5889">Postcode : string &#171;get&#187; &#171;set&#187;</text><ellipse cx="116.5" cy="101.5391" fill="none" rx="3" ry="3" style="stroke:#038048;stroke-width:1.0;"/><text fill="#000000" font-family="sans-serif" font-size="14" lengthAdjust="spacing" textLength="215" x="125.5" y="104.8857">Gemeente : string &#171;get&#187; &#171;set&#187;</text><ellipse cx="116.5" cy="117.8359" fill="none" rx="3" ry="3" style="stroke:#038048;stroke-width:1.0;"/><text fill="#000000" font-family="sans-serif" font-size="14" lengthAdjust="spacing" textLength="211" x="125.5" y="121.1826">Klantnummer : int &#171;get&#187; &#171;set&#187;</text><line style="stroke:#181818;stroke-width:0.5;" x1="106.5" x2="710.5" y1="128.4844" y2="128.4844"/><ellipse cx="116.5" cy="142.1328" fill="#84BE84" rx="3" ry="3" style="stroke:#038048;stroke-width:1.0;"/><text fill="#000000" font-family="sans-serif" font-size="14" lengthAdjust="spacing" textLength="580" x="125.5" y="145.4795">Klant(klantnummer:int, naam:string, adres:string, gemeente:string, postcode:string)</text><ellipse cx="116.5" cy="158.4297" fill="#84BE84" rx="3" ry="3" style="stroke:#038048;stroke-width:1.0;"/><text fill="#000000" font-family="sans-serif" font-size="14" lengthAdjust="spacing" textLength="198" x="125.5" y="161.7764">&#171;override&#187; ToString() : string</text><ellipse cx="116.5" cy="174.7266" fill="#84BE84" rx="3" ry="3" style="stroke:#038048;stroke-width:1.0;"/><text fill="#000000" font-family="sans-serif" font-size="14" lengthAdjust="spacing" textLength="246" x="125.5" y="178.0732">&#171;override&#187; Equals(obj:object) : bool</text><ellipse cx="116.5" cy="191.0234" fill="#84BE84" rx="3" ry="3" style="stroke:#038048;stroke-width:1.0;"/><text fill="#000000" font-family="sans-serif" font-size="14" lengthAdjust="spacing" textLength="215" x="125.5" y="194.3701">&#171;override&#187; GetHashCode() : int</text></g><!--class ZakelijkeKlant--><g id="elem_ZakelijkeKlant"><rect codeLine="1" fill="#F1F1F1" height="80.5938" id="ZakelijkeKlant" rx="2.5" ry="2.5" style="stroke:#181818;stroke-width:0.5;" width="803" x="7" y="262"/><ellipse cx="356.75" cy="278" fill="#ADD1B2" rx="11" ry="11" style="stroke:#181818;stroke-width:1.0;"/><path d="M359.7188,283.6406 Q359.1406,283.9375 358.5,284.0781 Q357.8594,284.2344 357.1563,284.2344 Q354.6563,284.2344 353.3281,282.5938 Q352.0156,280.9375 352.0156,277.8125 Q352.0156,274.6875 353.3281,273.0313 Q354.6563,271.375 357.1563,271.375 Q357.8594,271.375 358.5,271.5313 Q359.1563,271.6875 359.7188,271.9844 L359.7188,274.7031 Q359.0938,274.125 358.5,273.8594 Q357.9063,273.5781 357.2813,273.5781 Q355.9375,273.5781 355.25,274.6563 Q354.5625,275.7188 354.5625,277.8125 Q354.5625,279.9063 355.25,280.9844 Q355.9375,282.0469 357.2813,282.0469 Q357.9063,282.0469 358.5,281.7813 Q359.0938,281.5 359.7188,280.9219 L359.7188,283.6406 Z " fill="#000000"/><text fill="#000000" font-family="sans-serif" font-size="14" lengthAdjust="spacing" textLength="95" x="377.25" y="282.8467">ZakelijkeKlant</text><line style="stroke:#181818;stroke-width:0.5;" x1="8" x2="809" y1="294" y2="294"/><ellipse cx="18" cy="307.6484" fill="none" rx="3" ry="3" style="stroke:#038048;stroke-width:1.0;"/><text fill="#000000" font-family="sans-serif" font-size="14" lengthAdjust="spacing" textLength="226" x="27" y="310.9951">BtwNummer : string &#171;get&#187; &#171;set&#187;</text><line style="stroke:#181818;stroke-width:0.5;" x1="8" x2="809" y1="318.2969" y2="318.2969"/><ellipse cx="18" cy="331.9453" fill="#84BE84" rx="3" ry="3" style="stroke:#038048;stroke-width:1.0;"/><text fill="#000000" font-family="sans-serif" font-size="14" lengthAdjust="spacing" textLength="777" x="27" y="335.292">ZakelijkeKlant(klantnummer:int, naam:string, adres:string, gemeente:string, postcode:string, btwNummer:string)</text></g><!--class KlantNietGevondenException--><g id="elem_KlantNietGevondenException"><rect codeLine="1" fill="#F1F1F1" height="64.2969" id="KlantNietGevondenException" rx="2.5" ry="2.5" style="stroke:#181818;stroke-width:0.5;" width="350" x="845.5" y="270.5"/><ellipse cx="915.75" cy="286.5" fill="#ADD1B2" rx="11" ry="11" style="stroke:#181818;stroke-width:1.0;"/><path d="M918.7188,292.1406 Q918.1406,292.4375 917.5,292.5781 Q916.8594,292.7344 916.1563,292.7344 Q913.6563,292.7344 912.3281,291.0938 Q911.0156,289.4375 911.0156,286.3125 Q911.0156,283.1875 912.3281,281.5313 Q913.6563,279.875 916.1563,279.875 Q916.8594,279.875 917.5,280.0313 Q918.1563,280.1875 918.7188,280.4844 L918.7188,283.2031 Q918.0938,282.625 917.5,282.3594 Q916.9063,282.0781 916.2813,282.0781 Q914.9375,282.0781 914.25,283.1563 Q913.5625,284.2188 913.5625,286.3125 Q913.5625,288.4063 914.25,289.4844 Q914.9375,290.5469 916.2813,290.5469 Q916.9063,290.5469 917.5,290.2813 Q918.0938,290 918.7188,289.4219 L918.7188,292.1406 Z " fill="#000000"/><text fill="#000000" font-family="sans-serif" font-size="14" lengthAdjust="spacing" textLength="201" x="936.25" y="291.3467">KlantNietGevondenException</text><line style="stroke:#181818;stroke-width:0.5;" x1="846.5" x2="1194.5" y1="302.5" y2="302.5"/><line style="stroke:#181818;stroke-width:0.5;" x1="846.5" x2="1194.5" y1="310.5" y2="310.5"/><ellipse cx="856.5" cy="324.1484" fill="#84BE84" rx="3" ry="3" style="stroke:#038048;stroke-width:1.0;"/><text fill="#000000" font-family="sans-serif" font-size="14" lengthAdjust="spacing" textLength="324" x="865.5" y="327.4951">KlantNietGevondenException(klantnummer:int)</text></g><!--class Exception--><g id="elem_Exception"><rect fill="#F1F1F1" height="48" id="Exception" rx="2.5" ry="2.5" style="stroke:#181818;stroke-width:0.5;" width="100" x="1138.5" y="80.5"/><ellipse cx="1153.5" cy="96.5" fill="#ADD1B2" rx="11" ry="11" style="stroke:#181818;stroke-width:1.0;"/><path d="M1156.4688,102.1406 Q1155.8906,102.4375 1155.25,102.5781 Q1154.6094,102.7344 1153.9063,102.7344 Q1151.4063,102.7344 1150.0781,101.0938 Q1148.7656,99.4375 1148.7656,96.3125 Q1148.7656,93.1875 1150.0781,91.5313 Q1151.4063,89.875 1153.9063,89.875 Q1154.6094,89.875 1155.25,90.0313 Q1155.9063,90.1875 1156.4688,90.4844 L1156.4688,93.2031 Q1155.8438,92.625 1155.25,92.3594 Q1154.6563,92.0781 1154.0313,92.0781 Q1152.6875,92.0781 1152,93.1563 Q1151.3125,94.2188 1151.3125,96.3125 Q1151.3125,98.4063 1152,99.4844 Q1152.6875,100.5469 1154.0313,100.5469 Q1154.6563,100.5469 1155.25,100.2813 Q1155.8438,100 1156.4688,99.4219 L1156.4688,102.1406 Z " fill="#000000"/><text fill="#000000" font-family="sans-serif" font-size="14" lengthAdjust="spacing" textLength="68" x="1167.5" y="101.3467">Exception</text><line style="stroke:#181818;stroke-width:0.5;" x1="1139.5" x2="1237.5" y1="112.5" y2="112.5"/><line style="stroke:#181818;stroke-width:0.5;" x1="1139.5" x2="1237.5" y1="120.5" y2="120.5"/></g><!--class OngeldigBtwNummerException--><g id="elem_OngeldigBtwNummerException"><rect codeLine="1" fill="#F1F1F1" height="64.2969" id="OngeldigBtwNummerException" rx="2.5" ry="2.5" style="stroke:#181818;stroke-width:0.5;" width="251" x="1231" y="270.5"/><ellipse cx="1247.8" cy="286.5" fill="#ADD1B2" rx="11" ry="11" style="stroke:#181818;stroke-width:1.0;"/><path d="M1250.7688,292.1406 Q1250.1906,292.4375 1249.55,292.5781 Q1248.9094,292.7344 1248.2063,292.7344 Q1245.7063,292.7344 1244.3781,291.0938 Q1243.0656,289.4375 1243.0656,286.3125 Q1243.0656,283.1875 1244.3781,281.5313 Q1245.7063,279.875 1248.2063,279.875 Q1248.9094,279.875 1249.55,280.0313 Q1250.2063,280.1875 1250.7688,280.4844 L1250.7688,283.2031 Q1250.1438,282.625 1249.55,282.3594 Q1248.9563,282.0781 1248.3313,282.0781 Q1246.9875,282.0781 1246.3,283.1563 Q1245.6125,284.2188 1245.6125,286.3125 Q1245.6125,288.4063 1246.3,289.4844 Q1246.9875,290.5469 1248.3313,290.5469 Q1248.9563,290.5469 1249.55,290.2813 Q1250.1438,290 1250.7688,289.4219 L1250.7688,292.1406 Z " fill="#000000"/><text fill="#000000" font-family="sans-serif" font-size="14" lengthAdjust="spacing" textLength="215" x="1262.2" y="291.3467">OngeldigBtwNummerException</text><line style="stroke:#181818;stroke-width:0.5;" x1="1232" x2="1481" y1="302.5" y2="302.5"/><line style="stroke:#181818;stroke-width:0.5;" x1="1232" x2="1481" y1="310.5" y2="310.5"/><ellipse cx="1242" cy="324.1484" fill="#84BE84" rx="3" ry="3" style="stroke:#038048;stroke-width:1.0;"/><text fill="#000000" font-family="sans-serif" font-size="14" lengthAdjust="spacing" textLength="225" x="1251" y="327.4951">OngeldigBtwNummerException()</text></g><!--class FileOperations--><g id="elem_FileOperations"><rect codeLine="1" fill="#F1F1F1" height="105.1563" id="FileOperations" rx="2.5" ry="2.5" style="stroke:#181818;stroke-width:0.5;" width="345" x="1274" y="52"/><ellipse cx="1392.75" cy="72.1328" fill="#ADD1B2" rx="11" ry="11" style="stroke:#181818;stroke-width:1.0;"/><path d="M1395.7188,77.7734 Q1395.1406,78.0703 1394.5,78.2109 Q1393.8594,78.3672 1393.1563,78.3672 Q1390.6563,78.3672 1389.3281,76.7266 Q1388.0156,75.0703 1388.0156,71.9453 Q1388.0156,68.8203 1389.3281,67.1641 Q1390.6563,65.5078 1393.1563,65.5078 Q1393.8594,65.5078 1394.5,65.6641 Q1395.1563,65.8203 1395.7188,66.1172 L1395.7188,68.8359 Q1395.0938,68.2578 1394.5,67.9922 Q1393.9063,67.7109 1393.2813,67.7109 Q1391.9375,67.7109 1391.25,68.7891 Q1390.5625,69.8516 1390.5625,71.9453 Q1390.5625,74.0391 1391.25,75.1172 Q1391.9375,76.1797 1393.2813,76.1797 Q1393.9063,76.1797 1394.5,75.9141 Q1395.0938,75.6328 1395.7188,75.0547 L1395.7188,77.7734 Z " fill="#000000"/><text fill="#000000" font-family="sans-serif" font-size="12" font-style="italic" lengthAdjust="spacing" textLength="48" x="1438.75" y="68.1387">&#171;static&#187;</text><text fill="#000000" font-family="sans-serif" font-size="14" lengthAdjust="spacing" textLength="99" x="1413.25" y="83.9639">FileOperations</text><line style="stroke:#181818;stroke-width:0.5;" x1="1275" x2="1618" y1="92.2656" y2="92.2656"/><line style="stroke:#181818;stroke-width:0.5;" x1="1275" x2="1618" y1="100.2656" y2="100.2656"/><ellipse cx="1285" cy="113.9141" fill="#84BE84" rx="3" ry="3" style="stroke:#038048;stroke-width:1.0;"/><text fill="#000000" font-family="sans-serif" font-size="14" lengthAdjust="spacing" text-decoration="underline" textLength="307" x="1294" y="117.2607">KlantenInlezen(bestand:string) : List&lt;Klant&gt;</text><ellipse cx="1285" cy="130.2109" fill="#84BE84" rx="3" ry="3" style="stroke:#038048;stroke-width:1.0;"/><text fill="#000000" font-family="sans-serif" font-size="14" lengthAdjust="spacing" text-decoration="underline" textLength="319" x="1294" y="133.5576">ZoekKlantViaNummer(klantnummer:int) : Klant</text><ellipse cx="1285" cy="146.5078" fill="#84BE84" rx="3" ry="3" style="stroke:#038048;stroke-width:1.0;"/><text fill="#000000" font-family="sans-serif" font-size="14" lengthAdjust="spacing" text-decoration="underline" textLength="234" x="1294" y="149.8545">FoutLoggen(fout:Exception) : void</text></g><!--reverse link Klant to ZakelijkeKlant--><g id="link_Klant_ZakelijkeKlant"><path codeLine="5" d="M408.5,220.06 C408.5,241.13 408.5,244.28 408.5,261.63 " fill="none" id="Klant-backto-ZakelijkeKlant" style="stroke:#181818;stroke-width:1.0;"/><polygon fill="none" points="408.5,202.06,402.5,220.06,414.5,220.06,408.5,202.06" style="stroke:#181818;stroke-width:1.0;"/></g><!--reverse link Exception to KlantNietGevondenException--><g id="link_Exception_KlantNietGevondenException"><path codeLine="4" d="M1156.8564,142.4172 C1126.6964,177.6072 1081.12,230.78 1047.32,270.2 " fill="none" id="Exception-backto-KlantNietGevondenException" style="stroke:#181818;stroke-width:1.0;"/><polygon fill="none" points="1168.57,128.75,1152.3007,138.5126,1161.4121,146.3217,1168.57,128.75" style="stroke:#181818;stroke-width:1.0;"/></g><!--reverse link Exception to OngeldigBtwNummerException--><g id="link_Exception_OngeldigBtwNummerException"><path codeLine="4" d="M1212.9351,143.6255 C1226.0351,163.7055 1236.41,178.19 1256.5,202 C1276.87,226.15 1302.11,251.22 1322.13,270.16 " fill="none" id="Exception-backto-OngeldigBtwNummerException" style="stroke:#181818;stroke-width:1.0;"/><polygon fill="none" points="1203.1,128.55,1207.9099,146.9039,1217.9603,140.3471,1203.1,128.55" style="stroke:#181818;stroke-width:1.0;"/></g><!--SRC=[TSf13a0m44RXlLDm0OUGO26flLsZVvhHwMXeSNmXiH6sxti5oSZ98EzOIon3yfmLJnkq0zFay8LtKuJOOfl5GEfZH8WqoslinO8DsIhkAdcFvMziYD47BFgozSOJ]--></g></svg>