<?xml version="1.0" encoding="us-ascii" standalone="no"?><svg xmlns="http://www.w3.org/2000/svg" xmlns:xlink="http://www.w3.org/1999/xlink" contentStyleType="text/css" height="202px" preserveAspectRatio="none" style="width:817px;height:202px;background:#FFFFFF;" version="1.1" viewBox="0 0 817 202" width="817px" zoomAndPan="magnify"><defs/><g><!--class ZakelijkeKlant--><g id="elem_ZakelijkeKlant"><rect codeLine="1" fill="#F1F1F1" height="80.5938" id="ZakelijkeKlant" rx="2.5" ry="2.5" style="stroke:#181818;stroke-width:0.5;" width="803" x="7" y="115"/><ellipse cx="356.75" cy="131" fill="#ADD1B2" rx="11" ry="11" style="stroke:#181818;stroke-width:1.0;"/><path d="M359.7188,136.6406 Q359.1406,136.9375 358.5,137.0781 Q357.8594,137.2344 357.1563,137.2344 Q354.6563,137.2344 353.3281,135.5938 Q352.0156,133.9375 352.0156,130.8125 Q352.0156,127.6875 353.3281,126.0313 Q354.6563,124.375 357.1563,124.375 Q357.8594,124.375 358.5,124.5313 Q359.1563,124.6875 359.7188,124.9844 L359.7188,127.7031 Q359.0938,127.125 358.5,126.8594 Q357.9063,126.5781 357.2813,126.5781 Q355.9375,126.5781 355.25,127.6563 Q354.5625,128.7188 354.5625,130.8125 Q354.5625,132.9063 355.25,133.9844 Q355.9375,135.0469 357.2813,135.0469 Q357.9063,135.0469 358.5,134.7813 Q359.0938,134.5 359.7188,133.9219 L359.7188,136.6406 Z " fill="#000000"/><text fill="#000000" font-family="sans-serif" font-size="14" lengthAdjust="spacing" textLength="95" x="377.25" y="135.8467">ZakelijkeKlant</text><line style="stroke:#181818;stroke-width:0.5;" x1="8" x2="809" y1="147" y2="147"/><ellipse cx="18" cy="160.6484" fill="none" rx="3" ry="3" style="stroke:#038048;stroke-width:1.0;"/><text fill="#000000" font-family="sans-serif" font-size="14" lengthAdjust="spacing" textLength="226" x="27" y="163.9951">BtwNummer : string &#171;get&#187; &#171;set&#187;</text><line style="stroke:#181818;stroke-width:0.5;" x1="8" x2="809" y1="171.2969" y2="171.2969"/><ellipse cx="18" cy="184.9453" fill="#84BE84" rx="3" ry="3" style="stroke:#038048;stroke-width:1.0;"/><text fill="#000000" font-family="sans-serif" font-size="14" lengthAdjust="spacing" textLength="777" x="27" y="188.292">ZakelijkeKlant(klantnummer:int, naam:string, adres:string, gemeente:string, postcode:string, btwNummer:string)</text></g><!--class Klant--><g id="elem_Klant"><rect fill="#F1F1F1" height="48" id="Klant" rx="2.5" ry="2.5" style="stroke:#181818;stroke-width:0.5;" width="66" x="375.5" y="7"/><ellipse cx="390.5" cy="23" fill="#ADD1B2" rx="11" ry="11" style="stroke:#181818;stroke-width:1.0;"/><path d="M393.4688,28.6406 Q392.8906,28.9375 392.25,29.0781 Q391.6094,29.2344 390.9063,29.2344 Q388.4063,29.2344 387.0781,27.5938 Q385.7656,25.9375 385.7656,22.8125 Q385.7656,19.6875 387.0781,18.0313 Q388.4063,16.375 390.9063,16.375 Q391.6094,16.375 392.25,16.5313 Q392.9063,16.6875 393.4688,16.9844 L393.4688,19.7031 Q392.8438,19.125 392.25,18.8594 Q391.6563,18.5781 391.0313,18.5781 Q389.6875,18.5781 389,19.6563 Q388.3125,20.7188 388.3125,22.8125 Q388.3125,24.9063 389,25.9844 Q389.6875,27.0469 391.0313,27.0469 Q391.6563,27.0469 392.25,26.7813 Q392.8438,26.5 393.4688,25.9219 L393.4688,28.6406 Z " fill="#000000"/><text fill="#000000" font-family="sans-serif" font-size="14" lengthAdjust="spacing" textLength="34" x="404.5" y="27.8467">Klant</text><line style="stroke:#181818;stroke-width:0.5;" x1="376.5" x2="440.5" y1="39" y2="39"/><line style="stroke:#181818;stroke-width:0.5;" x1="376.5" x2="440.5" y1="47" y2="47"/></g><!--reverse link Klant to ZakelijkeKlant--><g id="link_Klant_ZakelijkeKlant"><path codeLine="5" d="M408.5,73.04 C408.5,89.81 408.5,94.95 408.5,114.69 " fill="none" id="Klant-backto-ZakelijkeKlant" style="stroke:#181818;stroke-width:1.0;"/><polygon fill="none" points="408.5,55.04,402.5,73.04,414.5,73.04,408.5,55.04" style="stroke:#181818;stroke-width:1.0;"/></g><!--SRC=[Iyv9B2vMY4hCJit9pCfEzSv9p2jHgEPI009jD66DR12PLvgRcrfabPbNegEGbvYOQrLSKfIPbwwZa9XIb5eCvwMdvgQcvfMamWKAyejBalDJ40999UL-4BCW8ffGIvrWuWfM2X0P1HkRzDGIEpiWNGoYkMgv8EwqgT7LHNCa0000]--></g></svg>