<?xml version="1.0" encoding="us-ascii" standalone="no"?><svg xmlns="http://www.w3.org/2000/svg" xmlns:xlink="http://www.w3.org/1999/xlink" contentStyleType="text/css" height="183px" preserveAspectRatio="none" style="width:385px;height:183px;background:#FFFFFF;" version="1.1" viewBox="0 0 385 183" width="385px" zoomAndPan="magnify"><defs/><g><!--class Bmi--><g id="elem_Bmi"><rect codeLine="1" fill="#F1F1F1" height="162.0781" id="Bmi" rx="2.5" ry="2.5" style="stroke:#181818;stroke-width:0.5;" width="364" x="7" y="7"/><ellipse cx="171.75" cy="23" fill="#ADD1B2" rx="11" ry="11" style="stroke:#181818;stroke-width:1.0;"/><path d="M174.7188,28.6406 Q174.1406,28.9375 173.5,29.0781 Q172.8594,29.2344 172.1563,29.2344 Q169.6563,29.2344 168.3281,27.5938 Q167.0156,25.9375 167.0156,22.8125 Q167.0156,19.6875 168.3281,18.0313 Q169.6563,16.375 172.1563,16.375 Q172.8594,16.375 173.5,16.5313 Q174.1563,16.6875 174.7188,16.9844 L174.7188,19.7031 Q174.0938,19.125 173.5,18.8594 Q172.9063,18.5781 172.2813,18.5781 Q170.9375,18.5781 170.25,19.6563 Q169.5625,20.7188 169.5625,22.8125 Q169.5625,24.9063 170.25,25.9844 Q170.9375,27.0469 172.2813,27.0469 Q172.9063,27.0469 173.5,26.7813 Q174.0938,26.5 174.7188,25.9219 L174.7188,28.6406 Z " fill="#000000"/><text fill="#000000" font-family="sans-serif" font-size="14" lengthAdjust="spacing" textLength="26" x="192.25" y="27.8467">Bmi</text><line style="stroke:#181818;stroke-width:0.5;" x1="8" x2="370" y1="39" y2="39"/><ellipse cx="18" cy="52.6484" fill="none" rx="3" ry="3" style="stroke:#038048;stroke-width:1.0;"/><text fill="#000000" font-family="sans-serif" font-size="14" lengthAdjust="spacing" textLength="206" x="27" y="55.9951">Gewicht : double &#171;get&#187; &#171;set&#187;</text><ellipse cx="18" cy="68.9453" fill="none" rx="3" ry="3" style="stroke:#038048;stroke-width:1.0;"/><text fill="#000000" font-family="sans-serif" font-size="14" lengthAdjust="spacing" textLength="198" x="27" y="72.292">Lengte : double &#171;get&#187; &#171;set&#187;</text><ellipse cx="18" cy="85.2422" fill="none" rx="3" ry="3" style="stroke:#038048;stroke-width:1.0;"/><text fill="#000000" font-family="sans-serif" font-size="14" lengthAdjust="spacing" textLength="180" x="27" y="88.5889">Naam : string &#171;get&#187; &#171;set&#187;</text><line style="stroke:#181818;stroke-width:0.5;" x1="8" x2="370" y1="95.8906" y2="95.8906"/><ellipse cx="18" cy="109.5391" fill="#84BE84" rx="3" ry="3" style="stroke:#038048;stroke-width:1.0;"/><text fill="#000000" font-family="sans-serif" font-size="14" lengthAdjust="spacing" textLength="338" x="27" y="112.8857">Bmi(naam:string, gewicht:double, lengte:double)</text><ellipse cx="18" cy="125.8359" fill="#84BE84" rx="3" ry="3" style="stroke:#038048;stroke-width:1.0;"/><text fill="#000000" font-family="sans-serif" font-size="14" lengthAdjust="spacing" textLength="36" x="27" y="129.1826">Bmi()</text><ellipse cx="18" cy="142.1328" fill="#84BE84" rx="3" ry="3" style="stroke:#038048;stroke-width:1.0;"/><text fill="#000000" font-family="sans-serif" font-size="14" lengthAdjust="spacing" textLength="156" x="27" y="145.4795">BerekenBmi() : double</text><ellipse cx="18" cy="158.4297" fill="#84BE84" rx="3" ry="3" style="stroke:#038048;stroke-width:1.0;"/><text fill="#000000" font-family="sans-serif" font-size="14" lengthAdjust="spacing" textLength="169" x="27" y="161.7764">ToonGegevens() : string</text></g><!--SRC=[Iyv9B2vMSChDLAZcKW02RGNtrFBCv8mI1Ik5bFpIf9nK1HkRzDGIEpiWNGoYeSfyKlFIIr89gV9BJCm5gYakAShCIyUX1cYvHXvGdHL4bOv2EiG5LX2JTHHom5P1kPf8kk3irABKxDGyi13SHL2vaFpyFFVKzDIorBnYi2p45gvQ0000]--></g></svg>